<?xml version="1.0" encoding="utf-8"?>
<!-- Generator: Adobe Illustrator 18.0.0, SVG Export Plug-In . SVG Version: 6.00 Build 0)  -->
<!DOCTYPE svg PUBLIC "-//W3C//DTD SVG 1.1//EN" "http://www.w3.org/Graphics/SVG/1.1/DTD/svg11.dtd">
<svg version="1.1" id="Layer_1" xmlns="http://www.w3.org/2000/svg" xmlns:xlink="http://www.w3.org/1999/xlink" x="0px" y="0px"
	 viewBox="0 0 195 200" enable-background="new 0 0 195 200" xml:space="preserve">
<path fill="#FFFDF0" d="M181.3,51.3c-0.7-1.2-1.4-2.4-2.1-3.6C168,29.4,147.3,18,127.9,10.4c-19.6-7.7-42.6-8.6-62.4-1.2
	c-6.1,2.3-11.9,5.4-17.2,9.2C36,27.2,24,37.8,16.6,51.1C-3.7,87.1-0.5,144.8,31.4,173.7c1.5,1.4,3.1,2.7,4.8,4
	c15.5,11.6,34.6,17.4,53.8,18.1c18.5,0.7,37.9-0.9,53.1-12.8c2.7-2.1,5.3-4.3,7.9-6.5C184.7,146.5,204.1,93.2,181.3,51.3z"/>
<g>
	<path fill="#F4876E" d="M173.6,55.8c-0.6-1.1-1.2-2.2-1.9-3.3c-10.2-16.6-29-27-46.6-33.9c-17.8-7-38.7-7.8-56.7-1.1
		c-5.6,2.1-10.8,4.9-15.7,8.3c-11.1,8-21.9,17.6-28.7,29.7C5.6,88.3,8.5,140.7,37.5,166.9c1.4,1.3,2.9,2.5,4.4,3.6
		c14,10.6,31.4,15.8,48.8,16.4c16.8,0.6,34.4-0.8,48.2-11.6c2.4-1.9,4.8-3.9,7.2-5.9C176.7,142.3,194.3,93.9,173.6,55.8z
		 M145.2,165.8c-2.2,2-4.5,3.8-6.8,5.6c-14.5,11.3-34.7,12.5-52.3,10.3c-10.6-1.3-20.8-2.8-30-8.3c-17.1-10.2-31.3-26.3-35.5-46
		c-3.9-18.5-3.3-37.9,1.6-56.1c4.9-17.8,19.1-31.8,33.7-42.2c13.7-9.9,28.8-13.3,45.7-12c13.9,1.1,27.5,5.5,39.3,12.9
		c11,7,21.6,13,28.7,24.5C192.1,91.3,175.1,139.3,145.2,165.8z"/>
	<path fill="#F4876E" d="M52.3,80.6c0.7,0,1.4-0.1,2.2-0.3c0.9-0.2,1.7-0.8,2.5-1.3c0.2-0.1,0.4-0.3,0.6-0.4c1.2-0.7,1.1-1.6,1-1.9
		c-0.2-0.9-1.2-1.5-2.3-1.3c-0.3,0-0.7,0.2-1,0.4c-1,0.6-2.1,1-3.1,1c-1.3,0-2.3-0.6-3.1-1.6c-1.3-1.8-1.5-4.9,0.4-6.4
		c0.7-0.6,1.4-0.8,2.2-0.8c1.1,0,2.2,0.5,3.4,1.1l0.4,0.2c0.9,0.4,2.3,0.1,3-0.6c0.3-0.4,0.5-0.8,0.5-1.3c-0.2-2.4-4.4-3-6.8-3
		c-0.8,0-1.4,0.1-1.9,0.2c-5,1.3-6.3,5.5-5.9,8.7C44.8,76.9,47.7,80.6,52.3,80.6z"/>
	<path fill="#F4876E" d="M63.1,80.7c0.3,0,0.6-0.1,1-0.2c1-0.3,1.6-1.2,1.9-1.8c0.5-0.9,0.9-1.4,1.9-1.4c0.4,0,1-0.1,1.5-0.1
		c0.6-0.1,1.2-0.2,1.8-0.2c0.6,0,1.1,0.1,1.4,0.3c0,0,0,0,0.1,0.1c0.2,0.3,0.3,0.7,0.5,1.1c0.2,0.6,0.4,1.3,0.9,1.6
		c0.6,0.4,1.1,0.6,1.6,0.6c0.5,0,1-0.2,1.3-0.7c0.5-0.7,0.6-2,0.2-3.2c-0.5-1.4-1.2-2.6-1.9-3.8c-0.5-0.9-1.1-1.9-1.5-2.8
		c-0.2-0.5-0.4-1.1-0.6-1.7c-0.4-1.3-0.8-2.6-1.6-3.4c-0.5-0.5-1-0.8-1.5-0.8c-1.3,0-2.1,1.7-2.5,2.6l-2.5,5.2
		c-0.4,0.8-0.8,1.6-1.2,2.3c-0.6,1.1-1.2,2.2-1.7,3.3c-0.4,1.1-0.5,1.9-0.2,2.4C62.2,80.4,62.5,80.7,63.1,80.7z M69.2,70.1
		c0.2-0.2,0.3-0.3,0.5-0.3v-0.4l0,0.4c0.5,0,1,1.3,1.2,1.8c0.1,0.2,0.1,0.3,0.2,0.4c0.1,0.2,0.2,0.4,0.3,0.6
		c0.2,0.3,0.4,0.7,0.3,0.9c0,0.1-0.1,0.2-0.6,0.4c-0.3,0.1-0.8,0.2-1.2,0.2c-0.7,0-1.3-0.2-1.6-0.5c-0.1-0.1-0.2-0.3-0.2-0.5
		C68.1,72.7,68.5,70.9,69.2,70.1z"/>
	<path fill="#F4876E" d="M84.3,80.9c0.6,0,1.3-0.1,1.8-0.1c0.4,0,0.8-0.1,1-0.1c1.7,0,3.5-0.1,5.8-0.3l0.3,0l0.1-0.5
		c0.1-0.8,0.3-1.8-0.2-2.6c-0.1-0.1-0.2-0.2-0.3-0.3c-0.2-0.1-0.6-0.2-1.1-0.2c-0.6,0-1.3,0.1-2,0.2c-0.8,0.1-1.4,0.2-1.9,0.2
		c-2.4-0.3-2.4-1.6-2.4-2c0-1.4,0-2.9,0-4.3l0-4.2c0-0.7,0-2.3-1.4-2.3c-0.2,0-0.5,0-0.7,0.1c-1,0.3-1.7,1.2-1.7,2.4l0,9
		c0,0.2,0,0.6-0.1,0.9c-0.1,1.2-0.2,2.8,0.4,3.4C82.3,80.7,83,80.9,84.3,80.9z"/>
	<path fill="#F4876E" d="M108.5,77.3c-0.2-0.3-0.4-0.3-0.6-0.4c-0.1,0-0.1,0-0.2-0.1c-0.6-0.2-1.5,0-2.2,0.2c-0.2,0-0.4,0.1-0.6,0.1
		c-0.3,0-0.6,0.1-1,0.2c-1,0.3-2.3,0.5-2.8,0.1c-0.5-0.4-0.6-1.8-0.7-2.6l0-0.3c-0.1-1.8,0-3.6,0.2-5.3c0-0.6,0.1-1.2,0.1-1.8
		c0-0.2,0-0.4,0.1-0.6c0.1-0.9,0.3-2.3-1.2-2.7c-1.2-0.3-2.4,0.7-2.5,1.8c-0.1,1.3-0.1,2.6-0.1,3.9l0,1c0,1.4,0,2.7,0,4.1l0,0.3
		c0,0.2,0,0.6-0.1,1c-0.1,1.7-0.2,3,0.2,3.6c0.3,0.4,0.8,0.6,1.8,0.6c0.4,0,0.8,0,1.2-0.1c0.3,0,0.5,0,0.7,0h0.2c0.8,0,1.5,0,2.3,0
		c0.6,0,1.3,0,1.9,0l0.4,0c1.2,0,3,0.1,3.5-0.9c0.3-0.5,0.2-1.2-0.3-2.1C108.6,77.4,108.5,77.3,108.5,77.3z"/>
	<path fill="#F4876E" d="M127.5,77.4c0-0.3-0.1-0.7-0.1-1v-4.6c0-0.3,0-0.7-0.1-1.1c-0.1-1-0.2-2,0.5-2.5c0.4-0.3,0.9-0.3,1.4-0.3
		l0.7,0c0.2,0,0.5,0,0.8-0.1c0.3-0.1,0.7-0.2,0.9-0.4c0.6-0.4,0.9-1,0.8-1.5c-0.1-0.6-0.5-1.2-1.2-1.4c-0.4-0.2-0.9-0.2-1.3-0.2
		l-0.3,0c-3.1,0.1-6.2,0.1-9.3,0.2c-0.3,0-0.7,0-1,0.2c-0.5,0.3-0.9,0.9-0.9,1.6c0,0.6,0.1,1.1,0.4,1.4c0.4,0.4,1,0.5,1.5,0.5
		c0.2,0,0.4,0,0.7,0c0.2,0,0.3,0,0.5,0h0.1c2.1,0,2.2,0.7,2.2,3c0,1.6,0,3.3-0.1,5c0,0.3-0.1,0.6-0.1,0.9c-0.2,1.1-0.5,2.4,0.2,3.2
		c0.4,0.5,1.1,0.8,1.7,0.8c0.6,0,1.2-0.2,1.5-0.7C127.8,79.5,127.6,78.4,127.5,77.4z"/>
	<path fill="#F4876E" d="M151.6,72.8c0.1-2.1-0.8-4.2-2.3-5.7c-0.5-0.5-1.1-1-1.8-1.4c-1.1-0.6-2.2-1.1-3.3-1.2
		c-0.4-0.1-0.8-0.1-1.2-0.1c-4.6,0-7.1,4.4-7.1,8.6c0,2.1,0.6,4.1,1.8,5.5c1.3,1.6,3.2,2.5,5.6,2.5C147.6,81,151.5,77.2,151.6,72.8z
		 M147.6,74.1c-0.7,1.6-2.4,2.8-4.2,2.8c-1,0-1.9-0.4-2.7-1.1c-1-1-1.5-2.5-1.2-3.9c0.2-1.3,1-2.2,2.1-2.8c0.5-0.2,1.1-0.3,1.7-0.3
		c1.3,0,2.7,0.6,3.5,1.4c0.7,0.7,1,1.6,1,2.5C147.9,73.2,147.8,73.7,147.6,74.1z"/>
	<path fill="#F4876E" d="M69.7,102.7c-0.2-4.2-4.3-8.1-8.7-8.1c-1.1,0-2.1,0.2-3.1,0.7c-3.1,1.5-5.1,4.9-4.8,8.3
		c0.4,4.7,4.6,6.9,8.3,6.9c3.4,0,6.3-1.7,7.6-4.5C69.5,104.9,69.7,103.8,69.7,102.7z M65,103.4c-0.6,2.1-2.4,3.5-4.3,3.5
		c-0.8,0-1.5-0.2-2.2-0.6c-1.2-0.7-1.9-2-1.8-3.5c0.1-1.7,1-3.3,2.5-4.1c0.6-0.3,1.2-0.5,1.9-0.5c1.1,0,2.2,0.5,3,1.4
		c0.8,0.9,1.2,2,1.1,3.1C65.2,102.9,65.1,103.2,65,103.4z"/>
	<path fill="#F4876E" d="M86.9,110.5c0.1-0.1,0.3-0.2,0.3-0.3c0.1-0.5-0.3-1.2-1.7-3.3c-0.2-0.3-0.4-0.5-0.4-0.6
		c-0.3-0.8-0.1-1,0.3-1.5c0.3-0.3,0.6-0.6,0.9-1.1c1.6-2.6,1.2-4.5,0.6-5.6c-1.5-2.7-5.5-3.9-8.6-3.9c-2.9,0-4.7,1-4.8,2.7
		c-0.1,1-0.1,2-0.2,3c-0.2,2-0.3,4.1-0.3,6.2c0,0.1,0,0.3,0,0.5c0,1.7,0.1,3.5,0.9,4.1c0.3,0.2,0.6,0.3,1.2,0.3c0.8,0,2.2-0.3,2.6-1
		c0.2-0.4,0.2-0.8,0.1-1.3c0-0.2,0-0.5,0-0.6c0.3-1.4,0.8-1.4,1.1-1.4c0.3,0,0.8,0.1,1.3,0.4c0.2,0.1,0.4,0.2,0.6,0.4
		c0.4,0.3,0.6,0.7,0.9,1.2c0.3,0.5,0.5,1,1,1.3c0.7,0.5,1.7,0.9,2.7,0.9C85.9,110.8,86.4,110.7,86.9,110.5z M81.9,102.9
		c-1.3,1-3.1,1.3-4.2,0.4c-0.7-0.7-0.6-1.9-0.4-3c0-0.3,0.1-0.5,0.1-0.8c0.1-1.4,0.5-1.4,1.2-1.4c0.2,0,0.5,0,0.7,0c0.3,0,0.7,0,1,0
		c2.5,0,2.8,1.7,2.8,2.7C83.2,101.5,82.7,102.3,81.9,102.9z"/>
	<path fill="#F4876E" d="M96.4,110.8c0.6,0,1.2,0,1.7-0.1c0.2,0,0.5-0.1,0.7-0.1c4.5-0.8,6.9-3.7,6.6-7.7c-0.4-4.4-4.5-9.4-9.3-9.4
		c-1.5,0-3,0.5-4.3,1.4c-1.8,1.2-1.3,4.5-1,6.3c0.2,1.3,0.2,2.7,0.2,4.1c0,1.2,0,2.4,0.1,3.6c0.2,1.7,0.8,1.8,2.1,1.8l1.1,0.1
		C95,110.8,95.7,110.8,96.4,110.8z M95.1,98.5c0.2-0.2,0.5-0.3,1-0.3c0.3,0,0.5,0,0.8,0.1c0.3,0,0.5,0.1,0.8,0.1
		c2.3,0,4.3,2,4.3,4.4c0,1.8-1.1,3.5-2.6,4.1c-0.3,0.1-0.9,0.3-1.4,0.4c-0.4,0.1-1.1,0.2-1.6,0.2c-0.7,0-1-0.1-1-0.2
		c-0.1-0.1-0.1-0.1-0.1-0.1c0,0,0-0.1,0-0.1c0-0.1,0-0.3-0.1-0.5c-0.1-0.6-0.1-1.3-0.1-2.1c0-0.3,0-0.7,0-1c0-0.3,0-0.7-0.1-1.1
		C94.7,101.1,94.5,99.1,95.1,98.5z"/>
	<path fill="#F4876E" d="M119.2,110.9c0.5,0,0.9,0,1.3-0.1l0.3,0c0.5,0,0.9-0.1,1.3-0.7c0.4-0.7,0.3-2-0.2-2.6
		c-0.1-0.1-0.2-0.2-0.2-0.2c-0.3-0.2-0.7-0.3-1.3-0.3c-0.6,0-1.3,0.1-1.9,0.2c-0.4,0.1-0.8,0.1-1,0.1c-0.2,0-0.6,0-0.9,0.1
		c-0.5,0-1.2,0.1-1.7,0.1c-0.8,0-1.1-0.1-1.2-0.2c-0.3-0.2-0.5-0.8-0.3-1.5c0.2-0.6,0.6-1.2,1.1-1.3c0.6-0.1,1.2,0,1.9,0.1
		c1,0.1,2.1,0.2,2.8,0c0.5-0.1,0.9-0.5,1.1-1c0.2-0.5,0.3-1,0.1-1.4c-0.2-0.6-0.6-0.8-1.2-0.8c-0.2,0-0.4,0-0.6,0.1
		c-0.1,0-0.2,0-0.3,0l-0.3,0c-0.6,0.1-1.3,0.2-2,0.2c-1.2,0-2-0.3-2.5-0.8c-0.5-0.6-0.5-2,0-2.5c0.2-0.3,0.6-0.3,1.1-0.2
		c0.2,0,0.3,0,0.5,0l1.5,0l3.1,0c0.6,0,1.3,0,1.8-0.8c0.4-0.7,0.5-1.2,0.2-1.7c-0.4-0.9-1.7-1-2.2-1c-1.8-0.1-3.3-0.1-4.7-0.2
		c-0.2,0-0.5,0-0.8,0c-0.5,0-1-0.1-1.5-0.1c-1.3,0-2.1,0.2-2.6,0.6c-1,1-0.7,3.6-0.4,5.6c0.1,0.6,0.1,1.2,0.2,1.5c0,1.3,0,2.6,0,3.8
		c0,0.3-0.1,0.7-0.1,1.2c-0.1,0.8-0.3,1.7,0,2.4c0.4,1.1,1.3,1.2,1.9,1.2c0.2,0,0.4,0,0.7,0c0.2,0,0.4,0,0.6,0h0.1
		c0.6,0,1.2,0.1,1.9,0.1c0.5,0,1,0.1,1.5,0.1c0.3,0,0.7,0,1,0.1C117.9,110.9,118.5,110.9,119.2,110.9z"/>
	<path fill="#F4876E" d="M138,111c0.6,0,0.9-0.3,1-0.5c0.2-0.4,0.1-1.1-0.5-1.9l-0.2-0.2c-1.1-1.5-1.5-2.1-1.7-2.4
		c1.5-1,2.6-2.7,3-4.4c0.3-1.5,0-2.9-0.8-4c-1.7-2.3-5-2.9-7.5-3.1c-0.2,0-0.4,0-0.6-0.1c-0.5,0-1.1-0.1-1.8-0.1
		c-1.5,0-2.4,0.4-2.8,1.1c-0.2,0.4-0.2,1-0.1,1.5c0,0.2,0,0.3,0,0.5c-0.1,1.8-0.1,3.6-0.2,5.3c0,0.1,0,0.3,0,0.5
		c-0.4,6.8,0,7.4,0.6,7.5c1.5,0.2,2.4,0,2.9-0.5c0.4-0.4,0.6-1,0.6-1.7l0-0.1c0-0.9,0-1.3,0-1.6c0,0,0,0,0,0c0.2,0,0.5,0,0.7,0
		c0.2,0,0.5,0,0.7,0c0.6,0,1,0.1,1.3,0.2c0.1,0,0.1,0.1,0.2,0.1c0.6,0.3,1,1,1.4,1.6c0.2,0.2,0.3,0.5,0.4,0.7
		C135.4,110.3,137,111,138,111z M132,103.6c-0.7,0-1.3-0.2-1.6-0.6c-0.3-0.3-0.4-0.7-0.4-1.3c0-0.4-0.1-0.8-0.1-1.2
		c-0.1-0.7-0.2-1.4,0-1.9c0.2-0.5,0.5-0.6,1.2-0.6c0.3,0,0.5,0,0.8,0.1c0.3,0,0.6,0.1,0.9,0.1c2.5,0,2.8,1.7,2.8,2.7
		c0,0.8-0.4,1.5-1.1,2C133.7,103.3,132.8,103.6,132,103.6z"/>
	<path fill="#F4876E" d="M47.2,126.5c0-0.4-0.6-0.8-0.9-0.8c-0.6,0.1-1.3,0.9-1.7,1.3c-1,1-1.6,2.4-1.6,3.9c0,1.3,0.5,2.6,1.4,3.6
		c0.4,0.5,1,1.2,1.6,1.4c1.1,0.4,1.2,0,0.9-0.5c-0.3-0.6-1-1.4-1.2-1.7c-0.4-0.6-0.7-1.3-0.9-2c-0.3-1.5,0.1-3,1.1-4.1
		C46.1,127.4,47.1,126.7,47.2,126.5z"/>
	<path fill="#F4876E" d="M49.5,127.3c-0.2,0.4-0.3,0.9-0.3,1.3c0.1,1.5,1.5,2.9,3,2.9c0.9,0,2.5-1.1,2.3,0.3
		c-0.3,1.9-3.1,1.6-4.1,0.7c-0.3,0.4-0.5,0.9-0.8,1.3c1.2,0.7,2.7,1.3,4.2,0.8c2.8-1,3.4-5.2,1.9-7.5
		C54.3,125.2,50.6,125.1,49.5,127.3z M51.1,129.2c-0.6-1.4,1.1-2.4,2.3-2c1,0.3,1.3,0.9,1.2,1.4C54.3,130,51.9,131.2,51.1,129.2z"/>
	<path fill="#F4876E" d="M64.9,128.2c0-0.7,0.3-2.2-0.3-2.5c-0.5-0.2-1.2,0.2-1.5,0.6c-0.6,0.6-1.1,1.3-1.6,1.9
		c-0.5,0.6-1.1,1.3-1.6,1.9c-0.2,0.2-1.6,1.5-1.6,1.8c0.2,1.5,2.7,0.7,3.7,0.8c1.1,0.2,1.7-0.1,1.4,1.3c-0.2,0.9,0.8,1.1,1.5,0.3
		c0.2-0.2,0-1,0.2-1.3c0.3-0.4,0.9-0.3,1.1-0.7c0.1-0.1,0.1-1.2,0-1.2C64.4,131.2,64.9,129.4,64.9,128.2z M63.5,131.2
		c-0.7,0.7-3.6,0.4-2.8-0.9c0.2-0.4,0.5-0.7,0.8-1c0.4-0.4,1.3-1.2,1.8-1C64,128.5,63.9,130.8,63.5,131.2z"/>
	<path fill="#F4876E" d="M71.5,125.6c-1.6,0-3.5,1-3.6,2.8c0,0.1,0,0.2,0,0.2c0.1,1.5,1.5,2.9,3,2.9c0.6,0,1.1-0.2,1.6-0.4
		c0.6-0.2,0.9-0.3,0.6,0.4c-0.1,0.3-0.2,0.6-0.4,0.9c-0.4,0.5-0.9,0.8-1.6,0.8c-0.6,0-1.1-0.2-1.7-0.4c-0.5-0.1-1.3,0.5-1.2,1.1
		c0.2,0.6,1.9,0.9,2.4,0.9c1,0.1,2.2-0.1,3-0.8c1.2-1.1,1.4-2.8,1.4-4.3C75,127.6,73.6,125.6,71.5,125.6z M72.8,129.5
		c-0.5,0.7-1.7,0.8-2.4,0.4c-1.5-0.9-0.3-3,1.2-2.8c0.8,0.1,1.4,0.8,1.5,1.5C73.1,129,73.1,129.3,72.8,129.5z"/>
	<path fill="#F4876E" d="M78,125.7c-0.5-0.2-0.8,0.3-0.7,0.7c0,0,0,0,0,0.1c0.2,0.5,0.8,0.9,1.1,1.3c1.8,2,1.6,5.4-0.7,6.9
		c-0.3,0.2-0.8,0.7-0.5,1.1c0.1,0.2,0.4,0.3,0.6,0.3c0.2,0,0.5-0.1,0.7-0.3c3-1.8,3.7-6.1,1.3-8.7C79.3,126.6,78.7,125.9,78,125.7z"
		/>
	<path fill="#F4876E" d="M91.2,129.2c0.2-0.4,0.4-0.7,0.4-1.2c0-0.1,0-0.3,0-0.4c-0.2-1-1.1-1.7-2-1.9c-1.7-0.4-4.6,0.5-4,2.8
		c0.1,0.3,0.3,0.7,0.5,1c0.3,0.5,0.4,0.4,0,0.9c-0.5,0.6-1,1.3-1,2.2c0,0.8,0.6,1.5,1.4,1.9c1.2,0.6,2.9,0.5,4.2-0.1
		c1-0.5,1.9-1.7,1.4-2.8C91.7,130.6,90.6,130.2,91.2,129.2z M87.4,127.4c0.6-0.6,2-0.6,2.5,0.2c0.4,0.8-0.2,1.5-1,1.6
		c-0.6,0.1-1.8-0.3-1.9-1.1C87,127.9,87.1,127.7,87.4,127.4z M89.7,133.1c-0.5,0.3-1.1,0.3-1.7,0.1c-0.9-0.2-1.9-1.2-0.9-2
		c0.5-0.4,1.5-0.7,2.1-0.5c0.5,0.1,1,0.5,1.1,1c0,0.1,0,0.2,0,0.3C90.4,132.5,90.1,132.9,89.7,133.1z"/>
	<path fill="#F4876E" d="M99.3,125.7c-1.4-0.1-2.8,0-4.2,0c-0.5,0-1.2,0.1-1.3,0.6c-0.1,0.3,0.2,0.6,0.5,0.8c0.3,0.1,0.7,0.1,1,0.1
		c0.7,0,1.5-0.4,2.2-0.1c0.9,0.4,0.1,1.4-0.2,2c-0.6,1.2-1.3,2.3-1.9,3.5c-0.2,0.4-0.9,1.2-0.7,1.7c0.2,0.4,0.7,0.5,1.1,0.4
		c0.6-0.1,0.8-0.6,1-1c0.7-1.2,1.4-2.4,2-3.6c0.4-0.8,0.7-1.5,1-2.3c0.2-0.5,1-1.4,0.6-2C100.2,125.6,99.7,125.7,99.3,125.7z"/>
	<path fill="#F4876E" d="M107.9,130c-0.3-0.1-0.7-0.2-0.9-0.5c0-0.1-0.1-0.1-0.1-0.2c0-0.5,0.7-1.2,0.9-1.5c0.3-0.4,1.6-1.6,0.9-2.1
		c-0.1-0.1-0.6,0-0.7,0c-0.7,0-1.4,0-2.2,0c-1.1,0-2.2,0-3.3,0c0,0.4-0.2,1.3,0.1,1.6c0.3,0.2,1.5,0,1.8,0c0.5,0,1.8-0.3,1.3,0.6
		c-0.3,0.5-0.9,0.8-1.2,1.3c-0.4,0.7-0.4,1.3,0.5,1.4c0.3,0,0.7,0,1,0.1c0.6,0.2,1.1,0.5,1.1,1.2c0,1.5-2.3,1.4-3.2,1.1
		c-0.4-0.1-0.9-0.2-1.3,0c-0.5,0.3-0.7,1-0.2,1.3c0.5,0.3,1.3,0.3,1.8,0.4c0.7,0.1,1.4,0.1,2.1-0.1c1.4-0.3,2.5-1.2,2.5-2.7
		C109,131.1,108.6,130.4,107.9,130z"/>
	<path fill="#F4876E" d="M112.4,129.6c-0.4,0-1.3-0.1-1.6,0.2c-0.2,0.2-0.2,1.1-0.1,1.3c0.3,0.4,1.3,0.2,1.7,0.2
		c0.6,0,1.4,0.2,2-0.1c0.1-0.1,0.2-0.1,0.2-0.2c0.1-0.1,0.1-0.2,0.1-0.5C115,129.4,113.2,129.6,112.4,129.6z"/>
	<path fill="#F4876E" d="M123,129.5c0.1-0.5,0.6-0.9,0.6-1.5c0-0.2,0-0.5-0.1-0.7c-0.5-1.3-2.5-1.9-3.8-1.6
		c-1.3,0.2-2.5,1.4-2.2,2.7c0.1,0.5,0.8,0.9,0.8,1.3c0,0.4-0.6,0.7-0.8,1c-1.1,1.7,0,3.4,1.8,3.9c1.6,0.4,3.9,0.2,4.6-1.5
		c0.2-0.6,0.2-1.3,0-1.9C123.6,130.5,122.9,130.3,123,129.5z M120.5,127c2,0,1.5,2.6-0.3,2.2c-0.8-0.2-1.1-0.7-1.1-1.1
		C119.2,127.6,119.7,127,120.5,127z M120.5,133.4c-2-0.1-2-2.6,0-2.6c1.1,0,1.7,0.6,1.7,1.3C122.3,132.7,121.7,133.4,120.5,133.4z"
		/>
	<path fill="#F4876E" d="M131.8,130.1c-0.5-0.3-0.9-0.5-1-0.8c-0.1-0.2,0-0.4,0.2-0.8c0.4-0.6,0.9-1,1.3-1.6
		c0.2-0.2,0.3-0.5,0.3-0.7c-0.1-0.3-0.5-0.4-0.8-0.4c-1.4-0.1-2.8-0.1-4.2-0.2c-0.5,0-1.1,0-1.3,0.5c-0.2,0.5,0.3,0.9,0.7,1.1
		c0.5,0.1,1,0,1.4-0.1c0.4,0,0.9,0,1,0.4c0.1,0.3,0,0.7-0.3,0.9c-0.2,0.2-0.5,0.4-0.7,0.7c-0.2,0.2-0.4,0.6-0.4,0.9
		c0.1,0.4,0.4,0.7,0.8,0.7c0.6,0.1,1.2-0.3,1.7,0.2c0.4,0.3,0.4,0.9,0.3,1.3c-0.2,0.5-0.8,0.9-1.4,1s-1.2,0-1.7-0.1
		c-0.3-0.1-0.6-0.1-0.9-0.1c-0.3,0-0.6,0.2-0.7,0.4c-0.2,0.4,0.1,0.8,0.4,1c0.3,0.2,0.7,0.2,1.1,0.2c1.2,0.1,2.4,0.1,3.5-0.4
		c1.1-0.5,1.9-1.7,1.6-2.8C132.7,130.8,132.2,130.4,131.8,130.1z"/>
	<path fill="#F4876E" d="M141.5,131.2c-0.3-0.1-0.3-0.3-0.4-0.6c-0.1-0.6-0.1-1.1-0.1-1.7c0-1.1,0.8-3.9-1-3.1
		c-0.4,0.2-1,0.4-1.3,0.7c-0.6,0.6-1,1.5-1.5,2.1c-0.6,0.7-1.2,1.4-1.8,2.1c-0.6,0.7-1,0.9-0.6,1.9c0,0.1,2,0,2.2,0
		c0.5,0,1.7-0.2,2.2,0c0.5,0.3,0.1,1.3,0.3,1.7c0.2,0.3,1.3,0.6,1.7,0.2c0.2-0.3,0-1.5,0-1.8c0.4,0.1,0.8,0,1.1-0.3
		c0.2-0.2,0.4-0.8,0.1-1.1C142.2,131.2,141.8,131.3,141.5,131.2z M139.5,131.2c-0.3,0.2-1.7,0.3-1.9,0c-0.2-0.3,0.2-1.1,0.4-1.4
		c0.3-0.4,1.1-1.2,1.6-0.6C139.9,129.5,139.8,130.9,139.5,131.2z"/>
	<path fill="#F4876E" d="M151.7,131.2c-0.4-0.3-0.8,0-1-0.6c-0.2-0.7,0.1-1.7,0.1-2.5c0-0.5,0.3-2.2-0.2-2.5
		c-0.5-0.3-1.4,0.3-1.8,0.7c-1.4,1.6-2.8,3.3-4.2,4.9c-0.7,0.9-0.4,1.4,0.7,1.4c0.6,0,1.2,0,1.8,0c0.4,0,1.2-0.2,1.5,0.1
		c0.5,0.4,0,1.4,0.6,1.8c0.4,0.3,1.3,0.1,1.5-0.2c0.2-0.3,0-1.2,0.1-1.6c0.4,0,0.9,0.1,1.2-0.2c0.2-0.2,0-1-0.2-1.3
		C151.7,131.3,151.7,131.2,151.7,131.2z M149,131.1c-0.3,0.4-1.3,0.4-1.7,0.1c-0.5-0.4-0.2-0.8,0.2-1.2c0.4-0.6,0.9-1.3,1.5-0.5
		C149.2,129.9,149.2,130.7,149,131.1z"/>
</g>
</svg>
