<?xml version="1.0" encoding="utf-8"?>
<!-- Generator: Adobe Illustrator 19.0.0, SVG Export Plug-In . SVG Version: 6.00 Build 0)  -->
<!DOCTYPE svg PUBLIC "-//W3C//DTD SVG 1.1//EN" "http://www.w3.org/Graphics/SVG/1.1/DTD/svg11.dtd">
<svg version="1.1" id="Layer_1" xmlns="http://www.w3.org/2000/svg" xmlns:xlink="http://www.w3.org/1999/xlink" x="0px" y="0px"
	 viewBox="0 0 58 58" enable-background="new 0 0 58 58" xml:space="preserve">
<g>
	<path id="XMLID_17_" fill="#476AB2" d="M21.6,42.1c-1.6-0.4-3.2-1.2-4.7-1.9c-0.4-0.2-0.5-0.4-0.9-0.1c-0.2,0.2-0.4,0.5-0.5,0.8
		c-0.1,0.5,0.1,1.1,0.3,1.5c0.5,1.1,1.2,2.2,2.3,2.7c1.8,0.9,9,2.1,13.3,1.4c0.3-0.1,0.6-0.1,0.9-0.2c2.4-0.8,4.4-2.5,6.2-4.1
		c1.7-1.6,3.7-3.3,4.1-5.7c0-0.3,0.5-2.1,0.4-2.1c-0.5-0.3-0.9-0.6-1.6-0.4c-0.8,0.3-1.5,1.1-2.1,1.6c-0.8,0.6-1.6,1.3-2.4,1.9
		c-1.6,1.3-3.3,2.5-5.1,3.5c-0.1,0-0.2,0.1-0.3,0.1C29.7,42.5,23.7,42.6,21.6,42.1z"/>
	<path id="XMLID_16_" fill="#476AB2" d="M44.3,35c0,0-0.2-0.1-0.2,0c0,0-0.4,2.4-0.8,3.2c-0.3,0.8-1.2,1.6-3.5,4.2
		c-2.3,2.6-6.1,4.5-8.5,5c-1,0.2-4.3,0.5-9.3-0.4c-5-0.9-5.9-3-6.1-3.4c-0.3-0.6-0.6-1.3-0.7-2c-0.1-0.5,0-1,0.3-1.4
		c0.1-0.1,0.6-0.6,0.5-0.7c0.1-0.2-0.6-1.2-0.7-1.4c-0.3-0.7-0.4-1.4-0.5-2.2c-0.1-0.4-0.5-0.6-0.8-0.3c-1.1,1.4,0.5,3.3,0.3,4.8
		c-0.2,1.4,0.3,2.9,0.8,4.1c1,2.4,7.9,4.9,10.8,5.1c7,0.5,10.8-2.6,13.5-4.5c1.5-1.1,2.7-2.5,3.7-4.1c0.4-0.7,0.9-1.3,1.1-2.1
		c0.2-0.8,0.2-1.6,0.3-2.4C44.4,36.4,44.7,35.2,44.3,35z"/>
	<path id="XMLID_15_" fill="#476AB2" d="M43.1,33.4l1.3,0.9c0-1-0.8-1.2-0.9-1.2C43.3,33.1,43.1,33.4,43.1,33.4z"/>
	<path id="XMLID_14_" fill="#476AB2" d="M16.9,19.4c0.5,0.7,1.3,1.1,2.1,1.5c0.7,0.3,1.5,0.5,2.3,0.5c0.1,0,0.1,0,0.2,0
		c1-0.1,2.6-1.1,3.1-1.9c0.1-0.2,0.1-0.9,0.5-0.5l0.1,0.9c0.1,0,0.3,0,0.4-0.1c0.4-0.2,0.9-0.4,1.3-0.7c0.6-0.3,1.4-0.6,1.7-1.3
		c0.2-0.3,0.3-1,0.3-1.7c0-0.7,0.1-1.7-0.2-2.3c-1.2-3.5-2.6-4.5-5-5.4c-0.7-0.3-1.5-0.4-2.2-0.1c-0.4,0.2-0.7,0.5-1.1,0.5
		c-0.3,0-0.7-0.2-1,0C19.1,9,19,9.5,18.7,9.7c-0.4,0.3-0.9,0.2-1.4,0.5c-0.3,0.2-0.4,0.5-0.6,0.7c-0.8,1.6-1.5,3.5-1,5.2
		C16.1,17.3,16.1,18.5,16.9,19.4z"/>
	<path id="XMLID_13_" fill="#476AB2" d="M22.7,23.2c0.2-0.2,0.5-1.1,0.5-1.1c0.2-0.1,0.1-0.5-0.3-0.3c-0.1,0-0.2,0.1-0.3,0.2
		c-0.5,0.4-0.7,0.3-1.1,1.1c-0.1,0.1-0.4,0.6-0.4,0.6c-0.4,0.4-0.8,1.4-0.5,2c0,0.1,0.2,0.4,0.3,0.4c0.1,0,0.1,0,0.2,0
		c0.9-0.3,1.7-0.7,2.5-1.3c0.3-0.2,0.6-0.4,0.8-0.8c0.2-0.3,0.2-0.8,0.3-1.1c0-0.6,0-1.2,0-1.8c0.1,0,0.1,0.1,0.2,0.1
		c0.4,0.3,0.7,0.6,1.1,0.8c0.5,0.3,1,0.4,1,0.4c0.2-0.3,0.3-0.6,0.3-0.7c0,0-0.1-0.2-0.1-0.2c0,0-0.3-0.1-0.5-0.1
		c-0.5-0.1-0.9-0.2-1.3-0.5c-0.2-0.3-0.4-0.6-0.7-0.8c-0.2-0.1-0.5,0-0.6,0.3c0,0,0,0.1,0,0.1c-0.2,0.7-0.3,1.6-0.6,2.3
		c-0.1,0.2-0.2,0.7-0.2,0.7s-0.8,0.7-0.9,0.8c-0.2,0.1-0.1-0.3,0-0.4C22.5,23.6,22.4,23.5,22.7,23.2z"/>
	<path fill="#476AB2" d="M33.9,22.8c0,0.3,0,0.6,0.1,0.8c0.1,0.3,0.1,0.7,0.2,1.1c0,0.1,0,0.1,0,0.2c0,0,0.1,0,0.1-0.1
		c0.1,0,0.1,0,0.2,0c0,0,0.1,0.1,0.1,0.2c0,0.1,0,0.1,0,0.2c-0.1,0.1-0.2,0.1-0.2,0.2c0.1,0.4,0.2,0.8,0.5,1.1
		c0.2,0.3,0.6,0.4,0.9,0.4c0.2,0,0.4,0,0.6,0c0.5-0.1,1.2-0.2,1.6-0.6c0.2-0.2,0.6-0.5,1.1-0.8c0,0,0-0.1,0-0.1c0-0.1,0-0.1,0.1-0.2
		c0.1-0.1,0.2-0.1,0.2,0c0,0,0,0,0.1,0.1c0.4-0.3,0.9-0.6,1.3-1c-0.1,0-0.2-0.1-0.2-0.1c0,0,0,0,0-0.1c0,0,0,0,0,0c0,0,0,0,0,0
		c0,0,0,0,0-0.1c0.1-0.1,0.4-0.2,0.6-0.1c0,0,0.1,0,0.1,0.1c0.6-0.5,1.1-0.9,1.2-1.1c0.1-0.2,0.2-0.4,0.3-0.6c-0.1,0-0.3,0-0.3,0
		c0,0,0,0,0,0c0,0,0,0,0,0c0-0.1,0-0.3,0-0.3c0-0.1,0.1-0.1,0.2-0.2c0.1,0,0.3,0,0.3,0c0,0,0,0,0.1,0c0.1-0.2,0.1-0.4,0.2-0.5
		c0.1-0.4,0.2-0.9,0-1.2c-0.2-0.5-0.7-0.8-1.1-1.1c-0.1-0.1-0.9-0.6-1-0.3c-0.1,0.2,0.2,0.4,0.3,0.6c0.1,0.1,0.6,0.4,0.4,0.6
		c-0.2,0.3-0.7-0.3-0.8-0.5c0,0-0.1-0.1-0.1-0.1c-0.1-0.1-0.2-0.2-0.2-0.3c-0.1-0.2-0.2-0.5-0.5-0.6c-0.6-0.3-1.2-0.6-1.8-0.8
		c-0.3-0.1-0.6-0.2-0.9-0.2c0,0.1-0.1,0.3-0.2,0.3c-0.1,0.1-0.2,0.1-0.3,0.1c0,0,0,0,0,0c0,0,0-0.3,0-0.5c-0.4,0-0.8,0-1.1,0.1
		c-0.5,0.1-0.8,0.5-1.1,0.9c-0.1,0.1-0.2,0.2-0.3,0.4c0.1,0,0.1,0,0.2,0.1c0.1,0.1,0.2,0.2,0.1,0.3c0,0.2-0.2,0.3-0.4,0.4
		c0,0-0.1,0-0.1,0c0,0,0,0-0.1,0c0,0,0,0,0,0c0,0,0,0-0.1-0.1c0,0,0,0,0,0c0,0.1-0.1,0.2-0.1,0.3c-0.2,0.8-0.1,1.6-0.1,2.5
		C33.9,22,33.9,22.4,33.9,22.8z M42.1,19.8c0.1-0.1,0.3-0.1,0.5,0c0.1,0.1,0.2,0.2,0.1,0.3c0,0.2-0.2,0.3-0.4,0.4c0,0-0.1,0-0.1,0
		c0,0,0,0-0.1,0c0,0,0,0,0,0c0,0-0.1,0-0.1-0.1C42.1,20.4,42,20,42.1,19.8z M39.6,22.5c0-0.1,0.1-0.2,0.2-0.2c0.1,0,0.1,0,0.2,0
		c0,0,0.1,0.1,0.1,0.2c0,0.1,0,0.2,0,0.2C40,23,39.7,23,39.7,23c0,0,0,0-0.1,0c0,0,0,0,0,0C39.6,22.9,39.6,22.7,39.6,22.5z
		 M39.4,20.1c0.1,0,0.1,0.1,0.2,0.2c0,0.1-0.1,0.3-0.2,0.4c-0.1,0.1-0.3,0.1-0.4,0.1l0,0c0,0,0,0,0,0c-0.1,0-0.1-0.1-0.1-0.2
		c0-0.2,0.1-0.4,0.2-0.5C39.2,20,39.3,20,39.4,20.1z M38.4,18.2c0-0.1,0.1-0.2,0.2-0.2c0.1,0,0.2,0,0.2,0c0.1,0,0.1,0.1,0.2,0.2
		c0,0.1,0,0.2,0,0.3c-0.1,0.2-0.5,0.3-0.5,0.3c0,0,0,0-0.1,0c0,0,0,0,0-0.1C38.4,18.7,38.4,18.4,38.4,18.2z M37.1,22.4
		c0.2-0.2,0.6,0,0.4,0.3c0,0.1-0.1,0.1-0.2,0.2c-0.1,0-0.1,0.1-0.2,0c0,0,0,0-0.1,0C36.9,22.8,37,22.5,37.1,22.4z M36.8,24.5
		c0.1-0.1,0.3-0.1,0.4-0.1c0.1,0,0.1,0.1,0.2,0.2c0.1,0.2,0,0.3-0.1,0.4c-0.1,0.1-0.3,0.1-0.5,0.1l0,0c-0.1-0.1-0.2-0.1-0.2-0.2
		C36.6,24.8,36.6,24.7,36.8,24.5z M35.7,18.7c0-0.1,0.1-0.1,0.2-0.1c0.1,0,0.1,0,0.3,0.1c0.1,0.1,0.1,0.1,0.1,0.2
		c0,0.2-0.2,0.5-0.2,0.5c0,0,0,0,0,0c0,0,0,0-0.1,0c0,0-0.2-0.2-0.3-0.4C35.6,18.9,35.7,18.8,35.7,18.7z M35.7,20.7
		c0.1-0.1,0.3,0,0.3,0.2c0,0.1,0,0.2,0,0.3c-0.1,0.2-0.4,0.2-0.6,0.2c0,0,0,0-0.1,0c0,0,0,0,0,0c0,0,0-0.1,0-0.1
		C35.3,21.2,35.5,20.8,35.7,20.7z M35,22.9c0.1-0.1,0.3-0.1,0.5,0c0.1,0.1,0.2,0.2,0.1,0.3c0,0.2-0.2,0.3-0.4,0.4c0,0-0.1,0-0.1,0
		c0,0,0,0-0.1,0c0,0,0,0,0,0c0,0,0,0-0.1-0.1C34.9,23.4,34.8,23,35,22.9z"/>
	<path id="XMLID_2_" fill="#476AB2" d="M36.4,16C36.4,16,36.4,16,36.4,16c0,0.1,0,0.1,0,0.1c0,0,0.2,0.1,0.2,0.1
		c0,0-0.2,0.1-0.2,0.1c-0.1,0.1,0.2,0.1,0.2,0.1c0.2,0,0.5,0.1,0.7,0.1c0.4,0.1,0.7,0.1,1.1,0.2c0.4,0.1,0.7,0.3,1,0.5
		c0.4,0.2,0.8,0.3,1.2,0.5c0.4,0.1,0.8,0.2,1.1,0.4c0.2,0.1,0.4,0.3,0.6,0.4c0.1,0,0.1-0.3,0.3-0.3c0,0,0.1,0.1,0.2,0
		c0,0,0-0.2,0-0.2c0-0.1,0-0.1,0-0.2c0.1-0.2,0.2,0.1,0.3-0.1c0.1-0.2-0.2-0.1-0.1-0.3c0.1-0.1,0.2,0,0.2-0.2c0,0,0-0.1-0.1-0.1
		c0,0-0.1,0-0.1,0c-0.1,0-0.1-0.3-0.1-0.4c-0.1-0.4-0.4,0.4-0.5,0.3c-0.1,0,0-0.2-0.1-0.2c0,0-0.1,0-0.1,0c-0.1,0.1-0.2,0.2-0.3,0.2
		c-0.1,0-0.1-0.1-0.2,0c-0.1,0.1,0,0.3-0.2,0.3c-0.1,0-0.1-0.1-0.2-0.2c0-0.1-0.2,0.1-0.2,0.1c-0.1,0-0.3,0.1-0.5,0
		c-0.1,0-0.2,0-0.2-0.1c0,0-0.2-0.3-0.1-0.4c0.1,0,0.2,0,0.2,0c0.1-0.1-0.3-0.2-0.2-0.3c0-0.1,0.3-0.1,0.3-0.1
		c0.1-0.1-0.1-0.4,0.2-0.4c0,0,0.1,0,0.1,0c0.2,0-0.1-0.2-0.1-0.2c0-0.1,0.1-0.2,0.2-0.2c0-0.2-0.4-0.1-0.4-0.2c0-0.1,0-0.1,0-0.1
		c0-0.1-0.1-0.1-0.2,0c-0.1,0-0.1,0.2-0.2,0.1c-0.1,0-0.1-0.2-0.2-0.1c-0.1,0.1-0.1,0.4-0.3,0.3c-0.1,0-0.1-0.2-0.2-0.1
		c0,0.1-0.1,0.1-0.1,0.2c0,0.1,0,0.2,0,0.3c0,0.1,0.1,0.2,0.1,0.2c0,0-0.1,0-0.1,0c-0.1,0.1,0.1,0.3,0.2,0.3c0,0.1,0.1,0.3,0,0.2
		c-0.2-0.1-0.3-0.2-0.5-0.3c-0.1-0.1-0.2-0.2-0.2-0.3c0-0.1-0.4-0.1-0.4-0.2c0,0,0.1-0.1,0.2-0.1c0.1-0.1-0.2-0.2-0.4-0.3
		c-0.3-0.1,0.1-0.2,0-0.3c-0.1-0.1-0.2,0-0.4-0.1c-0.1,0-0.1-0.2-0.1-0.3c0-0.1,0-0.2-0.1-0.2c-0.1-0.1-0.3,0.1-0.4,0.1
		c-0.1-0.1-0.1-0.3-0.2-0.3c0,0-0.1,0-0.1,0c-0.1,0.1,0,0.3-0.2,0.4c-0.1,0-0.1,0-0.2,0c0,0,0,0.1,0,0.1c0,0.1,0.1,0.3,0,0.3
		c0,0-0.1,0-0.1,0c-0.1,0.1,0.1,0.2,0.1,0.3C36.6,15.9,36.5,15.9,36.4,16z"/>
	<path id="XMLID_1_" fill="#476AB2" d="M28.1,30.6c0.2-0.1,0.6-0.4,0.4-0.6c-0.2-0.3-0.9-0.2-1.1-0.2c-0.4,0.1-0.8,0.4-1.1,0.7
		c-0.3,0.3-0.6,0.5-0.8,0.9c-0.2,0.4-0.6,1.8-0.6,2.3c0,0.5,0,1.8,0,2c0,0.2,0.1,0.5,0.2,0.7c0,0,0,0.1,0.1,0.1
		c0.1,0.1,0.2,0,0.3-0.1c0.4-0.4,1-0.7,1.5-0.9c0.5-0.2,1-0.4,1.4-0.8c0,0,0.2-0.2,0-0.3c-0.2-0.1-0.3-0.1-0.3-0.1
		c-0.1,0-0.5-0.5-0.6-0.6c-0.3-0.3-0.4-0.8-0.5-1.2C26.9,31.7,27.5,31.1,28.1,30.6z"/>
</g>
</svg>
