<?xml version="1.0" encoding="utf-8"?>
<!-- Generator: Adobe Illustrator 18.0.0, SVG Export Plug-In . SVG Version: 6.00 Build 0)  -->
<!DOCTYPE svg PUBLIC "-//W3C//DTD SVG 1.1//EN" "http://www.w3.org/Graphics/SVG/1.1/DTD/svg11.dtd">
<svg version="1.1" id="Layer_1" xmlns="http://www.w3.org/2000/svg" xmlns:xlink="http://www.w3.org/1999/xlink" x="0px" y="0px"
	 viewBox="0 0 70 70" enable-background="new 0 0 70 70" xml:space="preserve">
<path fill-rule="evenodd" clip-rule="evenodd" fill="#231F20" d="M54.8,31h-4.5c0.3,1.3,0.5,2.6,0.5,4c0,8.7-7.1,15.8-15.8,15.8
	c-8.7,0-15.8-7.1-15.8-15.8c0-1.4,0.2-2.7,0.5-4h-4.5v21.8c0,1.1,0.9,2,2,2h35.6c1.1,0,2-0.9,2-2V31z M54.8,17.2c0-1.1-0.9-2-2-2
	h-5.9c-1.1,0-2,0.9-2,2v5.9c0,1.1,0.9,2,2,2h5.9c1.1,0,2-0.9,2-2V17.2z M35,25.1c-5.5,0-9.9,4.4-9.9,9.9c0,5.5,4.4,9.9,9.9,9.9
	c5.5,0,9.9-4.4,9.9-9.9C44.9,29.5,40.5,25.1,35,25.1 M54.8,60.7H15.2c-3.3,0-5.9-2.7-5.9-5.9V15.2c0-3.3,2.7-5.9,5.9-5.9h39.6
	c3.3,0,5.9,2.7,5.9,5.9v39.6C60.7,58.1,58.1,60.7,54.8,60.7"/>
</svg>
