<?xml version="1.0" encoding="utf-8"?>
<!-- Generator: Adobe Illustrator 19.0.0, SVG Export Plug-In . SVG Version: 6.00 Build 0)  -->
<!DOCTYPE svg PUBLIC "-//W3C//DTD SVG 1.1//EN" "http://www.w3.org/Graphics/SVG/1.1/DTD/svg11.dtd">
<svg version="1.1" id="Layer_1" xmlns="http://www.w3.org/2000/svg" xmlns:xlink="http://www.w3.org/1999/xlink" x="0px" y="0px"
	 viewBox="0 0 58 58" enable-background="new 0 0 58 58" xml:space="preserve">
<g id="XMLID_18_">
	<defs>
		<rect id="XMLID_19_" x="7" y="7.5" width="44" height="43"/>
	</defs>
	<clipPath id="XMLID_2_">
		<use xlink:href="#XMLID_19_"  overflow="visible"/>
	</clipPath>
	<path id="XMLID_25_" clip-path="url(#XMLID_2_)" fill="#4769B2" d="M32.6,43.7c0,0.2-0.5,1.8-1.2,1.9c0,0-0.1,0-0.1,0
		c-0.5,0-0.9-0.2-1.1-0.3l-0.1,0c-0.3-0.2-0.6-1.3-0.6-1.5c0,0,0-0.1,0-0.1c0,0,0.1-0.1,0.2-0.1c0.1,0,0.1,0,0.2,0.1
		c0.1,0.1,0.1,0.2,0.2,0.4c0.1,0.2,0.2,0.4,0.3,0.6c0.1,0.2,0.5,0.4,0.8,0.4c0.1,0,0.1,0,0.2,0c0.2-0.1,0.3-0.4,0.4-0.8
		c0.1-0.2,0.1-0.5,0.2-0.6c0.2-0.2,0.6-0.2,0.6-0.2C32.5,43.6,32.6,43.6,32.6,43.7C32.6,43.7,32.6,43.7,32.6,43.7 M29.2,39.4
		c0,0,0.1-0.1,0.2-0.1c0.1,0,0.1,0,0.2,0.1c0.1,0.1,0.1,0.2,0.2,0.4c0.1,0.2,0.2,0.4,0.3,0.6c0.1,0.2,0.5,0.4,0.8,0.4
		c0.1,0,0.1,0,0.2,0c0.2-0.1,0.3-0.4,0.4-0.8c0.1-0.2,0.1-0.5,0.2-0.6c0.2-0.2,0.6-0.2,0.6-0.2c0,0,0,0,0.1,0c0,0,0,0,0,0.1
		c0,0.2-0.5,1.8-1.2,1.9c0,0-0.1,0-0.1,0c-0.5,0-0.9-0.2-1.1-0.3l-0.1,0C29.6,40.8,29.3,39.7,29.2,39.4
		C29.2,39.5,29.2,39.4,29.2,39.4 M28.6,35.2c-0.3-0.2-0.6-1.3-0.6-1.5c0,0,0-0.1,0-0.1c0,0,0.1-0.1,0.2-0.1c0.1,0,0.1,0,0.2,0.1
		c0.1,0.1,0.1,0.2,0.2,0.4c0.1,0.2,0.2,0.4,0.3,0.6c0.1,0.2,0.5,0.4,0.8,0.4c0.1,0,0.1,0,0.2,0c0.2-0.1,0.3-0.4,0.4-0.8
		c0.1-0.2,0.1-0.5,0.2-0.6c0.2-0.2,0.6-0.2,0.6-0.2c0,0,0,0,0.1,0c0,0,0,0,0,0.1c-0.1,0.2-0.5,1.8-1.2,1.9c0,0-0.1,0-0.1,0
		C29.3,35.6,29,35.4,28.6,35.2L28.6,35.2z M26.8,46.4c0,0.2-0.5,1.8-1.2,1.9c0,0-0.1,0-0.1,0c-0.5,0-0.9-0.2-1.1-0.3l-0.1,0
		c-0.3-0.2-0.6-1.3-0.6-1.5c0,0,0-0.1,0-0.1c0,0,0.1-0.1,0.2-0.1c0.1,0,0.1,0,0.2,0.1c0.1,0.1,0.1,0.2,0.2,0.4
		c0.1,0.2,0.2,0.4,0.3,0.6c0.1,0.2,0.5,0.4,0.8,0.4c0.1,0,0.1,0,0.2,0c0.2-0.1,0.3-0.4,0.4-0.8c0.1-0.2,0.1-0.5,0.2-0.6
		c0.2-0.2,0.6-0.2,0.6-0.2C26.8,46.3,26.8,46.3,26.8,46.4C26.8,46.4,26.8,46.4,26.8,46.4 M23,34L23,34c-0.3-0.2-0.6-1.3-0.7-1.5
		c0,0,0-0.1,0-0.1c0,0,0.1-0.1,0.2-0.1c0.1,0,0.1,0,0.2,0.1c0.1,0.1,0.1,0.2,0.2,0.4c0.1,0.4,0.5,1,1,1c0.7,0,0.5-0.9,0.8-1.3
		c0.1-0.1,0.3-0.2,0.5-0.2c0,0,0.1,0,0.1,0.1c0.1,0.2-0.3,1-0.4,1.2C24.5,34.4,23.7,34.4,23,34 M25.9,37.8c0.1-0.3,0.3-0.8,0.6-0.8
		c0.1,0,0.2,0.1,0.2,0.1c0.1,0.2-0.2,1-0.3,1.2c-0.5,0.8-1.2,0.8-2.1,0.3l-0.1,0c-0.3-0.2-0.5-0.9-0.6-1.2c0-0.1-0.1-0.3,0-0.4
		c0.1-0.1,0.2,0,0.3,0c0.1,0.1,0.1,0.1,0.2,0.2c0.2,0.5,0.4,1.2,1,1.3C25.7,38.6,25.8,38.1,25.9,37.8 M36.7,38.3
		c-0.1-0.2-0.1-1-0.1-2.1c0,0,0,0,0,0l-0.1,0c-0.3-0.2-0.6-1.3-0.6-1.5c0,0,0-0.1,0-0.1c0,0,0.1-0.1,0.2-0.1c0.1,0,0.1,0,0.2,0.1
		c0.1,0.1,0.2,0.3,0.2,0.5c0-0.2,0.1-0.5,0-0.7c0-0.3-0.1-0.7-0.1-1c0-0.3,0-0.8-0.1-1c-0.3-0.5-0.5-1-0.8-1.5
		c-0.1-0.2-0.3-0.5-0.5-0.5c-0.2,0-0.4,0.4-0.7,0.4c0,0-0.1,0-0.1,0c-0.5,0-0.9-0.2-1.1-0.3l-0.1,0c-0.3-0.2-0.6-1.3-0.6-1.5
		c0,0,0-0.1,0-0.1c0,0,0.1-0.1,0.2-0.1c0.1,0,0.1,0,0.2,0.1c0.1,0.1,0.1,0.2,0.2,0.4c0.1,0.2,0.2,0.4,0.3,0.6
		c0.3,0.4,0.9,0.7,1.2,0.1c0.3-0.5,0.2-1.2-0.4-1.4c-0.4-0.1-1.1-0.9-1.1-0.9h-1.5c-0.3,0-2.2,0.4-2.2,0.4h-0.7
		c-0.7,0.1-2.5-0.6-2.6-0.7c-0.2,0-1.6-0.4-1.8-0.4s-0.8,0.5-1.1,0.6c-0.4,0.1-1.1,0.4-1.2,0.8c-0.3,0.7,0.8,1.4,1.3,0.7
		c0.2-0.3,0.1-0.7,0.3-0.9c0.2-0.3,0.6-0.5,0.7-0.1c0.1,0.5-0.7,1.8-1.2,1.8c0,0-0.1,0-0.1,0c-0.5,0-0.9-0.2-1.1-0.3l-0.1,0
		c-0.1-0.1-0.3-0.4-0.4-0.7c-0.3,0.4-0.6,0.9-0.8,1.2c-0.2,0.4-0.4,1.4-0.4,1.4s-0.1,1.1-0.2,1.8c-0.1,0.6,0,2.5,0,2.5
		c0,0.5,0,1.1,0,1.6c0.1-0.2,0.2-0.4,0.3-0.7c0.1-0.2,0.1-0.5,0.2-0.6c0.2-0.2,0.6-0.2,0.6-0.2c0,0,0,0,0.1,0c0,0,0,0,0,0.1
		c0,0.2-0.5,1.8-1.2,1.9c0,0,0,0,0,0c0,0.9-0.1,2.7,0,2.9c0.2,0.2,0.3,1.5,0.3,1.5v0.6c0,0.1,0.1,0.2,0.1,0.3
		c0.1,0.2,0.2,0.4,0.3,0.6c0.2,0.3,0.7,0.6,1.1,0.3c0.2-0.3,0.2-0.7,0.4-1c0.3-0.5,0.8-0.5,0.7,0.2c-0.1,0.4-0.6,1.4-1.1,1.4
		c0,0-0.1,0-0.1,0c-0.4,0-0.7-0.2-1-0.3c0,0.1,0,0.1,0,0.2c0,0.2,0,1.4,0.5,2c0.5,0.5,1.2,1.4,1.2,1.4s1.1,1.5,1.4,1.7
		c0.3,0.2,1,0.4,1.4,0.5c0.4,0.1,1.2,0.4,2,0.3c0.7-0.1,2-0.6,2-0.6s1.2,0,1.5,0s1-0.2,1.3-0.2c0.3,0,0.8,0.1,1-0.2
		c0.4-0.3,0-0.6-0.1-1c0-0.1-0.2-0.9,0.2-0.7c0.1,0,0.1,0.1,0.1,0.2c0.2,0.5,0.3,1.3,1,0.8c0.4-0.4,0.7-0.8,1.2-1.1
		c0.3-0.2,1.2-1.3,1.2-1.9c0-0.4,0.5-3.5,0.6-5.1c0,0-0.1,0-0.2,0c0,0-0.1,0-0.1,0c-0.5,0-0.9-0.2-1.1-0.3l-0.1,0
		c-0.3-0.2-0.5-0.8-0.5-1.1c-0.1-0.7,0.3-0.6,0.5,0c0.1,0.2,0.2,0.4,0.3,0.6c0.1,0.2,0.5,0.4,0.8,0.4c0.1,0,0.1,0,0.2,0
		c0.1,0,0.2-0.3,0.3-0.5C36.6,39.6,36.8,38.6,36.7,38.3"/>
	<path id="XMLID_24_" clip-path="url(#XMLID_2_)" fill="#4769B2" d="M38,22.1c-0.2-0.2-0.6-0.3-0.9-0.4c-0.5-0.2-1-0.4-1.5-0.6
		c-0.5-0.2-0.9-0.5-1.4-0.3c-1.2,0.5-2.3,0.9-3.3,1.8c-0.1,0.1-0.2,0.2-0.4,0.3c-0.8,0.3-0.4-0.7-0.1-1c0.8-0.8,1.7-1.4,2.6-2
		c1-0.8,2.5-1.5,3.8-1.7c0.4-0.1-0.4-0.7-0.6-0.8c-0.5-0.4-1.2-0.2-1.8-0.1c-0.7,0.1-1.3,0.3-1.8,0.8c-0.6,0.5-1.2,1-1.8,1.4
		c-0.3,0.2-1.2,0.8-0.9-0.1c0.2-0.5,0.3-1.1,0.5-1.6c0,0,2.6-4.3,3.6-5.8c0.3-0.5,0.6-0.9,1-1.3c0.3-0.3,1.1-0.6,1.1-1
		c-1.2-0.1-2.6,1-3.5,1.6c-0.6,0.3-1,1.5-1.3,2.1c-0.3,0.3-0.5,1.1-0.8,1.5c-0.3,0.5-0.5,1.1-0.8,1.5c-0.2-0.7-0.1-1.6-0.1-2.3
		c0-0.9,0-1.7-0.1-2.6c-0.1-0.8-0.2-1.5-0.5-2.3c-0.1-0.4-0.3-0.8-0.5-1.1c-0.1-0.1-0.2-0.3-0.4-0.4C27.8,8,28,9.3,28.1,9.8
		c0.1,0.9,0.3,1.7,0.4,2.6c0,0.1,0,1.9-0.3,1.8c-0.5-0.4-1-1.4-1.3-2c-0.4-0.7-0.9-1-1.7-1.5c-0.6-0.4-1.3-0.8-1.9-1.1
		c-0.6-0.2-1.1,0.1-1.5,0.5c0.4,0.4,1.1,0.7,1.5,1c1.1,0.7,1.5,1.7,2.1,2.8c0.6,1.2,1.2,2.5,1.7,3.8c0.1,0.2,0.9,2.6,0.2,2.2
		c-0.2-0.1-0.3-0.7-0.4-0.9c0,0-0.9-2.1-1.4-2.6c-0.6-0.6-1.4-1-2.2-1.3c-0.8-0.3-1.6-0.8-2.5-0.8c-0.2,0-0.8,0-0.9,0.1
		c-0.2,0.2,0.1,0.5,0.4,0.7c0.5,0.3,1.1,0.5,1.6,0.8c0.9,0.4,1.9,1,2.5,1.8c0.5,0.6,0.9,1.2,1.3,1.9c0.2,0.3,2.1,2.9,1.6,3.2
		c-0.1,0-0.4,0-0.5-0.1l-1.1-1.5c0,0-1.8-1.4-2.3-1.4c-0.7,0-2-0.5-2.6,0c0.2,0.2,0.5,0.5,0.8,0.7c0.4,0.2,0.9,0.3,1.2,0.6
		c0.9,0.6,1.6,1.4,2.3,2.2c0.4,0.5,0.8,1,1.2,1.4c0.1,0.2,0.6,0.6,0.6,0.8c0,0.3-0.3,0.2-0.3,0.2l-1.1-1.1c0,0-1.8-0.6-2.6-0.9
		c-0.8-0.3-1.1,0.5-1.1,0.5s0.8,0.3,1.4,0.3c0.8,0,1.5,1,2,1.6c0.7,0.8,1.5,1,2.4,1.5c0.5,0.3,1.8-0.1,2.4-0.1c0.5,0,1.3-0.7,1.8-1
		c0.7-0.4,1.1-1.2,2-1.2c0.2,0,2.1-0.1,2.1,0c-0.1-0.4-0.5-0.8-0.9-0.9c-0.7-0.2-1.3,0-1.9,0.2c-0.3,0.1-0.6,0.1-0.9,0.2
		c-0.1,0-0.9,0.2-1,0.3c0.1-0.2,0.4-0.5,0.6-0.7l1.4-1.1c1.1-0.1,2.1-0.2,3.2-0.4C36.6,22.8,38.8,22.7,38,22.1"/>
	<path id="XMLID_21_" clip-path="url(#XMLID_2_)" fill="#4769B2" d="M12.3,24.4c-0.1,0.7-1.1,1.3-1.9,1.5c-0.4,0.1-0.8,0.1-1-0.3
		c0-0.1-0.1-0.2-0.1-0.3c-0.2-0.6-0.5-1.5-0.2-2.1c0.3-0.8,1.5-0.5,2.2-0.3c0.5,0.2,0.9,0.5,1,0.9C12.3,24.1,12.3,24.3,12.3,24.4
		 M12.6,21c-0.5-0.2-1.1-0.3-1.7-0.4C10,20.6,7.3,20.3,7,21.5c-0.1,0.5,0,1.2,0,1.7c0.1,1.2,0.2,2.5,0.3,3.7c0,0.3,0,0.5,0,0.6
		l0,0.4c0,0.4,0,0.8,0.1,1.1c0,0.1,0,0.1,0,0.2c0,0.1,0,0.2,0,0.3C7.6,30,8,30,8.2,30.1c0.5,0,1,0.1,1.4-0.2
		c0.2-0.2,0.3-0.4,0.3-0.8c0-0.2,0-0.4-0.1-0.6c-0.1-0.2-0.1-0.5-0.1-0.6c0.1-0.2,0.4-0.2,0.8-0.1c0.1,0,0.3,0,0.4,0
		c2.1-0.1,3.6-1.3,3.8-3.1c0-0.5,0-0.9-0.1-1.3C14.3,22.2,13.6,21.4,12.6,21"/>
	<path id="XMLID_20_" clip-path="url(#XMLID_2_)" fill="#4769B2" d="M51,30.6c-0.1-0.5-0.7-0.6-1-0.6c-0.1,0-0.1,0-0.2,0
		c-0.5-0.1-0.8,0-1.1,0.2c-0.4,0.3-0.6,0.8-0.8,1.3c0,0.1-0.1,0.2-0.1,0.3c-0.1,0.2-0.1,0.3-0.2,0.5c-0.1,0.4-0.3,0.8-0.4,1.2
		c0,0.1-0.1,0.2-0.1,0.4c-0.1,0.5-0.2,1-0.5,1.3c0,0,0,0-0.1,0.1c-0.1-0.1-0.2-0.3-0.4-0.6c0-0.1,0-0.1-0.1-0.2l-0.6-1.3
		c-0.1-0.3-0.3-0.6-0.4-0.9c-0.3-0.6-0.5-1.2-0.9-1.8c-0.4-0.6-1.4-0.7-1.9-0.4c-0.4,0.2-0.5,0.6-0.4,1.1c0.1,0.4,0.4,0.8,0.6,1.2
		c0.1,0.2,0.3,0.5,0.4,0.7c0.3,0.5,0.5,1.1,0.8,1.6l0.4,0.8c0.1,0.2,0.2,0.4,0.3,0.5c0.3,0.6,0.6,1.3,0.9,2l0,0.1
		c0.1,0.4,0.3,0.9,0.7,1.1c0.2,0.1,0.7,0.1,0.9,0c0,0,0,0,0,0c0.3-0.1,0.4-0.4,0.4-0.6c0-0.1,0-0.1,0.1-0.2c0.4-1,0.9-1.9,1.3-2.8
		c0.4-0.8,0.7-1.6,1.1-2.3c0.2-0.5,0.4-0.9,0.6-1.3c0-0.1,0.1-0.2,0.1-0.3C50.9,31.2,51,30.8,51,30.6"/>
</g>
</svg>
