<?xml version="1.0" encoding="utf-8"?>
<!-- Generator: Adobe Illustrator 18.0.0, SVG Export Plug-In . SVG Version: 6.00 Build 0)  -->
<!DOCTYPE svg PUBLIC "-//W3C//DTD SVG 1.1//EN" "http://www.w3.org/Graphics/SVG/1.1/DTD/svg11.dtd">
<svg version="1.1" id="Layer_1" xmlns="http://www.w3.org/2000/svg" xmlns:xlink="http://www.w3.org/1999/xlink" x="0px" y="0px"
	 viewBox="0 0 70 70" enable-background="new 0 0 70 70" xml:space="preserve">
<path fill="#231F20" d="M64.6,16.6c-2.2,1-4.5,1.6-7,1.9c2.5-1.5,4.4-3.9,5.3-6.7c-2.3,1.4-5,2.4-7.7,3c-2.2-2.4-5.4-3.8-8.9-3.8
	c-6.7,0-12.2,5.4-12.2,12.2c0,1,0.1,1.9,0.3,2.8c-10.1-0.5-19.1-5.3-25.1-12.7c-1,1.8-1.6,3.9-1.6,6.1c0,4.2,2.1,7.9,5.4,10.1
	c-2-0.1-3.9-0.6-5.5-1.5c0,0.1,0,0.1,0,0.2c0,5.9,4.2,10.8,9.8,11.9c-1,0.3-2.1,0.4-3.2,0.4c-0.8,0-1.5-0.1-2.3-0.2
	c1.5,4.8,6,8.3,11.4,8.4c-4.2,3.3-9.4,5.2-15.1,5.2c-1,0-1.9-0.1-2.9-0.2c5.4,3.5,11.8,5.5,18.6,5.5c22.4,0,34.6-18.5,34.6-34.6
	c0-0.5,0-1.1,0-1.6C60.9,21.2,63,19.1,64.6,16.6z"/>
</svg>
