<?xml version="1.0" encoding="utf-8"?>
<!-- Generator: Adobe Illustrator 19.0.0, SVG Export Plug-In . SVG Version: 6.00 Build 0)  -->
<!DOCTYPE svg PUBLIC "-//W3C//DTD SVG 1.1//EN" "http://www.w3.org/Graphics/SVG/1.1/DTD/svg11.dtd">
<svg version="1.1" id="Layer_1" xmlns="http://www.w3.org/2000/svg" xmlns:xlink="http://www.w3.org/1999/xlink" x="0px" y="0px"
	 viewBox="0 0 585 40" enable-background="new 0 0 585 40" xml:space="preserve">
<g>
	<defs>
		<rect id="SVGID_1_" x="3.2" y="1.4" width="578.6" height="37.2"/>
	</defs>
	<clipPath id="SVGID_2_">
		<use xlink:href="#SVGID_1_"  overflow="visible"/>
	</clipPath>
	<path clip-path="url(#SVGID_2_)" fill="#4769B2" d="M109.5,22.1c0.6,0.6,0.8,1.3,0.8,2.1c-0.2,2.1-3.1,3.6-5.6,3.6
		c-0.6,0-1.4,0.1-2.1,0.1c-0.7,0.1-1.4,0.1-2.1,0.1c-1.9,0-2.6-0.5-2.7-1.9l0-0.7c-0.1-0.9-0.1-1.8,0-2.6c0.3-2.3,1.5-3.4,3.7-3.5
		l0.1-0.7v0.7C103.8,19.3,107.8,20.2,109.5,22.1 M102,13.4l-0.7,0.1c-0.8,0.2-1.7,0.4-2.4,0.4c-0.8,0-1.3-0.2-1.7-0.6
		c-0.1-0.1-0.3-0.3-0.4-0.5c-0.7-1.1-0.5-3,0.5-3.9c0.2-0.2,0.7-0.4,1.3-0.4c0.6,0,1.1,0.1,1.7,0.2c0.5,0.1,0.9,0.1,1.3,0.2
		c1.8,0.1,3.1,0.3,3.4,1.5c0.1,0.5,0,0.9-0.3,1.3C104,12.7,102.8,13.2,102,13.4 M113.2,15.2c-0.9-0.6-1.8-1.2-2.2-2
		c-0.1-0.1-0.1-0.2-0.1-0.4c-0.2-0.8-0.1-1.7,0-2.6c0.1-1.1,0.3-2.1,0-3.2c-1.4-4.8-5.9-4.9-9.6-5l-1.5,0c-1,0-3.3-0.2-5.3-0.2
		c-3.2,0-4,0.2-4.1,1.1c-0.3,4.2-0.2,8.6-0.1,12.8c0,2.1,0.1,4.1,0.1,6.2l0,9.7c0,2,0.1,2.9,2.7,2.9c1.7,0,3.3,0,5,0
		c1.7,0,3.3,0,5,0c1.7,0,3.3,0,5,0c2.9,0,5.5-1.1,7.4-3.2c1.9-2.1,2.8-4.9,2.6-7.9c-0.2-2.5-1.2-4.8-2.8-6.6
		C114.7,16.2,114,15.7,113.2,15.2"/>
	<path clip-path="url(#SVGID_2_)" fill="#4769B2" d="M145.3,20c0,0.8-0.2,1.2-0.4,1.2c-0.3,0-0.7-0.2-1.1-0.3l-0.3-0.1
		c-0.6-0.2-1.2-0.3-1.8-0.4c-0.9-0.2-1.9-0.3-2.3-0.7c-0.2-0.1-0.3-0.4-0.2-1l0.1-0.7c0.2-1.2,0.3-2.4,0.7-3.4c0.8-2.5,1.5-3,1.8-3
		c0.3,0,0.6,0.2,1,0.7C144.6,14.1,145.3,17.6,145.3,20 M158.3,31.3c-1.4-3-2.8-5.9-4.2-8.9c-2.2-4.8-4.5-9.7-6.9-14.5
		c-0.2-0.4-0.3-0.8-0.5-1.3c-0.7-1.9-1.6-4.6-4.1-4.2c-2.5,0.4-3.6,2.7-4.4,4.6c-0.1,0.3-0.3,0.6-0.4,0.8c-0.9,1.8-1.8,3.6-2.7,5.4
		c-0.8,1.6-1.6,3.3-2.4,4.9c-1.3,2.6-2.5,5.1-3.7,7.7c-0.3,0.6-0.6,1.2-0.9,1.8c-0.9,1.8-1.9,3.8-2.2,5.7c0,0.2,0.1,0.5,0.2,0.7
		c0.2,0.3,0.7,0.5,2.3,0.5c0,0,4.2,0,5.1-1.1c0.6-0.7,0.9-1.5,1.2-2.3c0.4-1,0.7-1.8,1.5-2.3c0.6-0.4,1.4-0.6,2.7-0.6
		c0.5,0,1.1,0,1.6,0.1c0.5,0,0.9,0,1.4,0h0c0.6,0,1.3-0.1,2-0.1c1.6-0.1,3.3-0.2,4.3,0.1c0.2,0.1,0.4,0.2,0.6,0.3
		c0.4,0.3,0.6,0.7,1,1.5l0.1,0.3c1.7,4.1,3.7,4.2,7.4,4c0.4,0,0.9,0,1.3,0c0.2,0,0.4-0.1,0.5-0.3c0.1-0.2,0.2-0.4,0.1-0.6
		c-0.1-0.6-0.4-1.2-0.7-1.7L158.3,31.3z"/>
	<path clip-path="url(#SVGID_2_)" fill="#4769B2" d="M190.7,27.8c-0.7,0-2,0.1-3.6,0.2c-2.3,0.1-5.2,0.3-7.5,0.3
		c-2.9,0-3.4-0.3-3.5-0.3c-0.5-0.6-0.3-2.4-0.2-3.5c0-0.4,0.1-0.9,0.1-1.2c0-2.1,0.1-4.2,0.2-6.4c0.1-1.8,0.2-3.7,0.2-5.5
		c0-0.4,0.1-1,0.1-1.6c0.2-3,0.4-5.6-0.5-6.8c-0.5-0.7-1.5-1.1-3.2-1.1c-1.1,0-2.3,0.1-3.2,0.3l-0.6,0.1c-0.4,0-0.6,0.4-0.6,0.8
		c0,0.1,0,0.2,0,0.1c-0.7,1.3-0.5,3.2-0.4,4.8c0,0.4,0.1,0.8,0.1,1.1c0.1,2.6,0.3,5.1,0.5,7.6l0.2,3c0.2,2.9,0.4,5.8,0.5,8.8
		c0,0.4,0,0.7,0,1.1c-0.1,2-0.1,4.6,2.7,5.5c0.6,0.2,4.2,0.2,6.2,0.2h0c13.8,0,13.8-0.7,13.8-1.4l0-1.2c0-1.4,0-2.7,0-4.1
		C192,27.8,191.1,27.8,190.7,27.8"/>
	<path clip-path="url(#SVGID_2_)" fill="#4769B2" d="M209.8,19.1c0.6-0.2,1.4-0.3,2.4-0.3c0.8,0,1.6,0.1,2.4,0.1
		c0.4,0,0.7,0.1,1.1,0.1c1.4,0.1,2.9,0.3,4.1,1.2c1.1,0.8,1.7,2.1,1.7,3.4c0,1.1-0.5,2.1-1.4,2.8c-1,0.7-2.3,1.1-4.2,1.1
		c-0.5,0-1.1,0-1.6,0c-0.5,0-0.9-0.1-1.4-0.1l-0.8-0.1c-0.2,0-0.3,0-0.5,0l-1,0c-0.9,0-1.2-0.2-1.5-0.7c-0.3-0.7-0.3-1.6-0.3-2.5
		c0-0.5,0-0.9,0-1.3C208.5,20.5,208.9,19.4,209.8,19.1 M211,7.8l0,0.7c1.3,0,2.9,0.4,4,1.1c0.8,0.5,1.3,1.2,1.4,1.9
		c0.1,0.7-0.1,1.4-0.7,2c-0.8,0.9-2.2,1.4-3.8,1.4c-0.7,0-1.4-0.1-2-0.3c-0.3-0.1-0.5-0.2-0.6-0.3c-0.7-0.7-0.4-2.4-0.1-3.6l0.1-0.4
		c0.2-1.3,0.8-1.9,1.8-1.9V7.8z M224.2,14.9c-0.8-0.5-1.5-0.9-1.8-1.6c-0.1-0.2-0.1-0.4-0.2-0.7c0-0.8,0.1-1.6,0.3-2.4
		c0.3-1.5,0.6-3.1-0.2-4.7c-0.7-1.5-2.2-2.5-4.3-3.1C216.2,2,214.3,2,212.5,2c-0.6,0-1.2,0-1.8,0c-0.4,0-0.9,0-1.3-0.1
		c-0.8,0-1.7-0.1-2.5-0.1c-1.4,0-2.5,0.1-3.5,0.4c-1.6,0.5-1.8,1-1.7,2.3c0,0.2,0,0.5,0,0.8c0,3.6,0,7.3,0,10.9l0,14.4
		c0,0.2,0,0.5,0,0.7c0,1.3-0.1,2.7,2,3.3c0.5,0.2,1.2,0.2,1.9,0.2c0.7,0,1.5-0.1,2.2-0.2c0.7-0.1,1.3-0.1,2.1-0.1h0
		c1,0,1.9,0.1,2.9,0.1c1,0.1,2.1,0.1,3.1,0.1l0.4,0c3.5,0,7.9-0.5,10.6-4c3.5-4.4,3.1-11-1-14.7C225.4,15.6,224.8,15.3,224.2,14.9"
		/>
	<path clip-path="url(#SVGID_2_)" fill="#4769B2" d="M263.3,18.1c-0.6,4.4-3.8,9-8.7,9c-1.5,0-3-0.4-4.5-1.3
		c-2.9-1.6-4.3-4.7-3.9-8.1c0.5-3.8,3.1-7.1,6.5-8c0.8-0.2,1.6-0.3,2.4-0.3c2.5,0,4.8,1,6.3,2.8C263,13.8,263.6,15.9,263.3,18.1
		 M255,1.9c-1.6,0-3.2,0.3-4.8,0.8c-6.8,2.2-11.1,8.4-11.1,15.8c0,7.1,4.1,12.8,10.5,14.8c1.8,0.6,3.6,0.9,5.5,0.9
		c5,0,9.7-1.9,12.9-5.2c2.8-2.9,4.2-6.5,4.2-10.5c0-0.2,0-0.4,0-0.7C271.8,9.1,263.9,1.9,255,1.9"/>
	<path clip-path="url(#SVGID_2_)" fill="#4769B2" d="M299.6,19.7c0.1,1.7-0.3,2.7-0.7,2.7l-0.5,0c-0.7,0-1.4,0.1-2,0.1
		c-1.7,0-2.7-0.3-3.5-2c-0.3-0.7,0.1-1.6,0.6-2.7c0.2-0.5,0.4-1,0.6-1.5c1.2-3.6,2.3-3.9,2.6-3.9C297.9,12.5,299.5,16.3,299.6,19.7
		 M313.1,31.3c-0.4-3.5-2.5-7.1-4.5-10.3c-0.7-1.2-1.4-2.3-1.9-3.3c-2.8-5.3-5.2-10.3-7.4-15c-0.5-1-1.1-1.2-1.6-1.2
		c-1.2,0-3.4,1.3-8.4,12.8l-0.2,0.5c-0.9,1.9-1.9,3.9-2.9,5.7c-1.6,3.1-3.3,6.3-4.6,9.6l-0.2,0.6c-0.6,1.5-0.9,2.4-0.5,3.1
		c0.5,0.7,1.5,0.8,3,0.8c0.7,0,3.6-0.2,4.6-1.4c1.2-1.3,1.8-2.5,2.1-3.3c0.7-1.4,0.9-2,4.2-2l1,0c2.3,0,5.2-0.1,7.1,1.1
		c0.6,0.5,1.1,1.3,1.8,2.1c1.4,1.9,3,4.1,5.4,4.1c0.5,0,1-0.1,1.5-0.3c1.6-0.6,2.2-0.9,1.8-2.3C313.2,32.1,313.2,31.8,313.1,31.3"/>
	<path clip-path="url(#SVGID_2_)" fill="#4769B2" d="M356.4,24.5c-1.6,0.3-3.4,1.2-5,1.9c-1.2,0.6-2.5,1.1-3,1.1
		c-5.9,0-8.7-4.7-8.8-9c-0.1-4.3,2.4-9.1,8.3-9.4c1,0,2.4,0.7,3.8,1.5c1.7,0.9,3.4,1.8,5,1.8c0.9,0,1.6-0.3,2.2-0.8
		c0.8-0.7,1.1-1.7,1-2.9c-0.3-2.1-1.9-4.1-3.3-4.9c-2.9-1.6-6-2.3-9.2-2.1c-6.6,0.5-12.1,5-14,11.6c-1.6,5.6-0.7,11.4,2.4,15.6
		c2.9,3.9,7.3,6,12.5,6h0c3.9,0,12.1-1.6,12.4-6.4c0.1-1.5-0.2-2.6-0.9-3.3C359.2,24.4,358,24.1,356.4,24.5"/>
	<path clip-path="url(#SVGID_2_)" fill="#4769B2" d="M388.5,26.9c-0.9,0-1.9,0.1-2.7,0.2c-0.8,0.1-1.6,0.2-2.3,0.2
		c-2,0-3.9-0.4-4.6-5c-0.1-0.7,0.1-5.2,0.3-9.1c0.5-10.5,0.5-10.6-0.2-10.8c-0.7-0.2-1.3-0.3-2-0.3c-2.9,0-4.9,2.1-5.1,5.3
		c-0.1,2.4-0.1,4.8,0,7.2c0,1.2,0,2.4,0,3.5c0,1.3-0.3,2.9-0.5,4.5c-0.5,3.1-1.1,6.4,0.1,9.1c1.2,2.7,3.1,4,6.1,4
		c1.2,0,2.4-0.2,3.6-0.4c0.7-0.1,1.5-0.2,2.2-0.3c0.2,0,0.7,0,1.2-0.1c6.1-0.2,10.3-0.7,11.1-2.8c0.3-0.9-0.1-2-1.3-3
		C392.3,27.1,390,26.9,388.5,26.9"/>
	<path clip-path="url(#SVGID_2_)" fill="#4769B2" d="M426.9,27.6l-8.4,0c-0.6,0-1.3,0.1-2,0.2c-0.8,0.1-1.5,0.2-2.2,0.2
		c-1.4,0-2.1-0.4-2.4-1.2c-0.4-1.1,0.4-4.4,1.3-4.9c0.8-0.4,2.1-0.6,4.1-0.6c1.2,0,2.4,0.1,3.4,0.1l0.9,0.1c0.4,0,0.8,0.1,1.2,0.2
		c0.6,0.1,1.2,0.3,1.8,0.3c1,0,1.8-0.4,2.3-1.2c0.6-1,0.2-2.6-0.1-3.8c-0.1-0.3-0.2-0.6-0.2-0.9c-0.2-1.1-1.8-1.3-3.3-1.3
		c-1.7,0-3.9,0.2-5.9,0.4c-1.4,0.2-2.7,0.3-3.4,0.3c-0.3,0-0.3,0-0.3,0c-0.5-0.1-1-1-1.2-2.2c-0.4-2-0.1-4.1,0.5-4.5
		c0,0,0.3-0.2,1.7-0.2c1.2,0,2.8,0.2,4,0.3c0.9,0.1,1.7,0.2,2.1,0.2l1.2,0c4.7,0,7.2-0.7,8-2.3c0.5-1,0.2-2.3-0.8-3.7
		c-0.6-0.8-1.9-1.2-4.1-1.2c-1.4,0-2.9,0.1-4.2,0.3c-0.9,0.1-1.7,0.2-2.2,0.2h-7.1c-0.3,0-0.8,0-1.3-0.1c-0.7-0.1-1.5-0.1-2.2-0.1
		c-0.8,0-1.4,0.1-1.8,0.3c-1.6,0.9-1.6,4.2-1.3,8.1c0,0.8,0.1,1.4,0.1,1.9c0,2.2-0.1,4.4-0.2,6.8c-0.2,5-0.4,10.1,0.3,14.8
		c0.1,0.7,0.2,1.2,8.3,1.2c1.9,0,5.3,0,10.3-0.2c0.3,0,0.6,0,1,0v-0.7l0.3,0.7c2,0,4.7,0,5.2-2.6c0.3-1.5,0.6-3.1-0.6-4
		C429,27.8,428.3,27.7,426.9,27.6"/>
	<path clip-path="url(#SVGID_2_)" fill="#4769B2" d="M458.3,20.8c0,0.2,0,0.6-0.2,0.7c-0.2,0.2-1.1,0.2-2,0.1
		c-0.5,0-0.9-0.1-1.4-0.1l-0.8,0c-1,0-2,0-2.3-0.5c-0.2-0.3-0.3-1,0.2-2.7c1.7-5.9,2.7-6.2,2.8-6.2c0,0,0.5,0,1.1,1.9
		c0.2,0.6,0.5,1.3,0.9,2C457.4,17.6,458.3,19.6,458.3,20.8 M465.7,19.8c-1.4-2.8-2.9-5.7-4.1-8.6c-0.2-0.5-0.4-1.1-0.6-1.7
		c-1-3-2.5-7-5.9-7.3l-0.2,0c-3.2,0-4.5,3.9-5.4,6.7c-0.3,0.8-0.5,1.6-0.8,2.2c-2,4.2-4.1,8.8-6.3,14c-0.3,0.6-0.6,1.3-0.9,2
		c-0.9,2-1.9,4.1-2.3,6.2c0,0.2,0,0.4,0.1,0.6c0.1,0.2,0.3,0.3,0.5,0.3l0.7,0c0.6,0,1.2,0.1,1.9,0.1c0.7,0,3,0,3.9-1.6
		c0.4-0.7,0.6-1.4,0.7-2c0.2-0.9,0.4-1.6,1.1-2.2c0.4-0.3,1.5-0.8,5.1-0.8c2.6,0,5.1,0.3,5.8,0.4c0.8,0.1,1.4,0.3,1.9,0.7
		c0.6,0.6,0.9,1.4,1.2,2.2c0.4,1.1,0.9,2.4,2.1,3.2c0.7,0.4,1.7,0.7,3.1,0.7c0.7,0,1.5-0.1,2.2-0.1c0.6,0,1.1-0.1,1.6-0.1h0
		c0.2,0,0.4-0.1,0.6-0.3c0.1-0.2,0.2-0.4,0.1-0.6C470.2,28.8,467.9,24.2,465.7,19.8"/>
	<path clip-path="url(#SVGID_2_)" fill="#4769B2" d="M510.5,11.9c0.3-2.8,0.6-6.7-1.3-9c-0.5-0.6-1.1-0.9-1.8-1
		c-1-0.1-2.8,0.1-3.8,0.8c-1.5,1-1.5,2.7-1.6,4.1c-0.1,3.1,0,6.3,0.1,9.3c0,1.4,0.1,2.8,0.1,4.2c-0.3-0.3-0.6-0.6-1-0.9
		c-0.3-0.2-0.5-0.4-0.6-0.5L488,5.5c-0.2-0.2-0.4-0.5-0.6-0.7c-0.5-0.6-1-1.2-1.6-1.6c-1.8-1.3-3.3-1.3-4.3-0.2
		c-1.8,2-1.4,7.3-0.9,12.6c0.1,1.1,0.2,2.1,0.2,2.5v7.3c0,0.5-0.1,1.2-0.1,2c-0.2,2-0.4,4.3,0.2,5.6c0.5,1.1,1.9,1.7,3.7,1.7
		c1.5,0,3.2-0.5,3.8-1.6c0.6-1.1,0.4-3.1,0.3-4.9c-0.1-0.6-0.1-1.2-0.1-1.6c0-1.3-0.2-2.7-0.3-4c-0.3-2.6-0.7-5.3,0.2-7.5
		c1.1,0.3,4.6,3.7,9.6,9.9c0.8,1,1.5,2,2.2,3.1c0.7,1.1,1.5,2.2,2.3,3.3c1,1.2,2.8,3.1,4.8,3.1h0c0.8,0,1.5-0.3,2.1-0.8
		c1.6-1.4,1.2-3.8,0.8-5.7c-0.1-0.7-0.2-1.3-0.2-1.8c0-5.3,0.1-9.4,0.4-13.4L510.5,11.9z"/>
	<path clip-path="url(#SVGID_2_)" fill="#4769B2" d="M545.2,20.7c-1.8-2.8-5.3-4.8-10.6-6c-4.8-1.1-6.3-1.9-6.3-3.5
		c0-1.6,1.6-2.6,4.2-2.6c1.4,0,3,0.2,4.8,0.6c0.4,0.1,0.9,0.3,1.3,0.4c0.9,0.3,1.8,0.6,2.6,0.6c1.1,0,2-0.5,2.6-1.5
		c0.5-0.9,0.6-2.1,0.3-3.3c-0.3-1-0.9-1.7-1.6-2.1c-2.4-1.2-5.6-1.4-7.8-1.5c-0.3,0-0.7,0-1,0c-3.8,0-6.9,1-9.4,2.9
		c-2.2,1.8-3.6,4-3.8,6.4c-0.2,2.1,0.5,4.2,2.1,6c2.5,2.8,6.6,3.8,10,4.6c4.6,1.1,6.1,1.9,6.1,3.4c0,2.5-2.9,2.8-4.7,2.8
		c-1.4,0-2.7-0.3-4.1-0.6c-1.4-0.3-2.8-0.6-4.2-0.6l-0.2,0c-2.5,0-4.4,1.2-4.8,2.9c-0.3,1.6,0.8,3,3,3.9c1.9,0.8,4.3,1.2,7.2,1.2
		c0.7,0,1.4,0,2,0c2.1-0.1,9.3-0.7,12.5-4.6c1.3-1.5,1.8-3.4,1.4-5.5C546.6,23.3,546.1,22,545.2,20.7"/>
	<path clip-path="url(#SVGID_2_)" fill="#4769B2" d="M581.6,28.3c-0.1-0.9-1.1-1.2-4.1-1.2c-2.4,0-5.3,0.2-6.7,0.3l-0.5,0
		c-0.5,0-1.1,0.1-1.7,0.2c-1.5,0.3-2.9,0.4-3.8-0.3c-1.2-0.9-1.8-3-1.2-4.2c0.7-1.3,2.2-2,4.7-2c1.4,0,3,0.2,4.5,0.4
		c1.8,0.2,3.4,0.4,4.6,0.3c0.2,0,0.4-0.1,0.5-0.3c0.3-0.4,0.3-4.2,0.2-4.4c-0.6-1.9-2.3-2.9-5.2-2.9c-1.4,0-2.8,0.2-4,0.4
		c-0.3,0-0.6,0.1-0.9,0.1c-0.2,0-0.6,0.1-1,0.2c-0.8,0.2-1.8,0.4-2.6,0.4c-0.6,0-0.7-0.1-0.8-0.1c-0.7-0.5-0.5-4.8,0.1-5.8
		c0.5-0.9,2.1-0.9,3.5-0.9c0.3,0,0.5,0,0.9,0c0.7,0,1.8,0.1,3.2,0.3c1.9,0.2,4,0.4,5.7,0.4c1.8,0,2.8-0.2,3.3-0.7
		c0.6-0.6,0.9-1.6,0.8-2.8c-0.1-1.4-0.9-2.9-1.8-3.4c-0.7-0.4-1.5-0.6-2.6-0.6c-0.7,0-1.5,0.1-2.2,0.2c-0.6,0.1-1.2,0.1-1.7,0.1
		c-1.6,0-3.2-0.1-4.9-0.1c-1.7-0.1-3.4-0.1-5.1-0.1c-2.2,0-3.9,0.1-5.6,0.3c-0.8,0.1-1.8,0.2-1.1,18.6l0,0.5c0,1.3,0.2,2.7,0.3,4
		c0.1,0.7,0.1,1.5,0.2,2.2c0,0.5,0,1.1-0.1,1.7c-0.1,1.9-0.3,4.2,1.9,5.3c0.8,0.4,1.7,0.6,2.7,0.6c1.1,0,2.3-0.2,3.5-0.4
		c1.1-0.2,2.1-0.4,3-0.4h0c1.3,0,2.6,0.1,3.9,0.1c1.7,0,3.5,0.1,5.2,0.1c0.5,0,0.9,0,1.3,0.1c0.4,0,0.7,0,1,0c1.6,0,2.3-0.7,2.6-2.6
		C581.8,30.9,581.8,29.7,581.6,28.3"/>
	<path clip-path="url(#SVGID_2_)" fill="#4769B2" d="M69.6,33.1c-1-0.2-2.7,0.3-4,0.6c-0.5,0.1-1,0.3-1.3,0.3
		c-3.5,0.7-7.4,0.7-10.5,0.2c-3-0.5-5.2-1.5-7.5-2.6c-1.3-0.6-2.7-1.2-4.2-1.7c-2.3-0.8-4.8-1.2-7.6-1.2c-3.6,0-7.5,0.7-10.7,1.9
		c-1.9,0.7-3.6,1.5-5.1,2.2c-2.3,1-4.2,1.9-5.9,2.2c-0.7,0.1-1.8-0.3-2.9-0.7c-2-0.7-4.5-1.4-6.1-0.5c-0.7,0.4-0.7,1-0.7,1.2
		c0.3,1.7,5.6,2.8,5.6,2.8c4.5,0.9,8.7,0,17.5-3.9c1.8-0.8,3.8-1.2,6.1-1.2c4.7,0,9.9,1.7,14.4,3.2c2.2,0.7,4.3,1.4,6.2,1.9
		c1.8,0.4,4.5,0.7,7.2,0.7c2.1,0,9-0.2,10.7-2.6c0.4-0.6,0.5-1.2,0.3-1.9C71.1,33.4,70.2,33.2,69.6,33.1"/>
	<path clip-path="url(#SVGID_2_)" fill="#4769B2" d="M7.9,7.7l1.2,0c1.7,0,2.3,0.1,2.3,1.8c0.1,1.7-0.1,3.4-0.3,5.1
		c-0.1,1.2-0.3,2.4-0.3,3.6c0,0.2,0,0.4,0,0.6c-0.1,1.3-0.3,3.2,0.7,4c0.3,0.3,0.8,0.4,1.4,0.4c1.4,0,3.1-0.9,3.4-2
		c0.3-1,0.2-2.4,0.1-3.5c0-0.5-0.1-1-0.1-1.5c0-0.9,0-1.9-0.1-2.8c-0.1-2-0.2-4,0.1-5.8c0.4,0,1.7,0,2.6,0.1c0.5,0,0.8,0,1,0
		c0,0,0.2,0,0.2,0c0.2,0,0.4,0,0.5,0c0.3,0,0.6,0,0.9-0.2c0.4-0.3,0.6-0.8,0.7-1.4c0.1-0.6-0.1-2.2-0.9-2.8
		c-0.3-0.2-0.7-0.3-1.4-0.3c-0.5,0-1.2,0.1-1.7,0.1c-0.3,0-0.6,0.1-0.8,0.1h-6.7c-0.2,0-0.5,0-0.9-0.1C9.2,2.9,8.4,2.9,7.7,2.9
		c-1,0-1.6,0.1-2,0.5C5,4,5.2,6.3,5.7,6.9C6.3,7.7,7.4,7.7,7.9,7.7"/>
	<path clip-path="url(#SVGID_2_)" fill="#4769B2" d="M30,6.9l0,13c0,2,0.8,3.2,2.1,3.2c0.6,0,1.1-0.2,1.8-0.7
		c1.1-0.8,1.1-2.1,1.1-3.3c0-0.3,0-0.5,0-0.7c0-0.9,0-1.3,0.5-1.7c0.5-0.3,1.6-0.6,2.9-0.6c1.2,0,2.4,0.2,3,0.4
		c0.9,0.3,0.9,1,0.8,2.4c0,0.5-0.1,1.1,0,1.7c0.1,1.3,1.2,2.7,2.6,2.7c0.4,0,0.8-0.1,1.2-0.3c1.3-0.8,1.3-2.4,1.3-3.5l0-0.6
		c0-1.9,0.1-3.8,0.1-5.7c0-0.1,0-0.4,0-0.7c0.3-9.1,0-9.1-0.8-9.3l-0.4-0.1c-0.5-0.1-1-0.2-1.6-0.2c-0.9,0-1.5,0.2-1.9,0.7
		c-0.8,0.9-0.5,2.1-0.2,3.1c0.1,0.4,0.2,0.7,0.2,0.9c0.1,1.8,0.1,2.7-1.3,3.7c-0.6,0.4-1.8,0.7-3,0.7c-1.6,0-3.3-0.5-3.4-1.7
		c0-0.3,0.1-0.9,0.1-1.6c0.3-3.3,0.3-4.8-0.4-5.5c-0.3-0.3-1-0.5-1.9-0.5c-0.5,0-2.1,0.1-2.6,0.7C29.8,4.1,29.9,5,30,6.3
		C30,6.6,30,6.8,30,6.9"/>
	<path clip-path="url(#SVGID_2_)" fill="#4769B2" d="M70.7,18.2c-0.4,0-1.2,0.1-2.2,0.2c-1.7,0.1-4,0.3-5.7,0.3
		c-1.1,0-1.6-0.1-1.7-0.1c-0.2-1-0.4-2.2,0-2.6c0.2-0.3,1.1-0.3,2.3-0.1l0.6,0.1c0.7,0.1,1.6,0.3,2.4,0.3c1.2,0,2.1-0.3,2.8-1
		c0.5-0.5,0.7-1.4,0.4-2.3c-0.3-1-0.9-1.7-1.6-1.9c-0.6-0.1-1.4,0-2.2,0.1c-0.4,0.1-0.7,0.1-1.1,0.1l-0.7,0c-2.6,0-2.9-0.7-3-1.3
		c-0.1-0.7-0.2-2.1,0.5-2.4c0.1,0,0.2-0.1,0.7-0.1c0.4,0,0.9,0,1.3,0.1c0.7,0.1,1,0.1,1.8,0.1c0.5,0,1.2,0.1,1.9,0.1
		c2.4,0,3.6-0.4,4-1.3c0.3-0.7,0.1-1.5-0.7-2.5c-0.7-0.9-1.9-0.9-3-0.9c-1.5,0-3-0.1-4.5-0.1l-0.5,0c-0.7,0-2.1-0.1-3.3-0.1
		c-2.2,0-3,0.1-3.1,0.8c-0.5,2.7-0.3,5.6-0.2,8.4c0.1,1.3,0.1,2.5,0.1,3.7c0,0.4,0,0.9-0.1,1.4c-0.2,2.1-0.5,5.2,2.1,5.6
		c0.6,0.1,1.3,0.1,2,0c0.3,0,0.6,0,0.9,0h4.8c0.4,0,0.8,0.1,1.3,0.2c0.6,0.1,1.2,0.2,1.8,0.2c0.9,0,1.6-0.2,2-0.7
		c0.5-0.5,0.9-3,0.6-3.7C71.4,18.4,71.1,18.2,70.7,18.2"/>
</g>
</svg>
