<?xml version="1.0" encoding="utf-8"?>
<!-- Generator: Adobe Illustrator 19.0.0, SVG Export Plug-In . SVG Version: 6.00 Build 0)  -->
<!DOCTYPE svg PUBLIC "-//W3C//DTD SVG 1.1//EN" "http://www.w3.org/Graphics/SVG/1.1/DTD/svg11.dtd">
<svg version="1.1" id="Layer_1" xmlns="http://www.w3.org/2000/svg" xmlns:xlink="http://www.w3.org/1999/xlink" x="0px" y="0px"
	 viewBox="0 0 500 500" enable-background="new 0 0 500 500" xml:space="preserve">
<g id="XMLID_32_">
	<rect id="XMLID_30_" x="0" y="0" fill="#4669B2" width="500" height="500"/>
	<g id="XMLID_31_">
		<g id="XMLID_1982_">
			<path id="XMLID_29_" fill="#FFFCEF" d="M345.9,271.2c-0.5,0-0.9-0.1-1.4-0.1c-0.6,0-1.1,0-1.7,0.1c-4.3,0.5-8.1,2.8-10.6,6.6
				c-3,4.3-3.9,9.9-2.6,15c0.6,2.2,1.8,6.8,4.9,7.1c0.4,0,0.7,0,1.1,0l1.5,0c0.3,0,0.5,0,0.8,0c1.7,0.1,3.4,0.2,5.1,0.4
				c0.1,0,0.3,0.1,0.5,0.1c1,0.2,2.3,0.3,3-0.4c0.6-0.6,0.6-1.5,0.6-2.1c0-0.1,0-0.3,0-0.4l0.1-0.9c0.1-1.5,0.2-2.9,0.5-4.3l0.1-0.5
				c0.3-1.4,0.8-3.2,0-4.8c-0.6-1.1-2.4-1.3-3.8-1.3c-1,0-2,0.1-2.5,0.4c-1,0.4-1,1.2-1.1,1.7l-0.3,3.9c0,0.4,0,0.5-0.6,0.5
				c-0.3,0-0.6,0-0.9-0.1c-1.3-0.2-1.5-0.3-1.8-1.5c-0.3-1.1-0.4-2.3-0.3-3.5c0.2-2,1-3.9,2.2-5.1c1.4-1.4,3.1-2.1,5.1-2.1
				c3.2,0,6.5,1.9,8,4.7c1.2,2.2,1.2,4.7-0.2,6.9c-0.1,0.2-0.4,0.5-0.6,0.7c-0.8,0.8-1.8,1.8-1.5,3.1c0.2,0.8,0.8,1.3,1.4,1.9
				c0.2,0.1,0.3,0.3,0.4,0.4c0.7,0.7,1.5,1.6,2.5,2.1c0.3,0.2,0.6,0.3,0.9,0.3c0.6,0,0.9-0.4,1.3-0.9c0.7-0.8,1.3-1.7,1.9-2.8
				c1.1-1.9,1.8-4,2.1-6.1c0.7-4.5-0.2-9-2.7-12.4C354.7,274.1,350.4,271.6,345.9,271.2z"/>
			<path id="XMLID_28_" fill="#FFFCEF" d="M351.2,322.8c-0.4-0.2-0.7-0.4-1.1-0.6l-17-9c-0.7-0.3-1.3-0.7-2-1.1l-1.1-0.7
				c-0.2-0.1-0.4-0.2-0.6-0.4c-0.8-0.5-1.8-1.1-2.7-1.2l-0.3,0c-1,0-1.4,0.7-1.6,1.1l-1,1.9l-0.1,0.4c0,0.3-0.6,1.1-0.8,1.5
				c-0.2,0.3-0.4,0.6-0.5,0.8l-5.8,11c-0.1,0.3-0.3,0.5-0.5,0.8c-0.5,0.7-1,1.5-0.8,2.4c0.1,0.6,0.6,1.2,1.3,1.7
				c0.2,0.1,0.5,0.3,0.8,0.6c0.9,0.7,1.9,1.5,3.1,1.5h0c1.7-0.1,2.3-1.9,2.8-3.3c0.1-0.3,0.2-0.7,0.3-0.9l2.3-4.4
				c0.3-0.6,0.6-1.2,0.9-1.9c0.5-1,0.9-2,1.6-3c0.1,0,0.2,0.1,0.3,0.1c0.2,0.1,0.3,0.2,0.5,0.3l2.4,1.2c0.2,0.1,0.5,0.2,0.4,0.3
				c-0.1,0.4-0.3,0.7-0.6,1.1c-0.1,0.2-0.2,0.4-0.3,0.6l-4.2,7.9c-1,1.9-0.3,2.7,0.9,3.7l0.2,0.2c0.9,0.7,2.2,1.8,3.7,1.5
				c1-0.2,1.6-1.1,1.9-1.7l0.1-0.2c0.5-0.8,0.9-1.7,1.2-2.5c0.3-0.6,0.5-1.2,0.8-1.8l2.3-4.4c0.1-0.1,0.1-0.3,0.2-0.4
				c0.1-0.1,0.1-0.3,0.2-0.4c0.3,0.1,0.6,0.2,1,0.3c0.8,0.3,2.6,0.8,2.5,1.4c0,0.3-0.3,0.7-0.5,1.1c-0.2,0.3-0.3,0.5-0.5,0.8
				l-2.4,4.6c-0.1,0.2-0.4,0.6-0.7,1.1c-1.5,2.2-3.7,5.6-1.5,7.2c0.6,0.4,1.2,0.6,1.8,0.8c0.3,0.1,0.6,0.2,0.9,0.3
				c0.1,0,0.2,0.1,0.3,0.2c0.4,0.2,0.9,0.6,1.5,0.6l0.4-0.1c0.8-0.2,1.2-1.1,1.4-1.6c0-0.1,0.1-0.2,0.1-0.3l2.2-4.2
				c0.8-1.5,1.5-3,2.3-4.4l0.9-1.8c0.4-0.8,0.8-1.5,1.3-2.3c0.8-1.3,1.5-2.6,2.1-4l0.1-0.3c0.1-0.3,0.3-0.6,0.2-1
				C352,323.3,351.7,323.1,351.2,322.8z"/>
			<path id="XMLID_27_" fill="#FFFCEF" d="M323.7,351.6L323.7,351.6c-1.2,0.1-2,0.9-2.6,1.5l-2.7,2.7c-0.5,0.5-0.7,0.5-0.7,0.6
				c-0.2,0-0.4-0.3-0.5-0.5L302.7,339l-4.4,3.4c-0.3,0.3-0.9,0.7-1.1,1.5c-0.3,1.1,0.5,2.1,0.9,2.5l12.4,14.2c0.6,0.7,0.6,1,0.6,1.1
				c0,0.1-0.3,0.3-0.4,0.4c-0.6,0.5-1.1,0.9-1.7,1.4c-0.6,0.5-1.3,1-1.9,1.6c-2,1.7-1.1,3.6-0.6,4.6l0.1,0.3c0.5,1,1.3,2.8,3,2.8
				c1,0,1.7-0.8,2.3-1.4c0.1-0.2,0.3-0.4,0.4-0.5c1-0.8,1.9-1.7,2.9-2.5l11.7-10c0.4-0.3,1-0.9,1.3-1.7c0.4-1.4-0.6-2.6-1-3.2
				C326.6,353,325.5,351.6,323.7,351.6z"/>
			<path id="XMLID_26_" fill="#FFFCEF" d="M276.7,382.8c-0.1-0.7-0.2-1.4-0.3-2c-0.1-0.7-0.2-1.4-0.3-2l-2.7-20.2
				c-0.1-0.8-0.3-2.5-2.3-2.5c-0.4,0-0.9,0.1-1.5,0.2c-3.1,0.5-6.1,0.9-9.2,1.3c-0.9,0.1-1.8,0.2-2.8,0.3c-1.4,0.1-2.7,0.3-4.1,0.5
				c-0.2,0-0.3,0-0.5,0.1c-0.8,0.1-2.4,0.3-2.3,2.3c0,1.4,0.2,2.5,0.4,3.5c0.2,0.8,0.8,2.1,3,2.1c0.9,0,1.9-0.2,2.7-0.4
				c0.4-0.1,0.8-0.2,1.1-0.2l2.6-0.4c1.6-0.2,3.2-0.5,4.8-0.6c0.1,0,0.2,0,0.4-0.1c0.1,0.1,0.2,0.6,0.2,0.7c0.2,0.9,0.3,1.8,0.4,2.8
				c0.1,0.9,0.2,1.8,0.3,2.7c0.1,1,0.2,2,0.3,3l0.4,2.8c0.4,2.8,0.7,5.6,1.1,8.3c0.2,1.4,1,2.2,2.4,2.2c0.4,0,0.9-0.1,1.4-0.2
				c0.2,0,0.5-0.1,0.7-0.1c0.1,0,0.3,0,0.4,0h0.4c1,0,2-0.1,2.7-0.9c0.6-0.9,0.4-1.9,0.2-2.7C276.7,383.1,276.7,382.9,276.7,382.8z"
				/>
			<path id="XMLID_2003_" fill="#FFFCEF" d="M236.1,359.4c-3-2.7-7.1-4.3-11.3-4.3c-4.2,0-8,1.5-10.9,4.2
				c-4.7,4.4-5.8,11.9-2.7,18.2c1,2.1,2.5,4,4.3,5.4c2.8,2.2,6.2,3.4,9.7,3.4c7.3,0,13.9-4.8,15.7-11.5
				C242.4,369.4,240.5,363.4,236.1,359.4z M232.6,371.8c-0.7,3.5-3.3,6.3-6.3,6.8c-0.3,0.1-0.7,0.1-1,0.1c-2.5,0-5.2-1.6-6.5-3.8
				c-1-1.7-1.2-3.9-0.6-6.2c0.8-3.1,3.3-6.2,7-6.2c0.7,0,1.4,0.1,2.1,0.3C230.9,363.9,233.3,367.9,232.6,371.8z"/>
			<path id="XMLID_2000_" fill="#FFFCEF" d="M186.1,334c-1.5,0-3,0.2-4.4,0.7c-7.4,2.3-12.3,10.3-10.9,17.7c1.4,7.4,8.7,13,17,13
				c4.4,0,8.3-1.7,11-4.8c4.4-5,5.2-12.4,1.9-18.1C197.7,337.4,191.9,334,186.1,334z M193.3,353.4c-1.6,2.7-4.5,4.4-7.3,4.4
				c-1.2,0-2.3-0.3-3.3-0.9c-1.9-1-3.1-2.9-3.5-5.1c-0.5-2.5,0.2-5.1,1.8-7c0.1-0.1,0.3-0.3,0.4-0.4c1.4-1.4,3.3-2.1,5.4-2.1
				c3,0,5.6,1.5,6.9,3.9C194.9,348.5,194.7,351.1,193.3,353.4z"/>
			<path id="XMLID_21_" fill="#FFFCEF" d="M171,321.3l-0.1,0.7c-0.1,1.3,0.1,1.7,1.3,2.4c1.4,0.8,4,1.5,5.4,0.7
				c0.2-0.1,0.4-0.3,0.5-0.5c1.2-1.5,1-5.3,1-6.1c-0.2-5-2.8-11.1-7.9-13.5c-1.3-0.6-2.6-0.9-4-0.9c-1.9,0-3.8,0.6-5.4,1.9
				c-4.2,3.3-3.3,9.3-2.6,13.7l0.2,1c0.2,1.2,0.3,3.3-1.1,3.6c-0.5,0.1-1,0.3-1.7-0.8c-0.9-1.4-1.4-3.7-1.2-6.4l0-0.4
				c0.1-1.2,0.2-2.3-1.8-3c-0.8-0.3-1.8-0.5-2.7-0.5c-2,0-3.3,1-3.4,2.6c-0.2,1.8-0.1,3.5,0.2,5.1c0.3,1.8,0.9,3.5,1.8,5.1
				c2,3.9,5.2,6.2,8.8,6.2h0c3.2-0.1,7.2-2,8.5-5.5c1-2.7,0.7-5.7,0.3-8.3c-0.6-4.6,0-5.9,0.3-6.2c0.2-0.3,0.4-0.4,1.4,0.1
				c1,0.5,1.8,2.1,2,3.2C171.3,317.4,171.2,319.4,171,321.3z"/>
			<path id="XMLID_20_" fill="#FFFCEF" d="M164.9,295.9c0.6,0.1,1.4,0.1,2.1,0.1c1.3,0,2.1-0.2,2.5-0.8c0.5-0.6,0.5-1.4,0.5-1.8
				c0-5.8,0.1-12.1,0.2-19.1c0-0.5,0-1.1-0.4-1.7c-0.5-0.8-1.7-0.9-2.6-0.9c-1.2,0-2.6,0.2-3.2,0.4c-1.6,0.4-1.6,1.5-1.6,2.2l0,0.4
				c-0.1,1.6-0.1,3.2-0.1,4.7l0,0.3c0,1,0.1,1.9,0.1,2.9c0.1,1.4,0.1,2.8,0.1,4.2c0,0.1,0,0.2,0,0.4c0,0.1,0,0.3,0,0.4
				c-0.1,0-0.2,0-0.4,0h-0.4c-1.1,0-2.2,0-3.3,0c0,0,0,0-0.1,0c0-0.1,0-0.1,0-0.2l-0.1-4.7c0-0.7-0.1-1.4-0.1-2.1
				c0-0.7-0.1-1.3-0.1-2c0-0.9,0-1.7,0.1-2.6l0.1-1.7l-0.7-0.2c-1.8-0.6-4.2-0.7-5.7,0c-1,0.4-1,1.2-1.1,1.7l0,0.2
				c-0.1,1.5,0,3,0,4.4c0,0.8,0.1,1.7,0.1,2.5c0,0.2,0,0.6,0.1,1c0.1,0.8,0.2,3.2,0.1,3.6c0,0-0.7,0.1-1.3,0c-0.2,0-0.5,0-0.7,0
				c0,0,0,0,0,0h-0.3c-0.5,0-1.1,0-1.7-0.1c0-0.1,0-0.2,0-0.3l0.1-2.8c0-3.7,0-7-0.1-9.9l0-0.3c0-1-0.2-1.9-1.7-2.1
				c-0.5-0.1-1.1-0.1-1.7-0.2l-0.5,0c-0.3,0-0.9-0.1-1.5-0.1c-0.5,0-1.9,0-2.1,1.2c-0.2,2-0.2,4-0.1,5.9c0,0.9,0,1.8,0,2.7
				c0,0.9,0,1.9,0,2.8c0,2.2,0.1,4.6-0.2,6.8l-0.1,0.3c-0.2,1.1-0.5,2.9,0.8,3.8c0.7,0.5,1.5,0.5,2,0.5c7.3,0,14.6,0,21.9,0.1
				C164.1,295.8,164.5,295.8,164.9,295.9z"/>
			<path id="XMLID_19_" fill="#FFFCEF" d="M145.1,252.6c4.9-1.7,12-7.3,17.4-3.3c5.1,3.8,8,5,10.9,4.2c1-0.3,4.1-1.6,3.1-2.6
				c-1.6-1.6-4.3,1.5-5.6,1.1c-1.9-0.6-4.1-2.8-7.1-4.7c-3.1-1.9-7.6-2.9-11.4-1.1c-2.6,1.3-4.4,3.3-7.6,4.1
				c-2.2,0.5-4.7,0.2-6.8-0.4c-0.7-0.2-0.7-1.3-1.5-1.1c-0.4,0.1-2.4,0.3-2.4,0.5C133.2,253.1,141.5,253.9,145.1,252.6z"/>
			<path id="XMLID_18_" fill="#FFFCEF" d="M365.8,251c-1.6-1.6-4.3,1.5-5.6,1.1c-1.9-0.6-4.1-2.8-7.1-4.7c-3.1-1.9-7.6-2.9-11.4-1.1
				c-2.6,1.3-4.4,3.3-7.6,4.1c-2.2,0.5-4.7,0.2-6.8-0.4c-0.7-0.2-0.7-1.3-1.5-1.1c-0.4,0.1-2.4,0.3-2.4,0.5c-0.8,3.7,7.4,4.5,11,3.3
				c4.9-1.7,12-7.3,17.4-3.3c5.1,3.8,8,5,10.9,4.2C363.7,253.3,366.8,251.9,365.8,251z"/>
			<path id="XMLID_1993_" fill="#FFFCEF" d="M139.4,222.9c-0.1,0.7-0.1,1.8,0.6,2.5c0.3,0.3,0.7,0.5,1.2,0.6
				c0.6,0.1,1.3,0.1,2.2,0.1l2.1,0l0.3,0c1.9,0,3.8,0,5.7,0l8,0c1.5,0,3,0,4.4,0c0.2,0,0.5,0,0.8,0.1l0.2,0c0.5,0.1,1.1,0.1,1.6,0.1
				c0.6,0,1.1-0.1,1.5-0.2c1.5-0.6,1.3-1.9,1.2-2.5c0-0.1,0-0.2,0-0.4c0-0.9,0-1.8,0-2.7l0-0.2c0-0.7,0.1-1.9-1.3-2.5
				c-0.4-0.2-1-0.3-1.6-0.3c-0.6,0-1.3,0.1-1.7,0.2c-0.5,0.1-0.9,0.2-1.3,0.2c-0.3,0-0.6,0-0.9,0.1c-0.4,0-0.9,0.1-1.3,0.1
				c-0.5,0-0.7,0-0.9-0.1c0-0.1,0-0.4,0-0.9c0-0.3,0-0.5,0-0.7c-0.1-0.9,0.3-1.7,1-2.2c0.4-0.3,0.8-0.6,1.3-0.8
				c0.3-0.2,0.5-0.3,0.8-0.5c0,0,0.1-0.1,0.3-0.2c1.1-0.6,1.6-0.9,1.9-1.3c0.2-0.1,0.5-0.3,0.8-0.4c1-0.5,2.1-1.1,2.8-2.1
				c0.6-0.9,0.5-2.2,0.5-3.3v-0.1c0-0.3,0-0.6,0-1c0-1,0.2-3.3-1.8-3.8l-0.3,0c-0.9,0-1.6,0.6-2.1,1.1c-0.1,0.1-0.2,0.2-0.3,0.3
				l-2.5,1.7c-1,0.7-2,1.5-3.3,2.5c-0.2,0.2-0.4,0.3-0.4,0.3c-0.2-0.1-0.4-0.7-0.6-1c-0.3-0.6-0.6-1.1-1-1.5c-0.9-0.9-2-1.7-3.2-2.3
				c-2.4-1-5.2-1.2-7.7-0.4c-4.6,1.5-6.7,6.3-6.9,10.4c-0.1,3.6-0.1,7.2-0.1,10.8c0,0.1,0,0.2,0,0.4L139.4,222.9z M147.2,212.4
				c0.3-2.1,1.1-3.2,2.6-3.2h0.3c1.6,0,2.6,1.2,3,3.7c0.3,1.9,0.1,3.8-0.2,4.9c0,0.1,0,0.1,0,0.1s-0.1,0.1-0.5,0.1
				c-0.2,0-0.3,0-0.5,0c-0.2,0-0.4,0-0.7,0l-0.3,0c-1.4,0.1-2.8,0.1-3.7-0.1v0l0-0.2c0-0.1,0-0.3,0-0.4
				C147,215.7,147,214,147.2,212.4z"/>
			<path id="XMLID_15_" fill="#FFFCEF" d="M147.4,183.9c0.6,0.3,1.1,0.6,1.7,0.9c0.5,0.2,1,0.5,1.5,0.7l0.2,0.1
				c0.6,0.3,1.2,0.5,1.8,0.8c3.4,1.7,6.8,3.3,10.1,5c1.7,0.8,3.3,1.7,5,2.5c0.3,0.1,0.6,0.3,0.9,0.5c0.8,0.5,1.7,1,2.6,1
				c0.8,0,1.5-0.4,2.2-1.1c0.9-0.9,1.3-2.2,1.7-3.5c0.2-0.7,0.4-1.3,0.7-1.9l0.6-1.2c0.9-1.9,1.8-3.8,2.8-5.7l0.9-1.8
				c0.1-0.3,0.4-0.6,0.6-0.9c0.4-0.6,0.9-1.2,1.1-2c0.2-0.9,0-1.8-0.6-2.6c-1.1-1.4-3.4-2.4-5-2c-1.1,0.3-1.5,1.2-1.7,1.8l-2.1,4.4
				c-0.5,1.2-1.1,2.3-1.7,3.5c-0.1,0.2-0.2,0.5-0.3,0.8l-0.1,0.3c-0.3,0.7-0.8,2-1.3,2h0c-0.4-0.1-0.8-0.4-1.3-0.6
				c-0.2-0.1-0.5-0.3-0.7-0.4c-0.2-0.1-0.3-0.2-0.5-0.2c-0.6-0.3-0.6-0.3-0.6-0.4c0-0.2,0.3-0.6,0.5-0.9c0.2-0.3,0.4-0.6,0.5-0.9
				c0.2-0.4,0.4-0.8,0.6-1.2l0.5-0.9c0.9-1.9,1.9-3.8,2.8-5.7c1-1.9-0.5-2.8-1.3-3.3l-0.2-0.1c-0.8-0.5-2.2-1.4-3.4-1.4
				c-0.8,0-1.5,0.4-1.8,1c-0.3,0.4-0.5,0.9-0.7,1.4l-4.1,8.3c-0.1,0.2-0.1,0.3-0.2,0.4c-0.1,0-0.1,0-0.2-0.1
				c-0.9-0.3-1.8-0.8-2.7-1.4c0.2-0.3,0.3-0.6,0.5-1l4.4-9c0.1-0.1,0.2-0.3,0.3-0.4c0.3-0.6,0.8-1.2,0.8-1.9c0-0.6-0.2-1.1-0.7-1.7
				c-1.1-1.1-3.2-2.1-4.6-2.1c-0.5,0-0.9,0.1-1.2,0.3c-1.1,0.7-1.6,2.1-2,3.3c-0.1,0.3-0.2,0.6-0.3,0.8c-0.6,1.4-1.3,2.8-2.1,4.4
				c-1.2,2.4-2.4,4.8-3.7,7.2l-0.8,1.5c-0.4,0.8-0.6,1.6-0.3,2.2C146.5,183.1,146.9,183.6,147.4,183.9z"/>
			<path id="XMLID_1989_" fill="#FFFCEF" d="M207.1,149.4c-0.6-0.8-1.8-1.4-2.7-1.8l-0.1-0.1c-0.6-0.3-1.1-0.5-1.7-0.8l-0.1-0.1
				c-0.7-0.3-1.5-0.6-2.2-1l-17.2-9.1c-0.1-0.1-0.3-0.1-0.4-0.2c-0.9-0.5-2-1-3.1-0.7c-1.2,0.3-2,1.2-2.8,2l-0.1,0.1
				c-0.2,0.2-0.3,0.3-0.5,0.5c-0.6,0.5-0.9,1-1,1.5c-0.2,0.7,0,1.3,0.2,1.9c0.1,0.2,0.1,0.3,0.2,0.5l0.3,1
				c1.6,5.5,3.2,11.1,4.7,16.6c0.2,0.8,0.4,1.6,0.6,2.4l0,0.2c0.4,1.8,0.9,3.8,1.7,5.6c0.1,0.3,0.6,1.4,1.7,1.4
				c0.5,0,0.9-0.2,1.3-0.4c0.1-0.1,0.2-0.1,0.4-0.2c0.2-0.1,0.4-0.2,0.7-0.3c1.1-0.5,2.6-1.1,3.1-2.3c0.7-1.5-0.1-3-0.7-4.3
				c-0.3-0.6-0.5-1.1-0.6-1.5c-0.2-1.1,0.4-1.9,2-3.2l4-3.3c0.2-0.1,0.3-0.3,0.5-0.5l0.1-0.1h0c0.4-0.4,0.7-0.7,1.1-0.7h0
				c0.6,0.2,1.4,0.7,2.1,1.2c0.3,0.2,0.7,0.4,1,0.6c1.1,0.6,1.8,0.9,2.6,0.9c1,0,1.9-0.4,2.9-1.5c0.2-0.1,0.3-0.3,0.6-0.5
				C206.6,152.7,208.5,151.2,207.1,149.4z M185.9,151.6c-0.1,0-0.2-0.3-0.5-1.1l-0.1-0.2c-0.1-0.3-0.3-0.7-0.4-1.1
				c-0.4-1.1-0.9-2.4-0.9-3.5c0.3,0.1,0.6,0.3,1.1,0.7l0.1,0.1c0.2,0.1,0.4,0.2,0.5,0.3c0.5,0.3,1,0.6,1.6,0.8l0.2,0.1
				c0.4,0.2,0.9,0.4,1.3,0.7c0.2,0.1,0.4,0.2,0.6,0.3c0,0,0.1,0,0.1,0C188.5,149.8,186.8,151.3,185.9,151.6z"/>
			<path id="XMLID_12_" fill="#FFFCEF" d="M206.1,125.9c0.7,1.8,1.3,3.6,1.9,5.4c1.1,3.4,2.2,7,3.1,10.6c0.1,0.2,0.1,0.5,0.2,0.9
				c0.3,1.5,0.7,3.5,2.4,4.4c0.2,0.1,0.5,0.2,0.8,0.2c0.5,0,1.1-0.2,1.6-0.4l0.3-0.1c1.7-0.5,3.5-1.1,5.2-1.7l0.4-0.1
				c1.3-0.5,2.7-1,4-1.5c1.7-0.6,3.5-1.3,5.2-1.9c0.1,0,0.2-0.1,0.3-0.1c0.5-0.1,1.2-0.3,1.6-0.7c1.2-1.1,0.3-3.2-0.4-4.9
				c-0.1-0.2-0.2-0.4-0.2-0.6c-0.5-1.4-1.4-1.7-2.1-1.7c-0.7,0-1.3,0.3-1.9,0.6l-0.5,0.2c-0.7,0.3-1.4,0.6-2.1,0.9
				c-0.7,0.3-1.4,0.6-2.1,0.9l-0.5,0.2c-2.7,1.3-3.9,1.6-4.5,1.6c-1.4-2.7-2.3-6-3.2-9.1c-0.4-1.4-0.8-2.8-1.2-4.2l-1.8-5.2
				l-0.1-0.3c-0.2-0.7-0.4-1.6-1.2-2c-0.7-0.3-1.8,0-3.2,0.6l-0.2,0.1c-0.1,0-0.2,0.1-0.3,0.1c-0.2,0.1-0.4,0.1-0.6,0.1
				c-0.7,0.1-1.9,0.3-2.4,1.8l-0.1,0.2c-0.4,1.5,0.3,3.1,1,4.5C205.8,125.2,205.9,125.6,206.1,125.9z"/>
			<path id="XMLID_11_" fill="#FFFCEF" d="M255,140.3c2,1.3,4.5,2,6.9,2c3.1,0,5.8-1.2,7.7-3.3c2.6-2.9,3.1-6.7,3.7-10.4l0.1-0.5
				c0.1-0.9,0.2-1.9,0.4-2.9c0.2-2.2,0.5-4.7,1.1-7c0.1-0.2,0.1-0.4,0.2-0.6c0.3-0.8,0.7-1.9,0.2-2.9c-0.5-1-1.6-1.2-2.3-1.3l-0.3,0
				c-0.2,0-0.4-0.1-0.7-0.1c-1-0.2-2.3-0.5-3.3-0.3c-1.7,0.3-1.9,1.4-2.1,2.3l-0.1,0.4c-0.3,1.4-0.4,2.7-0.6,4.1
				c-0.1,0.9-0.2,1.7-0.3,2.6c-0.2,1-0.3,2.1-0.4,3.2c-0.3,2.4-0.5,4.9-1.3,6.9c-0.4,0.9-1.1,1.9-2.5,1.9c-0.8,0-1.7-0.4-2.5-1.1
				c-0.2-0.2-0.4-0.4-0.6-0.7c-0.4-0.5-1-1.2-2-1.2c-0.5,0-1,0.2-1.5,0.5c-0.5,0.3-3,1.8-3.5,3.1c-0.1,0.2-0.1,0.4-0.1,0.6
				C250.9,137,252.2,138.5,255,140.3z"/>
			<path id="XMLID_10_" fill="#FFFCEF" d="M287.7,152.3c1.9,0.9,4,1.3,6.1,1.3c3.3,0,6.2-1.1,8.3-3.2c2.3-2.3,3.8-5.2,5.2-8l0.2-0.4
				c0.3-0.5,0.5-1.1,0.8-1.6l0.2-0.4c4.6-8.3,4.5-8.7,3.4-9.4l-3-1.5c-0.9-0.5-1.6-0.8-2.3-0.8c-1.5,0-2.3,1.4-2.7,2.3
				c-0.8,1.5-1.5,3-2.1,4.4c-1.2,2.7-2.5,5.4-4.3,7.8c-0.6,0.8-2.5,2.9-4.7,2.6c-1.5-0.1-2.7-0.8-3.4-2c-0.8-1.4-0.9-3.2-0.3-4.9
				c1.1-2.7,2.5-5.2,3.9-7.7c0.8-1.5,1.8-3.1,2.6-4.7c0.1-0.1,0.1-0.3,0.2-0.4c0.4-0.8,1.1-2,0.2-3.2c-0.5-0.6-1.4-0.9-2.2-1.3
				c-0.2-0.1-0.4-0.2-0.5-0.2c-0.2-0.1-0.5-0.3-0.7-0.4c-0.6-0.4-1.2-0.8-2-0.8c-0.8,0-1.4,0.4-2,1.1c-1,1.3-1.7,2.9-2.2,4.3
				l-0.1,0.3c-0.2,0.6-0.4,1.1-0.7,1.6c-0.7,1.6-1.5,3.1-2.3,4.7l-0.8,1.7c-0.1,0.3-0.3,0.5-0.4,0.8c-1.1,2.3-2.4,5.8-1.5,9.5
				C281.4,147.5,284,150.6,287.7,152.3z"/>
			<path id="XMLID_9_" fill="#FFFCEF" d="M308.5,159.1c-0.5,0.5-0.8,1.1-0.8,1.8c0,1.4,1,2.5,2,3.5l0.1,0.2c0.2,0.2,0.4,0.4,0.5,0.6
				c0.2,0.3,0.7,0.9,1.4,1.1c0.2,0.1,0.4,0.1,0.7,0.1c1.4,0,2.5-1.3,3.2-2.1l0.2-0.3c0.8-0.9,1.7-1.8,2.7-2.7l0.4-0.4
				c1.1-1,2.2-2,3.4-3.1l4.3-3.9c0.8-0.7,1.6-1.4,2.4-2c1.1-0.9,2.4-2,3.6-3.2c1.9-2,0.7-3.6,0-4.5c-1.3-1.7-2.5-2.7-3.7-2.9
				c-0.2,0-0.2-0.1-0.5,0l-0.3,0c-2.1,0.5-3.5,2.4-4.7,3.9c-0.5,0.6-0.9,1.1-1.3,1.6c-1.4,1.4-2.9,2.7-4.3,4
				c-0.8,0.7-1.7,1.5-2.5,2.2l-5.2,4.8C309.5,158.2,309,158.6,308.5,159.1z"/>
			<path id="XMLID_8_" fill="#FFFCEF" d="M325.8,174.1c-3,4.7-3.2,10.7-0.7,15.6c0.6,1.2,5.4,7.8,8.9,7.8c0.6,0,1.2-0.2,1.7-0.6
				c1.1-0.9,2.2-3.2,2-5c-0.1-1-0.6-1.7-1.4-2.1c-3.3-1.6-6-5.2-4.6-8.9c1.1-3,4.5-5.3,7.9-5.3h0.2c2.1,0.1,3.9,1,5.1,2.5
				c0.8,1.1,1.2,2.5,1.2,4c0,0.6-0.1,1.1-0.1,1.7c-0.2,1.9-0.6,4.4,3.4,5c0.2,0,0.3,0.1,0.6,0.1c0.5,0.1,1,0.2,1.4,0.2
				c1.2,0,2.1-0.7,2.4-1.8c1.1-4.9-0.3-10.2-3.5-14.3c-3-3.8-7.3-6-11.7-6c-2.2,0-4.4,0.5-6.4,1.5
				C329.4,169.9,327.3,171.8,325.8,174.1z"/>
			<path id="XMLID_7_" fill="#FFFCEF" d="M338.9,201.6c-0.9,0-1.9,0.1-2.8,0.1c-0.1,0-0.2,0-0.3,0l-0.8,0c-0.7,0-1.4,0-2,0.3
				c-1.6,0.8-1.4,3.2-1.3,4.7c0,0.2,0,0.4,0,0.5c0,0.8,0.1,1.6,0.1,2.4c0.1,1,0.1,2,0.1,3l0.1,9.8c0,0.4,0,0.9,0.3,1.5
				c0.5,0.9,1.5,1.4,2.9,1.4h0l0.3,0c0.9,0,2.8-0.1,3.7-1.5c0.6-0.9,0.5-1.9,0.5-2.6l-0.4-10.2c0-0.7,0-1,0.1-1.1
				c0.3-0.1,1.1-0.3,2.1-0.3c1.1,0,1.7,0.2,1.8,0.4c0.1,0.1,0.1,0.6,0.1,0.8l-0.2,9c0,0.5,0,1.3,0.4,2c0.8,1.4,2.6,1.5,3.3,1.5
				c0.2,0,0.3,0,0.5,0c0.9,0,2.2-0.1,3-1.2c0.6-0.9,0.6-1.9,0.6-2.6l-0.3-9.3c0-0.1,0-0.2,0-0.3h0.1l0.2,0c0.4,0,0.8-0.1,1.2-0.1
				c0.3,0,0.8-0.1,1.1-0.1c0.3,0,0.5,0,0.5,0c0.1,0.1,0.5,0.8,0.4,5l0,0.3c0,0.2,0,0.4,0,0.6c0,2.3,0,4.5,0,6.8c0,0.3,0,0.9,0.3,1.4
				c0.3,0.6,1,1,1.7,1.1c3,0.4,4.8,0,5.5-1.1c0.5-0.8,0.3-1.8,0.2-2.7l0-0.1c0-0.2-0.1-0.4-0.1-0.5l-0.1-4
				c-0.1-3.7-0.1-7.2-0.1-10.7c0-0.1,0-0.2,0-0.3l0-0.2c0.1-1.1,0.2-2.4-0.5-3.2c-0.1-0.1-0.2-0.2-0.4-0.3c-0.4-0.2-0.8-0.3-1.5-0.3
				c-0.5,0-1,0-1.5,0.1l-0.2,0c-0.3,0-0.6,0.1-0.8,0.1c-2.2,0-4.4,0-6.5,0C346.6,201.5,342.7,201.5,338.9,201.6z"/>
		</g>
		<g id="XMLID_1975_">
			<path id="XMLID_6_" fill="#FFFCEF" d="M288.9,242.6c0.1-1.4,0-2.6-1.3-3.5c-1.5-1-2.9-3.7-2.3-5.5c0.5-1.5,1.2-3.1,1.3-4.7
				c-0.4-0.1-1.5-0.5-1.9,0c-0.4,0.6-7.1,6.8-7.2,7.2c-1.1,3.3-3.2,6.3-3.2,10c0,1.2-0.9,2.2-1.2,3.2c-0.2,0.7-0.4,1.4-0.6,2.1
				c-0.4,1.3-0.9,2.5-1.3,3.8c0,0-2.6,3.9-3.2,4.8c-1.1,1.6-1.6,2.8-3.6,3.3c-2.2,0.5-6.9,1.4-9.9,1.3c-0.6,0-1.2-0.5-1.6-1
				c1.3-0.3,5.8-0.4,7.1-0.6c1.1-0.1,2.9-0.8,3.7-1.7c0.2-0.2,0.7-0.7,0.6-0.9c-0.1-0.4-1-0.2-1.3-0.3c-1.1-0.4-1.8-1-2.5-1.9
				c-1-1.3-5.2-5.6-5.2-5.6l-2.6-3.6c-0.6-1.2-1.6-2.4-1.4-3.8c0.2-0.9,0.5-1.7,0.8-2.6c0.6-2,1.4-3.9,1.9-5.9
				c0.4-1.9,1.4-3.6,0-5.3c-0.6-0.8-2.3-1.8-2.4-2.9c-0.2-1.9,2.6,1.4,2.9,1.7c0.3,0.3,0.7,0.7,1.1,0.7c0.5,0,1.3-0.5,1.8-0.7
				c0.9-0.3,2-1.5,2.7-2.1c0.7-0.6,1.8-1.4,2-2.4c0.4-1.4,0.4-2.2,0.4-2.7c0-1.1-0.1-2.2-0.1-3.4c0-0.7,0-1.4,0.1-2
				c0-0.2,0-0.5,0.1-0.7c0.4-0.8,0.7-0.6,0.9,0.2c0.3,1.1,0.5,2.5,0.6,3.6c0.1,1.2,0.2,2.3,0.3,3.5c0.7,0.2,1,0.1,1.7,0.3
				c0.9,0.3,2,0.4,3,0.4c1,0,3-1.2,3.6-1.4c0.6-0.3,1.1-0.8,1.5-1.2c0.3-0.3,1.4-1.2,1.8-0.7c0.3,0.3-0.2,1.5-0.6,1.7
				c-0.6,0.3-2.2,1.6-2.2,2c0,0.4,1,2.2,1,2.2s0.9,1.2,1.7,1.9c0.5,0.5,0.9,0.8,1.6,1c0.4,0.2,0.7,0.5,1.2,0.4
				c0.7-0.1,1.3-0.5,1.9-0.9c0.8-0.5,1.6-1,2.4-1.5c1-0.7,2-0.6,3.2-0.9c-0.2-0.5-0.6-0.9-0.9-1.4c-0.8-1.1-1.6-2.2-2.4-3.4
				c-0.3-0.4-0.6-0.8-0.8-1.2c0,0-3.3-5.8-5.1-6.1c-2.4-0.4-4.4-1.7-6.6-2.7c-1.3-0.6-2.5-1.5-3.9-1.9c-1.7-0.5-3.4-1-5.1-1.4
				c-1.1-0.3-2.9-0.8-4-0.3c-1.2,0.6-14,11.1-14,11.1l-3.9,4.7l-1,1.2c0,0-5.2,5.1-5.8,5.6c-0.6,0.6-3.6,2.7-3.9,3.8
				c-0.3,1-1.4,3.8-1.7,4.5c-0.3,0.7-0.9,3.3-0.9,4c0,0.4-0.8,1.6-1.2,1c-0.1-0.1,0.1-0.5,0.1-0.6c0.1-0.9,0.3-1.8,0.5-2.7
				c0.4-2.2,0.9-4.5,1.6-6.6c0.1-0.3,0.2-0.7,0.4-0.9c0.9-1.2,4.3-4,4.9-4.5c0.6-0.4,7.2-6.5,7.1-8.4c-0.1-1.9,0.7-9.8,0.7-9.8
				s0-2.6,0-3.5c0-1-1-1.2-1.7-1.5c-0.4-0.2-1.8-1.4-1.2-1.8c0.3-0.2,1.1,0.1,1.5,0.2c0.5,0.1,1,0.2,1.6,0.2c0.4,0,1.6-0.6,1.6-0.6
				c0.8-0.5,1.9-1.7,2.2-2.6c0.5-1.3,1.3-2.2,2-3.4c0.9-1.6,1.5-3.4,2.6-4.8c0.8-1,1.6-2,2.5-2.9c0,0,3.8-4.2,4.3-4.5
				c0.9-0.5,1.8-1.6,1.8-2.7c0-1.1-0.9-2-0.9-3.1c0-0.4-0.5-1.8-0.9-1.8c-0.2,0-0.8,0.6-0.9,0.7c-0.6,0.5-1.2,1-1.8,1.5
				c-1.6,0.8-3.2,1.8-4.9,2.4c-1.1,0.4-2.3,0.7-3.4,1l-1.9,1.9l-5.5,6.2l-5.9,7.8c0,0-4.9,5.9-5.1,7.2s-3.6,20.2-3.6,20.2l-2.2,15.3
				l-2.6,15.9v4.2c0,10.8-1.5,22.1,0,33c0.6,4.2,1,8.5,1.6,12.7c0.2,1.7-0.4,4.9,0.8,6.4c0.9,1.1,2.5,0.4,3.9,0.4
				c6.2-0.1,12.5,1.1,18.7,1.8c1.2,0.1,6.8,0.2,7.4-1.4c1-2.6,1.9-5.2,2.9-7.8c0.9-2.4,1.5-4.9,2.6-7.1c1.1-2.3,3-3.8,4.7-5.6
				c0.6-0.6,10.6-9.1,10.6-9.1l2.2-1.4c0,0,7.2-7.1,9-10.3c1.7-3.2,1.7-6.1,2.2-7.1c0.4-1,0.9-3.8,1.2-4.6s0.9-4.8,0.9-4.8
				s-3.6-4.2-3.8-5.1c0-0.3,0.2-1.1,0.7-0.6c0.6,0.6,1.6,2,2.2,2.6c0.2,0.2,0.4,0.4,0.6,0.6c0.4,0.4,1.1-0.3,1.3-0.6
				c0.3-0.4,0.1-1.1,0.1-1.6c0-0.1-0.4-0.5-0.4-0.6c-0.3-0.4-0.7-0.8-1-1.2c-0.7-0.9-1.5-1.8-2.3-2.8c-0.9-1.2-1.7-2.4-2.2-3.8
				c0-0.1-0.1-0.2-0.1-0.3c0-0.2,0.4-0.8,0.6-0.9c0.5-0.2,0.7,0.7,0.9,1.1c0.7,1.3,1.6,2.3,2.3,3.6c0.3,0.5,1,1.2,1.3,1.6
				c0.3,0.3,0.1,0,0.4,0.4c0.2,0.2,0.8,0.6,1,0.6c0.4,0,0.4,0,0.6-0.3c0.4-0.7,0.5-1.2,0.7-2c0.2-0.6,0.7-1.6,0.5-2.2
				C289.3,245.3,288.8,244.2,288.9,242.6z"/>
			<path id="XMLID_5_" fill="#FFFCEF" d="M290.6,230.7c-0.1-0.3-0.4-0.6-0.6-0.9c-0.3-0.3-0.6-0.7-0.9-0.9c-0.3-0.2-0.9-0.1-1.2-0.1
				c-0.4,2.2-1.2,4.6-1.2,6.9c0,0.7,0.5,0.8,0.9,1.4c0.3,0.5,1.2,1,1.7,0.5c0.6-0.5,0.7-1.8,1-2.5
				C290.7,233.7,291,232.2,290.6,230.7z"/>
			<path id="XMLID_4_" fill="#FFFCEF" d="M219.1,241.8c0.2-1.7,0.4-3.3,0.6-5c0.5-3.8,0.9-7.5,1.4-11.3c0,0,3-17.6,3-18.2
				c0-0.6,2.7-3.7,2.7-3.7l3.3-4.6c0.3-0.5,0.7-0.9,1.1-1.4c1.5-1.9,2.9-3.8,4.4-5.8c0.5-0.7,1.2-1.4,1.7-2.2
				c0.4-0.7,0.8-2.8,0.3-3.5c-0.4-0.5-1.5-1.1-2-1.4c-0.8,1.1-1.4,2.5-2,3.7c-0.2,0.3-1,0.6-1.4,0.8c-0.7,0.4-3.7,1.8-4.3,2.3
				l-1.1,1.4l-7.1,15.2c0,0-1.4,2.9-1.7,3.9c-0.3,1-0.9,4.8-0.9,5.3c0,0.6,0,14.7,0,14.7c0,0.2,0,0.5,0,0.7c0,5.2,0,10.5-0.1,15.7
				c0,0.5,0,1,0,1.5c0,0.1,0.2,1,0.1,1.1c1-1,1-3.3,1.4-4.6C219,245,218.9,243.3,219.1,241.8z"/>
			<path id="XMLID_3_" fill="#FFFCEF" d="M230.7,188.7c0.7-0.4,1.1-0.3,1.6-1c0.4-0.4,0.9-1.2,1.1-1.7c0.1-0.2,0.5-1.5,0.4-1.5
				c0,0-0.8-0.2-1.2,0c-1.1,0.4-1.7,1.1-2.7,1.8c-0.5,0.3-1.2,1.3-1.3,1.8c-0.1,0.5-0.1,1.1,0,1.5
				C229.3,189.5,230.2,189,230.7,188.7z"/>
			<path id="XMLID_2_" fill="#FFFCEF" d="M212.8,205.6c0,0-1.4,0-1.4,0c-1.7,0-2.2,2-2.2,3.3c0,0.4,2,6.9,2.2,7.5
				c0.1,0.6-0.1,9.1,0,10.3c0.1,1.2,1.3,7.3,1.3,7.3c0.2,1.1,0.7,2.1,1,3.2c0.3,1.1,0.6,4.1,1.6,4.8c0.1,0.1,0.5-2.4,0.5-2.6
				c0-1.6-0.2-3.1,0-4.7V217v-4.5v-2.6c0-0.7-0.6-1.7-0.9-2.3C214.6,206.9,213.7,205.6,212.8,205.6z"/>
			<path id="XMLID_1_" fill="#FFFCEF" d="M253,179.2c0.3-0.3,0.5-0.8,0.6-1.2c-0.7-0.2-1.6,0-2.3,0c0,0-2.1,0.3-2.4,0.6
				c-0.3,0.2-1.6,1.6-1.6,1.6c-0.7,0.7-1.3,1.5-2,2.1c-0.2,0.2-0.4,0.4-0.5,0.6c0.5,0.1,1.2-0.4,1.7-0.6
				C248.5,181.6,251.3,180.8,253,179.2z"/>
		</g>
	</g>
</g>
</svg>
