<?xml version="1.0" encoding="utf-8"?>
<!-- Generator: Adobe Illustrator 19.0.0, SVG Export Plug-In . SVG Version: 6.00 Build 0)  -->
<!DOCTYPE svg PUBLIC "-//W3C//DTD SVG 1.1//EN" "http://www.w3.org/Graphics/SVG/1.1/DTD/svg11.dtd">
<svg version="1.1" id="Layer_1" xmlns="http://www.w3.org/2000/svg" xmlns:xlink="http://www.w3.org/1999/xlink" x="0px" y="0px"
	 viewBox="0 0 565 480" enable-background="new 0 0 565 480" xml:space="preserve">
<g>
	<path id="XMLID_195_" fill="#4769B2" d="M123.8,21c1.8,0.9,7.6-1.8,9.3-2.5c4.4-1.8,8.5-2.8,13.5-1.9c6,1.2,11.1,4.3,16.8,6.2
		c6.6,2.3,14.1,2.8,21.1,1.7c13-2.2,25.1-10.3,38.2-8.1c5.2,0.9,9.9,3.4,15,4.7c8.6,2.2,17.9,0.7,26.5-1.5c8.6-2.2,17-5.2,25.9-6.2
		c4.8-0.5,9.8-0.4,14.4,0.7c5.6,1.4,10.5,5,16.2,6.6c15.5,4.4,28.7,0.8,43.1-5.3c13.6-5.7,22.4,3.3,35.3,6.9
		c4.3,1.2,9.2,1.2,13.4,1.2c7.8,0,13.9-1.8,19.6-4c0,0,9.8-10.1-0.6-6.1c-12.4,4.8-24.7,9.4-36.7,0.8c-4.9-3.5-10.6-5.7-16.9-6.6
		c-6.3-0.9-10.3,0.8-16.2,2.6c-7.5,2.2-15,5.8-23.1,6.3c-8.1,0.5-14.9-4.3-21.8-7.2c-10.6-4.6-24.4-7-35.7-2.5
		c-10,4-16.5,8.3-28.1,8.1c-3.4-0.1-6.9-0.2-10.2-0.9c-9.7-2.1-18.1-7-28.1-6.5c-7.4,0.4-12.9,2.7-19.2,6c-10.7,5.6-25.5,7-35.8,0.9
		c-2.3-1.3-4.3-3-6.8-4.1c-7.2-3.2-16.2-0.8-23.4,2.4c-1.3,0.6-4.3,2.4-5.8,4.3C122.5,18.7,122.1,20.1,123.8,21z"/>
	<path id="XMLID_194_" fill="#4769B2" d="M431.4,463.9c-12.4,4.8-24.7,9.4-36.7,0.8c-4.9-3.5-10.6-5.7-16.9-6.6
		c-6.3-0.9-10.3,0.8-16.2,2.6c-7.5,2.2-15,5.8-23.1,6.3c-8.1,0.5-14.9-4.3-21.8-7.2c-10.6-4.6-24.4-7-35.7-2.5
		c-10,4-16.5,8.3-28.1,8.1c-3.4-0.1-6.9-0.2-10.2-0.9c-9.7-2.1-18.1-7-28.1-6.5c-7.4,0.4-12.9,2.7-19.2,6c-10.7,5.6-25.5,7-35.8,0.9
		c-2.3-1.3-4.3-3-6.8-4.1c-7.2-3.2-16.2-0.8-23.4,2.4c-1.3,0.6-4.3,2.4-5.8,4.3c-1.2,1.4-1.6,2.9,0.1,3.8c1.8,0.9,7.6-1.8,9.3-2.5
		c4.4-1.8,8.5-2.8,13.5-1.9c6,1.2,11.1,4.3,16.8,6.2c6.6,2.3,14.1,2.8,21.1,1.7c13-2.2,25.1-10.3,38.2-8.1c5.2,0.9,9.9,3.4,15,4.7
		c8.6,2.2,17.9,0.7,26.5-1.5c8.6-2.2,17-5.2,25.9-6.2c4.8-0.5,9.8-0.4,14.4,0.7c5.6,1.4,10.5,5,16.2,6.6c15.5,4.4,28.7,0.8,43.1-5.3
		c13.6-5.7,22.4,3.3,35.3,6.9c4.3,1.2,9.2,1.2,13.4,1.2c7.8,0,13.9-1.8,19.6-4C432,470,441.8,459.9,431.4,463.9z"/>
	<path fill="#4769B2" d="M395.6,95.2V78.9h-4.2v1c-1.4-0.8-3.1-1.4-4.8-1.4c-5.1,0-8.1,4.1-8.1,8.5c0,4.3,3,8.5,8.1,8.5
		c1.8,0,3.4-0.5,4.8-1.4v1.2H395.6z M387.4,91.7c-3,0-4.9-2.2-4.9-4.7c0-2.4,1.9-4.7,4.9-4.7c1.6,0,3,0.5,4,1.4v6.6
		C390.4,91.2,389,91.7,387.4,91.7z"/>
	<path id="XMLID_191_" fill="#4769B2" d="M194.7,78.9v16.4h4.2V83.6c0.9-0.8,2.1-1.3,3.6-1.3c2.3,0,3.6,1.2,3.6,3.8v9.1h4.2v-9.1
		c0-5.3-2.2-7.5-7-7.5c-1.7,0-3.2,0.5-4.4,1.3v-1H194.7z"/>
	<rect id="XMLID_190_" x="356.8" y="78.9" fill="#4769B2" width="4.2" height="16.4"/>
	<path fill="#4769B2" d="M419.6,87c0-5.1-3.7-8.5-8.3-8.5c-1.7,0-3.4,0.5-4.8,1.2v-7.3h-4.2v22.8h4.2v-1c1.4,0.8,3,1.3,4.8,1.3
		C415.9,95.5,419.6,92.1,419.6,87z M406.6,90.3v-6.6c1-0.8,2.4-1.4,4-1.4c2.8,0,4.9,2,4.9,4.7c0,2.8-2.1,4.7-4.9,4.7
		C409,91.7,407.6,91.2,406.6,90.3z"/>
	<rect id="XMLID_187_" x="368" y="72.5" fill="#4769B2" width="4.2" height="22.8"/>
	<path fill="#4769B2" d="M243.3,78.6c-4.9,0-8.4,3.8-8.4,8.5c0,4.7,3.4,8.4,8.4,8.4c3.2,0,5.9-1.3,7.4-3.4l-2.7-2.2
		c-0.9,1.2-2.5,2-4.2,2c-2.5,0-4.2-1.5-4.7-3.7h12.1c0-0.3,0-0.6,0-0.9C251.2,82.2,248.3,78.6,243.3,78.6z M239.1,85.6
		c0.4-2,2-3.7,4.2-3.7c2.8,0,3.8,1.8,4,3.7H239.1z"/>
	<path id="XMLID_184_" fill="#4769B2" d="M263.5,92.1c-2.1,0-3.6-0.5-5.6-1.3l-1.6,3.1c2.4,1.2,4.3,1.6,7.1,1.6
		c4.2,0,6.6-2.1,6.6-5.2c0-3-2.2-4.3-6-5.1c-2.6-0.5-3.6-1-3.6-1.9c0-0.9,0.8-1.4,2.4-1.4c1.6,0,3.5,0.5,5.1,1.1l1.4-3.1
		c-1.8-0.7-3.8-1.3-6.4-1.3c-3.8,0-6.2,2.1-6.2,5c0,3.2,2.6,4.3,6.1,5.1c2.5,0.5,3.5,1,3.5,1.9C266.2,91.4,265.5,92.1,263.5,92.1z"
		/>
	<path fill="#4769B2" d="M345.7,79.9c-1.4-0.8-3.1-1.4-4.8-1.4c-5.1,0-8.1,4.1-8.1,8.5c0,4.3,3,8.5,8.1,8.5c1.8,0,3.4-0.5,4.8-1.4
		v1.2h4.2V78.9h-4.2V79.9z M345.7,90.3c-1,0.9-2.4,1.4-4,1.4c-3,0-4.9-2.2-4.9-4.7c0-2.4,1.9-4.7,4.9-4.7c1.6,0,3,0.5,4,1.4V90.3z"
		/>
	<path id="XMLID_181_" fill="#4769B2" d="M223.2,92.1c-2.1,0-3.6-0.5-5.6-1.3l-1.6,3.1c2.4,1.2,4.3,1.6,7.1,1.6
		c4.2,0,6.6-2.1,6.6-5.2c0-3-2.2-4.3-6-5.1c-2.6-0.5-3.6-1-3.6-1.9c0-0.9,0.8-1.4,2.4-1.4c1.6,0,3.5,0.5,5.1,1.1l1.4-3.1
		c-1.8-0.7-3.8-1.3-6.4-1.3c-3.8,0-6.2,2.1-6.2,5c0,3.2,2.6,4.3,6.1,5.1c2.5,0.5,3.5,1,3.5,1.9C225.9,91.4,225.1,92.1,223.2,92.1z"
		/>
	<path fill="#4769B2" d="M297.3,74l-10.1,21.3h4.6l1.9-4.3h9.5l1.9,4.3h4.6L299.5,74H297.3z M295.2,87.3l3.2-7l3.2,7H295.2z"/>
	<polygon id="XMLID_178_" fill="#4769B2" points="329,78.9 324.6,78.9 320.2,88.1 315.7,78.9 311.3,78.9 319.2,95.2 321.2,95.2 	"/>
	<path id="XMLID_177_" fill="#4769B2" d="M358.9,72.2c-1.3,0-2.4,1.1-2.4,2.5c0,1.4,1.1,2.4,2.4,2.4c1.3,0,2.4-1.1,2.4-2.4
		C361.3,73.3,360.2,72.2,358.9,72.2z"/>
	<path fill="#4769B2" d="M183.7,79.9c-1.4-0.8-3.1-1.4-4.8-1.4c-5.1,0-8.1,4.1-8.1,8.5c0,4.3,3,8.5,8.1,8.5c1.8,0,3.4-0.5,4.8-1.4
		v1.2h4.2V78.9h-4.2V79.9z M183.7,90.3c-1,0.9-2.4,1.4-4,1.4c-3,0-4.9-2.2-4.9-4.7c0-2.4,1.9-4.7,4.9-4.7c1.6,0,3,0.5,4,1.4V90.3z"
		/>
	<path id="XMLID_174_" fill="#4769B2" d="M124,95.5c3.6,0,6.7-1.6,8.8-4l-3.3-2.8c-1.2,1.7-3.2,2.8-5.4,2.8c-3.7,0-6.8-2.8-6.8-6.8
		c0-4.1,3-6.8,6.8-6.8c2.2,0,4.2,1.1,5.4,2.8l3.3-2.8c-2.1-2.5-5.2-4.1-8.8-4.1c-6.2,0-11.2,4.9-11.2,10.9
		C112.8,90.6,117.8,95.5,124,95.5z"/>
	<path fill="#4769B2" d="M164.9,92.1l-2.7-2.2c-0.9,1.2-2.5,2-4.2,2c-2.5,0-4.2-1.5-4.7-3.7h12.1c0-0.3,0-0.6,0-0.9
		c0-5.1-2.9-8.8-8-8.8c-4.9,0-8.4,3.8-8.4,8.5c0,4.7,3.4,8.4,8.4,8.4C160.7,95.5,163.4,94.2,164.9,92.1z M157.5,81.9
		c2.8,0,3.8,1.8,4,3.7h-8.1C153.7,83.5,155.3,81.9,157.5,81.9z"/>
	<rect id="XMLID_171_" x="138.8" y="72.5" fill="#4769B2" width="4.2" height="22.8"/>
	<path fill="#4769B2" d="M444.5,95.5c3.2,0,5.9-1.3,7.4-3.4l-2.7-2.2c-0.9,1.2-2.5,2-4.2,2c-2.5,0-4.2-1.5-4.7-3.7h12.1
		c0-0.3,0-0.6,0-0.9c0-5.1-2.9-8.8-8-8.8c-4.9,0-8.4,3.8-8.4,8.5C436.1,91.7,439.6,95.5,444.5,95.5z M444.5,81.9
		c2.8,0,3.8,1.8,4,3.7h-8.1C440.7,83.5,442.3,81.9,444.5,81.9z"/>
	<rect id="XMLID_168_" x="425.8" y="72.5" fill="#4769B2" width="4.2" height="22.8"/>
	<path fill="#4769B2" d="M19.9,190.6v-4.3c1.4,0.2,3,0.6,4.2,1.1l1.5-2.9c-1.5-0.7-3.5-1.3-5.7-1.4V182h-1.6v1
		c-3.9,0.2-6.3,2.4-6.3,5.4c0,3.4,2.8,4.5,6.3,5.4v4.5c-1.8-0.1-3.2-0.4-5.2-1.4l-1.4,2.8c2.6,1.3,4.1,1.6,6.6,1.7v1.6h1.6v-1.6
		c3.8-0.2,6.4-2.2,6.4-5.5C26.2,192.7,23.7,191.5,19.9,190.6z M18.2,190.2c-1.6-0.5-2.6-1-2.6-2.1c0-1.1,0.9-1.9,2.6-1.9V190.2z
		 M19.9,198.3v-4.1c1.6,0.5,2.6,1,2.6,2.1C22.5,197.5,21.5,198.2,19.9,198.3z"/>
	<path fill="#4769B2" d="M38.5,201.3h3.6v-3.9h2.5v-3.1h-2.5v-11.1h-2.8l-10.8,12.5l0.7,1.6h9.4V201.3z M33.7,194.3l4.8-5.6v5.6
		H33.7z"/>
	<path id="XMLID_162_" fill="#4769B2" d="M55.2,189.6c-1.5,0-2.9,0.2-3.8,0.5l0.1-3.7h8.9v-3.2h-12l-0.2,8.9l1.5,0.9
		c0.4-0.2,2.8-0.6,4.5-0.6c2.7,0,3.5,1.7,3.5,3c0,1.7-1.5,2.9-3.5,2.9c-2,0-3.6-0.2-5.5-0.9l-1.3,2.9c2.2,1,3.9,1.2,6.7,1.2
		c4.3,0,7.2-2.2,7.2-5.8C61.1,192.2,58.9,189.6,55.2,189.6z"/>
	<polygon id="XMLID_161_" fill="#4769B2" points="13.2,164.1 13.2,146 11.5,146 5.4,147.4 6.2,150.4 9.5,149.6 9.5,164.1 	"/>
	<path fill="#4769B2" d="M76.3,164.1v-13.9h-3.6v0.9c-1.2-0.7-2.6-1.2-4.1-1.2c-4.4,0-6.9,3.5-6.9,7.2c0,3.7,2.6,7.2,6.9,7.2
		c1.5,0,2.9-0.5,4.1-1.2v1H76.3z M69.3,161.1c-2.5,0-4.1-1.9-4.1-4c0-2.1,1.6-4,4.1-4c1.3,0,2.6,0.5,3.4,1.2v5.6
		C71.9,160.7,70.7,161.1,69.3,161.1z"/>
	<path id="XMLID_158_" fill="#4769B2" d="M86.7,164.1c-0.8,1.6-2.5,2.1-4.4,2.1h-0.4l-0.4,2.7c0.4,0,0.8,0,1.3,0
		c2.9,0,6.2-0.9,7.4-4.1l5.8-14.7h-3.7l-3.6,9.5h-0.3l-3.7-9.5h-3.7l5.4,13.9H86.7z"/>
	<path fill="#4769B2" d="M56.5,155.1c0-5-4.1-9.1-9.1-9.1h-7.2v18.1h7.8C52.7,164.1,56.5,159.9,56.5,155.1z M43.8,160.8v-11.4h3.6
		c3,0,5.5,2.6,5.5,5.7c0,3-2.3,5.7-5.2,5.7H43.8z"/>
	<path id="XMLID_155_" fill="#4769B2" d="M25,156.8c1,0,2.5,1.1,4.1,1.1c1.6,0,2.8-1.5,3-4l-1.6-0.2c-0.3,1-0.9,1.6-1.6,1.6
		c-1,0-2.5-1.1-4.1-1.1c-1.7,0-3,1.4-3,4l1.6,0.2C23.6,157.4,24.2,156.8,25,156.8z"/>
	<path fill="#4769B2" d="M169.3,197l-1.4,2.8c2.6,1.3,4.1,1.6,6.6,1.7v1.6h1.6v-1.6c3.8-0.2,6.4-2.2,6.4-5.5c0-3.3-2.6-4.5-6.4-5.4
		v-4.3c1.4,0.2,3,0.6,4.2,1.1l1.5-2.9c-1.5-0.7-3.5-1.3-5.7-1.4V182h-1.6v1c-3.9,0.2-6.3,2.4-6.3,5.4c0,3.4,2.8,4.5,6.3,5.4v4.5
		C172.7,198.3,171.3,198,169.3,197z M176.1,194.3c1.6,0.5,2.6,1,2.6,2.1c0,1.2-1,1.9-2.6,2V194.3z M171.9,188.2
		c0-1.1,0.9-1.9,2.6-1.9v4C172.9,189.7,171.9,189.3,171.9,188.2z"/>
	<path id="XMLID_151_" fill="#4769B2" d="M210.5,198.2h-7.3c1.2-0.9,7.3-2.6,7.3-8.3c0-3.9-3.3-6.8-7-6.8c-3.7,0-6.9,2.8-6.9,6.8
		v0.4h3.3V190c0-2.5,2-3.6,3.5-3.6c2,0,3.6,1.6,3.6,3.6c0,4.6-6.2,4.6-10.4,9.9v1.4h13.9V198.2z"/>
	<path id="XMLID_150_" fill="#4769B2" d="M220.3,198.4c-2,0-3.6-0.2-5.5-0.9l-1.3,2.9c2.2,1,3.9,1.2,6.7,1.2c4.3,0,7.2-2.2,7.2-5.8
		c0-3.6-2.2-6.1-6-6.1c-1.5,0-2.9,0.2-3.8,0.5l0.1-3.7h8.9v-3.2h-12l-0.2,8.9l1.5,0.9c0.4-0.2,2.8-0.6,4.5-0.6c2.7,0,3.5,1.7,3.5,3
		C223.8,197.2,222.3,198.4,220.3,198.4z"/>
	<polygon id="XMLID_149_" fill="#4769B2" points="192.5,201.4 192.5,183.3 190.8,183.3 184.8,184.6 185.5,187.6 188.8,186.8 
		188.8,201.4 	"/>
	<path fill="#4769B2" d="M187.9,164.2h7.8c4.7,0,8.5-4.2,8.5-9c0-5-4.1-9.1-9.1-9.1h-7.2V164.2z M191.5,149.5h3.6
		c3,0,5.5,2.6,5.5,5.7c0,3-2.3,5.7-5.2,5.7h-3.9V149.5z"/>
	<path id="XMLID_146_" fill="#4769B2" d="M178.4,155.4c-1,0-2.5-1.1-4.1-1.1c-1.7,0-3,1.4-3,4l1.6,0.2c0.3-1,0.9-1.6,1.7-1.6
		c1,0,2.5,1.1,4.1,1.1c1.6,0,2.8-1.5,3-4l-1.6-0.2C179.7,154.7,179.1,155.4,178.4,155.4z"/>
	<path fill="#4769B2" d="M209.4,157.2c0,3.7,2.6,7.2,6.9,7.2c1.5,0,2.9-0.5,4.1-1.2v1h3.6v-13.9h-3.6v0.9c-1.2-0.7-2.6-1.2-4.1-1.2
		C212,150,209.4,153.5,209.4,157.2z M217,153.2c1.3,0,2.6,0.5,3.4,1.2v5.6c-0.9,0.7-2.1,1.2-3.4,1.2c-2.5,0-4.1-1.9-4.1-4
		C212.9,155.1,214.5,153.2,217,153.2z"/>
	<path id="XMLID_143_" fill="#4769B2" d="M165.9,152.7c0-3.9-3.3-6.8-7-6.8c-3.7,0-6.9,2.8-6.9,6.8v0.4h3.3v-0.2
		c0-2.5,2-3.6,3.5-3.6c2,0,3.6,1.6,3.6,3.6c0,4.6-6.2,4.6-10.4,9.9v1.4h13.9V161h-7.3C159.8,160.1,165.9,158.4,165.9,152.7z"/>
	<path id="XMLID_142_" fill="#4769B2" d="M228.6,150.3l5.4,13.9h0.3c-0.8,1.6-2.5,2.1-4.4,2.1h-0.4l-0.4,2.7c0.4,0,0.8,0,1.3,0
		c2.9,0,6.2-0.9,7.4-4.1l5.8-14.7h-3.7l-3.6,9.5H236l-3.7-9.5H228.6z"/>
	<path id="XMLID_141_" fill="#4769B2" d="M337.8,200v1.4h13.9v-3.2h-7.3c1.2-0.9,7.3-2.6,7.3-8.3c0-3.9-3.3-6.8-7-6.8
		c-3.7,0-6.9,2.8-6.9,6.8v0.4h3.3V190c0-2.5,2-3.6,3.5-3.6c2,0,3.6,1.6,3.6,3.6C348.2,194.7,342,194.7,337.8,200z"/>
	<path fill="#4769B2" d="M327,203.2h1.6v-1.6c3.8-0.2,6.4-2.2,6.4-5.5c0-3.3-2.6-4.5-6.4-5.4v-4.3c1.4,0.2,3,0.6,4.2,1.1l1.5-2.9
		c-1.5-0.7-3.5-1.3-5.7-1.4V182H327v1c-3.9,0.2-6.3,2.4-6.3,5.4c0,3.4,2.8,4.5,6.3,5.4v4.5c-1.8-0.1-3.2-0.4-5.2-1.4l-1.4,2.8
		c2.6,1.3,4.1,1.6,6.6,1.7V203.2z M328.6,194.3c1.6,0.5,2.6,1,2.6,2.1c0,1.2-1,1.9-2.6,2V194.3z M324.4,188.2c0-1.1,0.9-1.9,2.6-1.9
		v4C325.4,189.7,324.4,189.3,324.4,188.2z"/>
	<path fill="#4769B2" d="M382.5,183.1c-4.5,0-8.3,3.4-8.3,9.2c0,5.9,3.7,9.2,8.3,9.2c4.6,0,8.3-3.4,8.3-9.2
		C390.7,186.5,387,183.1,382.5,183.1z M382.5,198.1c-2.5,0-4.6-2.4-4.6-5.8c0-3.4,2.1-5.8,4.6-5.8c2.5,0,4.6,2.4,4.6,5.8
		C387,195.7,385,198.1,382.5,198.1z"/>
	<path fill="#4769B2" d="M371.2,192.3c0-5.9-3.7-9.2-8.3-9.2c-4.5,0-8.3,3.4-8.3,9.2c0,5.9,3.7,9.2,8.3,9.2
		C367.5,201.6,371.2,198.2,371.2,192.3z M363,198.1c-2.5,0-4.6-2.4-4.6-5.8c0-3.4,2.1-5.8,4.6-5.8c2.5,0,4.6,2.4,4.6,5.8
		C367.5,195.7,365.5,198.1,363,198.1z"/>
	<path fill="#4769B2" d="M369.3,157.2c0,3.7,2.6,7.2,6.9,7.2c1.5,0,2.9-0.5,4.1-1.2v1h3.6v-13.9h-3.6v0.9c-1.2-0.7-2.6-1.2-4.1-1.2
		C371.9,150,369.3,153.5,369.3,157.2z M380.4,154.4v5.6c-0.9,0.7-2.1,1.2-3.4,1.2c-2.5,0-4.1-1.9-4.1-4c0-2.1,1.6-4,4.1-4
		C378.3,153.2,379.5,153.7,380.4,154.4z"/>
	<path fill="#4769B2" d="M347.8,146.1v18.1h7.8c4.7,0,8.5-4.2,8.5-9c0-5-4.1-9.1-9.1-9.1H347.8z M360.5,155.2c0,3-2.3,5.7-5.2,5.7
		h-3.9v-11.4h3.6C358,149.5,360.5,152,360.5,155.2z"/>
	<path id="XMLID_129_" fill="#4769B2" d="M309,155l1.5,0.9c0.4-0.2,2.8-0.6,4.5-0.6c2.7,0,3.5,1.7,3.5,3c0,1.7-1.5,2.9-3.5,2.9
		c-2,0-3.6-0.2-5.5-0.9l-1.3,2.9c2.2,1,3.9,1.2,6.7,1.2c4.3,0,7.2-2.2,7.2-5.8c0-3.6-2.2-6.1-6-6.1c-1.5,0-2.9,0.2-3.8,0.5l0.1-3.7
		h8.9v-3.2h-12L309,155z"/>
	<path id="XMLID_128_" fill="#4769B2" d="M399.8,150.3l-3.6,9.5H396l-3.7-9.5h-3.7l5.4,13.9h0.3c-0.8,1.6-2.5,2.1-4.4,2.1h-0.4
		L389,169c0.4,0,0.8,0,1.3,0c2.9,0,6.2-0.9,7.4-4.1l5.8-14.7H399.8z"/>
	<path id="XMLID_127_" fill="#4769B2" d="M329.3,158.2l1.6,0.2c0.3-1,0.9-1.6,1.7-1.6c1,0,2.5,1.1,4.1,1.1c1.6,0,2.8-1.5,3-4
		l-1.6-0.2c-0.3,1-0.9,1.6-1.6,1.6c-1,0-2.5-1.1-4.1-1.1C330.6,154.3,329.3,155.7,329.3,158.2z"/>
	<path fill="#4769B2" d="M519.3,183.1c-4.5,0-8.3,3.4-8.3,9.2c0,5.9,3.7,9.2,8.3,9.2c4.6,0,8.3-3.4,8.3-9.2
		C527.5,186.5,523.8,183.1,519.3,183.1z M519.3,198.1c-2.5,0-4.6-2.4-4.6-5.8c0-3.4,2.1-5.8,4.6-5.8c2.5,0,4.6,2.4,4.6,5.8
		C523.8,195.7,521.8,198.1,519.3,198.1z"/>
	<path fill="#4769B2" d="M485.1,190.7v-4.3c1.4,0.2,3,0.6,4.2,1.1l1.5-2.9c-1.5-0.7-3.5-1.3-5.7-1.4V182h-1.6v1
		c-3.9,0.2-6.3,2.4-6.3,5.4c0,3.4,2.8,4.5,6.3,5.4v4.5c-1.8-0.1-3.2-0.4-5.2-1.4l-1.4,2.8c2.6,1.3,4.1,1.6,6.6,1.7v1.6h1.6v-1.6
		c3.8-0.2,6.4-2.2,6.4-5.5C491.5,192.8,488.9,191.5,485.1,190.7z M483.5,190.2c-1.6-0.5-2.6-1-2.6-2.1c0-1.1,0.9-1.9,2.6-1.9V190.2z
		 M485.1,198.4v-4.1c1.6,0.5,2.6,1,2.6,2.1C487.7,197.6,486.7,198.3,485.1,198.4z"/>
	<path id="XMLID_121_" fill="#4769B2" d="M508.2,195.8c0-2.9-2-4.5-5-5.1l4.5-5.8v-1.7H495v3.2h7.5l-4,5l0.6,1.6h1.4
		c3.4,0,4.1,1.8,4.1,2.8c0,1.4-1.4,2.6-3.5,2.6c-2,0-3.6-0.2-5.4-1l-1.3,2.9c2.3,1,3.9,1.3,6.6,1.3
		C505.3,201.6,508.2,199.4,508.2,195.8z"/>
	<path fill="#4769B2" d="M538.8,183.1c-4.5,0-8.3,3.4-8.3,9.2c0,5.9,3.7,9.2,8.3,9.2c4.6,0,8.3-3.4,8.3-9.2
		C547,186.5,543.3,183.1,538.8,183.1z M538.8,198.1c-2.5,0-4.6-2.4-4.6-5.8c0-3.4,2.1-5.8,4.6-5.8c2.5,0,4.6,2.4,4.6,5.8
		C543.3,195.7,541.3,198.1,538.8,198.1z"/>
	<path fill="#4769B2" d="M520.1,155.2c0-5-4.1-9.1-9.1-9.1h-7.2v18.1h7.8C516.4,164.2,520.1,160,520.1,155.2z M507.4,160.8v-11.4
		h3.6c3,0,5.5,2.6,5.5,5.7c0,3-2.3,5.7-5.2,5.7H507.4z"/>
	<path id="XMLID_116_" fill="#4769B2" d="M488.7,156.8c1,0,2.5,1.1,4.1,1.1c1.6,0,2.8-1.5,3-4l-1.6-0.2c-0.3,1-0.9,1.6-1.6,1.6
		c-1,0-2.5-1.1-4.1-1.1c-1.7,0-3,1.4-3,4l1.6,0.2C487.3,157.5,487.8,156.8,488.7,156.8z"/>
	<path fill="#4769B2" d="M536.4,163.2v1h3.6v-13.9h-3.6v0.9c-1.2-0.7-2.6-1.2-4.1-1.2c-4.4,0-6.9,3.5-6.9,7.2c0,3.7,2.6,7.2,6.9,7.2
		C533.9,164.4,535.3,163.9,536.4,163.2z M528.8,157.2c0-2.1,1.6-4,4.1-4c1.3,0,2.6,0.5,3.4,1.2v5.6c-0.9,0.7-2.1,1.2-3.4,1.2
		C530.5,161.2,528.8,159.3,528.8,157.2z"/>
	<polygon id="XMLID_113_" fill="#4769B2" points="478.3,146.1 464.9,146.1 464.9,149.3 473.7,149.3 466,164.2 470,164.2 
		478.3,147.8 	"/>
	<path id="XMLID_112_" fill="#4769B2" d="M555.9,150.3l-3.6,9.5H552l-3.7-9.5h-3.7l5.4,13.9h0.3c-0.8,1.6-2.5,2.1-4.4,2.1h-0.4
		l-0.4,2.7c0.4,0,0.8,0,1.3,0c2.9,0,6.2-0.9,7.4-4.1l5.8-14.7H555.9z"/>
	<path id="XMLID_111_" fill="#4769B2" d="M189.7,305.5c3.1,0,7.4-0.1,9.8-2.3c0.5-0.5,0.9-1.2,1-1.9c0.4-3.9,0.2-7.9,0-11.9
		c-0.1-1.8,0.1-3.6,0.2-5.3c0.2-5.1,0.5-10.2,0.4-15.3c0-1.5,0.1-3.2-0.4-4.6c-0.1-0.2-0.2-0.4-0.3-0.7c-0.5-1.1-1.4-2.1-2.3-2.9
		c-0.9-0.8-2.1-1.3-2.9-2.3c-1.4-1.7-1-4.3-1.2-6.3c-0.1-1.4,0-3.1-0.6-4.4c-0.6-1.3-2.7-1.3-4.1-1.3c-1.6-0.1-2.4-0.1-4,0
		c-1.1,0-3.1-0.1-4.1,0.6c-0.2,0.2-0.2,0.8-0.2,1c-0.1,0.7-0.1,1.5-0.2,2.2c-0.1,1.7-0.2,3.5-0.2,5.2c-0.1,1.3,0,2.5-1,3.5
		c-1.8,1.8-4.6,2.3-5.9,4.7c-0.6,1.1-0.6,2.5-0.5,3.8c0.3,4.2,0,5.7,0,5.7v2.7v6.4v7.8v6.8c0,2-0.2,3.9,0.9,5.8
		c0.2,0.4,0.5,0.7,0.7,1.1c1.1,1.5,2.7,2.2,4.5,2.2H189.7z"/>
	<path id="XMLID_110_" fill="#4769B2" d="M250.7,263.3c-0.6,1.1-0.6,2.5-0.5,3.8c0.3,4.2,0,5.7,0,5.7v2.7v6.4v7.8v6.8
		c0,2-0.2,3.9,0.9,5.8c0.2,0.4,0.5,0.7,0.7,1.1c1.1,1.5,2.7,2.2,4.5,2.2h10.2c3.1,0,7.4-0.1,9.8-2.3c0.5-0.5,0.9-1.2,1-1.9
		c0.4-3.9,0.2-7.9,0-11.9c-0.1-1.8,0.1-3.6,0.2-5.3c0.2-5.1,0.5-10.2,0.4-15.3c0-1.5,0.1-3.2-0.4-4.6c-0.1-0.2-0.2-0.4-0.3-0.7
		c-0.5-1.1-1.4-2.1-2.3-2.9c-0.9-0.8-2.1-1.3-2.9-2.3c-1.4-1.7-1-4.3-1.2-6.3c-0.1-1.4,0-3.1-0.6-4.4c-0.6-1.3-2.7-1.3-4.1-1.3
		c-1.6-0.1-2.4-0.1-4,0c-1.1,0-3.1-0.1-4.1,0.6c-0.2,0.2-0.2,0.8-0.2,1c-0.1,0.7-0.1,1.5-0.2,2.2c-0.1,1.7-0.2,3.5-0.2,5.2
		c-0.1,1.3,0,2.5-1,3.5C254.7,260.4,252,260.9,250.7,263.3z"/>
	<path id="XMLID_109_" fill="#4769B2" d="M358.1,301.2c0.4-3.9,0.2-7.9,0-11.9c-0.1-1.8,0.1-3.6,0.2-5.3c0.2-5.1,0.5-10.2,0.4-15.3
		c0-1.5,0.1-3.2-0.4-4.6c-0.1-0.2-0.2-0.4-0.3-0.7c-0.5-1.1-1.4-2.1-2.3-2.9c-0.9-0.8-2.1-1.3-2.9-2.3c-1.4-1.7-1-4.3-1.2-6.3
		c-0.1-1.4,0-3.1-0.6-4.4c-0.6-1.3-2.7-1.3-4.1-1.3c-1.6-0.1-2.4-0.1-4,0c-1.1,0-3.1-0.1-4.1,0.6c-0.2,0.2-0.2,0.8-0.2,1
		c-0.1,0.7-0.1,1.5-0.2,2.2c-0.1,1.7-0.2,3.5-0.2,5.2c-0.1,1.3,0,2.5-1,3.5c-1.8,1.8-4.6,2.3-5.9,4.7c-0.6,1.1-0.6,2.5-0.5,3.8
		c0.3,4.2,0,5.7,0,5.7v2.7v6.4v7.8v6.8c0,2-0.2,3.9,0.9,5.8c0.2,0.4,0.5,0.7,0.7,1.1c1.1,1.5,2.7,2.2,4.5,2.2h10.2
		c3.1,0,7.4-0.1,9.8-2.3C357.6,302.6,358,302,358.1,301.2z"/>
	<path id="XMLID_108_" fill="#4769B2" d="M236.6,301.2c0.4-3.9,0.2-7.9,0-11.9c-0.1-1.8,0.1-3.6,0.2-5.3c0.2-5.1,0.5-10.2,0.4-15.3
		c0-1.5,0.1-3.2-0.4-4.6c-0.1-0.2-0.2-0.4-0.3-0.7c-0.5-1.1-1.4-2.1-2.3-2.9c-0.9-0.8-2.1-1.3-2.9-2.3c-1.4-1.7-1-4.3-1.2-6.3
		c-0.1-1.4,0-3.1-0.6-4.4c-0.6-1.3-2.7-1.3-4.1-1.3c-1.6-0.1-2.4-0.1-4,0c-1.1,0-3.1-0.1-4.1,0.6c-0.2,0.2-0.2,0.8-0.2,1
		c-0.1,0.7-0.1,1.5-0.2,2.2c-0.1,1.7-0.2,3.5-0.2,5.2c-0.1,1.3,0,2.5-1,3.5c-1.8,1.8-4.6,2.3-5.9,4.7c-0.6,1.1-0.6,2.5-0.5,3.8
		c0.3,4.2,0,5.7,0,5.7v2.7v6.4v7.8v6.8c0,2-0.2,3.9,0.9,5.8c0.2,0.4,0.5,0.7,0.7,1.1c1.1,1.5,2.7,2.2,4.5,2.2h10.2
		c3.1,0,7.4-0.1,9.8-2.3C236.2,302.6,236.6,302,236.6,301.2z"/>
	<path id="XMLID_107_" fill="#4769B2" d="M316.6,303.1c0.5-0.5,0.9-1.2,1-1.9c0.4-3.9,0.2-7.9,0-11.9c-0.1-1.8,0.1-3.6,0.2-5.3
		c0.2-5.1,0.5-10.2,0.4-15.3c0-1.5,0.1-3.2-0.4-4.6c-0.1-0.2-0.2-0.4-0.3-0.7c-0.5-1.1-1.4-2.1-2.3-2.9c-0.9-0.8-2.1-1.3-2.9-2.3
		c-1.4-1.7-1-4.3-1.2-6.3c-0.1-1.4,0-3.1-0.6-4.4c-0.6-1.3-2.7-1.3-4.1-1.3c-1.6-0.1-2.4-0.1-4,0c-1.1,0-3.1-0.1-4.1,0.6
		c-0.2,0.2-0.2,0.8-0.2,1c-0.1,0.7-0.1,1.5-0.2,2.2c-0.1,1.7-0.2,3.5-0.2,5.2c-0.1,1.3,0,2.5-1,3.5c-1.8,1.8-4.6,2.3-5.9,4.7
		c-0.6,1.1-0.6,2.5-0.5,3.8c0.3,4.2,0,5.7,0,5.7v2.7v6.4v7.8v6.8c0,2-0.2,3.9,0.9,5.8c0.2,0.4,0.5,0.7,0.7,1.1
		c1.1,1.5,2.7,2.2,4.5,2.2h10.2C309.9,305.5,314.2,305.4,316.6,303.1z"/>
	<path id="XMLID_106_" fill="#4769B2" d="M399.1,268.7c0-1.5,0.1-3.2-0.4-4.6c-0.1-0.2-0.2-0.4-0.3-0.7c-0.5-1.1-1.4-2.1-2.3-2.9
		c-0.9-0.8-2.1-1.3-2.9-2.3c-1.4-1.7-1-4.3-1.2-6.3c-0.1-1.4,0-3.1-0.6-4.4c-0.6-1.3-2.7-1.3-4.1-1.3c-1.6-0.1-2.4-0.1-4,0
		c-1.1,0-3.1-0.1-4.1,0.6c-0.2,0.2-0.2,0.8-0.2,1c-0.1,0.7-0.1,1.5-0.2,2.2c-0.1,1.7-0.2,3.5-0.2,5.2c-0.1,1.3,0,2.5-1,3.5
		c-1.8,1.8-4.6,2.3-5.9,4.7c-0.6,1.1-0.6,2.5-0.5,3.8c0.3,4.2,0,5.7,0,5.7v2.7v6.4v7.8v6.8c0,2-0.2,3.9,0.9,5.8
		c0.2,0.4,0.5,0.7,0.7,1.1c1.1,1.5,2.7,2.2,4.5,2.2h10.2c3.1,0,7.4-0.1,9.8-2.3c0.5-0.5,0.9-1.2,1-1.9c0.4-3.9,0.2-7.9,0-11.9
		c-0.1-1.8,0.1-3.6,0.2-5.3C398.9,278.9,399.1,273.8,399.1,268.7z"/>
	<path id="XMLID_105_" fill="#4769B2" d="M180.1,242.1c0.1,0.8,0.1,1.2,0.5,1.6c0.1,0.1,0.3,0.2,0.6,0.3c1.4,0.4,3.8,0,5.3,0h4.1
		c1.5,0,2.6,0.3,3.4-0.9c0.3-0.5,0.7-2.6,0.5-3c-0.8-1.5-6.8-0.9-8.4-0.9c-1.4,0-3,0-4.4,0.3C180,239.7,179.8,240.8,180.1,242.1z"/>
	<path id="XMLID_104_" fill="#4769B2" d="M262.7,239.1c-1.4,0-3,0-4.4,0.3c-1.5,0.3-1.7,1.4-1.4,2.7c0.1,0.8,0.1,1.2,0.5,1.6
		c0.1,0.1,0.3,0.2,0.6,0.3c1.4,0.4,3.8,0,5.3,0h4.1c1.5,0,2.6,0.3,3.4-0.9c0.3-0.5,0.7-2.6,0.5-3
		C270.3,238.5,264.3,239.1,262.7,239.1z"/>
	<path id="XMLID_103_" fill="#4769B2" d="M337.6,242.1c0.1,0.8,0.1,1.2,0.5,1.6c0.1,0.1,0.3,0.2,0.6,0.3c1.4,0.4,3.8,0,5.3,0h4.1
		c1.5,0,2.6,0.3,3.4-0.9c0.3-0.5,0.7-2.6,0.5-3c-0.8-1.5-6.8-0.9-8.4-0.9c-1.4,0-3,0-4.4,0.3C337.6,239.7,337.3,240.8,337.6,242.1z"
		/>
	<path id="XMLID_102_" fill="#4769B2" d="M216.7,243.7c0.1,0.1,0.3,0.2,0.6,0.3c1.4,0.4,3.8,0,5.3,0h4.1c1.5,0,2.6,0.3,3.4-0.9
		c0.3-0.5,0.7-2.6,0.5-3c-0.8-1.5-6.8-0.9-8.4-0.9c-1.4,0-3,0-4.4,0.3c-1.5,0.3-1.7,1.4-1.4,2.7
		C216.3,242.9,216.2,243.3,216.7,243.7z"/>
	<path id="XMLID_101_" fill="#4769B2" d="M303,239.1c-1.4,0-3,0-4.4,0.3c-1.5,0.3-1.7,1.4-1.4,2.7c0.1,0.8,0.1,1.2,0.5,1.6
		c0.1,0.1,0.3,0.2,0.6,0.3c1.4,0.4,3.8,0,5.3,0h4.1c1.5,0,2.6,0.3,3.4-0.9c0.3-0.5,0.7-2.6,0.5-3C310.5,238.5,304.6,239.1,303,239.1
		z"/>
	<path id="XMLID_100_" fill="#4769B2" d="M383.7,239.1c-1.4,0-3,0-4.4,0.3c-1.5,0.3-1.7,1.4-1.4,2.7c0.1,0.8,0.1,1.2,0.5,1.6
		c0.1,0.1,0.3,0.2,0.6,0.3c1.4,0.4,3.8,0,5.3,0h4.1c1.5,0,2.6,0.3,3.4-0.9c0.3-0.5,0.7-2.6,0.5-3
		C391.3,238.5,385.3,239.1,383.7,239.1z"/>
	<path id="XMLID_99_" fill="#4769B2" d="M145.6,285.4c0-1.8-1.4-2.5-3.6-2.9c-1.5-0.3-2.2-0.6-2.2-1.3c0-0.6,0.6-1.1,1.6-1.1
		c0.9,0,2.1,0.3,3,0.7l0.8-1.6c-1-0.4-2.3-0.8-3.8-0.8c-2.2,0-3.6,1.2-3.6,3c0,1.9,1.6,2.5,3.6,3c1.4,0.3,2.1,0.6,2.1,1.3
		c0,0.7-0.6,1.1-1.7,1.1c-1.2,0-2.1-0.1-3.4-0.8l-0.7,1.5c1.6,0.8,2.4,0.9,4.1,0.9C144.1,288.4,145.6,287.3,145.6,285.4z"/>
	<polygon id="XMLID_98_" fill="#4769B2" points="135.5,286.6 129.9,286.6 129.9,284.4 134.4,284.4 134.4,282.7 129.9,282.7 
		129.9,280.2 135.2,280.2 135.2,278.5 128,278.5 128,288.3 135.5,288.3 	"/>
	<rect id="XMLID_97_" x="111.5" y="278.5" fill="#4769B2" width="2" height="9.8"/>
	<path id="XMLID_96_" fill="#4769B2" d="M94.9,284.9c0,0.9-0.6,1.7-1.6,1.7c-0.9,0-1.5-0.6-1.7-1.4l-1.7,0.2
		c0.2,1.7,1.7,3.1,3.5,3.1c2.4,0,3.5-1.7,3.5-4.1v-5.8h-2V284.9z"/>
	<path id="XMLID_95_" fill="#4769B2" d="M106.5,283.9c0,1.8-0.8,2.7-2.4,2.7c-1.6,0-2.4-0.9-2.4-2.7v-5.4h-2v5.9
		c0,2.3,1.5,4.1,4.3,4.1c2.9,0,4.4-1.8,4.4-4.1v-5.9h-2V283.9z"/>
	<path id="XMLID_94_" fill="#4769B2" d="M125.5,286.6l-1.5-1.3c-0.6,0.8-1.5,1.3-2.5,1.3c-1.7,0-3.1-1.3-3.1-3.1
		c0-1.9,1.4-3.1,3.1-3.1c1,0,2,0.5,2.5,1.3l1.5-1.3c-1-1.1-2.4-1.9-4.1-1.9c-2.9,0-5.2,2.3-5.2,5s2.3,5,5.2,5
		C123.1,288.4,124.5,287.7,125.5,286.6z"/>
	<rect id="XMLID_93_" x="116.4" y="258.6" fill="#4769B2" width="2" height="9.8"/>
	<polygon id="XMLID_92_" fill="#4769B2" points="123.1,268.4 125.6,265 128,268.4 130.3,268.4 126.9,263.5 130.2,258.6 128,258.6 
		125.6,261.9 123.2,258.6 120.9,258.6 124.3,263.5 120.8,268.4 	"/>
	<path id="XMLID_91_" fill="#4769B2" d="M113.8,265.5c0-1.8-1.4-2.5-3.6-2.9c-1.5-0.3-2.2-0.6-2.2-1.3c0-0.6,0.6-1.1,1.6-1.1
		c0.9,0,2.1,0.3,3,0.7l0.8-1.6c-1-0.4-2.3-0.8-3.8-0.8c-2.2,0-3.6,1.2-3.6,3c0,1.9,1.6,2.5,3.6,3c1.4,0.3,2.1,0.6,2.1,1.3
		c0,0.7-0.6,1.1-1.7,1.1c-1.2,0-2.1-0.1-3.4-0.8l-0.7,1.5c1.6,0.8,2.4,0.9,4.1,0.9C112.3,268.5,113.8,267.4,113.8,265.5z"/>
	<path fill="#4769B2" d="M444.2,278.4h-3.9v9.8h4.2c2.6,0,4.6-2.3,4.6-4.9C449.1,280.6,446.9,278.4,444.2,278.4z M444.3,286.4h-2.1
		v-6.2h2c1.6,0,3,1.4,3,3.1C447.2,284.9,445.9,286.4,444.3,286.4z"/>
	<path fill="#4769B2" d="M456,278.4h-1l-4.7,9.8h2.1l0.9-2h4.4l0.9,2h2.1L456,278.4z M454,284.5l1.5-3.2l1.5,3.2H454z"/>
	<polygon id="XMLID_86_" fill="#4769B2" points="463.9,288.2 465.9,288.2 465.9,284.9 469.7,278.4 467.4,278.4 464.9,282.7 
		462.4,278.4 460.1,278.4 463.9,284.9 	"/>
	<path fill="#4769B2" d="M440.4,258.5v9.8h2v-2.5h1.7c2.5,0,4.2-1.1,4.2-3.8c0-1.8-1-3.5-3.8-3.5H440.4z M446.2,262.2
		c0,1.2-0.8,2-2.3,2h-1.5v-3.9h1.7C445.7,260.2,446.2,261.2,446.2,262.2z"/>
	<path fill="#4769B2" d="M462.9,265.8h1.8c0.1,0,0.3,0,0.4,0l1.9,2.5h2.4l-2.3-2.9c1.3-0.6,2-1.7,2-3.4c0-1.8-1-3.5-3.8-3.5h-4.3
		v9.8h2V265.8z M462.9,260.2h2c1.5,0,2.1,0.9,2.1,2c0,1.2-0.8,2-2.3,2h-1.8V260.2z"/>
	<polygon id="XMLID_81_" fill="#4769B2" points="458,260.2 458,258.5 450.7,258.5 450.7,268.3 458.3,268.3 458.3,266.6 452.7,266.6 
		452.7,264.4 457.1,264.4 457.1,262.7 452.7,262.7 452.7,260.2 	"/>
	<path id="XMLID_80_" fill="#4769B2" d="M42.8,363.4h2.8v1c-0.7,0.5-1.6,0.8-2.6,0.8c-2,0-3.6-1.6-3.6-3.7c0-2,1.6-3.6,3.6-3.6
		c1.2,0,2.3,0.4,3,1.1l1.4-1.6c-1.1-1-2.6-1.6-4.4-1.6c-3.2,0-5.9,2.5-5.9,5.7c0,3.1,2.7,5.7,5.9,5.7c1.9,0,3.6-0.6,4.8-1.6v-4.1
		h-5.1V363.4z"/>
	<polygon id="XMLID_79_" fill="#4769B2" points="53.3,356 51.1,356 51.1,367.1 59.1,367.1 59.1,365.2 53.3,365.2 	"/>
	<path id="XMLID_78_" fill="#4769B2" d="M69.2,362.1c0,2.1-0.9,3.1-2.7,3.1c-1.8,0-2.7-1-2.7-3.1V356h-2.2v6.7
		c0,2.6,1.7,4.6,4.9,4.6c3.2,0,4.9-2,4.9-4.6V356h-2.2V362.1z"/>
	<polygon id="XMLID_77_" fill="#4769B2" points="74.2,358 77.8,358 77.8,367.1 80,367.1 80,358 83.6,358 83.6,356 74.2,356 	"/>
	<polygon id="XMLID_76_" fill="#4769B2" points="88.7,362.7 93.7,362.7 93.7,360.8 88.7,360.8 88.7,358 94.7,358 94.7,356 86.5,356 
		86.5,367.1 95,367.1 95,365.2 88.7,365.2 	"/>
	<polygon id="XMLID_75_" fill="#4769B2" points="105.8,363 99.2,356 98.1,356 98.1,367.1 100.4,367.1 100.4,360.1 107,367.1 
		108.1,367.1 108.1,356 105.8,356 	"/>
	<rect id="XMLID_74_" x="111.2" y="360.9" fill="#4769B2" width="5.1" height="1.9"/>
	<polygon id="XMLID_73_" fill="#4769B2" points="126.9,361.9 121.6,361.9 121.6,358 127.8,358 127.8,356 119.4,356 119.4,367.1 
		121.6,367.1 121.6,363.9 126.9,363.9 	"/>
	<path fill="#4769B2" d="M133,364.3h2.1c0.1,0,0.3,0,0.4,0l2.1,2.9h2.7l-2.6-3.3c1.5-0.6,2.3-1.9,2.3-3.8c0-2.1-1.1-4-4.4-4h-4.9
		v11.1h2.3V364.3z M133,358h2.3c1.8,0,2.3,1.1,2.3,2.2c0,1.3-0.9,2.2-2.6,2.2h-2V358z"/>
	<polygon id="XMLID_70_" fill="#4769B2" points="151.6,365.2 145.2,365.2 145.2,362.7 150.3,362.7 150.3,360.8 145.2,360.8 
		145.2,358 151.3,358 151.3,356 143.1,356 143.1,367.1 151.6,367.1 	"/>
	<polygon id="XMLID_69_" fill="#4769B2" points="162.9,358 162.9,356 154.7,356 154.7,367.1 163.2,367.1 163.2,365.2 156.9,365.2 
		156.9,362.7 161.9,362.7 161.9,360.8 156.9,360.8 156.9,358 	"/>
	<path fill="#4769B2" d="M195.3,361.6c0-3.1-2.5-5.6-5.6-5.6h-4.4v11.1h4.8C193,367.1,195.3,364.5,195.3,361.6z M187.5,365.1v-7h2.2
		c1.9,0,3.4,1.6,3.4,3.5c0,1.9-1.4,3.5-3.2,3.5H187.5z"/>
	<path fill="#4769B2" d="M203.1,356H202l-5.3,11.1h2.4l1-2.3h5l1,2.3h2.4L203.1,356z M200.8,363l1.7-3.7l1.7,3.7H200.8z"/>
	<rect id="XMLID_64_" x="211.1" y="356" fill="#4769B2" width="2.3" height="11.1"/>
	<path fill="#4769B2" d="M226.5,367.1l-2.6-3.3c1.5-0.6,2.3-1.9,2.3-3.8c0-2.1-1.1-4-4.4-4h-4.9v11.1h2.3v-2.9h2.1
		c0.1,0,0.3,0,0.4,0l2.1,2.9H226.5z M221.2,362.4h-2V358h2.3c1.8,0,2.3,1.1,2.3,2.2C223.8,361.5,223,362.4,221.2,362.4z"/>
	<polygon id="XMLID_61_" fill="#4769B2" points="232.1,367.1 234.4,367.1 234.4,363.3 238.6,356 236.1,356 233.2,360.9 230.4,356 
		227.8,356 232.1,363.3 	"/>
	<rect id="XMLID_60_" x="239.4" y="360.9" fill="#4769B2" width="5.1" height="1.9"/>
	<polygon id="XMLID_59_" fill="#4769B2" points="255.1,361.9 249.8,361.9 249.8,358 256,358 256,356 247.6,356 247.6,367.1 
		249.8,367.1 249.8,363.9 255.1,363.9 	"/>
	<path fill="#4769B2" d="M261.2,364.3h2.1c0.1,0,0.3,0,0.4,0l2.1,2.9h2.7l-2.6-3.3c1.5-0.6,2.3-1.9,2.3-3.8c0-2.1-1.1-4-4.4-4h-4.9
		v11.1h2.3V364.3z M261.2,358h2.3c1.8,0,2.3,1.1,2.3,2.2c0,1.3-0.9,2.2-2.6,2.2h-2V358z"/>
	<polygon id="XMLID_56_" fill="#4769B2" points="279.8,365.2 273.5,365.2 273.5,362.7 278.5,362.7 278.5,360.8 273.5,360.8 
		273.5,358 279.5,358 279.5,356 271.3,356 271.3,367.1 279.8,367.1 	"/>
	<polygon id="XMLID_55_" fill="#4769B2" points="291.4,365.2 285.1,365.2 285.1,362.7 290.1,362.7 290.1,360.8 285.1,360.8 
		285.1,358 291.1,358 291.1,356 282.9,356 282.9,367.1 291.4,367.1 	"/>
	<path fill="#4769B2" d="M320.5,363.8c1.5-0.6,2.3-1.9,2.3-3.8c0-2.1-1.1-4-4.4-4h-4.9v11.1h2.3v-2.9h2.1c0.1,0,0.3,0,0.4,0l2.1,2.9
		h2.7L320.5,363.8z M317.8,362.4h-2V358h2.3c1.8,0,2.4,1.1,2.4,2.2C320.4,361.5,319.6,362.4,317.8,362.4z"/>
	<path fill="#4769B2" d="M331.1,356H330l-5.3,11.1h2.4l1-2.3h5l1,2.3h2.4L331.1,356z M328.9,363l1.7-3.7l1.7,3.7H328.9z"/>
	<polygon id="XMLID_50_" fill="#4769B2" points="353.2,356 350.8,356 348.3,362.8 345.2,356 344.3,356 341.3,362.8 338.8,356 
		336.3,356 340.7,367.1 341.6,367.1 344.8,359.8 347.9,367.1 348.8,367.1 	"/>
	<path id="XMLID_49_" fill="#4769B2" d="M384.8,362.7V356h-2.2v6.1c0,2.1-0.9,3.1-2.7,3.1c-1.8,0-2.7-1-2.7-3.1V356H375v6.7
		c0,2.6,1.7,4.6,4.9,4.6C383.1,367.2,384.8,365.2,384.8,362.7z"/>
	<polygon id="XMLID_48_" fill="#4769B2" points="396,363 389.4,356 388.2,356 388.2,367.1 390.5,367.1 390.5,360.1 397.1,367.1 
		398.2,367.1 398.2,356 396,356 	"/>
	<path fill="#4769B2" d="M404.1,364.3h1.9c2.8,0,4.8-1.2,4.8-4.3c0-2.1-1.1-4-4.4-4h-4.6v11.1h2.3V364.3z M404.1,358h2
		c1.8,0,2.3,1.1,2.3,2.2c0,1.3-0.9,2.2-2.6,2.2h-1.7V358z"/>
	<path fill="#4769B2" d="M414.9,364.9h5l1,2.3h2.4l-5.3-11.1h-1.1l-5.3,11.1h2.4L414.9,364.9z M417.4,359.3l1.7,3.7h-3.4
		L417.4,359.3z"/>
	<path id="XMLID_43_" fill="#4769B2" d="M429.9,365.3c-1.4,0-2.4-0.1-3.9-0.9l-0.8,1.8c1.8,0.9,2.7,1.1,4.6,1.1
		c2.6,0,4.3-1.3,4.3-3.4c0-2-1.6-2.8-4-3.3c-1.7-0.4-2.5-0.7-2.5-1.5c0-0.7,0.6-1.2,1.8-1.2c1,0,2.4,0.3,3.4,0.7l0.9-1.8
		c-1.1-0.5-2.6-0.9-4.3-0.9c-2.5,0-4.1,1.4-4.1,3.3c0,2.2,1.8,2.8,4.1,3.4c1.6,0.4,2.4,0.7,2.4,1.5
		C431.8,364.9,431.1,365.3,429.9,365.3z"/>
	<polygon id="XMLID_42_" fill="#4769B2" points="436.2,358 439.8,358 439.8,367.1 442.1,367.1 442.1,358 445.6,358 445.6,356 
		436.2,356 	"/>
	<polygon id="XMLID_41_" fill="#4769B2" points="450.7,362.7 455.7,362.7 455.7,360.8 450.7,360.8 450.7,358 456.7,358 456.7,356 
		448.5,356 448.5,367.1 457.1,367.1 457.1,365.2 450.7,365.2 	"/>
	<path id="XMLID_40_" fill="#4769B2" d="M467.7,362.1c0,2.1-0.9,3.1-2.7,3.1c-1.8,0-2.7-1-2.7-3.1V356H460v6.7
		c0,2.6,1.7,4.6,4.9,4.6c3.2,0,4.9-2,4.9-4.6V356h-2.2V362.1z"/>
	<path fill="#4769B2" d="M482.6,360c0-2.1-1.1-4-4.4-4h-4.9v11.1h2.3v-2.9h2.1c0.1,0,0.3,0,0.4,0l2.1,2.9h2.7l-2.6-3.3
		C481.8,363.2,482.6,361.9,482.6,360z M477.6,362.4h-2V358h2.3c1.8,0,2.3,1.1,2.3,2.2C480.2,361.5,479.4,362.4,477.6,362.4z"/>
	<rect id="XMLID_37_" x="485.7" y="356" fill="#4769B2" width="2.3" height="11.1"/>
	<polygon id="XMLID_36_" fill="#4769B2" points="500.5,357 500.5,356 491.4,356 491.4,358 497.3,358 491.1,366.1 491.1,367.1 
		500.5,367.1 500.5,365.2 494.4,365.2 	"/>
	<polygon id="XMLID_35_" fill="#4769B2" points="505.8,362.7 510.8,362.7 510.8,360.8 505.8,360.8 505.8,358 511.8,358 511.8,356 
		503.6,356 503.6,367.1 512.1,367.1 512.1,365.2 505.8,365.2 	"/>
	<path fill="#4769B2" d="M519.6,356h-4.4v11.1h4.8c2.9,0,5.2-2.6,5.2-5.6C525.2,358.5,522.7,356,519.6,356z M519.8,365.1h-2.4v-7
		h2.2c1.9,0,3.4,1.6,3.4,3.5C523,363.4,521.6,365.1,519.8,365.1z"/>
	<path id="XMLID_32_" fill="#4769B2" d="M173.5,362.1c3.8,2.2,3.5-4.2,0.4-3.1c0,0-0.1,0-0.1,0C171.5,359.9,172.2,361.3,173.5,362.1
		z"/>
	<path id="XMLID_31_" fill="#4769B2" d="M301.6,359c0,0-0.1,0-0.1,0c-2.2,0.9-1.5,2.3-0.3,3C305.1,364.3,304.7,357.8,301.6,359z"/>
	<path id="XMLID_30_" fill="#4769B2" d="M363.4,359c0,0-0.1,0-0.1,0c-2.2,0.9-1.5,2.3-0.3,3C366.8,364.3,366.5,357.8,363.4,359z"/>
	<path id="XMLID_29_" fill="#4769B2" d="M186.3,402.8c0.4-0.2,0.9-0.3,1.2-0.6c0.3-0.3,0.6-0.8,0.5-1.2c-0.1-0.4-0.4-0.7-0.7-0.9
		c-1.7-1.3-4.2-1.4-6.1-0.3c-1.7,1-2.7,2.9-2.7,4.8c0,0.2,0,0.4,0,0.6c0.3,2.8,2.7,4.8,5.4,4.7c1.2,0,4.9-0.3,3.8-2.3
		c-0.3-0.5-1.3-1-1.8-0.9c-0.4,0.1-0.8,0.4-1.2,0.5c-0.8,0.2-1.7,0-2.4-0.5c-1.2-1-1.2-3-0.1-4.1
		C183.3,401.6,185.3,401.7,186.3,402.8z"/>
	<path id="XMLID_28_" fill="#4769B2" d="M198,409.9c0.7,0,1.9,0.4,2.6,0.1c0.6-0.2,0.4-1.1,0.4-1.7c0-0.9-0.1-1.7-0.1-2.6
		c0-1.8,0.4-4.2-1-5.6c-0.9-0.9-2.4-1.3-3.6-0.7c-0.2,0.1-2,1.1-2,1.2c-0.1-0.5-0.1-1-0.1-1.5c0-0.5,0-0.9,0-1.4
		c0-0.6,0.3-1.6-0.2-2.1c-0.4-0.4-1.6-0.2-2.1-0.1c-0.2,0-0.4,0.1-0.5,0.2c-0.5,0.5-0.3,1.5-0.2,2.1c0,1.1,0,2.2,0,3.2
		c0,2.2,0,4.4,0,6.6c0,0.8-0.4,2.1,0.6,2.3c0.6,0.1,1.9,0.4,2.3-0.3c0.3-0.5-0.1-1.9-0.1-2.5c-0.2-1.7-0.5-5,1.8-5.3
		c1.2-0.1,2.1,0.9,2.1,2.1C197.9,406,197.8,408,198,409.9z"/>
	<path id="XMLID_27_" fill="#4769B2" d="M205,397.3c2.3,1.6,3.9-2.6,1.7-3c-0.9-0.2-1.6,0-2,0.4C204.1,395.4,204.3,396.8,205,397.3z
		"/>
	<path id="XMLID_26_" fill="#4769B2" d="M204.8,409.7c0.3,0.6,1.2,0.2,1.7,0.3c0.9,0.1,1.2-0.2,1.2-1.2c0-0.7,0-1.4,0-2
		c0-1.3,0.1-2.5,0.1-3.8c0-0.8,0.5-3.6-0.9-3.6c-0.7,0-1.5,0-2.2,0c-0.3,3.2-0.1,6.5,0,9.7C204.7,409.3,204.7,409.5,204.8,409.7z"/>
	<path id="XMLID_25_" fill="#4769B2" d="M214.6,396c-0.2-0.8-3-0.6-3-0.4c0,0.8,0,1.7,0,2.5c0,3.2,0.2,6.4,0,9.6c0,0.6-0.3,1.4,0,2
		c0.2,0.4,0.6,0.3,1.1,0.3c0.5,0,1.7,0.2,1.9-0.2c0.3-0.4,0-1.6,0-2.1c0-2.8-0.1-5.7,0-8.5C214.7,398.1,214.9,397,214.6,396z"/>
	<path id="XMLID_24_" fill="#4769B2" d="M221.6,395.9c-0.4-0.6-1.3-0.6-1.9-0.6c-0.3,0-0.6,0-0.8,0.1c-0.1,0-0.1,0.1-0.1,0.1
		c-0.5,0.5-0.2,1.4-0.2,2c0.1,0.9,0.1,1.7,0.1,2.6c0,1.7,0,3.4,0,5.2v3.5c0,1.1,0.3,1.2,1.4,1.3c0.6,0,1.5,0,1.6-0.7
		c0.1-1.3,0-2.6,0-3.9v-5c0-0.8-0.1-1.6,0-2.4C221.6,397.4,221.9,396.5,221.6,395.9z"/>
	<path fill="#4769B2" d="M240.2,400.6c-1.2-1.2-3.1-1.4-4.7-1.4c-0.9,0-3.3,0.2-2.8,1.6c0.2,0.5,0.6,1.4,1.2,1.3
		c0.8-0.2,1.5-0.4,2.3-0.4c0.8,0,1.8,0.3,2.1,1.1c0.1,0.2,0.2,0.4,0.1,0.6c-0.1,0.4,0,0.2-0.4,0.3c-0.5,0-1.2-0.2-1.7-0.2
		c-0.8,0-1.5,0.1-2.3,0.3c-1.4,0.4-2.6,1.4-2.5,3.1c0,0.3,0.1,0.7,0.3,1.1c0.9,2,3.6,2.8,5.4,1.5c0.2-0.2,0.6-0.6,0.9-0.5
		c0.3,0.1,0.2,0.4,0.3,0.6c0.4,0.8,1.8,0.7,2.6,0.4c0.4-0.2,0.3-0.2,0.2-0.7c0-0.4,0-0.8,0-1.2c0-0.9,0.1-1.7,0.1-2.6
		C241.5,403.8,241.5,401.8,240.2,400.6z M238.5,406.4c-0.1,0.9-1.2,1.5-2.1,1.6c-0.9,0.1-2.2-0.5-1.9-1.6c0.2-0.8,1.3-1.1,2.1-1.1
		c0.7,0,1.8,0.1,1.9,0.9C238.5,406.3,238.5,406.3,238.5,406.4z"/>
	<path id="XMLID_21_" fill="#4769B2" d="M249.3,398.2c0.3-0.2,0.8-0.1,1.1-0.2c0.3-0.1,0.3,0.1,0.5-0.1c0.2-0.2,0.1-0.8,0.1-1
		c0-0.5-0.2-1-0.6-1.3c-0.7-0.4-1.7-0.1-2.4,0c-0.9,0.1-1.7,0.5-2.1,1.3c-0.3,0.7-0.1,1.5-0.6,2.2c-0.3,0.5-0.7,0.1-1.1,0.6
		c-0.2,0.2,0,1,0,1.3c0,0.5-0.2,0.7,0.3,1c0.4,0.2,0.7,0.2,0.8,0.3c0.1,0.1,0.2,0.3,0.2,0.8c0,0.9-0.1,1.7-0.1,2.6
		c0,1.2,0,2.4,0.1,3.6c0.1,0.8,0.5,0.9,1.3,1c0.5,0.1,1.2,0.2,1.6-0.2c0.1-0.1,0-0.2,0.1-0.3c0.1-0.2,0-0.7,0-0.9v-2.8v-4
		c0.7,0,2.2,0.4,2.4-0.5c0.1-0.4,0.1-0.9,0-1.3c-0.1-0.5-0.3-0.5-0.8-0.4c-0.5,0.1-1.1,0.2-1.6-0.1
		C248.3,398.8,248.8,398.4,249.3,398.2z"/>
	<path id="XMLID_20_" fill="#4769B2" d="M254,406.9c0,0.1,0,0.2,0,0.3c0.1,1.2,0.7,2.4,1.9,2.8c1.1,0.3,2.7,0.4,3.4-0.7
		c0.3-0.6,0.8-2-0.3-2c-0.5,0-1.2,0.5-1.7,0c-0.4-0.4-0.3-1.1-0.3-1.6c0-1.2,0-2.5,0-3.7c0.8,0.1,2.6,0.4,2.6-0.8
		c0-0.4,0-1.2-0.2-1.5c-0.3-0.4-0.7-0.2-1.1-0.2c-0.1,0-1.2,0-1.2-0.1c0-0.3,0.4-2.5,0-2.6c-0.7-0.1-1.7-0.3-2.4,0
		c-0.7,0.2-0.5,0.7-0.5,1.3c0,0.6-0.2,1.2-0.8,1.5c-0.4,0.1-0.6,0.4-0.7,0.8c-0.1,0.4-0.2,1.4,0.2,1.7c0.6,0,1.2,0,1.4,0.7
		c0.1,0.5,0,1-0.1,1.5C254,405.1,253.9,406,254,406.9z"/>
	<path fill="#4769B2" d="M265.5,405.7c0.8-0.1,1.7,0,2.5,0c0.3,0,4.1,0.3,4.2-0.1c0-1.8-0.3-3.7-1.6-5.1c-2-2.2-5.8-1.8-7.4,0.6
		c-0.7,1-1.1,2.3-1.1,3.5c0,2.6,1.5,5.2,4.7,5.3c1.2,0,5.3,0.2,4.8-2c-0.2-0.8-1.5-1.5-2.1-1c-0.4,0.2-0.7,0.4-1.1,0.5
		c-1.1,0.3-2.9,0-3.3-1.4C264.9,405.6,265.1,405.7,265.5,405.7z M264.9,403.2c0.1-0.4,0.4-0.7,0.6-0.9c0.6-0.5,1.4-0.7,2.1-0.5
		c0.6,0.2,2.3,1.1,1.5,1.9c0,0,0,0,0,0c-0.4,0.4-1.9,0.1-2.5,0.1C266.2,403.9,264.7,404.1,264.9,403.2z"/>
	<path id="XMLID_17_" fill="#4769B2" d="M279.7,403c0.7-0.5,2.1-0.4,2.3-1.5c0.1-0.6,0.1-1.6-0.3-2.1c-0.4-0.5-1.1-0.2-1.6,0.1
		c-0.1,0.1-1.6,1.2-1.6,1.1c0-1,0-1.2-0.9-1.2c-0.7,0-1.4,0-2.1,0c-0.2,2,0,4,0,6v2.1c0,0.5-0.2,1.6,0,2.1c0.3,0.8,1.6,0.6,2.3,0.5
		c0.9-0.2,0.7-0.7,0.7-1.5c0-0.7-0.1-1.3-0.1-2C278.3,405.2,278.6,403.8,279.7,403z"/>
	<path fill="#4769B2" d="M294.1,405.8c1-0.5,2.9-0.1,4-0.1h3.3c0.1-2.5-0.6-5.3-3.3-6.2c-1.8-0.6-3.9-0.2-5.3,1.1
		c-1.1,1.1-1.7,2.6-1.7,4.1c0,0.1,0,0.2,0,0.4c0.2,2.9,2.6,5.1,5.5,5.1c1.4,0,2.7-0.5,3.7-1.4c0.8-0.7,0-1.6-0.9-1.9
		c-0.3-0.1-0.1-0.1-0.5,0c-0.5,0.2-0.8,0.6-1.3,0.7c-0.7,0.2-1.4,0.2-2,0C295.4,407.5,293.6,406,294.1,405.8z M294.4,402.6
		c0.9-1.5,3.2-1.4,3.9,0.2c0.2,0.5,0.2,0.7,0,0.8c-0.2,0.1-0.5,0.1-0.9,0.1c-0.8,0-1.7,0.4-2.5,0.3c-0.3,0-0.6-0.2-0.7-0.4
		C294.1,403.3,294.2,402.9,294.4,402.6z"/>
	<path id="XMLID_14_" fill="#4769B2" d="M311.4,409.6c0.2,0.4,0.4,0.3,0.8,0.3c0.5,0,1.7,0.2,2.1-0.1c0.5-0.6,0.2-1.9,0.1-2.6
		c0-1-0.1-2-0.1-3c0-1.3-0.1-2.5-0.8-3.6c-1-1.4-2.7-1.9-4.2-1c-0.4,0.2-0.7,0.6-1.1,0.7c-0.4,0.1-0.1,0-0.4-0.1
		c-0.3-0.2-0.4-0.7-0.9-0.8c-0.6,0-1.7-0.2-2.2,0.1c0,0,0,0-0.1,0.1c-0.1,0.1,0,0.5,0,0.7v2.4v4.1c0,0.9-0.3,1.9-0.1,2.8
		c0.2,1,1.8,1,2.6,0.6c0.5-0.2,0.4-0.7,0.4-1.2V406c0-1.2-0.3-3,0.8-3.8c1.4-1.1,2.9,0.3,2.9,1.8c0,1.2,0,2.4-0.1,3.5
		C311.2,408.2,311.1,409,311.4,409.6z"/>
	<path id="XMLID_13_" fill="#4769B2" d="M320.6,394.5c-0.7-0.2-1.9-0.3-2.5,0.1c-0.2,0.2-0.4,0.5-0.4,1c-0.1,1.2,0.8,2,2.1,1.9
		c0.8-0.1,1.6-0.6,1.7-1.4C321.5,395.5,321.3,394.7,320.6,394.5z"/>
	<path id="XMLID_12_" fill="#4769B2" d="M317.6,410.4c-0.1,0.1-1.2,0.3-1.2,0.3c-0.3,0.6-0.5,1.6,0.1,2.2c0.1,0.1,0.2,0.1,0.4,0.1
		c0.6,0.1,1.4-0.1,2-0.3c1.3-0.5,2.2-1.6,2.2-3v-0.9v-7.1c0-0.4,0.3-2.1,0-2.4c-0.2-0.2-1.4-0.2-1.8-0.2c-0.5,0-1.2,0.2-1.2,0.8
		c0,0.4,0,0.8,0,1.3v3.5c0,1.3,0,2.6,0,3.9C318.1,409.2,318.2,410,317.6,410.4z"/>
	<path fill="#4769B2" d="M326.1,400.8c-1.2,1-1.7,2.5-1.7,3.9c0,1.2,0.5,2.4,1.2,3.3c2.2,2.7,6.5,2.8,8.7,0.1c1-1.2,1.5-2.8,1.2-4.3
		C334.9,399.3,329.4,398,326.1,400.8z M332.3,406.4c-1.1,1.2-3,1.5-4.1,0.2c-1.4-1.5-0.7-4.4,1.5-4.7c1.7-0.2,3.2,1.2,3.3,2.8
		C332.9,405.3,332.7,405.8,332.3,406.4z"/>
	<path id="XMLID_9_" fill="#4769B2" d="M339.3,410.3c-0.8,0.3-1.2,2.1-0.3,2.5c2.5,1,4.5-0.2,5.4-2.6c0.9-2.3,1.7-4.6,2.6-6.9
		c0.4-1,1-1.9,1.2-2.9c0.3-1.2-1.2-1.2-2-1.1c-0.4,0-0.6,0.1-0.8,0.2c-0.1,0.1-0.2,0.3-0.4,0.6c-0.4,1.2-0.7,2.4-1.1,3.6
		c-0.2,0.6-0.4,1.3-0.6,1.9c0,0.2-0.2,0.5-0.4,0.6c-1-0.9-0.9-2.6-1.3-3.8c-0.3-0.8-0.5-1.7-0.8-2.5c-0.3-0.8-0.9-0.6-1.6-0.6
		c-0.5,0-1.1-0.1-1.6,0.1c0.5,1.2,1,2.4,1.4,3.6c0.8,2.1,1.5,4.1,2.2,6.2c0.1,0.3,0.2,0.5,0.1,0.8
		C341.1,411.2,339.9,410,339.3,410.3z"/>
	<path id="XMLID_8_" fill="#4769B2" d="M351.4,409.5c0.5,0.9,1.5,0.4,2.3,0.4c0.2,0,0.4,0,0.5-0.1c0.7-0.3,0.3-2.3,0.2-2.9
		c-0.1-1.9,0.1-3.8,0.1-5.7c0-1.1-0.2-1.7-1.3-2.1c-0.5-0.2-1.7-0.6-1.9,0.2c-0.2,0.7,0,1.9,0,2.6c0,1.8,0.1,3.5-0.1,5.3
		C351.2,408,350.9,408.8,351.4,409.5z"/>
	<path id="XMLID_7_" fill="#4769B2" d="M354.4,394.6c-0.7-0.8-2-0.4-2.8,0.4c-0.5,0.6-0.8,1.4-0.2,2
		C352.7,398.6,355.9,396.3,354.4,394.6z"/>
	<path id="XMLID_6_" fill="#4769B2" d="M368,403.9c-0.1-1.8-0.7-3.6-2.4-4.4c-1.4-0.7-3.4-0.5-4.3,0.9c0-0.4-0.1-0.7-0.4-0.9
		c-0.4-0.3-0.9-0.3-1.4-0.3c-0.4,0-0.9,0-1.2,0.3c0,0-0.1,0.1-0.1,0.1c-0.1,0.2-0.1,0.5-0.1,0.7c0,2.4,0.1,4.8,0.1,7.2
		c0,0.5-0.3,2,0.2,2.4c0.2,0.2,0.8,0.1,1,0.1c0.5,0,1.6,0,1.9-0.6c0.3-0.6,0.1-1.5,0-2.1c0-1-0.1-2,0-3c0-1,0.2-2.2,1.4-2.6
		c2.5-0.7,2.3,2.5,2.3,3.9c0,1.4-0.1,2.7,0,4.1c0.8,0,2.2,0.6,2.8-0.1c0.3-0.3,0.1-1.1,0.1-1.4C367.8,406.9,368.1,405.4,368,403.9z"
		/>
	<path fill="#4769B2" d="M375.6,410.7c-0.3,0-3.2-0.7-3.1-0.9c-0.3,0.6-1,1.5-0.8,2.1c0.1,0.1,0.2,0.3,0.4,0.4
		c0.8,0.5,2,0.7,2.9,0.8c1.8,0.2,4,0.1,5.4-1.2c1.2-1.1,1.7-2.8,1.7-4.4v-3.6c0-1.2,0.4-2.8,0-4c-0.3-0.7-0.8-0.5-1.5-0.5
		c-0.3,0-1.1-0.2-1.3,0c-0.3,0.2-0.1,0.9-0.2,1.3c-0.4-0.3-0.9-0.6-1.4-0.9c-0.3-0.2-0.6-0.3-0.9-0.4c-3.2-0.9-5.9,1.9-5.7,5
		c0.1,1.4,0.7,2.7,1.8,3.6c1.2,1,2.7,1.1,4.2,0.6c0.3-0.1,0.6-0.2,0.9-0.2c0.3,0,0.7,0.2,0.7,0.5c0,0.2-0.1,0.4-0.2,0.6
		C377.8,410.3,376.7,410.7,375.6,410.7z M374.6,405.7c-1.8-2.1,0.9-4.9,3.1-3.6c0.7,0.4,1.3,1.2,1.2,2c0,0.3-0.1,0.6-0.3,0.9
		C377.9,406.6,375.8,407.1,374.6,405.7z"/>
	<path id="XMLID_3_" fill="#4769B2" d="M437.6,178.5c0.2-0.3,0.4-0.6,0.5-1c0.6-1.8,1.1-6.9-1.6-7.3c-1.2-0.2-2.4,0.5-3.1,1.6
		c-0.7,1-0.9,2.3-0.9,3.5c-0.1,1.8,0.6,4.1,2.4,4.4C436,179.8,437,179.3,437.6,178.5z"/>
	<path id="XMLID_2_" fill="#4769B2" d="M282.4,178.5c0.2-0.3,0.4-0.6,0.5-1c0.6-1.8,1.1-6.9-1.6-7.3c-1.2-0.2-2.4,0.5-3.1,1.6
		c-0.7,1-0.9,2.3-0.9,3.5c-0.1,1.8,0.6,4.1,2.4,4.4C280.8,179.8,281.7,179.3,282.4,178.5z"/>
	<path id="XMLID_1_" fill="#4769B2" d="M120.8,179.6c1,0.2,1.9-0.4,2.6-1.2c0.2-0.3,0.4-0.6,0.5-1c0.6-1.8,1.1-6.9-1.6-7.3
		c-1.2-0.2-2.4,0.5-3.1,1.6c-0.7,1-0.9,2.3-0.9,3.5C118.3,177.1,119,179.3,120.8,179.6z"/>
</g>
</svg>
