<?xml version="1.0" encoding="utf-8"?>
<!-- Generator: Adobe Illustrator 19.0.0, SVG Export Plug-In . SVG Version: 6.00 Build 0)  -->
<!DOCTYPE svg PUBLIC "-//W3C//DTD SVG 1.1//EN" "http://www.w3.org/Graphics/SVG/1.1/DTD/svg11.dtd">
<svg version="1.1" id="Layer_1" xmlns="http://www.w3.org/2000/svg" xmlns:xlink="http://www.w3.org/1999/xlink" x="0px" y="0px"
	 viewBox="0 0 385 90" enable-background="new 0 0 385 90" xml:space="preserve">
<g>
	<path fill="#4769B2" d="M24.2,71.1c0.1-1.1,0.1-2.2,0.1-3.3c0.1-2.2-1.7-9,0.7-10.5C27.4,56,31.9,67,33.9,69
		c3.9,4,10.3,6.1,15.1,3.4c5.8-3.3,6.7-11.5,11.6-16c1.3-1.2,3.1-2.1,4.8-1.6c3.2,0.9,3.1,5.4,2.5,8.6c-1.1,5.6-2,11.8,0.6,17
		c2.5,5.2,9.8,8.4,14.3,4.8c3.4-2.7,3.8-7.7,3.8-12c0.3-18.6,0.5-37.2,0.8-55.8c0-3.4-0.1-7.4-2.8-9.5c-2.4-2-6.2-1.6-8.9,0.1
		c-2.7,1.7-4.5,4.3-6.3,6.9C64,22.4,58.7,30.2,53.3,38c-1.9,2.7-4.1,5.7-7.4,6.1c-4.3,0.6-7.7-3.5-10.1-7.2
		c-5.5-8.3-11-16.5-16.5-24.8c-1.5-2.2-3-4.5-5.3-5.9c-2.3-1.4-5.5-1.6-7.4,0.2c-1.7,1.7-1.9,4.3-2,6.7C4.2,32.1,3.7,50.9,3.3,69.7
		c-0.1,3.2-0.1,6.5,0.8,9.6c0.9,3.1,3.1,6,6.1,7c4.3,1.4,9.1-1.4,11.4-5.3C23.3,78.1,24,74.6,24.2,71.1"/>
	<path fill="#4769B2" d="M182,85.6c0.9-0.1,2-0.7,2-3.3c0-3.2-1.3-9.1-2.6-11.6c-0.4-0.7-0.7-1.2-1.2-1.4c-2.1-1.3-6.4-1-11.7-0.5
		c-1.5,0.1-2.8,0.3-3.6,0.3c-0.8,0-2.2,0-3.9,0.1c-5,0.1-20,0.5-21.9-0.8c-0.7-0.7-1.1-2-1.1-3.7c0-4,2.1-9.1,4.2-10
		c1.7-0.7,5.2-0.4,8.1-0.1c1.4,0.1,2.7,0.3,3.8,0.3l6,0c4.1,0,8.3,0,12.4,0c1.1,0,2.4-0.7,2.4-4.1c0-3-1.1-9.6-2.9-11.1
		c-2.3-1.9-6.2-1.5-9.4-1.2c-1,0.1-1.9,0.2-2.5,0.2c-2.2,0-4.4,0.1-6.6,0.1c-3.4,0.1-7.4,0.7-10.7,0.1c-4.2-0.8-4.9-6.9-4.6-10.3
		c0.5-7,3.9-6.3,10-6.3c6.5,0,14.6,0,21.2-0.9c3.1-0.4,12.6-1.7,12.6-7.5c0-1.4-0.5-2.8-1.6-4.4c-3-4.3-8.4-4.2-12.7-4
		c-0.7,0-1.5,0-2.1,0h-21.1h-10.6c-0.4,0-1.2-0.1-2.1-0.2c-4.4-0.4-7.7-0.6-9.1,0.7c-1.6,1.4-2.3,4.4-2.3,9.8
		c0,3.5,0.3,7.5,0.6,10.6c0.2,2.1,0.3,4,0.3,5v30.1c0,1.7-0.1,3.6-0.3,5.6c-0.2,2.1-0.3,4.4-0.3,6.5c0,4,0.5,9.6,5.1,11.9
		c4.8,2.4,14,1.5,22.1,0.7c3.2-0.3,6.2-0.6,8.3-0.6L182,85.6z"/>
	<path fill="#4769B2" d="M277.7,77c0-7.6,0.5-15.3,1-22.7c0.3-3.8,0.5-7.8,0.7-11.7c0.1-1.8,0.3-4,0.6-6.7c0.5-4.6,1.1-9.7,1.1-14.6
		c0-6.4-1-10.9-3.1-13.8c-0.3-0.4-0.6-0.7-1-1c-2.4-1.9-7.3-2.4-11.4-1.4c-2.9,0.8-4.9,2.3-5.8,4.2c-0.3,0.7-0.4,1.6-0.4,2.6
		c0,2.5,0.8,5.8,1.5,8.8c0.4,1.6,0.8,3.1,0.9,4.1c0.5,3.8,1,8,1,12.2c0,2.5-0.4,11.9-2.9,13.3c-2.4,1.4-8.6-4.9-10.7-6.7
		c-7.4-6.6-13.7-14.5-19.9-22.2c-4.4-5.5-8.6-10.8-13.1-15.5c-0.9-1-6.5-1-7.7-0.7c-5.5,1.2-2.9,21.6-3,26.5
		c-0.2,8.2-0.4,16.7-0.4,25.1c0,10.5,0.3,19.1,0.9,27.3c0,0.7,0.5,1.2,1.2,1.4c9.3,2.2,15.9-0.2,17.6-6.4c0.3-1.1,0.5-2.3,0.5-3.6
		c0-2.3-0.4-4.7-0.9-6.9c-0.4-1.9-0.7-3.7-0.7-5.3c-0.1-2.4-0.2-5.2-0.2-7.9c0-6.2,0.5-11,1.5-15.4c6.5,1.3,12,9.1,16.9,16.1
		c2.2,3.2,4.3,6.2,6.4,8.4l19.8,20.9c1.9,2,8.5,0,8.6,0c0.7-0.2,1.1-0.8,1.1-1.5C277.7,81.4,277.7,79.3,277.7,77"/>
	<path fill="#4769B2" d="M363.8,5.8c-1.3,1-1.8,3-1.8,6.3c0,1.7,0.2,3.6,0.3,5.1c0.1,1.1,0.2,2,0.2,2.5l0,9.8l0,19.5
		c0,5.8-1.8,10.6-5.3,13.9c-3,2.9-7.1,4.5-11.6,4.5c-8.8,0-17.8-6.3-17.8-18.4c0-4.4,0-8.8,0-13.2c0-9.7,0.1-19.4-0.1-29
		c0-0.8-0.7-1.5-1.5-1.5c-0.3,0-1.1,0-2.2-0.1c-13.9-0.6-14-0.3-14.3,1.3c-1.5,8.4-2.4,18.6-2.4,28.5c0,10.2,0.9,19.6,2.5,27.3
		c2.2,10.5,9.8,18.2,20.6,21.1c11,3,23.6,0.8,33.7-5.8c9.1-5.9,14.9-14.6,16.4-24.4c0.8-5,1.1-10.7,1.1-17.4
		c0-6.2-0.3-12.1-0.6-17.9l-0.1-1.1c-0.2-4.9-2.9-11-7.4-13C371.6,2.8,368.1,2.3,363.8,5.8"/>
</g>
</svg>
