<?xml version="1.0" encoding="utf-8"?>
<!-- Generator: Adobe Illustrator 19.0.0, SVG Export Plug-In . SVG Version: 6.00 Build 0)  -->
<!DOCTYPE svg PUBLIC "-//W3C//DTD SVG 1.1//EN" "http://www.w3.org/Graphics/SVG/1.1/DTD/svg11.dtd">
<svg version="1.1" id="Layer_1" xmlns="http://www.w3.org/2000/svg" xmlns:xlink="http://www.w3.org/1999/xlink" x="0px" y="0px"
	 viewBox="0 0 460 85" enable-background="new 0 0 460 85" xml:space="preserve">
<g>
	<path fill="#476AB2" d="M48.8,4.4c-3.3-3.6-7.3-4.6-12.1,1.9c-3.4,4.6-5.5,11.4-8,16.6c-5.3,11-10.7,22.1-15.8,33.2
		c-2,4.3-12.4,20.7-9.9,24.8c2.3,3.8,13.5,1.4,17.2,1.4c0.9,0,1.7-0.5,2-1.3c2-4.6,3.9-12.9,8.3-14.9c4.4-2.1,10.2-1.1,14.8-0.5
		c3.9,0.5,9.2-0.6,12.9,1.5c4.6,2.7,5.5,9.3,7.2,13.9c1.9,4.3,18.2,3.3,19.7-0.4c1.7-4.5-6.3-15.7-8.2-19.8
		c-3.2-6.7-6.4-13.3-9.5-20C61.9,29.4,57.4,13.8,48.8,4.4z M50,47.8c-1.8,3-4,2.6-11.4,1.5c-6.1-0.9,1.1-22.1,5.4-20.2
		C48.2,31,52.2,44.1,50,47.8z"/>
	<path fill="#476AB2" d="M158.6,30.4c-2-6.2,2.1-12.2-1.2-18.4c-5-9.5-16.6-10.9-26.2-10.8c-5.4,0-10.8,0.6-16.2,1
		c-7.1,0.5-8.8,1.7-9.1,8.9c-0.6,11.8-0.5,23.7-0.4,35.5c0.1,9.5-2.1,22.3,0.4,31.5c3,11.3,35.2,4.3,43.7,4.3
		c13.9,0,23.8-11,24.1-24.6c0.2-6.3-1.7-12.8-5.5-17.9c-2.2-2.9-4.8-4.5-7.6-6.7C159.5,32.2,158.9,31.3,158.6,30.4z M127.3,46.2
		c13-14.9,41.6,13.1,15.6,18.8c-3.8,0.8-14.7,1.8-17.5-1.3c-1.7-1.9-0.5-8.5-0.5-10.9C125.1,49.9,125.9,47.8,127.3,46.2z M136,28.8
		c-2.1,0.4-4.4,0.4-6,0.3c-2.1-0.1-7.1,0.5-7.4-1.9c-1.4-12.5,12.2-14.1,17.4-7.6C143.3,23.8,140.2,28,136,28.8z"/>
	<path fill="#476AB2" d="M230.3,3.1c-4.9,0-9.8,0.8-14.5,2.5c-21,7.8-30.9,31.7-22.1,52.4c5.5,12.9,18,22.5,31.9,24.4
		c16,2.2,30.8-4.9,38.9-19C280,36.2,261.1,3.4,230.3,3.1z M230.3,64.5c-14.7,0.3-24.8-19.1-17.9-31.6c6.3-11.4,23.9-15.1,33.5-5.7
		c11.4,11.1,5.5,32.5-9.7,36.5C234.1,64.2,232.1,64.5,230.3,64.5z"/>
	<path id="XMLID_28_" fill="#476AB2" d="M363.7,3.2c-2.5-3.3-6.5-3.8-12.6,0.4c-7.6,5.2-3.4,12.6-3,20.5c0.3,6.7,0.4,13.5-0.5,20.2
		c-1.1,9-4.9,18.4-14.7,20c-9.2,1.4-16.4-4.2-18.1-13.2c-1.3-6.9,0.1-14.5,1.4-21.2c1-4.9,1.9-9.9,1.3-14.9
		c-0.7-4.9-3.2-9.9-7.5-12.3c-4.4-2.4-10.7-1.3-13.2,3c-1.4,2.4-1.4,5.4-1.4,8.2c0,20-5,50.9,15.3,63.5c21,13,53.3,2.5,56.3-23.6
		C368.4,40.5,372.3,14.3,363.7,3.2z"/>
	<path id="XMLID_27_" fill="#476AB2" d="M454.1,2.7c-5.5-2.7-15-0.7-20.9-0.6c-11.9,0.1-23.8-0.1-35.7,0.4c-4.1,0.1-6.4,0.6-8.4,4.1
		c-1.6,2.7-2,9.8,0.2,12.2c4.6,5.1,13.4,0.2,19,2.1c9.8,3.2,4.3,13.5,4.3,21.8c0,9.4-4.2,27.2,0.4,35.7c2.2,4,19.4,7.2,19.4,1.8
		c0-11.4-0.4-22.7-0.5-34.1c0-5.7,0-11.4,0.2-17c0.5-16.9,31.2-0.8,24.3-22.7C455.7,4.2,455.1,3.2,454.1,2.7z"/>
</g>
</svg>
