<?xml version="1.0" encoding="utf-8"?>
<!-- Generator: Adobe Illustrator 19.0.0, SVG Export Plug-In . SVG Version: 6.00 Build 0)  -->
<!DOCTYPE svg PUBLIC "-//W3C//DTD SVG 1.1//EN" "http://www.w3.org/Graphics/SVG/1.1/DTD/svg11.dtd">
<svg version="1.1" id="Layer_1" xmlns="http://www.w3.org/2000/svg" xmlns:xlink="http://www.w3.org/1999/xlink" x="0px" y="0px"
	 viewBox="0 0 950 85" enable-background="new 0 0 950 85" xml:space="preserve">
<g>
	<g>
		<path id="XMLID_26_" fill="#476AB2" d="M69.2,64.1c-3.3-1.3-9.8,0.1-12.6,0.2c-6.9,0.2-13.8,0.4-20.7,0.1
			C31.2,64.2,25,58.3,28.7,53c2.7-3.9,23.3-0.5,29-1.3c4.2-0.6,4.5-1.6,5.2-5.8c0.3-2.1,1.3-11.4-2.5-11.4c-5.9,0-11.9,0-17.8,0
			c-2.9,0-8.2,1.1-10.9,0c-4.2-1.7-4.7-12.7-1.8-14.6c2.2-1.4,10.1,0,12.7,0c7.1,0,15.3,2.1,22.2,0.1c6.9-2,7.4-16.1-0.6-17.7
			C52.9,0,38.6,1.3,27,1.6c-3.7,0.1-13.7-0.8-16.6,2.3C7.7,6.8,9.5,17.1,9.5,21.2c0,7,0,13.9,0,20.9c0,8.6,0,17.2,0,25.7
			c0,2.7-0.5,5.9,0,8.5c1.8,9.8,20.7,5.3,27.5,5.3c5.1,0,32.1,3,34.3-2.1c1.2-2.9,1.7-12.4-0.8-14.7C70.2,64.6,69.7,64.3,69.2,64.1z
			"/>
		<path id="XMLID_25_" fill="#476AB2" d="M167.4,3.1c-3.6-2.1-9.3-0.7-14.8-0.7c-4.3,0-2.8,12.1-2.6,14.5c0.4,6.3,3.7,19-0.2,24.5
			c-5.8,8-19.2-16.1-22.9-20c-5.5-5.9-14.2-19.9-23.3-19.6C92.1,2,98.3,37.9,98.3,45.2c0,10.6,0,21.2-0.1,31.9c0,1.2,0,2.4,0.6,3.5
			c2.9,4.8,12,3.9,15.9,1.1c6.3-4.5,3.2-13.3,3.2-19.9c0-5.5-2.4-11.1-1.6-16.7c2.1-14.9,22.1,14.3,24.7,17
			c5.9,6.3,11.9,12.5,17.8,18.8c0.4,0.4,1,0.7,1.6,0.7c2.2,0,6.4,1,8.3-0.3c3.2-2.3,1.4-14.9,1.4-18.5c0-8.5,0-16.9,0-25.4
			c0-9.4,2-18.8,0.8-28.2C170.4,6,169.2,4.1,167.4,3.1z"/>
		<path id="XMLID_24_" fill="#476AB2" d="M235.3,20.7c3.9,0.1,7.8,1.1,11.2,2.9c6.3,3.2,9.2,7.2,16.1,2.3c2.4-1.7,4.2-4.5,3.8-7.4
			c-0.3-2.5-2.1-4.6-3.9-6.3c-10.9-10.2-27.7-13.6-41.7-8.5c-30.5,11.1-35.9,53.9-9,72.1c13.2,8.9,31.5,9.2,45.3,1.4
			c3.5-2,6.9-4.6,8.6-8.3c1.7-3.7,1.4-8.5-1.7-11.2c-3.1-2.6-7.8-2.3-11.5-0.8c-3.8,1.5-7.1,4-10.9,5.4
			C212.7,72.8,203,20.1,235.3,20.7z"/>
		<path id="XMLID_23_" fill="#476AB2" d="M358.5,2.8c-4.2-1.2-12.6-0.7-13.9-0.6c-10.4,1.1-11.7,19.5-17,27.1
			c-8.6,12.4-9.6-6.6-12.9-13.6c-2.7-5.7-6.2-11-12.2-13.4c-5.3-2-20.5-2.6-17.6,6.5c2,6.3,7.4,11.4,10.7,17
			c4.4,7.6,9.9,14.5,13.3,22.7c4,9.7,0,19.2,3.3,28.6c1.9,5.4,11.5,7,16.1,4.8c7.4-3.6,5.4-14.5,4.8-20.9c-1-10.5,4.6-15.8,9.6-24.4
			c3.7-6.3,7.3-12.6,10.9-18.9C355.3,14.6,363.8,4.4,358.5,2.8z"/>
		<path id="XMLID_22_" fill="#476AB2" d="M413.2,20.2c1.4,0.1,2.9,0.5,4.3,1c5.3,2,12.5,10.1,18.5,6.6c2.4-1.4,9.3-5.9,9.9-8.9
			c1.4-6.8-14.3-13.4-19.2-14.8c-8.2-2.4-17.1-2.3-25.3,0.1c-17.1,5-30,19.7-30,37.8c0,21.8,20.1,40.5,41.7,40.5
			c6.9,0,37.6-7,32-19.3c-1.7-3.7-6.2-8-10.5-8.6c-5.6-0.8-6.4,3.7-10.7,6.2c-3.3,1.9-7.2,2.9-11,2.8c-21.4-0.4-26.5-29.1-10.3-40.5
			C405.9,20.9,409.5,19.9,413.2,20.2z"/>
		<path id="XMLID_21_" fill="#476AB2" d="M530,65.1c-0.3-0.2-0.6-0.4-1-0.5c-3.1-1.3-10.4,1.1-13.7,1.4c-7.7,0.5-21.1,1.3-21.2-9.7
			c-0.1-5.8,0-11.7,0-17.5c0-6.4,3.7-32-1.8-36.1c-2.6-1.9-13.8-2-16.4,0.2c-5.5,4.6-2.7,19.6-2.5,25.6c0.3,10.2,0.6,20.4,0.8,30.6
			c0.1,5.5-1.5,11.9,0.1,17.2c2.5,8,6.4,5.7,14.1,5.6c12-0.1,24.7,1.7,36.7,0c6.7-0.9,6.4,0,7.7-6.2C533.6,72.3,533.1,67.1,530,65.1
			z"/>
		<path id="XMLID_20_" fill="#476AB2" d="M714.5,2.6c-0.2-0.2-0.4-0.4-0.6-0.6c-4.5-3.6-16.6,1-19.3,5c-5.6,8.2-5.7,20.8-11.1,29.7
			c-4.1,6.8-5.7,10.2-11,4.1c-4.1-4.6-5.3-13.3-7.8-18.9c-2.3-5.2-4.3-13.7-8.9-17.3c-2.8-2.2-9.3-2.6-12.7-2.3
			c-16.5,1.3,15.3,51.3,19.1,59.3c5.8,12.4,14.3,30.8,24.3,9c4.5-9.7,9-19.3,13.5-29C703,35.1,719.8,8.7,714.5,2.6z"/>
		<path id="XMLID_19_" fill="#476AB2" d="M757.8,2.8c-16.7-7.9-17.3,6.7-17.6,18.2c-0.3,11.4-1,22.7-0.5,34.1c0.3,8.1,4,41,19.8,25
			c5.9-6,0.8-24.6,0.9-32.2C760.5,40,765.4,6.4,757.8,2.8z"/>
		<path id="XMLID_18_" fill="#476AB2" d="M850.2,2.5c-5.7-3.2-17.9-1.5-22.6-1.3c-11.5,0.5-23.2,0.3-34.7,1.1
			c-4.9,0.4-8.8,6.4-8.5,11.2c0.4,5.5,6.6,6.5,10.9,7c6.8,0.8,9.5-1.3,12.7,4.8c3.8,7.1,1.2,15.7,0.7,23.2c-0.7,11-6,42.7,15.1,33.7
			c8.9-3.8,4.7-21.8,4.7-29.7c0-8-2.1-19.3,0-27.1c1.7-6.3,6.2-5.4,11.5-5.4c6.9,0,18-6.1,12.4-15.3C852,3.7,851.2,3,850.2,2.5z"/>
		<path fill="#476AB2" d="M941,78.3c1-7.1-8.9-20.4-11.2-24.8c-6.7-12.9-13.4-25.9-18-39.7c-1-3.1-2-6.2-4-8.7
			c-7.6-9.7-14.1,1.6-17.3,8.3c-4.4,9.2-8.8,18.4-13.2,27.7c-3.3,7-6.6,13.9-10,20.9c-2.4,5-11.1,15.1-5.5,20.1
			c3.8,3.4,12.2,1.5,15.9-1.1c6.4-4.4,4.1-15.8,14.2-16.6c5.9-0.5,11.7,1.1,17.6,1.6c5.4,0.5,6.9,1.9,9,6.8c2,4.6,4.5,9.8,10.1,10.4
			c2.9,0.3,7.1,0.3,9.8-1C940,81.2,940.8,79.9,941,78.3z M907.4,47.9c-0.2,0.5-0.5,1-0.9,1.4c-1.7,1.8-8.1,1.5-10.1,0.7
			c-5.5-2.4-0.8-16.2,4-19.5C906,26.6,910.1,41.9,907.4,47.9z"/>
	</g>
	<path fill="#476AB2" d="M583.8,1.5c-21.2,0.7-41,16.8-39.7,39.9c1.7,30,30.5,51.9,61.7,36.2c11-5.6,18.3-16.4,20.4-27.6
		C630.5,26.4,611.2,0.6,583.8,1.5z M584.8,63.3c-7.5,0.1-15.1-4.6-17.8-14.9c-5.1-19.6,16.5-31.8,29.4-22.9
		C611.9,36,599.8,63,584.8,63.3z"/>
</g>
</svg>
