<?xml version="1.0" encoding="utf-8"?>
<!-- Generator: Adobe Illustrator 19.0.0, SVG Export Plug-In . SVG Version: 6.00 Build 0)  -->
<!DOCTYPE svg PUBLIC "-//W3C//DTD SVG 1.1//EN" "http://www.w3.org/Graphics/SVG/1.1/DTD/svg11.dtd">
<svg version="1.1" id="Layer_1" xmlns="http://www.w3.org/2000/svg" xmlns:xlink="http://www.w3.org/1999/xlink" x="0px" y="0px"
	 viewBox="0 0 645 85" enable-background="new 0 0 645 85" xml:space="preserve">
<g>
	<path id="XMLID_61_" fill="#476AB2" d="M44.2,19.8c9.8,0.5,18.4,14.7,28.3,7.2C86.3,16.8,66.6,6.5,58,3.8
		c-8.3-2.6-17.4-2.6-25.7-0.2C9,10.3-2.4,35.3,6.9,57.5c6,14.4,20.5,23.3,35.8,24.2c7.5,0.5,15.2-0.9,22-4.3
		c7.4-3.7,13.4-7.9,8.1-16.2C64.9,49,50.1,66.5,38,62.8C13.1,55,23.2,18.9,44.2,19.8z"/>
	<path fill="#476AB2" d="M139.2,3.6c-54-2.9-54.3,78.7-0.1,79.2c30,0.3,45.4-30.9,33.8-56.9C166.6,11.6,153.1,4.3,139.2,3.6z
		 M139.2,63c-12.8-0.1-25.1-11.6-21.7-26c8.4-34.7,66.5-2.8,34.2,21.8C147.9,61.7,143.5,63,139.2,63z"/>
	<path id="XMLID_58_" fill="#476AB2" d="M274,4c-2.7-2-7.2-1.9-14.1-1.9c-1.2,0-2.2,1-2.2,2.2c0,7.2,0,14.4,0,21.6
		c0,4.3,1.7,9.3,0.7,13.7c-2,9-7.4-0.5-11-4.3c-6.3-7-12.8-13.8-19.3-20.6c-9-9.3-22.8-18.5-22.8,1c0,18-0.8,36.2-0.2,54.2
		c0.2,6.8-1.1,9.4,5.1,12.5c3,1.5,11.9,1.1,14.2-1.6c3.3-3.8,0.6-20.2,0.6-25.3c0-30.6,32.7,16.7,38.5,22.9
		c3.7,3.9,6.8,3.4,11.8,3.4c4.1,0,2.9-35.1,2.9-38.2c0-8.9-0.2-17.7-0.4-26.6C277.6,9.6,276.6,5.9,274,4z"/>
	<path id="XMLID_57_" fill="#476AB2" d="M365.2,3.4c-5.6-2.2-14.6-1.3-19.5-1.3c-8.3,0-16.5,0-24.8,0c-4.8,0-12.8-3.1-17.3-0.5
		c-4.8,2.8-8.3,15-1.4,18.3c2.9,1.4,9.3-0.9,12.6-0.8c4.4,0.2,8.1,1.7,9.6,6.2c1.7,5.4,0.1,13.9,0.1,19.5
		c-0.1,7.9-1.2,15.7-1.2,23.6c0.1,17.7,21.7,20.1,20.5,2.1c-0.3-5.3,0-10.7,0-16c0-9-2.5-17.8-1.4-26.8c1.7-14.4,20.8,1.4,26.4-12
		C371.8,8.5,369.5,5,365.2,3.4z"/>
	<path fill="#476AB2" d="M423.7,5.2c-4.2-3.6-9-3.7-13.2,5.2c-3.1,6.5-6.2,13.1-9.3,19.6c-6.8,14.3-13.6,28.5-20.4,42.8
		c-5.8,12.3,8.3,9.3,15.3,9.3c0.9,0,1.7-0.5,2-1.3c1-2.3,2.1-4.7,3.1-7c3.5-7.9,8-7,16-7c3.9,0,7.8-0.1,11.7,0
		c4.1,0.1,5.3-0.2,7.4,2.8c2.2,3.2,3.4,7.6,5,11.1c1.8,3.9,18.3,3.1,19.8-0.5c1.7-3.9-5.3-13.3-7.1-17
		c-7.4-15.4-14.7-30.8-22.1-46.1C429.9,12.7,427,7.9,423.7,5.2z M425.7,47.6c-0.8,1.1-2.4,1.7-4.9,1.9c-3.2,0.2-8.8,0.3-6.9-5.8
		c1.1-3.4,2.1-7.9,4.1-10.6c3.2-4.2,4.4-0.4,6.2,4.2C426.2,42.3,427.2,45.7,425.7,47.6z"/>
	<path id="XMLID_54_" fill="#476AB2" d="M520.8,20.9c2.8-0.1,5.6,0.4,8.4,1.4c6.1,2.2,10.3,9.1,17.1,5.9c7.5-3.6,8.7-11.8,2.5-17.1
		C531-4.2,503.2-0.2,488.5,17.3c-18,21.3-8,54,18,63.1c8.6,3,18.2,3.1,26.9,0.4c5.5-1.7,11.9-4.3,16.3-8.2c9-8-2.5-19.5-12-16.1
		c-4.1,1.5-6.8,4.5-10.9,5.6c-3.5,0.9-7.4,0.9-11,0.2c-7.3-1.5-13.6-6.4-15.8-13.7c-2.8-9.6,2.7-19.9,10.9-24.9
		C514,21.9,517.4,21,520.8,20.9z"/>
	<path id="XMLID_53_" fill="#476AB2" d="M638,2.5c-1-0.3-2.1-0.4-3.2-0.4c-13.8-0.4-27.5-0.9-41.3-0.7c-8.8,0.1-29.5-1.5-21.9,14.1
		c2.7,5.6,7.4,4.3,12.8,4.3c5.9,0,12-1.1,12,6.1c-0.1,7,0,14.1,0,21.1c0,8.5,0,16.9,0,25.4c0,10.2,9,15.5,18.2,9.4
		c5.1-3.4,3.1-10,2.6-15.2c-1-10.4-1.6-20.9-1.7-31.3c0-3.5-1.1-10.5,0.8-13.5c2-3.2,6-2.1,9.2-2.1c3.8,0,9.9,2.1,13.3-0.3
		c3.2-2.3,3.6-14.8-0.1-16.7C638.5,2.7,638.2,2.6,638,2.5z"/>
</g>
</svg>
