<?xml version="1.0" encoding="utf-8"?>
<!-- Generator: Adobe Illustrator 19.0.0, SVG Export Plug-In . SVG Version: 6.00 Build 0)  -->
<!DOCTYPE svg PUBLIC "-//W3C//DTD SVG 1.1//EN" "http://www.w3.org/Graphics/SVG/1.1/DTD/svg11.dtd">
<svg version="1.1" id="Layer_1" xmlns="http://www.w3.org/2000/svg" xmlns:xlink="http://www.w3.org/1999/xlink" x="0px" y="0px"
	 viewBox="0 0 665 85" enable-background="new 0 0 665 85" xml:space="preserve">
<g>
	<path id="XMLID_34_" fill="#476AB2" d="M67.1,2.8c-0.4-0.5-0.8-0.8-1.1-1c-4.7-2.7-17.6,0-23.1,0.1C29.9,2,16.8,2.1,3.7,2.1
		c-1.2,0-2.2,1-2.2,2.2C1.4,14.2-0.4,18.8,9.6,20c3.8,0.4,12.7-1.8,15.6,1c2.8,2.7,1.4,15.2,1.4,19c0.1,10.4-0.6,20.9-0.8,31.3
		c-0.2,9.7,4,13.1,13.6,11.4c8.5-1.5,6.4-4.4,6.4-13.2c0-8.6,0.1-17.2,0.1-25.8c0-5.3-1.6-13.5-0.1-18.4c2.8-8.9,14.4-5.2,22.1-5.2
		C73.9,19.9,70.5,6.9,67.1,2.8z"/>
	<path id="XMLID_33_" fill="#476AB2" d="M157.8,3.9c-5.2-4.2-14.3-4-16.1,3.4c-2.1,8.9,8.2,25-1.9,32.1c-4.1,2.9-25.5,2-28.7-2.5
		c-4.9-7,0.8-18.3,0.5-26c-0.2-5.6-0.3-6.8-5-8.8c-3-1.3-12.8-1.1-15,1.8c-3.2,4.4-0.8,13.3-0.6,18.3c0.9,19.4,0.4,39,0.5,58.4
		c0,4.5,19.5,3.5,19.5,0c0-10.2-4.3-21.7,7-24.1c5-1.1,18.5-3.2,22.7,0.9c3.4,3.3-1.1,18.2,1.2,23.7c1.4,3.4,11,2.5,13.7,1.7
		c7.7-2.1,5.5-6.8,5.6-15.1c0.2-11.1,0.3-22.2,0.3-33.3C161.6,26.2,164.9,9.7,157.8,3.9z"/>
	<path id="XMLID_32_" fill="#476AB2" d="M246.7,64.9c-5.5-1.9-16.9-0.1-21.5-0.1c-4.7,0-9.5,0.2-14.2,0c-5-0.2-7.3-5.4-5.5-9.9
		c1.6-3.8,3.9-2.7,8.6-2.7c3.6,0,25.9,2.2,25.9-2.2c0-3.7,2.1-11.2-1.1-14.2c-3-2.8-11.9-1.1-16-1.1c-4.5,0-11.9,1.1-15.5-2.3
		c-1.9-1.8-2.2-4.1-2.3-6.6c-0.6-15.6,34.6-1.9,40.4-6.4c5.1-3.9,2.7-14.9-2.7-17.4c-4.3-2-12.2-0.3-16.9-0.2
		C219.2,2,212.3,2,205.4,2.1c-3.9,0-15.7-2.1-18.6,0.9c-2.6,2.7-0.8,15.3-0.8,19c0,8.3,0,16.6,0,24.9c0,9.9-3.9,21.2-0.6,30.9
		c2.4,7.4,11.1,5,17.7,5c9.2,0,39.3,5.2,45.5-2.5c2-2.5,2.6-11.8,0.1-14.2C248.2,65.6,247.6,65.2,246.7,64.9z"/>
	<path id="XMLID_31_" fill="#476AB2" d="M369.7,3c-0.5-0.2-1-0.3-1.7-0.5c-6.2-1.7-14.7-0.6-21.1-0.6c-10.1-0.1-20.2,0-30.4,0.5
		c-11.4,0.5-13.1,0.9-13,12.5c0.1,6,7.6,6.1,12,6c2.7,0,5.8-1,8.4-0.7c7.3,1,3.9,15.5,3.9,21c0,10.8,0.1,21.5,0.1,32.3
		c0,5.4-1,7.3,4.2,9.1c3.9,1.3,13.8,1.9,15.9-2c0.4-0.7-0.1-2.6,0-3.4c1.1-11.8,0.4-23.6,0-35.4c-0.1-5.1-1.8-13.4,0-18.3
		c3.6-10.1,20.6,1.5,24-5.5c0.9-1.9,0.7-4.2,0.4-6.3C371.7,6.5,373.8,4.5,369.7,3z"/>
	<path id="XMLID_30_" fill="#476AB2" d="M453.4,64.9c-8.3-0.1-16.6-0.1-25,0c-3.8,0-8.7,0.9-12.5,0c-3.6-0.8-4-3.8-4.1-6.9
		c-0.2-9.8,12.8-7.3,19-6.5c3.6,0.4,9.1,2.1,12.6,0.6c4.3-1.8,6.7-17.2,1-17.2c-6.3,0-12.6,0-18.9,0c-2.9,0-8.3,1.1-11,0
		c-3.5-1.4-3.3-5.8-3.2-8.8c0.3-6,1.3-6,7-5.9c6,0,12.1,0,18.1,0c3.5,0,12.6,1.8,15.4-0.5c5.1-4,3.2-16-2.3-17.3
		c-5.8-1.4-13.9,0-19.9-0.1c-11.6,0-23.1,0-34.7,0c-3.9,0-2.9,32-2.9,34.8c0,7.2-3.4,44.5,4.5,46.1c4.8,1,11.6-0.3,16.7-0.3
		c6.1,0,12.2,0,18.3,0c5.9,0,11.7-0.1,17.5,0.3C458.5,83.7,457.6,64.9,453.4,64.9z"/>
	<path fill="#476AB2" d="M525,3.3c-2.1-2.3-6.7-1.9-9.3-1.1c-2.2,0.7-2.6,1.5-3.5,3.4c-1.3,2.8-2.7,5.6-4,8.5
		c-4.4,9.2-8.7,18.3-13.1,27.5c-3.3,6.9-6.7,13.8-10.1,20.8c-1.4,2.9-10.1,16.9-7.7,19.4c0.6,0.6,1.4,0.8,2.2,1
		c2.9,0.6,5.7,0.4,8.6,0.3c2.5-0.1,5.2,0.6,7.5-0.6c3.7-2,4.2-6.4,5.7-10c2.6-6.1,6.9-5.2,12.7-5.3c4.7,0,9.7-0.9,14.5-0.4
		c3.7,0.4,6.8,1.9,8.7,5.2c2.2,3.7,1.7,8.6,6.1,10.6c4.5,2,12.1,2.5,16.5,0.1c4.8-2.6-0.5-8.5-2.2-11.6c-2.5-4.5-4.6-9.4-6.9-14
		c0-2.5-3.5-7.2-4.7-9.5c-1.6-3.4-3.3-6.7-4.9-10.1c-3-6.2-6-12.5-9-18.8C531.1,16.2,528.1,6.8,525,3.3z M526.5,42.5
		c-3,6.1-15.5,7.5-15.2-1.3c0.2-5.2,5.5-13.1,9-15.2c2.5-1.6,6.4,10.7,6.8,12.8C527.2,40.1,527,41.4,526.5,42.5z"/>
	<path id="XMLID_27_" fill="#476AB2" d="M661.3,2.1c-1.4-0.7-3.5-0.5-6.7,1c-4.1,2-7.2,6.3-9.8,10c-2.7,3.7-5.4,7.4-8,11.1
		c-3.3,4.6-6.5,15.4-12.5,17c-5.4,1.4-7.5-4.8-9.9-8.2c-2.9-4-5.9-8.1-8.8-12.1c-2.4-3.3-10.3-18.8-14.7-18.8h-7.6
		c-1.2,0-2.2,1-2.2,2.2c0,11.2,0,22.4,0,33.6c0,8.3,0,16.7,0,25c0,5.2-3,12.2,0.2,17.1c3.1,4.8,14.3,5.9,18.2,1.6
		c2-2.2,2.1-5.4,1.7-8.3c-0.6-4.9-0.7-9.8-0.7-14.7c0-3.2-0.5-12.9,5.1-7.7c3,2.8,4.4,7,6.8,10.3c1.9,2.6,7,14.8,11.3,12
		c0.8-0.5,1.3-1.3,1.9-2.1c3.5-5,7-10,10.6-15c3.5-4.9,8.8-9.3,8.4-0.3c-0.1,3.5-0.8,7-0.8,10.5c0,3.6-0.9,8.6,0,12.1
		c1.6,6.1,20.1,6.8,20.1,2c0-13.7,0-27.4-0.1-41.1c0-7.1-0.1-14.1-0.1-21.2c0-3.3,0.3-6.7-0.1-10C663.3,6.7,661.3,2.9,661.3,2.1z"/>
</g>
</svg>
