<?xml version="1.0" encoding="utf-8"?>
<!-- Generator: Adobe Illustrator 19.0.0, SVG Export Plug-In . SVG Version: 6.00 Build 0)  -->
<!DOCTYPE svg PUBLIC "-//W3C//DTD SVG 1.1//EN" "http://www.w3.org/Graphics/SVG/1.1/DTD/svg11.dtd">
<svg version="1.1" id="Layer_1" xmlns="http://www.w3.org/2000/svg" xmlns:xlink="http://www.w3.org/1999/xlink" x="0px" y="0px"
	 viewBox="0 0 585 85" enable-background="new 0 0 585 85" xml:space="preserve">
<g>
	<path id="XMLID_8_" fill="#4769B2" d="M70.7,65.4c-1-3.5-6.5-7.7-9.6-8.8c-1.1-0.4-2.2-0.5-3.2-0.4c-3.1,0.3-5.6,2.2-8.1,4.1
		c-1.9,1.5-3.8,2.9-5.7,3.4c-3.8,1-7.9,0.6-11.9-1.2C23.5,58.7,16.5,48.4,21.9,35c3.6-8.9,12.5-16.1,24.4-11.8
		c1.5,0.5,3,1.7,4.6,2.9c2.2,1.7,4.5,3.5,7.2,4c4.3,0.7,8.5-1.1,10.7-4.5c1.9-3,1.9-6.6-0.2-9.6c-2.3-3.4-7.3-6.3-15.3-8.8
		C43,4,31.5,5,21.8,9.9C5.4,18.2-3.1,37.2,2,54c5,16.1,21,27.8,38.2,27.8c5.9,0,12-1.3,17.4-3.8c0.3-0.1,0.7-0.3,1.2-0.5
		C63.6,75.5,72.6,71.6,70.7,65.4C70.7,65.4,70.7,65.4,70.7,65.4z"/>
	<path id="XMLID_7_" fill="#4769B2" d="M154.7,66.2c-3-3.1-7.8-2.8-11.4-2.6l-0.9,0.1c-1.7,0.1-3.9,0.5-6.5,1.1
		c-6.3,1.3-14.9,3.1-16.8-1.5c-1.9-4.6-1.1-13.6-0.5-20.8c0.3-3.4,0.6-6.7,0.6-9.2c0-2,0.2-4.1,0.3-6.5c0.4-5.1,0.7-10.3-0.4-14.7
		c-1.4-5.5-4.6-6.9-6.5-7.2c-3.4-0.6-7.3,1.4-9.9,5.1c-3.8,5.5-4.4,13.6-4.8,20.1L98,31.5c-1,13.5-1.4,29,2.6,41.1
		c2.3,7,10.3,10.8,23.2,11c0.4,0,0.8,0,1.2,0c10.2,0,20.5-2.1,25.2-3.4c3.2-0.9,5.7-3.3,6.5-6.2C157.5,71.3,156.8,68.5,154.7,66.2
		C154.7,66.2,154.7,66.2,154.7,66.2z"/>
	<path id="XMLID_6_" fill="#4769B2" d="M236,66.3c0-0.5-0.1-1.3-0.8-1.9c-0.5-0.4-0.9-0.5-1.4-0.5c-0.3-0.1-0.9-0.2-1.7-0.4
		c-3.3-1-7.7-0.7-11.5-0.4c-1.7,0.1-3.3,0.3-4.7,0.3c0,0-0.1,0-0.1,0c-1.8,0-4.1,0.4-6.5,0.7c-5.4,0.8-12.2,1.9-14.5-1.2
		c-1.3-1.7-1.8-5.2-1.2-8c0.4-1.8,1.1-3,2.1-3.6c2.1-1.2,7.2-0.4,12,0.5c6.8,1.2,13.9,2.4,17.9-0.9c1.9-1.6,2.8-4,2.8-7.1
		c0-3.1-0.9-5.5-2.8-7.1c-3.8-3.3-10.5-2.5-17-1.7c-5.4,0.7-10.9,1.4-13.2-0.5c-1.4-1.2-2.3-3.8-2.3-6.7c0-2.9,1-5.5,2.4-6.6
		c2.3-1.8,7.4-1.1,11-0.6c1,0.1,2,0.3,2.8,0.4c0.7,0.1,1.4,0.2,2.2,0.2c6.4,0.7,16.1,1.8,20.6-2.8c2-2,2.7-4.8,2.2-8.4v0
		c-0.1-0.6-0.1-1.1-0.2-1.5c-0.3-2.4-0.8-3.1-3.1-3.7c-0.3-0.1-0.7-0.2-1.3-0.4c-9.2-2.9-47.3-8.4-52.7,4.8
		c-1.9,4.8-1.2,10.2-0.5,15.4c0.3,2.5,0.6,4.8,0.6,6.9c0,3.1,0,6.1,0.1,9.2c0.1,7,0.2,14.2-0.2,21.2c0,0.8-0.2,1.9-0.3,3.1
		c-0.6,4.7-1.4,10.6,1.8,13.6c1.5,1.4,3.4,1.8,5.4,1.8c1.2,0,2.3-0.1,3.4-0.3c1-0.1,1.9-0.2,2.6-0.2c5.2,0.1,10.4,0.1,14.7,0.1
		c1.7,0,3.4,0,5.1,0c5.6,0,11.4,0.1,17.2-0.2c3.4-0.2,6.8-0.7,8.6-3.1c1.4-1.9,1.6-4.5,0.7-8.6C236,67.2,236,66.7,236,66.3z"/>
	<path id="XMLID_5_" fill="#4769B2" d="M420.6,60.1c0-3.2-0.1-6.3-0.1-9.5c-0.1-3.5-0.1-7.1-0.1-10.6c0-5.2,0-12.1,0.3-18.9
		c0-0.7,0.1-1.5,0.2-2.4c0.4-3.5,0.8-7.7-1.3-10.7c-0.3-0.4-0.5-0.7-0.8-0.9c-1-1-2.1-1.1-3.1-1.3c-0.4-0.1-0.8-0.1-1.2-0.2
		c-1.5-0.4-9.4-2-12.3,1.6c-0.8,1-0.7,2.4-0.4,4.5c0,0.4,0.1,0.7,0.1,0.9c0,2.5,0.1,5,0.1,7.4c0,2.2,0.1,4.5,0.1,6.7
		c0,2,0.1,4.2,0.2,6.5c0.3,5.4,0.6,11.4-0.6,16.2c-5.5-1.6-11.1-9.5-15.7-16c-2.1-2.9-4.1-5.7-5.8-7.6c-0.5-0.6-1.2-1.4-2.1-2.3
		c-4.8-5.6-12.9-15-19.7-15.5c-2-0.1-3.7,0.4-5.1,1.7c-6.9,6-4.7,24.1-3.1,37.3c0.4,3.6,0.8,6.7,0.9,8.7c0,1-0.1,3-0.3,5.3
		c-0.7,9.7-1,17.3,1.7,19.9c1.5,1.4,4.2,2,6.8,2c1.5,0,3-0.2,4.3-0.5c3.3-0.8,5.6-2.5,6.3-4.7c0.9-2.7,0.8-6.3,0.6-9.4
		c-0.1-1.4-0.1-2.8-0.1-3.9c0.1-2.9-0.1-5.7-0.2-8.5c-0.2-4.2-0.5-8.2,0.2-12.1c0.3-1.9,0.7-2.5,0.9-2.7c1.1,0.2,3.6,3.2,4.9,4.7
		c0.7,0.8,1.4,1.6,2,2.3l13.8,14.6c0.5,0.6,1.5,1.7,2.6,3.1c6.8,8.4,13.9,16.5,19.8,16.7c1.7,0,3.2-0.6,4.4-1.9
		c3.3-3.6,2.6-10.5,2.1-16C420.7,62.7,420.6,61.2,420.6,60.1z"/>
	<path id="XMLID_4_" fill="#4769B2" d="M478.9,38.9c-1.3-0.3-2.8-0.6-4.3-0.9c-6.3-1.2-13.4-2.6-15.8-7.7c-1.1-2.2-0.4-3.1-0.1-3.4
		c2.5-3.2,13.8-2.9,18.1-1.9c1.1,0.3,2.3,0.6,3.5,0.9c5.4,1.6,12.8,3.8,16.4-5c1.3-3.3,0.5-5.7-0.4-7.1c-3.9-5.8-16.9-6.4-26.4-6.4
		c-0.1,0-0.2,0-0.3,0l-0.5,0c-9.3,0-18.8,4.3-24.1,10.9c-3.9,4.9-5.3,10.8-3.9,16.9c2.7,12,14.9,15.4,24.8,18.1
		c2.2,0.6,4.3,1.2,6.2,1.8c5.2,1.8,11.2,5,10.9,8.4c-0.1,1.6-0.8,2.7-2,3.5c-4.2,2.8-13.5,1-17.8-0.3c-1.1-0.3-2.4-0.9-3.6-1.5
		c-3.7-1.6-7.8-3.5-12.1-1.6c-3.4,1.5-6.5,5.6-7.1,9.3c-0.4,2.4,0.3,4.4,1.9,5.8c2.8,2.4,7.3,3.1,11.2,3.7c1.2,0.2,2.3,0.3,3.3,0.5
		c4.5,1,9,1.5,13.3,1.5c2.4,0,4.7-0.2,7-0.5c13.7-1.9,22.5-9,24.2-19.4c0.2-1.3,0.3-2.7,0.2-4C500.8,49.3,489.7,41.5,478.9,38.9z"/>
	<path id="XMLID_3_" fill="#4769B2" d="M584.1,70.6c-0.4-1.9-1.1-3.1-2-4c-1.5-1.4-3.4-1.3-5.5-1.2c-0.6,0-1.3,0.1-2,0.1l-2.9,0
		c-5.2,0-10.7,0-16,0.4c-0.7,0-1.5,0.1-2.3,0.2c-3.8,0.4-8.9,0.9-11.2-1.3c-1.6-1.6-1.3-6.3-0.2-8.7c1.2-2.8,2.5-2.9,6.8-2.9l0.2,0
		c1.1,0,2.7,0.2,4.6,0.4c7.7,0.8,19.4,1.9,21.5-5.2c0.8-2.7,1.4-8-1.5-10.6c-1.5-1.3-4.6-1.1-9.2-0.7c-0.9,0.1-1.7,0.2-2.1,0.2
		c-1.5,0-3.2,0.2-5.1,0.3c-6.1,0.6-13.8,1.2-16.2-3c-1.5-2.5-1.7-8.4,0.1-10.7c1.8-2.3,4.5-2.1,8.6-1.6c1.4,0.2,2.9,0.4,4.3,0.4
		c2.1,0,4.5,0.2,6.9,0.3c5.3,0.3,10.8,0.7,15.5-0.4l0.8-0.2c3.9-0.8,4.3-1.8,4.5-6.2c0.1-2.9-0.6-5.2-2.1-6.7
		c-2.8-2.9-7.6-2.7-11.8-2.6c-1.4,0-2.7,0.1-3.9,0c-2.5-0.1-5.6-0.8-9-1.4c-10.4-2.1-23.4-4.7-29,5.4c-3.2,5.8-3.2,14.5-3.3,22.1
		c0,2.4,0,4.7-0.1,6.6c-0.7,12-0.8,22.1,1.3,32c2.1,10.2,10.5,11.3,18.6,11.3c0.3,0,0.5,0,0.8,0c2.6,0,5.3-0.1,7.9-0.1
		c5.4-0.1,11.1-0.2,16.6-0.1c7.4,0.2,12.4-1.3,14.9-4.4C584.4,76.6,584.9,73.9,584.1,70.6z"/>
	<path fill="#4769B2" d="M332.4,68.5c-2.6-6.8-5.9-13.4-9-19.8c-0.8-1.6-1.6-3.3-2.4-4.9c-1.6-3.4-3.3-7.4-5-11.8
		c-4.2-10.3-8.9-21.9-15.2-28.5c-2.3-2.4-4.7-3.3-7.3-2.9c-7.1,1.2-12.6,12.5-17.7,23.9c-0.8,1.8-1.5,3.3-2,4.2
		C269,38,263.4,49,258.5,60.6c-0.2,0.5-0.6,1.4-1.2,2.4c-4.1,8.4-5.9,13.2-4.3,15.7c1.1,1.8,3.5,2.4,6.1,2.4c3.3,0,6.9-1,8.4-1.9
		c2.5-1.6,4-4.2,5.3-6.5c0.8-1.4,1.5-2.6,2.4-3.6c6.2-7.2,16.8-6.1,26.1-5.2l3.3,0.3c2.8,0.3,3.9,0.4,4.5,0.8
		c0.5,0.4,1.1,1.5,2.1,3.1l0.6,0.9c0.5,0.8,0.8,2.1,1.1,3.5c0.6,2.5,1.3,5.4,3.6,7c2.6,1.8,9.5,2,13.6,1c2.4-0.6,4-1.6,4.7-3
		c0.9-1.8-0.2-4.5-1.8-7.7C332.8,69.2,332.5,68.8,332.4,68.5z M296.2,36.3c0.6,4,1.1,8.2,2.7,10.8c-5.3,1.2-12.6,2.1-13.8,0.9
		c-1.1-5.1,2.6-17.4,6.7-19.5c0.2-0.1,0.5-0.2,0.8-0.2c0.5,0,1.2,0.3,2.2,1.4l1.4-1.2l-1.4,1.2C295.4,30.4,295.9,34,296.2,36.3z"/>
</g>
</svg>
