<?xml version="1.0" encoding="utf-8"?>
<!-- Generator: Adobe Illustrator 19.0.0, SVG Export Plug-In . SVG Version: 6.00 Build 0)  -->
<!DOCTYPE svg PUBLIC "-//W3C//DTD SVG 1.1//EN" "http://www.w3.org/Graphics/SVG/1.1/DTD/svg11.dtd">
<svg version="1.1" id="Layer_1" xmlns="http://www.w3.org/2000/svg" xmlns:xlink="http://www.w3.org/1999/xlink" x="0px" y="0px"
	 viewBox="0 0 282.4 40" enable-background="new 0 0 282.4 40" xml:space="preserve">
<g>
	<defs>
		<rect id="SVGID_1_" x="2.1" y="1.7" width="278.1" height="36.7"/>
	</defs>
	<clipPath id="SVGID_2_">
		<use xlink:href="#SVGID_1_"  overflow="visible"/>
	</clipPath>
	<path clip-path="url(#SVGID_2_)" fill="#4769B2" d="M70.2,32.7c-1.1-0.2-2.8,0.3-4.1,0.7c-0.5,0.1-1,0.3-1.3,0.3
		c-3.6,0.7-7.5,0.7-10.7,0.2c-3.1-0.5-5.3-1.5-7.7-2.6c-1.3-0.6-2.7-1.3-4.3-1.8c-2.3-0.8-4.9-1.2-7.8-1.2c-3.7,0-7.7,0.7-10.9,1.9
		c-1.9,0.7-3.7,1.5-5.2,2.2c-2.3,1.1-4.3,2-6.1,2.3c-0.7,0.1-1.8-0.3-3-0.7c-2.1-0.7-4.6-1.4-6.3-0.5c-0.7,0.4-0.7,1-0.7,1.2
		c0.3,1.7,5.7,2.8,5.8,2.8c4.7,0.9,8.9,0,17.9-4c1.9-0.8,3.9-1.2,6.3-1.2c4.9,0,10.1,1.7,14.7,3.3c2.3,0.8,4.4,1.5,6.4,1.9
		c1.9,0.5,4.6,0.7,7.4,0.7c2.1,0,9.2-0.2,11-2.6c0.4-0.6,0.5-1.3,0.3-2C71.7,33,70.8,32.8,70.2,32.7"/>
	<path clip-path="url(#SVGID_2_)" fill="#4769B2" d="M7,6.6l1.3,0c1.7,0,2.3,0.1,2.4,1.9c0.1,1.7-0.1,3.5-0.3,5.2
		c-0.1,1.2-0.3,2.4-0.3,3.7c0,0.2,0,0.4,0,0.6c-0.1,1.4-0.3,3.2,0.7,4.1c0.4,0.3,0.8,0.4,1.4,0.4c1.4,0,3.2-0.9,3.5-2.1
		c0.3-1.1,0.2-2.4,0.1-3.6c0-0.5-0.1-1-0.1-1.5c0-0.9,0-1.9-0.1-2.9c-0.1-2-0.2-4.1,0.1-5.9c0.4,0,1.8,0,2.7,0.1c0.5,0,0.9,0,1.1,0
		c0,0,0.2,0,0.2,0c0.2,0,0.4,0,0.6,0c0.3,0,0.6,0,0.9-0.2c0.5-0.3,0.6-0.8,0.7-1.4c0.1-0.7-0.1-2.3-0.9-2.8
		c-0.3-0.2-0.7-0.3-1.4-0.3c-0.6,0-1.2,0.1-1.8,0.1c-0.4,0-0.7,0.1-0.8,0.1H9.9c-0.2,0-0.5,0-0.9-0.1C8.3,1.8,7.4,1.7,6.7,1.7
		c-1.1,0-1.7,0.2-2,0.5c-0.6,0.6-0.5,3,0,3.6C5.3,6.6,6.4,6.6,7,6.6"/>
	<path clip-path="url(#SVGID_2_)" fill="#4769B2" d="M29.6,5.9l0,13.3c0,2.1,0.8,3.3,2.1,3.3c0.6,0,1.2-0.2,1.9-0.7
		c1.2-0.8,1.2-2.2,1.1-3.4c0-0.3,0-0.5,0-0.8c0-1,0-1.4,0.5-1.8c0.5-0.4,1.6-0.6,3-0.6c1.2,0,2.4,0.2,3.1,0.4c0.9,0.3,0.9,1,0.8,2.5
		c0,0.6-0.1,1.1,0,1.7c0.2,1.3,1.2,2.7,2.6,2.7c0.4,0,0.8-0.1,1.2-0.4c1.3-0.8,1.3-2.5,1.3-3.6l0-0.6c0-2,0.1-3.9,0.1-5.9
		c0-0.1,0-0.4,0-0.7c0.3-9.3,0-9.4-0.8-9.5l-0.4-0.1c-0.5-0.1-1.1-0.2-1.6-0.2c-0.9,0-1.5,0.2-2,0.7c-0.9,0.9-0.5,2.2-0.2,3.2
		c0.1,0.4,0.2,0.7,0.2,1c0.1,1.8,0.1,2.8-1.3,3.8c-0.7,0.5-1.8,0.7-3.1,0.7c-1.6,0-3.4-0.5-3.4-1.7c0-0.3,0.1-0.9,0.1-1.7
		c0.3-3.4,0.3-5-0.4-5.6c-0.4-0.3-1-0.5-1.9-0.5c-0.5,0-2.1,0.1-2.7,0.8c-0.4,0.5-0.4,1.5-0.2,2.8C29.6,5.5,29.6,5.8,29.6,5.9"/>
	<path clip-path="url(#SVGID_2_)" fill="#4769B2" d="M71.3,17.4c-0.4,0-1.2,0.1-2.2,0.2c-1.7,0.1-4.1,0.4-5.8,0.4
		c-1.1,0-1.6-0.1-1.8-0.1c-0.2-1.1-0.4-2.3,0-2.7c0.3-0.3,1.1-0.3,2.3-0.1l0.6,0.1c0.7,0.1,1.6,0.3,2.4,0.3c1.2,0,2.2-0.3,2.9-1
		c0.5-0.5,0.7-1.4,0.5-2.3c-0.3-1-0.9-1.8-1.7-1.9c-0.6-0.2-1.5,0-2.3,0.1c-0.4,0.1-0.7,0.1-1.1,0.1l-0.7,0c-2.6,0-3-0.7-3.1-1.3
		c-0.1-0.7-0.2-2.1,0.5-2.4c0.1,0,0.2-0.1,0.7-0.1c0.4,0,0.9,0.1,1.4,0.1c0.7,0.1,1,0.1,1.9,0.1c0.6,0,1.3,0.1,2,0.1
		c2.4,0,3.7-0.4,4.1-1.4c0.3-0.7,0.1-1.6-0.7-2.6c-0.7-0.9-2-0.9-3.1-1c-1.5,0-3.1-0.1-4.6-0.1l-0.5,0c-0.7,0-2.1-0.1-3.4-0.1
		c-2.3,0-3,0.1-3.2,0.9c-0.5,2.7-0.3,5.7-0.2,8.6c0.1,1.3,0.1,2.6,0.1,3.8c0,0.4,0,0.9-0.1,1.4c-0.2,2.1-0.5,5.4,2.2,5.7
		c0.7,0.1,1.4,0.1,2.1,0c0.3,0,0.6,0,0.9,0h4.9c0.4,0,0.8,0.1,1.3,0.2c0.6,0.1,1.3,0.2,1.9,0.2c0.9,0,1.6-0.2,2.1-0.7
		c0.6-0.5,0.9-3.1,0.6-3.8C72,17.7,71.7,17.4,71.3,17.4"/>
	<path clip-path="url(#SVGID_2_)" fill="#4769B2" d="M114.5,7.8c0-1.9,0-3.5-0.8-4.4l-0.1-0.1c-0.5-0.4-1.1-0.5-1.8-0.5h-0.2l-0.5,0
		c-0.6,0-1.8-0.1-2.7-0.1c-0.8,0-1.9,0-2.2,0.9c-0.7,1.9-0.5,3.9-0.3,5.9c0.1,0.8,0.1,1.5,0.2,2.3l0,2.6c0,1.9,0.1,3.8,0.1,5.8
		c0,5.3-1.2,8-3.6,8c-0.4,0-0.8-0.1-1.3-0.2c-0.8-0.2-1.3-0.8-1.9-1.8c-0.6-0.8-1.2-1.8-2.3-2.4c-0.5-0.2-1.1-0.4-1.9-0.4
		c-1.3,0-3,0.4-3.8,1.2c-1.1,1.2-0.6,2.5-0.2,3.4c0.1,0.1,0.1,0.3,0.2,0.5c1.8,4.4,6.5,7.4,11.5,7.4c3.2,0,6.1-1.3,8.1-3.6
		c2.3-2.6,2.7-6.3,3-9.6l0.1-1.3c0.5-4.2,0.6-8.4,0.4-12.6C114.5,8.5,114.5,8.2,114.5,7.8"/>
	<path clip-path="url(#SVGID_2_)" fill="#4769B2" d="M149.5,2.3c-0.5,0-1.6,0-2.3,0.3c-2.2,0.8-1.9,3.5-1.7,5.2
		c0.1,0.5,0.1,0.9,0.1,1.3c0,2.1,0,4.1,0,6.2c0,1.8,0,3.5,0,5.3c0,3.7-1.9,7.6-6.1,7.6c-0.5,0-1-0.1-1.6-0.2
		c-5.7-1.2-5.7-7.4-5.2-14.7c0-0.7,0.1-1.4,0.1-2.1c0-0.4,0.1-0.8,0.1-1.2c0.2-2.6,0.6-6.9-3.4-7.3l-0.4,0c-0.5-0.1-1-0.1-1.5-0.1
		c-1.3,0-2.2,0.4-2.8,1.1c-0.9,1.2-0.7,3.2-0.4,5c0.1,0.5,0.1,1,0.2,1.4c0,2,0,4.1,0,6c0,0.9,0,1.7,0,2.6c0,3.4-0.1,7,1.9,10.3
		c2.5,4.2,7.5,6.8,13.1,6.8c0.8,0,1.7-0.1,2.5-0.2c6.7-1,11.2-6.1,11.8-13.3c0.1-1.4,0.3-2.9,0.5-4.3c0.3-2.1,0.6-4.3,0.6-6.4
		c0-4.4-0.6-7.2-2-8.4C152.2,2.4,150.5,2.3,149.5,2.3"/>
	<path clip-path="url(#SVGID_2_)" fill="#4769B2" d="M169.7,2.3c-2.4,0-5,1.3-5.1,3.3c-0.1,2.3-0.1,4.7,0,7c0,2.2,0.1,4.4,0,6.6
		c-0.1,1.1-0.1,2.2-0.2,3.3c-0.3,3.5-0.6,7.2,0.4,10.7c0.5,1.6,2.1,2.6,4.1,2.6c1,0,1.9-0.3,2.7-0.8c0.2-0.1,0.4-0.3,0.6-0.5
		l0.2-0.3v-0.4c0-0.4,0.1-1,0.2-1.6c0.2-0.8,0.3-1.5,0.3-2.3l-0.1-15.9c0-0.5,0.1-1.3,0.2-2.3c0.4-4,0.6-7.2-0.6-8.5
		C171.7,2.5,170.6,2.3,169.7,2.3"/>
	<path clip-path="url(#SVGID_2_)" fill="#4769B2" d="M206.1,4.7c-3-1.2-6.2-1.6-9.3-1.3c-6.9,0.6-12.2,5-13.9,11.5
		c-1.3,4.7-0.3,9.5,2.7,13.5c3.5,4.5,9.1,7.3,14.7,7.3h0c3.9,0,7.5-1.4,10.4-3.9c1.3-1.1,1.7-2.6,1.3-4.1c-0.5-1.6-2.1-2.9-4-3.2
		c-0.3,0-0.6,0-0.9,0c-0.9,0.1-1.4,0.6-1.9,1.1c-0.2,0.2-0.4,0.4-0.6,0.5c-1,0.7-2.1,1.3-3.3,1.6c-0.6,0.1-1.3,0.2-1.9,0.2
		c-3.9,0-7.3-2.6-8.4-6.2c-0.7-2.3-0.3-5,1.1-7.2c1.2-2.1,3.1-3.4,5.3-3.9c2.2-0.4,4.3,0.7,6.4,2c0.3,0.2,0.7,0.4,1.1,0.7
		c0.9,0.5,1.4,0.8,2.1,0.8c0.6,0,1.2-0.3,1.9-0.7c0.2-0.1,0.5-0.3,0.7-0.4c1.2-0.6,2.6-1.4,2.8-2.7c0.1-0.8-0.1-1.6-0.8-2.4
		C210.3,6.5,208.2,5.5,206.1,4.7"/>
	<path clip-path="url(#SVGID_2_)" fill="#4769B2" d="M245.8,28.4c-0.4-0.4-1-0.4-1.3-0.4c-0.3,0-0.6,0-0.9,0.1c-0.1,0-0.3,0-0.3,0
		c-1.1,0-2.2,0-3.3,0l-2.8,0c-0.8,0-1.6,0-2.4,0.1c-1.4,0-2.8,0.1-4.2,0c-1.6-0.1-1.6-0.1-1.9-2.1c-0.1-0.8-0.2-1.6,0-2.4
		c0,0,0.2-0.6,3.1-0.6c1.4,0,2.9,0.1,4.5,0.3c1.3,0.1,2.6,0.2,3.6,0.2c0.8,0,2.5,0,2.8-1.2c0.5-1.6,0.7-5.4-1.4-6.4
		c-1.2-0.6-3.4-0.4-5.8-0.1c-1.2,0.2-2.5,0.3-3.6,0.3c-2.2,0-2.7-0.7-2.9-1.5c-0.1-0.3-0.1-0.5-0.2-0.8c-0.3-1.3-0.8-3.3,0-3.6
		c0.4-0.1,0.9-0.2,1.7-0.2c0.6,0,1.2,0,1.8,0.1c0.6,0,1.1,0.1,1.5,0.1l0.2,0c1.2,0,2.5,0,3.7,0l2.7,0c0.2,0,0.5,0,0.8,0.1
		c0.5,0.1,1.1,0.1,1.7,0.1c0.7,0,1.1-0.1,1.4-0.3c1.5-0.9,1.3-3.4,1-5.9l0-0.4c-0.1-1.1-0.9-1.4-6.1-1.4c-3,0-6.5,0.1-8.2,0.2
		c-0.5,0-0.9,0-1.1,0c-0.4,0-0.9,0-1.4-0.1c-0.8-0.1-1.8-0.1-2.8-0.1c-1.7,0-3.9,0.2-4.7,1.9c-0.3,0.8-0.2,1.8-0.1,2.8
		c0,0.3,0.1,0.6,0.1,0.8c0,2.8-0.1,5.7-0.1,8.5c0,1.5-0.1,3-0.1,4.5c0,2.2-0.1,4.3,0,6.5c0,0.4,0,0.9-0.1,1.5
		c-0.1,1.7-0.2,3.7,0.4,5c0.8,1.7,2.7,1.7,3.5,1.7h0c0.3,0,0.7,0,1,0c0.3,0,0.6,0,0.9,0l0.2,0c2.2,0,4.3,0,6.5,0c1.5,0,3,0,4.5-0.1
		c1.5,0,3.1-0.1,4.7-0.1c0.3,0,0.5,0,0.8,0c0.2,0,0.4,0,0.6,0c0.8,0,1.8-0.2,2.4-1.5C246.6,33.1,247.1,29.5,245.8,28.4"/>
	<path clip-path="url(#SVGID_2_)" fill="#4769B2" d="M268.1,15.6c-2.5-0.7-4.8-1.7-5-3.1c-0.4-2.8,4.6-1.8,6-1.5
		c2.6,0.5,6.1,2.7,8.1,0c5.9-7.6-6.3-8.4-11-8.4c-11.8,0-17.4,14.4-5.1,19.6c1.8,0.8,10.3,1.1,10,4.1c-0.6,5.3-13.4-2.3-15.9,0.4
		c-3.3,3.6-0.3,7.6,3.6,8.3c7.5,1.3,20.4,1.6,21.4-8.6c0.4-4.5-2.7-7.4-6.4-9.2C272.7,16.7,270.4,16.2,268.1,15.6"/>
</g>
</svg>
