<?xml version="1.0" encoding="utf-8"?>
<!-- Generator: Adobe Illustrator 19.0.0, SVG Export Plug-In . SVG Version: 6.00 Build 0)  -->
<!DOCTYPE svg PUBLIC "-//W3C//DTD SVG 1.1//EN" "http://www.w3.org/Graphics/SVG/1.1/DTD/svg11.dtd">
<svg version="1.1" id="Layer_1" xmlns="http://www.w3.org/2000/svg" xmlns:xlink="http://www.w3.org/1999/xlink" x="0px" y="0px"
	 viewBox="0 0 855.8 56.9" enable-background="new 0 0 855.8 56.9" xml:space="preserve">
<g>
	<defs>
		<rect id="SVGID_1_" y="0" width="855.8" height="56.9"/>
	</defs>
	<clipPath id="SVGID_2_">
		<use xlink:href="#SVGID_1_"  overflow="visible"/>
	</clipPath>
	<path clip-path="url(#SVGID_2_)" fill="#4769B2" d="M310,32.5c-1.7,1.4-4,2.3-6.6,2.3c-4.8,0-7.9-3.6-7.9-7.7c0-4,3-7.6,7.9-7.6
		c2.6,0,4.9,0.9,6.6,2.3V32.5z M310,13.9v1.7c-2.3-1.3-5-2.2-7.8-2.2c-8.4,0-13.3,6.7-13.3,13.8c0,7.1,4.9,13.8,13.3,13.8
		c2.9,0,5.6-0.9,7.8-2.4v2h6.8V13.9H310z M275.8,19.5v-5.6h-7.5V3.5h-6.9v10.4h-3.8v5.6h3.8v13c0,5.6,3.6,8.4,8.1,8.4
		c3.8,0,5.9-0.9,6.2-1v-5.1c-0.9,0.1-2,0.2-3.1,0.2c-3.4,0-4.2-1.4-4.2-6.1v-9.4H275.8z M240.1,11c2.2,0,3.9-1.8,3.9-4
		c0-2.2-1.7-4-3.9-4s-3.9,1.8-3.9,4C236.1,9.2,237.9,11,240.1,11 M236.7,40.5h6.8V13.9h-6.8V40.5z M205.5,28.5L195.4,5.9h-7.6
		l16.1,34.6h3.2l16.2-34.6h-7.7L205.5,28.5z M160.5,34.8c-4.3,0-7.9-3.4-7.9-7.6c0-4.2,3.5-7.7,7.9-7.7c4.4,0,7.9,3.4,7.9,7.7
		C168.4,31.3,164.9,34.8,160.5,34.8 M160.5,13.4c-8.1,0-14.6,6.1-14.6,13.8c0,7.6,6.5,13.8,14.6,13.8c8.1,0,14.6-6.1,14.6-13.8
		C175.1,19.5,168.6,13.4,160.5,13.4 M123.4,13.9h-6.9v26.7h6.9V27.7c0-3.5,1.9-7,6.8-7c1.4,0,3.3,0.4,3.3,0.4v-7.4
		c-0.5-0.2-1.2-0.3-1.7-0.3c-3.8,0-6.6,1.7-8.4,4.2V13.9z M92.2,13.9h-6.9v26.7h6.9V27.7c0-3.5,1.9-7,6.8-7c1.4,0,3.3,0.4,3.3,0.4
		v-7.4c-0.5-0.2-1.2-0.3-1.7-0.3c-3.8,0-6.6,1.7-8.4,4.2V13.9z M56,34.8c-4.3,0-7.9-3.4-7.9-7.6c0-4.2,3.5-7.7,7.9-7.7
		c4.4,0,7.9,3.4,7.9,7.7C63.8,31.3,60.4,34.8,56,34.8 M56,13.4c-8.1,0-14.6,6.1-14.6,13.8c0,7.6,6.5,13.8,14.6,13.8
		s14.6-6.1,14.6-13.8C70.6,19.5,64,13.4,56,13.4 M7.9,25.8V12H14c5.5,0,7.3,3.3,7.3,6.9c0,4.1-2.7,6.9-8.3,6.9H7.9z M0.9,5.9v34.6h7
		v-8.9h5.8c8.8,0,14.9-3.8,14.9-13.3c0-6.5-3.4-12.5-13.6-12.5H0.9z"/>
	
		<path clip-path="url(#SVGID_2_)" fill="none" stroke="#4769B2" stroke-width="1.81" stroke-linejoin="round" stroke-miterlimit="20.686" d="
		M310,32.5c-1.7,1.4-4,2.3-6.6,2.3c-4.8,0-7.9-3.6-7.9-7.7c0-4,3-7.6,7.9-7.6c2.6,0,4.9,0.9,6.6,2.3V32.5z M310,13.9v1.7
		c-2.3-1.3-5-2.2-7.8-2.2c-8.4,0-13.3,6.7-13.3,13.8c0,7.1,4.9,13.8,13.3,13.8c2.9,0,5.6-0.9,7.8-2.4v2h6.8V13.9H310z M275.8,19.5
		v-5.6h-7.5V3.5h-6.9v10.4h-3.8v5.6h3.8v13c0,5.6,3.6,8.4,8.1,8.4c3.8,0,5.9-0.9,6.2-1v-5.1c-0.9,0.1-2,0.2-3.1,0.2
		c-3.4,0-4.2-1.4-4.2-6.1v-9.4H275.8z M240.1,11c2.2,0,3.9-1.8,3.9-4c0-2.2-1.7-4-3.9-4s-3.9,1.8-3.9,4C236.1,9.2,237.9,11,240.1,11
		z M236.7,40.5h6.8V13.9h-6.8V40.5z M205.5,28.5L195.4,5.9h-7.6l16.1,34.6h3.2l16.2-34.6h-7.7L205.5,28.5z M160.5,34.8
		c-4.3,0-7.9-3.4-7.9-7.6c0-4.2,3.5-7.7,7.9-7.7c4.4,0,7.9,3.4,7.9,7.7C168.4,31.3,164.9,34.8,160.5,34.8z M160.5,13.4
		c-8.1,0-14.6,6.1-14.6,13.8c0,7.6,6.5,13.8,14.6,13.8c8.1,0,14.6-6.1,14.6-13.8C175.1,19.5,168.6,13.4,160.5,13.4z M123.4,13.9
		h-6.9v26.7h6.9V27.7c0-3.5,1.9-7,6.8-7c1.4,0,3.3,0.4,3.3,0.4v-7.4c-0.5-0.2-1.2-0.3-1.7-0.3c-3.8,0-6.6,1.7-8.4,4.2V13.9z
		 M92.2,13.9h-6.9v26.7h6.9V27.7c0-3.5,1.9-7,6.8-7c1.4,0,3.3,0.4,3.3,0.4v-7.4c-0.5-0.2-1.2-0.3-1.7-0.3c-3.8,0-6.6,1.7-8.4,4.2
		V13.9z M56,34.8c-4.3,0-7.9-3.4-7.9-7.6c0-4.2,3.5-7.7,7.9-7.7c4.4,0,7.9,3.4,7.9,7.7C63.8,31.3,60.4,34.8,56,34.8z M56,13.4
		c-8.1,0-14.6,6.1-14.6,13.8c0,7.6,6.5,13.8,14.6,13.8s14.6-6.1,14.6-13.8C70.6,19.5,64,13.4,56,13.4z M7.9,25.8V12H14
		c5.5,0,7.3,3.3,7.3,6.9c0,4.1-2.7,6.9-8.3,6.9H7.9z M0.9,5.9v34.6h7v-8.9h5.8c8.8,0,14.9-3.8,14.9-13.3c0-6.5-3.4-12.5-13.6-12.5
		H0.9z"/>
	<path clip-path="url(#SVGID_2_)" fill="#4769B2" d="M851.2,5.5c-2,0-3.6,1.7-3.6,3.7c0,1.9,1.3,3.4,3,3.7c-0.2,1.8-1.5,2.7-4.3,2.8
		l0.9,2.8c6.3,0,7.7-4.8,7.7-8.4C854.9,7.2,853.4,5.5,851.2,5.5 M840.2,5.5c-2,0-3.6,1.7-3.6,3.7c0,1.9,1.3,3.4,3,3.7
		c-0.2,1.8-1.5,2.7-4.4,2.8l0.9,2.8c6.4,0,7.8-4.8,7.8-8.4C843.9,7.2,842.4,5.5,840.2,5.5 M802.1,34.1v-7.8h15.7v-5.9h-15.7v-8.8
		h18.7V5.6h-25.5v34.6h26.6v-6.1H802.1z M780.2,11.7V5.6h-26.1v34.6h6.8V30.1h16.6V24H761V11.7H780.2z M737.1,5.6H730v34.6h7.1V5.6z
		 M697.2,34.3V5.6h-7v34.6H715v-5.9H697.2z M632.7,22.9v5.9h8.8V32c-2.2,1.5-5,2.4-8.1,2.4c-6.2,0-11.2-5-11.2-11.4
		c0-6.1,5-11.1,11.2-11.1c3.8,0,7.1,1.2,9.4,3.3l4.4-4.9c-3.3-3-8.1-5-13.9-5c-10.1,0-18.4,7.9-18.4,17.7s8.3,17.7,18.4,17.7
		c5.9,0,11.2-2,15.1-5.1V22.9H632.7z M592.3,5.6v21.8L571.7,5.6h-3.4v34.6h7V18.4L596,40.2h3.4V5.6H592.3z M534.1,34
		c-6.2,0-11.2-5-11.2-11.1c0-6.1,5-11.1,11.2-11.1c6.2,0,11.3,5,11.3,11.1C545.4,29.1,540.3,34,534.1,34 M534.1,5.3
		c-10.2,0-18.4,7.9-18.4,17.7s8.3,17.7,18.4,17.7c10.2,0,18.4-7.9,18.4-17.7S544.4,5.3,534.1,5.3 M486.4,34.3V5.6h-7v34.6h24.9v-5.9
		H486.4z M448.7,18.7c2,0,3.6-1.7,3.6-3.7c0-1.9-1.3-3.4-3-3.7c0.2-1.8,1.5-2.7,4.3-2.8l-0.9-2.8c-6.3,0-7.8,4.8-7.8,8.3
		C445,17,446.5,18.7,448.7,18.7 M459.7,18.7c2,0,3.6-1.7,3.6-3.7c0-1.9-1.3-3.4-3-3.7c0.2-1.8,1.5-2.7,4.4-2.8l-0.9-2.8
		c-6.4,0-7.8,4.8-7.8,8.3C456,17,457.5,18.7,459.7,18.7"/>
	
		<path clip-path="url(#SVGID_2_)" fill="none" stroke="#4769B2" stroke-width="1.81" stroke-linejoin="round" stroke-miterlimit="20.686" d="
		M851.2,5.5c-2,0-3.6,1.7-3.6,3.7c0,1.9,1.3,3.4,3,3.7c-0.2,1.8-1.5,2.7-4.3,2.8l0.9,2.8c6.3,0,7.7-4.8,7.7-8.4
		C854.9,7.2,853.4,5.5,851.2,5.5z M840.2,5.5c-2,0-3.6,1.7-3.6,3.7c0,1.9,1.3,3.4,3,3.7c-0.2,1.8-1.5,2.7-4.4,2.8l0.9,2.8
		c6.4,0,7.8-4.8,7.8-8.4C843.9,7.2,842.4,5.5,840.2,5.5z M802.1,34.1v-7.8h15.7v-5.9h-15.7v-8.8h18.7V5.6h-25.5v34.6h26.6v-6.1
		H802.1z M780.2,11.7V5.6h-26.1v34.6h6.8V30.1h16.6V24H761V11.7H780.2z M737.1,5.6H730v34.6h7.1V5.6z M697.2,34.3V5.6h-7v34.6H715
		v-5.9H697.2z M632.7,22.9v5.9h8.8V32c-2.2,1.5-5,2.4-8.1,2.4c-6.2,0-11.2-5-11.2-11.4c0-6.1,5-11.1,11.2-11.1
		c3.8,0,7.1,1.2,9.4,3.3l4.4-4.9c-3.3-3-8.1-5-13.9-5c-10.1,0-18.4,7.9-18.4,17.7s8.3,17.7,18.4,17.7c5.9,0,11.2-2,15.1-5.1V22.9
		H632.7z M592.3,5.6v21.8L571.7,5.6h-3.4v34.6h7V18.4L596,40.2h3.4V5.6H592.3z M534.1,34c-6.2,0-11.2-5-11.2-11.1
		c0-6.1,5-11.1,11.2-11.1c6.2,0,11.3,5,11.3,11.1C545.4,29.1,540.3,34,534.1,34z M534.1,5.3c-10.2,0-18.4,7.9-18.4,17.7
		s8.3,17.7,18.4,17.7c10.2,0,18.4-7.9,18.4-17.7S544.4,5.3,534.1,5.3z M486.4,34.3V5.6h-7v34.6h24.9v-5.9H486.4z M448.7,18.7
		c2,0,3.6-1.7,3.6-3.7c0-1.9-1.3-3.4-3-3.7c0.2-1.8,1.5-2.7,4.3-2.8l-0.9-2.8c-6.3,0-7.8,4.8-7.8,8.3C445,17,446.5,18.7,448.7,18.7z
		 M459.7,18.7c2,0,3.6-1.7,3.6-3.7c0-1.9-1.3-3.4-3-3.7c0.2-1.8,1.5-2.7,4.4-2.8l-0.9-2.8c-6.4,0-7.8,4.8-7.8,8.3
		C456,17,457.5,18.7,459.7,18.7z"/>
	<path clip-path="url(#SVGID_2_)" fill="#4769B2" d="M382,37.5c-2.2,0.4-3.2,3.3-4.8,4.5c-0.8,0.6-1.6,1.1-2.4,1.7
		c-1,0.7-1.9,1.4-2.9,2c-0.4,0.3-0.8,0.6-1.2,0.8c-2.2,1.6,0.5-3.2,1.2-3.8c1.8-1.7,4.1-2.8,5.2-5.1c0.7-1.4-0.5-2.9-0.8-4.3
		c0-0.1-11,4-11.8,5.4c0,0-2.6,4.2-3.3,6.2c-0.7,2,2,7,2,7s3,3.5,5.4,4.7c2.4,1.2,5.6-1,8.5-1.8c2.9-0.7,7.2-13,7.2-13
		C384.4,40.1,384.4,37,382,37.5"/>
	<path clip-path="url(#SVGID_2_)" fill="#4769B2" d="M380.6,25.1c-1.6,1-1.9,1.7-1.8,3.5c0,0.3,0,0.7-0.1,1.1
		c-0.3,2.6,0.7,4.6,3.5,4.3c1.5-0.2,4.6,0,5-1.8c0.2-0.8,0.4-2,0.1-2.9c-0.2-0.6-0.5-1.1-0.8-1.6C385.7,25.6,383.1,23.5,380.6,25.1"
		/>
	<path clip-path="url(#SVGID_2_)" fill="#4769B2" d="M352.7,17.3c-0.1,1,0.5,2.1,0.6,3c0.3,1.9,0.6,3.8,0.8,5.6
		c0.1,1.4,0.6,3.3,2,3.9c2.3,1,5.1,1.4,7.6,2.1c1.7,0.5,4.7-0.5,6.4-0.7c1.5-0.2,3.8,0.6,5.2-0.2c0.2-0.1,0.4-0.3,0.5-0.4
		c2.6-2.8-2.4-5.8-4.3-6.9c-1.3-0.8-3.9-2.2-5.4-2.4c-3.5-0.6-1-3.5,1.8-2.6c2.8,0.9,4.7,3.1,7.3,4.4c1,0.4,2.6,1.4,2.9-0.2
		c0.1-0.3,0.2-0.8,0.1-1.1c-0.1-0.5-0.4-1.1-0.6-1.6c-2.4-4.8-6.5-10-12.4-9.7c-2.7,0.1-6.2,0-8.7,1.4
		C354.6,12.9,353,15.3,352.7,17.3"/>
	<path clip-path="url(#SVGID_2_)" fill="#4769B2" d="M380.4,11.9c-1.3,3.6-0.3,7,1.5,10.2l1.8-0.2c0.5-1.7,1.9-3.1,2.2-4.8
		c0.6-3.6,2.3-5.3,2.7-3c0.3,1.9-0.8,6.8-1.7,8.3c-1.8,3.2,3.5,2,4.2,1.2c0.7-0.8,6.1-6,6.9-6.6c0.8-0.5,3.8-3,3.7-4
		c-0.1-1.8-1.2-4.3-2.4-5.6c-1.9-2.1-4.1-6.9-7.3-7.4c-1.2-0.2-3.3,0.2-4.5,0.5C382.5,1.7,381.9,7.9,380.4,11.9"/>
	<path clip-path="url(#SVGID_2_)" fill="#4769B2" d="M389.8,30.6c0.3,3.8,8.2,2.3,10.7,2.8c1,0.2,2.2,0.3,2.5,1.3
		c0.3,0.9-0.1,1.5-1,1.6c-1.6,0.1-4.7-0.9-4.7-0.9c-1.6-0.5-3.3-0.5-5-0.7c-0.8-0.1-1.6-0.5-2.4-0.6c-0.4,0-0.7,0-1.1,0.2
		c-1.4,0.6-2.7,2.1-2.4,3.7c0.2,1.6,1.9,2.6,3,3.6c1.1,1,2.1,2.2,3.5,2.8c1.1,0.5,2.3,0.8,3.4,1.1c0,0,0.7,1.7,6.1-0.6
		c5.4-2.3,9.4-6.6,8.8-9c-0.7-2.5-1.7-5.1-1.7-5.1s-5.1-3.7-6-4.6c-2.6-2.8-6,0.8-8.7,0.5c-1-0.1-3.9,1.2-4.3,1.3
		C389.9,28.5,389.8,30.2,389.8,30.6"/>
</g>
</svg>
