<?xml version="1.0" encoding="utf-8"?>
<!-- Generator: Adobe Illustrator 19.0.0, SVG Export Plug-In . SVG Version: 6.00 Build 0)  -->
<!DOCTYPE svg PUBLIC "-//W3C//DTD SVG 1.1//EN" "http://www.w3.org/Graphics/SVG/1.1/DTD/svg11.dtd">
<svg version="1.1" id="Layer_1" xmlns="http://www.w3.org/2000/svg" xmlns:xlink="http://www.w3.org/1999/xlink" x="0px" y="0px"
	 viewBox="-111 155.8 277 190.2" style="enable-background:new -111 155.8 277 190.2;" xml:space="preserve">
<style type="text/css">
	.st0{fill:#FFFEF6;}
</style>
<g>
	<path class="st0" d="M46.9,288.5c0,0.9,0,1.9,0.2,2.9c0.4,1.3,1.4,2.6,3,2.6c0.9,0,2.5-0.6,2.5-2.9c0-1.1-0.2-2.2-0.4-3.2
		c-0.5-2.1-1.3-4.1-2-5.6c-1.7-3.8-4.2-7-7.2-9.3c-1.7-1.2-3.5-1.8-5.3-2.4l-0.3-0.1c-2.6-0.8-5.1-1.5-8-1.5c-3,0-5.9,0.6-8.1,1
		c-1.8,0.4-3.7,1.2-5.4,2.5c-1.7,1.2-3.1,2.3-4.5,3.6c-1.9,1.8-3.2,3.6-4.2,5.5c-1.1,2.2-1.6,4.8-1.8,6.7c-0.2,1.3-0.3,2.7-0.4,4
		c0,0.3-0.1,1,0.5,1.7c0.6,0.8,1.4,1,1.9,1c0.6,0,1.2-0.2,1.6-0.7c0.7-0.7,0.9-1.8,0.9-2.4c-0.1-2.9,0.4-5.6,1.4-7.9
		c0.7-1.5,1.5-2.8,2.6-3.9c0.5-0.6,1.1-1.1,1.7-1.5c0.4-0.3,0.8-0.6,1.2-1c0.3-0.2,0.5-0.4,0.8-0.6c1.4-1.1,2.6-1.9,4-2.3
		c1.2-0.4,2.6-0.6,4.1-0.8l0.6-0.1c1.7-0.2,3.4-0.4,4.8-0.2c6,0.8,10.3,3.2,13.3,7.2c1.6,2.2,2.4,4.3,2.6,6.4
		C46.9,287.7,46.9,288,46.9,288.5L46.9,288.5z"/>
	<path class="st0" d="M161.5,314.5c-3.4-1.5-7.1-2.5-10.7-3.4c-3.5-0.9-6.8-1.2-9.8,1c-2.5,1.9-4.7,4.1-7.8,5
		c-8.7,2.4-14-4.7-21.2-7.4c-3.9-1.4-8.3-0.7-12.2,0.5c-3.8,1.2-6.7,3.9-10.4,5.1c-8.2,2.6-17.7-1.3-25.2-4.2
		c-11.7-4.6-23.4,12.6-34.7,3.2c-2.5-2.1-5.4-3.4-8.6-3.9c-3.2-0.5-5.3,0.5-8.2,1.5c-3.8,1.3-7.6,3.5-11.7,3.8
		c-4.1,0.3-7.6-2.5-11.1-4.3c-5.4-2.7-12.4-4.1-18.2-1.5c-5.1,2.4-8.4,4.9-14.3,4.8c-1.7,0-3.5-0.1-5.2-0.5c-4.9-1.3-9-5.6-14.1-5.3
		c-3.8,0.3-6.8,3.1-10,5c-5.5,3.3-13,4.1-18.2,0.5c-1.2-0.8-2.2-1.8-3.5-2.5c-3.7-1.9-8.3-0.5-11.9,1.4c-0.7,0.4-2.2,1.5-3,2.6
		c-0.6,0.8-0.8,1.7,0.1,2.2c0.9,0.6,3.8-1.1,4.7-1.5c2.2-1.1,4.3-1.7,6.9-1.1c3,0.7,5.6,2.5,8.5,3.7c3.4,1.3,7.2,1.7,10.7,1
		c6.6-1.3,12.8-6.1,19.4-4.8c2.7,0.5,5,2,7.6,2.8c4.4,1.3,9.1,0.4,13.5-0.9c4.4-1.3,8.6-3.1,13.2-3.7c2.4-0.3,5-0.2,7.3,0.4
		c2.2,0.6,3.5,2.2,5.5,3c2.7,1.1,7,1.3,9.9,1.3c2.8,0,6.5-0.5,10.2-2.3c6.9-3.4,15.9,0.7,22.5,2.9c2.2,0.7,4.7,0.7,6.8,0.7
		c11.1,0,20.6-6.3,32-3.5c6.4,1.6,11.6,4.1,18.2,2.2c7.2-2.1,16.9-5.5,24.3-2.9c5.9,2.1,9.1,7.3,16.1,6.5c5.2-0.6,9.9-4.4,14.7-5.5
		c1.9-0.4,3.9,0,5.8,0.3c2.7,0.4,5.4,1.3,8,2c1.6,0.4,3.3,1,5,1.1c1.8,0.1,3.8-0.9,3.1-2.9C165.3,315.9,162.6,315,161.5,314.5"/>
	<path class="st0" d="M32.4,205.3c-11.4,0-22.6,2.1-31.2,4c-6.4,1.4-12.9,4.4-19.1,8.8c-5.8,4.1-11.9,8.7-17.3,13.7
		c-6.9,6.5-11.9,13-15.3,19.8c-4,8.1-5.6,17.4-6.6,24.6c-0.7,5.2-1.3,12.2-1.6,17.4c0,0.6-0.1,1.5,0.5,2.3c0.6,0.7,1.2,1.1,1.9,1.1
		c0.4,0,0.9-0.1,1.5-0.7c1.1-1.2,1.6-3.6,1.6-4.4c-0.3-12.5,1.9-26.3,6.4-36.4c2.9-6.6,6.8-12.4,11.6-17.4c2.4-2.5,5-4.8,7.8-6.8
		c1.5-1.1,2.9-2.3,4.3-3.4l0.1-0.1c1.1-0.9,2.3-1.9,3.4-2.8c6.2-4.7,11.7-8.3,18-10.3c5.7-1.8,11.7-2.6,17.6-3.3l2.4-0.3
		c5.2-0.7,9.9-1.2,14.7-1.2c2.3,0,4.4,0.1,6.5,0.4c7.3,1,14.3,3,20.8,5l0.7,0.2c2.6,0.8,5.2,1.6,7.8,2.6c0.7,0.3,1.5,0.5,2.3,0.7
		c1.2,0.3,2.5,0.7,3.5,1.2c5.8,2.9,10.8,8.2,15.9,13.8c5,5.6,9.2,11.6,12.5,17.9c3.9,7.6,6.7,15.7,8.3,24.2
		c0.8,4.2,1.2,10.2,1.4,14.4c0,0.4-0.1,0.9-0.2,1.5c-0.3,1.5-0.5,3.1,0.2,4.2c0.4,0.5,0.8,0.9,1.3,1.1c0.3,0.1,0.5,0.1,0.8,0.1
		c1.4,0,2.5-1.2,2.6-2.6c1.1-17.1-5.2-39.1-16.8-55.7c-5.8-8.4-11.9-14.8-17.9-19.3c-5.8-4.2-12.6-6.3-19.2-8.4l-1.1-0.3
		c-9.8-3-19.4-5.8-29.6-5.8L32.4,205.3z"/>
	<path class="st0" d="M86.4,261.9c3,5.7,5.2,11.9,6.4,18.4c0.5,2.6,1,17.2,3.6,17.2c1.6,0,2.9-1.3,3-2.9c0.9-13.4-4.1-29.1-13.3-42
		c-4.6-6.5-9.4-11.6-14.2-15c-4.6-3.3-10-5-15.3-6.6l-0.9-0.3c-7.7-2.4-15.3-4.5-23.4-4.5H32c-9,0-17.8,1.6-24.5,3.1
		c-5.1,1.1-10.3,3.4-15.2,6.9c-4.5,3.2-9.3,6.7-13.6,10.6c-5.5,5-9.4,10.1-12.2,15.5c-3.2,6.3-4.5,13.6-5.3,19.2c-0.6,4-1,8-1.3,12
		c0,0.5-0.1,1.5,0.6,2.4c0.8,1,1.6,1.2,2.2,1.2c0.5,0,1.2-0.1,1.8-0.8c1.2-1.2,1.5-3.4,1.5-4c-0.3-9.5,1.5-20,5-27.6
		c2.3-5,5.2-9.4,8.9-13.2c1.8-1.9,3.9-3.6,6-5.1c1.3-0.9,2.4-1.8,3.5-2.7c0.8-0.7,1.7-1.4,2.6-2.1c4.8-3.6,9-6.3,13.8-7.7
		c4.3-1.3,9-1.9,13.6-2.5l1.9-0.2c4-0.5,7.7-0.9,11.4-0.9c1.8,0,3.4,0.1,4.9,0.3c5.6,0.7,11,2.3,16.1,3.8l0.5,0.2
		c2,0.6,4.1,1.3,6.1,2c0.6,0.2,1.2,0.4,1.9,0.6c0.9,0.3,1.8,0.5,2.6,0.9c4.4,2.1,8.2,6.1,12.1,10.4
		C80.6,252.5,83.9,257.1,86.4,261.9"/>
	<path class="st0" d="M62.4,269.2c2.1,2.9,4.2,5.8,5.4,9.2c1.1,3.2,1.6,9.4,2,12.8c0.2,1.7,0.4,5.9,2.9,5.9c0.5,0,2.9,1.1,2.9-2.6
		c0-2-0.2-7.9-0.7-9.9c-0.9-4-2.5-7.7-3.9-10.8c-3.3-7.3-8.1-13.5-14-17.8c-3.1-2.3-6.7-3.4-10.2-4.4l-0.6-0.2
		c-5.1-1.6-10.1-3-15.5-3h-0.2c-5.9,0-11.7,1.1-16.1,2c-3.5,0.7-6.9,2.3-10.2,4.7c-3,2.1-6.1,4.4-8.9,7c-3.6,3.4-6.3,6.7-8.1,10.4
		c-2.1,4.2-3,9.1-3.5,12.8c-0.4,2.6-0.6,6.2-0.8,8.8c0,0.4-0.1,1.3,0.6,2.2s1.6,1.1,2.2,1.1c0.7,0,1.3-0.3,1.8-0.8
		c1-1,1.2-2.6,1.2-3.3c-0.2-6.1,0.9-12.8,3.1-17.7c1.4-3.2,3.3-6,5.6-8.3c1.2-1.2,2.4-2.3,3.7-3.2c0.8-0.6,1.6-1.2,2.3-1.8h0.1
		c0.5-0.4,1.1-0.9,1.6-1.3c3-2.3,5.7-4,8.7-4.9c2.7-0.9,5.7-1.2,8.7-1.6l1.2-0.2c2.3-0.3,5-0.6,7.4-0.6c1.1,0,2.1,0.1,3,0.2
		C46.7,255.5,56.2,260.7,62.4,269.2"/>
	<path class="st0" d="M-98.3,278.9c1-2,2.4-3.3,4-3.5c0.6-0.1,1.2,0,1.9,0.2c2.8,0.9,4.5,4.8,4.9,8c0.2,1.4,0,3.3-1.5,3.9
		c-0.3,0.1-0.6,0.2-1,0.3c-1.1,0.2-2.3,0-3.5-0.1c-1-0.1-1.9-0.2-2.9-0.2h-0.4c-1.4,0.1-2.3,0-2.9-0.6
		C-100.6,285.8-99.5,281.3-98.3,278.9 M-85.1,295.9c1.2,0.1,2.1,0.1,2.5,0.1l1.8,0.1c1.5,0.1,3,0.2,4.4,0.3c0.3,0,0.6,0,0.8,0.1
		c0.5,0,0.9,0.1,1.3,0c1.5-0.2,1.8-1.7,1.9-2.5c0.4-1.8,0.8-3.9-0.3-5.4c-0.6-0.8-1.5-1.4-2.8-1.5c-0.7-0.1-1.5,0-2.3,0.1
		c-0.9,0.1-2,0.2-2.5-0.1c-0.6-0.4-0.4-1.6-0.1-3.1c0.1-0.6,0.2-1.1,0.2-1.6c0.6-8.4-3.4-14.6-10.4-16.2c-1.7-0.4-3.5-0.5-5.3-0.2
		c-4.2,0.6-7.7,3-9.6,6.5c-1,1.9-1.8,4.1-2.2,6.5c-0.9,4.8-0.7,9.8-0.5,14.1C-108.1,294.6-108.1,294.8-85.1,295.9"/>
	<path class="st0" d="M-90.6,234.6c0.6-4.6,4.9-8.1,9.7-8.1c1.5,0,2.9,0.4,4.2,1c3,1.6,4.7,4.5,4.6,8.1c0,3.9-2.2,7.5-5.4,9.2
		c-1.2,0.6-2.5,0.9-3.8,0.9c-2.5,0-5.1-1.2-6.9-3.4C-90.1,240.2-91,237.3-90.6,234.6 M-87.7,253.5c2,0.9,4.1,1.4,6.1,1.4
		c16.2,0,25.7-25.6,11.7-35c-0.4-0.2-0.7-0.5-1.1-0.7c-11.5-6.5-25.3-0.4-28.1,12.6C-100.7,239.1-98.5,248.6-87.7,253.5"/>
	<path class="st0" d="M-59.9,194.5c0.6-0.9,2.1-1.9,3.2-2.7l0.6-0.4c1.7-1.1,3.1-1.6,4.5-1.6c0.4,0,0.7,0.1,1.1,0.2
		c1.6,0.4,2.8,1.2,3.3,2.3c0.6,1.2,0.5,2.7-0.2,4.4c-0.9,2.3-4.1,6.8-5.7,6.8h-0.1c-0.1,0-0.2,0-0.5-0.3c-0.6-0.7-1.3-1.5-1.8-2.3
		c-0.3-0.4-0.5-0.7-0.8-1.1c-0.3-0.4-0.8-0.9-1.2-1.4C-58.3,197.4-60.3,195.3-59.9,194.5 M-68.5,199.1c2.9,3.3,6.1,7.4,8.9,11
		l1.8,2.4c2.4,3.1,3.6,4.8,5,6.3c0.7,0.8,1.8,1.9,3.3,1.9c1.1,0,2.2-0.4,3.4-1.5c0.9-0.8,2.5-2.2,1.8-4.4c-0.4-1.3-1.4-2.2-2.2-2.9
		c-1.1-1-1.7-1.6-1.7-2.6c0.1-1.3,2.8-2.8,4.3-2.9c0.4,0,0.9,0,1.5,0.2c0.7,0.2,1.6,0.5,2.5,0.8c2,0.7,4.1,1.5,5.9,1.4
		c2,0,3.5-1.5,4.7-2.6c0.4-0.4,0.8-0.8,1.2-1.1c1-0.8,0.9-1.7,0.8-2c-0.7-2.5-7.9-3.4-8-3.4c-0.2,0-0.4,0-0.6-0.1
		c-1.6-0.1-1.6-0.3-1.6-0.6c0-0.7,0.1-1.5,0.2-2.3c0.1-0.8,0.2-1.7,0.2-2.6c0-2.6-0.9-5.1-2.4-7.4c-2.9-4.3-7.8-6.8-12.2-6.3
		c-3.8,0.5-7,2.8-10.1,5c-1.1,0.8-2.2,1.6-3.3,2.2l-0.5,0.3c-2,1.2-4,2.4-5.3,4.5c-1.6,2.6,0.4,4.6,1.6,5.8
		C-69,198.6-68.8,198.9-68.5,199.1"/>
	<path class="st0" d="M-17.1,169.4c0.8-1.4,3.4-2.4,6.6-2.3c1.8,0,3.5,0.4,4.4,1c2,1.3,2.9,3.4,2.2,5.5c-1,2.9-6.3,6.5-9.6,6.5
		c-0.1,0-0.3,0-0.5,0c-0.8-0.5-1.5-3.5-1.8-4.8c-0.2-0.7-0.3-1.3-0.4-1.7c-0.1-0.3-0.3-0.7-0.4-1.1C-17,171.3-17.5,170.1-17.1,169.4
		 M-26.4,172.2l1,3.2c0.5,1.7,1.1,3.5,1.7,5.2c1.6,5.1,3.6,11,5.7,16.9c0.2,0.5,0.6,0.8,1.1,0.8c0.1,0,0.2,0,0.2,0l0.5-0.1
		c2.3-0.4,4.9-0.9,6-2.5c0.5-0.6,0.6-1.4,0.5-2.2c-0.1-0.7-0.4-1.4-0.6-2.1c-0.1-0.3-0.2-0.6-0.3-0.8l-0.1-0.4
		c-0.6-1.7-0.7-2.3,0.2-3.1c1.1-0.9,2.9-1.4,4.3-1.2c0.1,0,0.1,0,0.2,0c1,0.3,1.9,1,2.8,1.7c0.4,0.3,0.8,0.6,1.2,0.9
		c0.1,0.1,0.3,0.3,0.7,0.5c2.5,2.1,3.4,2.7,4.2,2.7c0.1,0,0.3,0,0.5-0.1c0.2-0.1,0.8-0.2,1.3-0.3c4.3-0.9,6.1-1.5,6.4-2.9
		c0.4-1.8-2-3.3-5.5-5.3c-0.4-0.2-0.8-0.4-1-0.6c-0.5-0.3-1.1-0.5-1.6-0.7c-0.8-0.3-1.1-0.4-1.2-0.7c-0.1-0.2,0-0.5,0.2-0.8
		c0.3-0.4,0.5-0.8,0.8-1.2c0.9-1.4,1.7-2.6,2.1-4.7c0.6-3.6-0.3-7.5-2.5-10.5c-2.4-3.1-6.3-5-10.8-5.1c-1.7,0-3.4,0.2-5,0.7
		c-1.3,0.4-2.6,0.8-3.9,1.3c-1.6,0.5-3.2,1.1-4.8,1.5c-0.3,0.1-0.7,0.1-1.2,0.2c-1.6,0.3-3.7,0.6-4.6,2.2c-1,1.6,0.1,4.2,1,6.3
		C-26.7,171.4-26.5,171.9-26.4,172.2"/>
	<path class="st0" d="M28,170.3c1.1-3,3.4-5.2,6.1-6.1c0.8-0.3,1.7-0.4,2.5-0.4c2.4,0,4.8,1.1,6.6,2.9c1.9,2,2.9,4.5,2.9,7
		c0,1-0.2,1.9-0.6,2.8c-1.6,4-5.8,5.8-9.3,5.8l0,0c-3.3,0-6.1-1.5-7.6-4C27.1,176.1,26.9,173.1,28,170.3 M37.8,190.7
		c5.7,0,10.7-2.3,13.9-6.6c2.2-2.8,3.5-6.4,3.7-10c0.2-4-0.9-7.9-3.2-11.1c-0.7-1-1.5-1.9-2.4-2.7c-3.3-3-7.9-4.6-12.9-4.6
		c-7.3,0-15.8,3.8-18.5,12.2c-1.6,5.1-0.8,10.2,2.2,14.4C24.4,187.5,31.1,190.7,37.8,190.7"/>
	<path class="st0" d="M81.6,203.5C81.6,203.5,81.7,203.5,81.6,203.5c1.3,0,2.2-0.7,2.9-1.3c0.2-0.1,0.4-0.3,0.6-0.4
		c3.3-2.4,6.8-4.8,10.1-7.1c2.7-1.9,5.6-3.8,8.4-5.8c1.7-1.2,3.2-2.3,4.6-3.3c0.2-0.2,0.6-0.4,1-0.6c1.8-1.1,3-1.9,3.4-2.8
		c0.7-1.9-1.1-3.2-2.2-4c-0.2-0.1-0.4-0.3-0.5-0.4c-1.5-1.1-2.9-1.6-4.3-1.4c-2,0.3-3.6,1.7-5.2,3.1c-0.3,0.3-0.7,0.6-1.1,0.9
		c-0.6,0.5-1.1,0.9-1.7,1.4c-1.3,1-2.6,2.1-3.8,3.3c-0.3,0.3-0.7,0.7-1,1c-1.4,1.4-2.7,2.8-4.4,3.4c-0.2,0.1-0.3,0.1-0.3,0.1
		c-0.2-0.4-0.2-1.3,0-2.9c0-0.3,0.1-0.5,0.1-0.7l0.5-5.6c0.1-1.2,0.3-2.5,0.4-3.7c0.3-2.5,0.6-5.2,0.6-7.7c0-2.8-3.3-5.3-5.8-5.3
		c-1.7,0-3,1.1-3.4,2.9c-0.4,1.7-0.3,3.5-0.3,5.1c0,1.1,0.1,2.1,0,3.1c-0.2,2.3-0.3,4.6-0.5,6.9l-0.2,3.4c-0.1,0.8-0.1,1.5-0.2,2.3
		c-0.2,2.8-0.4,5.7-0.9,8.5l-0.1,0.5c-0.3,1.5-0.7,3.5,0.3,5.1C79,202.6,80.5,203.4,81.6,203.5"/>
	<path class="st0" d="M108.5,209.3c-2,1.8-4.1,3.7-5.9,5.7c-0.2,0.2-0.6,0.6-0.8,1.2c-0.5,2,1.7,3.7,3.2,4.9
		c0.2,0.1,0.3,0.2,0.4,0.3c0.4,0.4,1,0.8,1.8,0.9h0.1c0.9,0,1.6-0.5,2.2-1.1c3.6-3.1,7-6.5,10.3-9.7c3.5-3.4,7.1-7,10.9-10.2
		c0.5-0.4,1.2-1,1.5-1.8c0.3-0.6,0.4-1.6-0.4-3c-1-1.7-3.2-3.7-4.8-4c0,0-0.1,0-0.2,0c-1.1,0-2.1,0.9-3.2,2
		c-0.1,0.1-0.2,0.2-0.3,0.3c-0.8,0.8-1.6,1.6-2.3,2.4s-1.4,1.6-2.2,2.3l-7.1,6.8C110.7,207.3,109.6,208.3,108.5,209.3"/>
	<path class="st0" d="M139.7,222.4c0.8,1.3,2.3,3.6,1.5,4.4c-2.5,2.5-6.3,3.8-10,5c-2.4,0.8-4.8,1.6-7,2.7c-0.4,0.2-1,0.5-1.6,0.7
		c-1.7,0.7-3.6,1.5-4.6,3c-0.9,1.2-0.3,2.4,0,3.1c0.1,0.2,0.1,0.3,0.2,0.5l0.1,0.3c0.5,1.4,1.2,3.4,3.2,4.1c0.2,0.1,0.5,0.1,0.7,0.1
		c1.1,0.1,2.2-0.6,3-1.2c0.2-0.2,0.5-0.3,0.7-0.4c4.7-2.4,9.3-4.9,14-7.3c0.4-0.2,0.9-0.5,1.3-0.7c1.5-0.8,2.8-1.6,3.9-1.5
		c0.5,0,1.3,0.2,2.1,1.8l2,3.9c0.5,0.9,0.9,1.7,1.8,2c0.7,0.2,1.4,0.1,2.4-0.3c1-0.4,2.8-1.4,3.4-2.9c0.3-0.7,0.2-1.5-0.1-2.2
		c-0.3-0.6-0.6-1.2-0.9-1.8c-0.2-0.3-0.3-0.7-0.5-1c-0.7-1.3-1.3-2.7-2-4l-1.8-3.5c-0.5-1-1-2.2-1.6-3.4c-1.4-3.1-2.8-6.2-4.8-8.7
		c-0.5-0.6-1.3-1.3-2.4-1.4c-1.1-0.1-2.1,0.6-3,1.4c-2.7,2.1-1.3,4.9-0.8,5.8C139.1,221.5,139.4,221.9,139.7,222.4"/>
	<path class="st0" d="M151.2,275.3c0.6,0.1,1.1,0.2,1.6,0.3c-0.4,0.2-0.8,0.5-1.2,0.7c-0.4,0.2-0.8,0.5-1.2,0.7
		c-0.2,0.1-0.5,0.3-0.9,0.6c-0.8,0.5-3.1,2-4.1,2.4c-0.2-0.4-0.4-1.2-0.5-1.4c-0.1-0.2-0.1-0.4-0.1-0.5c-0.4-1.2-1.3-3.6-0.3-4.4
		c0,0,0,0,0.2,0c0.1,0,0.3,0,0.7,0.1l4.2,1.2C150,275.1,150.6,275.2,151.2,275.3 M140.8,263.3c-0.9-0.3-1.9-0.7-2.8-1
		c-0.4-0.2-0.8-0.3-1.3-0.5c-1.9-0.7-4.1-1.6-6.3-1.5c-0.7,0-1.6,0.2-2.2,0.9c-0.6,0.8-0.5,1.8-0.3,2.9v0.2c0.1,0.7,0.3,1.4,0.4,2
		c0.2,0.7,0.3,1.3,0.4,2c0.2,1.6,2.4,1.9,4.8,2.2c0.8,0.1,2,0.3,2.2,0.4c1,0.7,1.1,2.2,1.2,3.8c0,0.6,0.1,1.2,0.2,1.7
		c0.1,0.7,0.3,1.5,0.4,2.2c0.5,2.1,0.9,4,0.2,5.9c-0.1,0.4-0.3,0.7-0.6,0.9c-0.4,0.3-1,0.5-1.6,0.7c-1.5,0.5-3.3,1.1-3.9,3
		c-0.3,1,0,2.3,0.2,3.4c0.1,0.3,0.1,0.6,0.2,0.9l0.1,0.4c0.1,1.1,0.4,3.1,2.6,3.1c0.1,0,0.2,0,0.3,0c1.6-0.1,3-1.5,4.3-2.6
		c0.5-0.5,1.1-1,1.5-1.2c2.7-1.8,5.4-3.6,8.1-5.4l4.7-3.2c2.1-1.4,4.3-2.9,6.4-4.3c0.1-0.1,0.5-0.3,0.9-0.5c4.3-2.4,5.1-3,5.1-4
		v-0.1v-0.4c-0.2-2.5-0.5-3.7-3.4-4.9c-1.1-0.4-2.2-0.7-3.3-0.9c-0.8-0.2-1.5-0.3-2.2-0.6l-10.5-3.3
		C144.6,264.8,142.7,264.1,140.8,263.3"/>
	<path class="st0" d="M-103.1,340.6c-0.7,0.2-2.2,0.4-2.6-0.4c-0.1-0.1-0.1-0.3,0-0.5c0.1-0.5,0.4-1.1,0.6-1.6
		c0.1-0.3,0.9-2.2,1.4-1.6c0.3,0.3,0.5,1.1,0.7,1.5C-102.6,339-101.5,340.2-103.1,340.6 M-100.2,338.1c-0.9-1.8-1.8-3.7-2.6-5.5
		c-0.3-0.6-0.4-1.1-1.2-0.9c-0.5,0.1-0.8,0.5-1,0.9c-1.3,2.8-2.6,5.6-4,8.3c-0.6,1.2-1.2,2.4-1.7,3.6c-0.3,0.7-0.3,0.9,0.6,1
		c0.8,0.1,2-0.1,2.4-0.9c0.3-0.6,0.1-1.5,0.7-2c0.7-0.5,1.7-0.2,2.5-0.2c1.1,0,2.2-0.2,3.3,0.1c0.1,0,0.2,0.1,0.3,0.1
		c0.2,0.2,0.3,0.4,0.5,0.8c0.2,0.5,0.5,2,1.3,1.9c0.2,0,2.3-0.1,2.3-0.2c0.2-1.2-1-2.4-1.5-3.4C-99.1,340.7-99.6,339.4-100.2,338.1"
		/>
	<path class="st0" d="M-73.6,342c-0.5-0.4-0.7-0.7-1.1-0.6c-0.8,0.2-1.5,1-2.3,1.3c-2.6,0.9-5.5-1.1-5.7-3.8
		c-0.2-3.5,3.9-5.8,6.7-3.8c0.8,0.5,1.1,1,2,0.4c0.8-0.5,1.3-1.3,0.4-2c-0.7-0.6-1.5-1.1-2.4-1.4c-1.7-0.6-3.6-0.6-5.3,0.1
		c-4.2,1.8-5.2,6.8-2.7,10.4c1.2,1.7,3.1,2.9,5.3,3.1c1.6,0.1,5.5-0.4,5.9-2.3C-72.5,342.9-73.4,342.2-73.6,342"/>
	<path class="st0" d="M-61,341.5c0,3.2-7.1,1.4-5.5-2.5c0.7-1.8,4.3-2.9,5.3-0.8C-60.8,339-61,340.2-61,341.5 M-58.5,335.1
		c-0.5-0.4-2.3-0.5-2.5,0.2c-2.2-0.1-4-1.2-6,0.2c-4.1,2.9-2.2,10.1,2.9,10.1c1.1,0,2-0.7,3-0.7c0.1,1.1,3,1.1,2.9-0.3
		c0-1.9-0.2-3.8-0.1-5.6C-58.3,337.9-57.6,335.9-58.5,335.1"/>
	<path class="st0" d="M-51.1,332c-0.3-1.5-1.4-1.3-2.7-1.2c-0.6,0-0.2,10.6-0.3,11.5c0,0.9-0.3,2.3,0.2,3.1c1.2,1.4,2.9-0.3,2.8-1.6
		c-0.1-1.5-0.1-3-0.1-4.5C-51.1,336.9-50.7,334.2-51.1,332"/>
	<path class="st0" d="M-44,338.8c0-0.9,0.3-2.4,0.1-3.2c-0.3-0.8-2-1.3-2.7-0.7l0,0c-0.8,1,0,4.2,0,5.5c0,1.2,0,2.5,0,3.7
		c0,0.3-0.1,1,0.1,1.2c0.2,0.2,1.9,0.2,2.2,0.1c0.8-0.4,0.5-2,0.5-3C-43.9,341.2-44,340-44,338.8"/>
	<path class="st0" d="M-45.8,332.9c1.5,0.9,2.4-1.5,1.4-2.5c-1.2-1.2-2.6-0.1-2.4,1.1C-46.7,332.1-46.4,332.6-45.8,332.9"/>
	<path class="st0" d="M-33.5,330.9c-1.1-0.7-3.1-0.4-4,0.4c-0.7,0.6-1.4,2.7-1.3,3.5H-40c-0.6,0.2-0.4,1.8-0.1,2.1
		c0.5,0.6,1.3-0.2,1.3,1c0,0.5,0,1.1,0,1.7v2.6c0,0.8-0.3,2.3,0,3s0.1,0.5,1,0.7c1.4,0.3,1.6,0,1.7-1.1c0.1-1,0-2,0-3
		c0-1.2-0.7-4.2,0.9-4.6c0.6-0.2,1.3,0,2,0c0.1-0.5,0.2-1.2,0-1.7c-0.2-0.6,0.1-0.4-0.5-0.5c-0.6-0.2-2,0.3-2.3-0.2
		c-0.1-0.3,0.4-1.3,0.6-1.4c0.6-0.4,1.7-0.1,2.1-0.3l0.1-0.1C-32.8,332.4-33.1,331.2-33.5,330.9"/>
	<path class="st0" d="M-27.6,341.8c-1.7-3.5,3.2-6.1,5.4-3.4c0.5,0.7,0.7,1.4,0.7,2C-21.7,343-26.2,344.8-27.6,341.8 M-30.2,338.5
		c-1.2,3.3,1.4,6.7,4.7,7.1c3.2,0.4,6.4-2.1,6.3-5.4c0-1.4-0.6-2.8-1.5-3.8C-23.6,333.4-28.8,334.7-30.2,338.5"/>
	<path class="st0" d="M-8.4,334.9c-0.2-0.1-0.4-0.2-0.6-0.2c-0.8,0-1.5,0.3-2.1,0.7c-0.3,0.2-0.8,0.8-1.1,0.5
		c-0.1,0-0.1-0.1-0.2-0.3c-0.3-0.6,0.2-0.7-0.6-0.8c-0.5-0.1-1.1,0-1.6-0.1c-0.1,0-0.3,0-0.4,0.1c-0.2,0.1-0.2,0.3-0.2,0.5
		c-0.1,3.2-0.1,6.4-0.1,9.6c0,0.1,0,0.3,0.1,0.4c0.1,0.1,0.2,0.1,0.3,0.1c0.7,0.1,1.4,0.2,2,0c0.1-0.1,0.3-0.1,0.3-0.2
		c0.1-0.1,0.1-0.3,0.1-0.5c0.1-1,0.1-1.9,0.1-2.9c0-0.9-0.1-1.9,0.2-2.7c0.4-0.9,1.5-1.5,2.5-1.4c0.4,0,0.8,0.1,1.1-0.1
		c0.2-0.1,0.3-0.3,0.3-0.5c0.2-0.5,0.2-1,0.1-1.5C-8.1,335.3-8.2,335.1-8.4,334.9"/>
	<path class="st0" d="M5.4,339.6c0-0.1,0-0.1,0-0.2c-0.3-2.7-2-4.8-4.9-4.6c-0.9,0.1-1.8,0.4-2.7,0.2c-0.8-0.2-1.9-0.8-2.4,0.3
		c-0.1,0.2-0.1,0.5-0.1,0.8c0,2,0,3.9,0,5.9c0,0.9-0.2,2.2,0,3c0.2,0.7-0.1,0.4,0.5,0.6c0.4,0.1,0.9,0,1.2,0c0.8,0,0.8,0.1,1-0.7
		c0.2-1.1-0.1-2.4-0.2-3.5c0-0.7-0.4-3.1,0.3-3.6c0.9-0.6,2.3-0.9,3.3-0.3c0.6,0.4,0.9,1.1,1.1,1.8c0.2,1.6,0.1,3.1,0,4.7
		c0,0.9-0.3,1.3,0.5,1.5c0.7,0.2,1.9,0.2,2.2-0.4c0.2-0.4,0-1.4,0.1-1.8C5.5,342,5.5,340.8,5.4,339.6"/>
	<path class="st0" d="M9.5,331.7c-0.1,0.4,0.1,0.9,0.7,1.2c1.2,0.7,3.1-0.8,2.1-2C11.2,329.7,9.7,330.7,9.5,331.7"/>
	<path class="st0" d="M11.3,334.8c-0.5,0-1.1,0-1.5,0.2c0,0-0.1,0-0.1,0.1c-0.2,0.3,0,1.8,0,2.3c0,1.4,0,2.9,0,4.3
		c0,0.8-0.4,2.7,0,3.4c0.3,0.6,1.3,0.4,1.8,0.4c1.2-0.1,0.9-0.6,0.9-1.7c0-1.2,0-2.3,0-3.5c0-1.2,0-2.4,0-3.6
		C12.4,335.6,12.6,334.8,11.3,334.8"/>
	<path class="st0" d="M22.6,343.4c-1.5-0.1-3.6-1.6-3.6-3.2c0-2.7,3-3.5,5.1-2.7c0.3,0.1,0.5,0.3,0.7,0.6
		C25.7,339.6,24.7,343.5,22.6,343.4 M27.5,334.9c-0.6,0-1.2-0.3-1.8-0.1c-1.4,0.4-2,0.1-3.4,0c-0.7,0-1.4,0.1-2,0.2
		c-2.6,0.8-4.3,3.4-3.8,6.1c0.3,1.9,1.7,3.5,3.5,4.1c1.6,0.6,3.1,0.3,4.7-0.2c0.4,0.9,2.5,0.5,2.8-0.5c0.2-0.9,0-2.2,0-3.1
		C27.5,339.3,27.8,337,27.5,334.9"/>
	<path class="st0" d="M47.3,331.8c-0.9,0.2-1.2,0.7-1.2,1.7c0,1.9,1.1,11.2-2.9,9.4c-1-0.5-1.5-2-2.8-1.7c-1.4,0.4-1,1.4-0.3,2.4
		c1.1,1.5,3,2.5,4.9,1.9c2.4-0.7,3.9-3.3,3.9-5.7c0-1.7,0-3.4,0-5c0-0.9,0.2-2.2-0.3-2.8C48.4,331.7,48,331.6,47.3,331.8"/>
	<path class="st0" d="M62.9,335.3c-0.2-0.2-0.4-0.3-0.7-0.4c-2.6-0.3-1.6,3-1.6,4.7c0,2,0.2,3.6-2.4,3.6c-2.6,0-2.6-3.1-2.6-5
		c0-0.6,0.6-2.6,0.3-3s-1.7-0.5-2.1-0.3c-0.7,0.3-0.5,0.2-0.6,1.1c-0.2,2.3-0.4,5,0.6,7.2c0.5,1.1,1.3,1.9,2.5,2.2
		c1.5,0.5,2.7-0.3,4.2-0.2c1.4,0.1,2.3,1.1,2.8-0.5c0.3-1,0.2-2.3,0.2-3.3C63.5,340.1,64,336.4,62.9,335.3"/>
	<path class="st0" d="M70.5,335.7c-0.2-0.8,0-0.6-0.9-0.8s-1.4-0.2-1.6,0.2c-0.2,0.2-0.2,0.7-0.2,1.3c0,1.1,0,2.3,0,3.4
		c0,1.5-0.4,3.4,0,4.9c0.2,0.9,0.9,1.3,1.9,0.7c0.7-0.4,0.8-1.1,0.9-1.9c0-1.3-0.1-2.7-0.1-4C70.5,338.3,70.7,336.8,70.5,335.7"/>
	<path class="st0" d="M69.7,330.9c-1-0.7-2.5-0.8-2.2,0.9C68.1,334.6,72.2,332.6,69.7,330.9"/>
	<path class="st0" d="M139.2,330.9c-1-0.7-2.5-0.8-2.2,0.9C137.6,334.6,141.6,332.6,139.2,330.9"/>
	<path class="st0" d="M139.9,335.7c-0.2-0.8,0-0.6-0.9-0.8s-1.4-0.2-1.6,0.2c-0.2,0.2-0.2,0.7-0.2,1.3c0,1.1,0,2.3,0,3.4
		c0,1.5-0.4,3.4,0,4.9c0.2,0.9,0.9,1.3,1.9,0.7c0.7-0.4,0.8-1.1,0.9-1.9c0-1.3-0.1-2.7-0.1-4C139.9,338.3,140.2,336.8,139.9,335.7"
		/>
	<path class="st0" d="M79.8,337.2c1.1-0.1,1.9,1.2,2.9,1c1.3-0.2,1.6-1.5,0.8-2.3c-3.3-3.2-9.1,0-9.1,4.2c0,3.1,2.9,5.5,5.8,5.5
		c0.9,0,3.2-0.5,3.7-1.5c0.1-0.1,0.1-0.3,0-0.5c-0.6-2.3-2.1-0.5-3.6-0.5C76.5,343.2,76,337.5,79.8,337.2"/>
	<path class="st0" d="M93.6,339.6c-1,0.1-1.9,0.1-2.9-0.1c-0.3-0.1-0.4-0.2-0.5-0.3c-0.3-0.5,0.3-1.5,0.7-2c0.5-0.7,1.2-1,1.9-1
		c0.8,0,1.6,0.3,2.1,1.1c0.2,0.3,0.3,0.9,0.4,1.2C95.7,339.8,94.2,339.5,93.6,339.6 M97.4,338.2c-0.3-1-0.9-1.8-1.7-2.5
		c-1.6-1.2-3.7-1.4-5.4-0.5c-1.9,0.9-3.1,2.9-3,5c0.2,4.8,6.4,6.8,9.8,3.8c0.2-0.2,0.4-0.4,0.3-0.6c0-0.2-0.3-0.4-0.4-0.5
		c-0.3-0.2-1-0.7-1.4-0.7s-0.7,0.5-1,0.6c-0.4,0.2-0.8,0.3-1.2,0.3c-1.2,0.2-3.6-0.7-3.3-2.3c0.1-0.6,4.4-0.2,4.8-0.2
		c0.8,0,1.9,0.3,2.6,0.1c0.5-0.1,0.4-0.5,0.4-1C97.8,339.4,97.6,338.8,97.4,338.2"/>
	<path class="st0" d="M118.7,332.6c0-0.5,0-0.6-0.1-0.7c-0.1-0.1-0.2-0.1-0.4-0.2c-0.6-0.3-1.9-0.2-2.3,0.5
		c-0.3,0.7-0.1,2.1-0.1,2.8c0,2,0.4,4.1,0.1,6c-0.2,1.6-1.8,2.5-3.3,1.7c-0.7-0.4-0.7-1.2-1.3-1.6c-0.5-0.4-2.3,0-2.3,0.7
		c0,0.7,0.6,1.5,1,2c0.9,1.1,2.3,1.8,3.8,1.8c2.3,0,4.2-1.6,4.7-3.8c0.5-2.4,0.4-4.9,0.3-7.3C118.8,333.8,118.8,333.2,118.7,332.6"
		/>
	<path class="st0" d="M128.2,343c-3.7-0.3-4-5.7-0.1-5.8c1.1,0,2.1,0.5,2.7,1.5c0.3,0.5,0.4,1,0.4,1.5
		C131.3,341.7,130,343.2,128.2,343 M130.4,335.1c-4.8-1.8-9.9,3.7-6.8,8.1c1.2,1.7,3.6,2.5,5.6,2.2c2.9-0.5,4.5-2.9,4.6-5.3
		C133.9,338.1,132.8,336,130.4,335.1"/>
	<path class="st0" d="M154.8,340.1c0-0.2,0-0.4,0-0.6c-0.1-1.6-0.4-3.4-1.9-4.2c-1.8-1.1-3.6-0.5-5.5,0.1c-0.1-0.3-0.2-0.4-0.5-0.5
		c-0.2-0.1-0.6,0-0.8,0c-0.5,0-1-0.1-1.5,0c-0.1,2.1,0,4.3,0,6.4c0,1-0.3,2.6,0,3.5c0.4,1.1,2.5,1,2.7-0.5c0.1-1.1,0.1-2.2,0.1-3.3
		c0-0.8-0.4-2.2-0.1-2.9c0.3-0.9,2.1-1.1,2.9-0.9c1.1,0.3,1.7,1.2,1.7,2.3c0,1.7,0,3.4,0,5.1c0,0.8,0.2,0.9,1,0.9
		c0.3,0,1.4,0.1,1.6-0.2c0.2-0.2,0.1-1.4,0.1-1.8C154.8,342.5,154.8,341.3,154.8,340.1"/>
	<path class="st0" d="M162,337.3c0.1-0.1,0.2-0.2,0.5-0.2c0.2,0,2.3,0.2,2.3,0c0-1.1,0.3-2-1-2.2c-0.4-0.1-1.6,0.2-1.9,0
		c-0.5-0.4-0.1-2.8-0.1-3.4c0-0.8-0.3-0.7-1.1-0.7c-0.3,0-1.1-0.1-1.4,0c-0.4,0.2-0.3,0.5-0.3,1c0,0.8,0.2,1.7,0,2.6
		c-0.1,0.5,0,0.4-0.5,0.6c-0.3,0.1-0.8,0-1.1,0v2.2c0-0.2,1.2,0.1,1.4,0.3c0.3,0.3,0.1,1,0.1,1.4c-0.1,1-0.1,2,0,3
		c0.2,1.8,1,3.7,3.1,3.8c0.5,0,2.4,0.1,2.6-0.4c0-0.1,0-0.1,0-0.2c0-0.3,0.2-1.4,0-1.6c-0.3-0.4-1.2,0-1.6-0.1
		c-1.1-0.1-1.2-1.1-1.3-2c-0.1-1.2-0.3-2.5,0-3.7C161.9,337.5,161.9,337.3,162,337.3"/>
</g>
</svg>
