<?xml version="1.0" encoding="utf-8"?>
<!-- Generator: Adobe Illustrator 19.0.0, SVG Export Plug-In . SVG Version: 6.00 Build 0)  -->
<!DOCTYPE svg PUBLIC "-//W3C//DTD SVG 1.1//EN" "http://www.w3.org/Graphics/SVG/1.1/DTD/svg11.dtd">
<svg version="1.1" id="Layer_1" xmlns="http://www.w3.org/2000/svg" xmlns:xlink="http://www.w3.org/1999/xlink" x="0px" y="0px"
	 viewBox="0 0 277 190.2" enable-background="new 0 0 277 190.2" xml:space="preserve">
<g>
	<path fill="#FFFFFF" d="M157.9,132.7c0,0.9,0,1.9,0.2,2.9c0.4,1.3,1.4,2.6,3,2.6c0.9,0,2.5-0.6,2.5-2.9c0-1.1-0.2-2.2-0.4-3.2
		c-0.5-2.1-1.3-4.1-2-5.6c-1.7-3.8-4.2-7-7.2-9.3c-1.7-1.2-3.5-1.8-5.3-2.4l-0.3-0.1c-2.6-0.8-5.1-1.5-8-1.5c-3,0-5.9,0.6-8.1,1
		c-1.8,0.4-3.7,1.2-5.4,2.5c-1.7,1.2-3.1,2.3-4.5,3.6c-1.9,1.8-3.2,3.6-4.2,5.5c-1.1,2.2-1.6,4.8-1.8,6.7c-0.2,1.3-0.3,2.7-0.4,4
		c0,0.3-0.1,1,0.5,1.7c0.6,0.8,1.4,1,1.9,1c0.6,0,1.2-0.2,1.6-0.7c0.7-0.7,0.9-1.8,0.9-2.4c-0.1-2.9,0.4-5.6,1.4-7.9
		c0.7-1.5,1.5-2.8,2.6-3.9c0.5-0.6,1.1-1.1,1.7-1.5c0.4-0.3,0.8-0.6,1.2-1c0.3-0.2,0.5-0.4,0.8-0.6c1.4-1.1,2.6-1.9,4-2.3
		c1.2-0.4,2.6-0.6,4.1-0.8l0.6-0.1c1.7-0.2,3.4-0.4,4.8-0.2c6,0.8,10.3,3.2,13.3,7.2c1.6,2.2,2.4,4.3,2.6,6.4
		C157.9,131.9,157.9,132.2,157.9,132.7L157.9,132.7z"/>
	<path fill="#FFFFFF" d="M272.5,158.7c-3.4-1.5-7.1-2.5-10.7-3.4c-3.5-0.9-6.8-1.2-9.8,1c-2.5,1.9-4.7,4.1-7.8,5
		c-8.7,2.4-14-4.7-21.2-7.4c-3.9-1.4-8.3-0.7-12.2,0.5c-3.8,1.2-6.7,3.9-10.4,5.1c-8.2,2.6-17.7-1.3-25.2-4.2
		c-11.7-4.6-23.4,12.6-34.7,3.2c-2.5-2.1-5.4-3.4-8.6-3.9c-3.2-0.5-5.3,0.5-8.2,1.5c-3.8,1.3-7.6,3.5-11.7,3.8
		c-4.1,0.3-7.6-2.5-11.1-4.3c-5.4-2.7-12.4-4.1-18.2-1.5c-5.1,2.4-8.4,4.9-14.3,4.8c-1.7,0-3.5-0.1-5.2-0.5c-4.9-1.3-9-5.6-14.1-5.3
		c-3.8,0.3-6.8,3.1-10,5c-5.5,3.3-13,4.1-18.2,0.5c-1.2-0.8-2.2-1.8-3.5-2.5c-3.7-1.9-8.3-0.5-11.9,1.4c-0.7,0.4-2.2,1.5-3,2.6
		c-0.6,0.8-0.8,1.7,0.1,2.2c0.9,0.6,3.8-1.1,4.7-1.5c2.2-1.1,4.3-1.7,6.9-1.1c3,0.7,5.6,2.5,8.5,3.7c3.4,1.3,7.2,1.7,10.7,1
		c6.6-1.3,12.8-6.1,19.4-4.8c2.7,0.5,5,2,7.6,2.8c4.4,1.3,9.1,0.4,13.5-0.9c4.4-1.3,8.6-3.1,13.2-3.7c2.4-0.3,5-0.2,7.3,0.4
		c2.2,0.6,3.5,2.2,5.5,3c2.7,1.1,7,1.3,9.9,1.3c2.8,0,6.5-0.5,10.2-2.3c6.9-3.4,15.9,0.7,22.5,2.9c2.2,0.7,4.7,0.7,6.8,0.7
		c11.1,0,20.6-6.3,32-3.5c6.4,1.6,11.6,4.1,18.2,2.2c7.2-2.1,16.9-5.5,24.3-2.9c5.9,2.1,9.1,7.3,16.1,6.5c5.2-0.6,9.9-4.4,14.7-5.5
		c1.9-0.4,3.9,0,5.8,0.3c2.7,0.4,5.4,1.3,8,2c1.6,0.4,3.3,1,5,1.1c1.8,0.1,3.8-0.9,3.1-2.9C276.3,160.1,273.6,159.2,272.5,158.7"/>
	<path fill="#FFFFFF" d="M143.4,49.5c-11.4,0-22.6,2.1-31.2,4c-6.4,1.4-12.9,4.4-19.1,8.8c-5.8,4.1-11.9,8.7-17.3,13.7
		C68.9,82.5,63.9,89,60.5,95.8c-4,8.1-5.6,17.4-6.6,24.6c-0.7,5.2-1.3,12.2-1.6,17.4c0,0.6-0.1,1.5,0.5,2.3c0.6,0.7,1.2,1.1,1.9,1.1
		c0.4,0,0.9-0.1,1.5-0.7c1.1-1.2,1.6-3.6,1.6-4.4c-0.3-12.5,1.9-26.3,6.4-36.4c2.9-6.6,6.8-12.4,11.6-17.4c2.4-2.5,5-4.8,7.8-6.8
		c1.5-1.1,2.9-2.3,4.3-3.4l0.1-0.1c1.1-0.9,2.3-1.9,3.4-2.8c6.2-4.7,11.7-8.3,18-10.3c5.7-1.8,11.7-2.6,17.6-3.3l2.4-0.3
		c5.2-0.7,9.9-1.2,14.7-1.2c2.3,0,4.4,0.1,6.5,0.4c7.3,1,14.3,3,20.8,5l0.7,0.2c2.6,0.8,5.2,1.6,7.8,2.6c0.7,0.3,1.5,0.5,2.3,0.7
		c1.2,0.3,2.5,0.7,3.5,1.2c5.8,2.9,10.8,8.2,15.9,13.8c5,5.6,9.2,11.6,12.5,17.9c3.9,7.6,6.7,15.7,8.3,24.2
		c0.8,4.2,1.2,10.2,1.4,14.4c0,0.4-0.1,0.9-0.2,1.5c-0.3,1.5-0.5,3.1,0.2,4.2c0.4,0.5,0.8,0.9,1.3,1.1c0.3,0.1,0.5,0.1,0.8,0.1
		c1.4,0,2.5-1.2,2.6-2.6c1.1-17.1-5.2-39.1-16.8-55.7c-5.8-8.4-11.9-14.8-17.9-19.3c-5.8-4.2-12.6-6.3-19.2-8.4l-1.1-0.3
		c-9.8-3-19.4-5.8-29.6-5.8L143.4,49.5z"/>
	<path fill="#FFFFFF" d="M197.4,106.1c3,5.7,5.2,11.9,6.4,18.4c0.5,2.6,1,17.2,3.6,17.2c1.6,0,2.9-1.3,3-2.9
		c0.9-13.4-4.1-29.1-13.3-42c-4.6-6.5-9.4-11.6-14.2-15c-4.6-3.3-10-5-15.3-6.6l-0.9-0.3c-7.7-2.4-15.3-4.5-23.4-4.5l-0.3,0
		c-9,0-17.8,1.6-24.5,3.1c-5.1,1.1-10.3,3.4-15.2,6.9c-4.5,3.2-9.3,6.7-13.6,10.6c-5.5,5-9.4,10.1-12.2,15.5
		c-3.2,6.3-4.5,13.6-5.3,19.2c-0.6,4-1,8-1.3,12c0,0.5-0.1,1.5,0.6,2.4c0.8,1,1.6,1.2,2.2,1.2c0.5,0,1.2-0.1,1.8-0.8
		c1.2-1.2,1.5-3.4,1.5-4c-0.3-9.5,1.5-20,5-27.6c2.3-5,5.2-9.4,8.9-13.2c1.8-1.9,3.9-3.6,6-5.1c1.3-0.9,2.4-1.8,3.5-2.7
		c0.8-0.7,1.7-1.4,2.6-2.1c4.8-3.6,9-6.3,13.8-7.7c4.3-1.3,9-1.9,13.6-2.5l1.9-0.2c4-0.5,7.7-0.9,11.4-0.9c1.8,0,3.4,0.1,4.9,0.3
		c5.6,0.7,11,2.3,16.1,3.8l0.5,0.2c2,0.6,4.1,1.3,6.1,2c0.6,0.2,1.2,0.4,1.9,0.6c0.9,0.3,1.8,0.5,2.6,0.9c4.4,2.1,8.2,6.1,12.1,10.4
		C191.6,96.7,194.9,101.3,197.4,106.1"/>
	<path fill="#FFFFFF" d="M173.4,113.4c2.1,2.9,4.2,5.8,5.4,9.2c1.1,3.2,1.6,9.4,2,12.8c0.2,1.7,0.4,5.9,2.9,5.9
		c0.5,0,2.9,1.1,2.9-2.6c0-2-0.2-7.9-0.7-9.9c-0.9-4-2.5-7.7-3.9-10.8c-3.3-7.3-8.1-13.5-14-17.8c-3.1-2.3-6.7-3.4-10.2-4.4
		l-0.6-0.2c-5.1-1.6-10.1-3-15.5-3l-0.2,0c-5.9,0-11.7,1.1-16.1,2c-3.5,0.7-6.9,2.3-10.2,4.7c-3,2.1-6.1,4.4-8.9,7
		c-3.6,3.4-6.3,6.7-8.1,10.4c-2.1,4.2-3,9.1-3.5,12.8c-0.4,2.6-0.6,6.2-0.8,8.8c0,0.4-0.1,1.3,0.6,2.2c0.7,0.9,1.6,1.1,2.2,1.1
		c0.7,0,1.3-0.3,1.8-0.8c1-1,1.2-2.6,1.2-3.3c-0.2-6.1,0.9-12.8,3.1-17.7c1.4-3.2,3.3-6,5.6-8.3c1.2-1.2,2.4-2.3,3.7-3.2
		c0.8-0.6,1.6-1.2,2.3-1.8l0.1,0c0.5-0.4,1.1-0.9,1.6-1.3c3-2.3,5.7-4,8.7-4.9c2.7-0.9,5.7-1.2,8.7-1.6l1.2-0.2
		c2.3-0.3,5-0.6,7.4-0.6c1.1,0,2.1,0.1,3,0.2C157.7,99.7,167.2,104.9,173.4,113.4"/>
	<path fill="#FFFFFF" d="M12.7,123.1c1-2,2.4-3.3,4-3.5c0.6-0.1,1.2,0,1.9,0.2c2.8,0.9,4.5,4.8,4.9,8c0.2,1.4,0,3.3-1.5,3.9
		c-0.3,0.1-0.6,0.2-1,0.3c-1.1,0.2-2.3,0-3.5-0.1c-1-0.1-1.9-0.2-2.9-0.2l-0.4,0c-1.4,0.1-2.3,0-2.9-0.6
		C10.4,130,11.5,125.5,12.7,123.1 M25.9,140.1c1.2,0.1,2.1,0.1,2.5,0.1l1.8,0.1c1.5,0.1,3,0.2,4.4,0.3c0.3,0,0.6,0,0.8,0.1
		c0.5,0,0.9,0.1,1.3,0c1.5-0.2,1.8-1.7,1.9-2.5c0.4-1.8,0.8-3.9-0.3-5.4c-0.6-0.8-1.5-1.4-2.8-1.5c-0.7-0.1-1.5,0-2.3,0.1
		c-0.9,0.1-2,0.2-2.5-0.1c-0.6-0.4-0.4-1.6-0.1-3.1c0.1-0.6,0.2-1.1,0.2-1.6c0.6-8.4-3.4-14.6-10.4-16.2c-1.7-0.4-3.5-0.5-5.3-0.2
		c-4.2,0.6-7.7,3-9.6,6.5c-1,1.9-1.8,4.1-2.2,6.5c-0.9,4.8-0.7,9.8-0.5,14.1C2.9,138.8,2.9,139,25.9,140.1"/>
	<path fill="#FFFFFF" d="M20.4,78.8c0.6-4.6,4.9-8.1,9.7-8.1c1.5,0,2.9,0.4,4.2,1c3,1.6,4.7,4.5,4.6,8.1c0,3.9-2.2,7.5-5.4,9.2
		c-1.2,0.6-2.5,0.9-3.8,0.9c-2.5,0-5.1-1.2-6.9-3.4C20.9,84.4,20,81.5,20.4,78.8 M23.3,97.7c2,0.9,4.1,1.4,6.1,1.4
		c16.2,0,25.7-25.6,11.7-35c-0.4-0.2-0.7-0.5-1.1-0.7C28.5,56.9,14.7,63,11.9,76C10.3,83.3,12.5,92.8,23.3,97.7"/>
	<path fill="#FFFFFF" d="M51.1,38.7c0.6-0.9,2.1-1.9,3.2-2.7l0.6-0.4c1.7-1.1,3.1-1.6,4.5-1.6c0.4,0,0.7,0.1,1.1,0.2
		c1.6,0.4,2.8,1.2,3.3,2.3c0.6,1.2,0.5,2.7-0.2,4.4c-0.9,2.3-4.1,6.8-5.7,6.8c0,0-0.1,0-0.1,0c-0.1,0-0.2,0-0.5-0.3
		c-0.6-0.7-1.3-1.5-1.8-2.3c-0.3-0.4-0.5-0.7-0.8-1.1c-0.3-0.4-0.8-0.9-1.2-1.4C52.7,41.6,50.7,39.5,51.1,38.7 M42.5,43.3
		c2.9,3.3,6.1,7.4,8.9,11l1.8,2.4c2.4,3.1,3.6,4.8,5,6.3c0.7,0.8,1.8,1.9,3.3,1.9c1.1,0,2.2-0.4,3.4-1.5c0.9-0.8,2.5-2.2,1.8-4.4
		c-0.4-1.3-1.4-2.2-2.2-2.9c-1.1-1-1.7-1.6-1.7-2.6c0.1-1.3,2.8-2.8,4.3-2.9c0.4,0,0.9,0,1.5,0.2c0.7,0.2,1.6,0.5,2.5,0.8
		c2,0.7,4.1,1.5,5.9,1.4c2,0,3.5-1.5,4.7-2.6c0.4-0.4,0.8-0.8,1.2-1.1c1-0.8,0.9-1.7,0.8-2c-0.7-2.5-7.9-3.4-8-3.4
		c-0.2,0-0.4,0-0.6-0.1c-1.6-0.1-1.6-0.3-1.6-0.6c0-0.7,0.1-1.5,0.2-2.3c0.1-0.8,0.2-1.7,0.2-2.6c0-2.6-0.9-5.1-2.4-7.4
		c-2.9-4.3-7.8-6.8-12.2-6.3c-3.8,0.5-7,2.8-10.1,5c-1.1,0.8-2.2,1.6-3.3,2.2l-0.5,0.3c-2,1.2-4,2.4-5.3,4.5
		c-1.6,2.6,0.4,4.6,1.6,5.8C42,42.8,42.2,43.1,42.5,43.3"/>
	<path fill="#FFFFFF" d="M93.9,13.6c0.8-1.4,3.4-2.4,6.6-2.3c1.8,0,3.5,0.4,4.4,1c2,1.3,2.9,3.4,2.2,5.5c-1,2.9-6.3,6.5-9.6,6.5
		c-0.1,0-0.3,0-0.5,0c-0.8-0.5-1.5-3.5-1.8-4.8c-0.2-0.7-0.3-1.3-0.4-1.7c-0.1-0.3-0.3-0.7-0.4-1.1C94,15.5,93.5,14.3,93.9,13.6
		 M84.6,16.4l1,3.2c0.5,1.7,1.1,3.5,1.7,5.2c1.6,5.1,3.6,11,5.7,16.9c0.2,0.5,0.6,0.8,1.1,0.8c0.1,0,0.2,0,0.2,0l0.5-0.1
		c2.3-0.4,4.9-0.9,6-2.5c0.5-0.6,0.6-1.4,0.5-2.2c-0.1-0.7-0.4-1.4-0.6-2.1c-0.1-0.3-0.2-0.6-0.3-0.8l-0.1-0.4
		c-0.6-1.7-0.7-2.3,0.2-3.1c1.1-0.9,2.9-1.4,4.3-1.2c0.1,0,0.1,0,0.2,0c1,0.3,1.9,1,2.8,1.7c0.4,0.3,0.8,0.6,1.2,0.9
		c0.1,0.1,0.3,0.3,0.7,0.5c2.5,2.1,3.4,2.7,4.2,2.7c0.1,0,0.3,0,0.5-0.1c0.2-0.1,0.8-0.2,1.3-0.3c4.3-0.9,6.1-1.5,6.4-2.9
		c0.4-1.8-2-3.3-5.5-5.3c-0.4-0.2-0.8-0.4-1-0.6c-0.5-0.3-1.1-0.5-1.6-0.7c-0.8-0.3-1.1-0.4-1.2-0.7c-0.1-0.2,0-0.5,0.2-0.8
		c0.3-0.4,0.5-0.8,0.8-1.2c0.9-1.4,1.7-2.6,2.1-4.7c0.6-3.6-0.3-7.5-2.5-10.5C111,5,107.1,3.1,102.6,3c-1.7,0-3.4,0.2-5,0.7
		c-1.3,0.4-2.6,0.8-3.9,1.3c-1.6,0.5-3.2,1.1-4.8,1.5c-0.3,0.1-0.7,0.1-1.2,0.2c-1.6,0.3-3.7,0.6-4.6,2.2c-1,1.6,0.1,4.2,1,6.3
		C84.3,15.6,84.5,16.1,84.6,16.4"/>
	<path fill="#FFFFFF" d="M139,14.5c1.1-3,3.4-5.2,6.1-6.1c0.8-0.3,1.7-0.4,2.5-0.4c2.4,0,4.8,1.1,6.6,2.9c1.9,2,2.9,4.5,2.9,7
		c0,1-0.2,1.9-0.6,2.8c-1.6,4-5.8,5.8-9.3,5.8h0c-3.3,0-6.1-1.5-7.6-4C138.1,20.3,137.9,17.3,139,14.5 M148.8,34.9
		c5.7,0,10.7-2.3,13.9-6.6c2.2-2.8,3.5-6.4,3.7-10c0.2-4-0.9-7.9-3.2-11.1c-0.7-1-1.5-1.9-2.4-2.7c-3.3-3-7.9-4.6-12.9-4.6
		c-7.3,0-15.8,3.8-18.5,12.2c-1.6,5.1-0.8,10.2,2.2,14.4C135.4,31.7,142.1,34.9,148.8,34.9"/>
	<path fill="#FFFFFF" d="M192.6,47.7C192.6,47.7,192.7,47.7,192.6,47.7c1.3,0,2.2-0.7,2.9-1.3c0.2-0.1,0.4-0.3,0.6-0.4
		c3.3-2.4,6.8-4.8,10.1-7.1c2.7-1.9,5.6-3.8,8.4-5.8c1.7-1.2,3.2-2.3,4.6-3.3c0.2-0.2,0.6-0.4,1-0.6c1.8-1.1,3-1.9,3.4-2.8
		c0.7-1.9-1.1-3.2-2.2-4c-0.2-0.1-0.4-0.3-0.5-0.4c-1.5-1.1-2.9-1.6-4.3-1.4c-2,0.3-3.6,1.7-5.2,3.1c-0.3,0.3-0.7,0.6-1.1,0.9
		c-0.6,0.5-1.1,0.9-1.7,1.4c-1.3,1-2.6,2.1-3.8,3.3c-0.3,0.3-0.7,0.7-1,1c-1.4,1.4-2.7,2.8-4.4,3.4c-0.2,0.1-0.3,0.1-0.3,0.1
		c-0.2-0.4-0.2-1.3,0-2.9c0-0.3,0.1-0.5,0.1-0.7l0.5-5.6c0.1-1.2,0.3-2.5,0.4-3.7c0.3-2.5,0.6-5.2,0.6-7.7c0-2.8-3.3-5.3-5.8-5.3
		c-1.7,0-3,1.1-3.4,2.9c-0.4,1.7-0.3,3.5-0.3,5.1c0,1.1,0.1,2.1,0,3.1c-0.2,2.3-0.3,4.6-0.5,6.9l-0.2,3.4c-0.1,0.8-0.1,1.5-0.2,2.3
		c-0.2,2.8-0.4,5.7-0.9,8.5l-0.1,0.5c-0.3,1.5-0.7,3.5,0.3,5.1C190,46.8,191.5,47.6,192.6,47.7"/>
	<path fill="#FFFFFF" d="M219.5,53.5c-2,1.8-4.1,3.7-5.9,5.7c-0.2,0.2-0.6,0.6-0.8,1.2c-0.5,2,1.7,3.7,3.2,4.9
		c0.2,0.1,0.3,0.2,0.4,0.3c0.4,0.4,1,0.8,1.8,0.9c0,0,0.1,0,0.1,0c0.9,0,1.6-0.5,2.2-1.1c3.6-3.1,7-6.5,10.3-9.7
		c3.5-3.4,7.1-7,10.9-10.2c0.5-0.4,1.2-1,1.5-1.8c0.3-0.6,0.4-1.6-0.4-3c-1-1.7-3.2-3.7-4.8-4c0,0-0.1,0-0.2,0c-1.1,0-2.1,0.9-3.2,2
		c-0.1,0.1-0.2,0.2-0.3,0.3c-0.8,0.8-1.6,1.6-2.3,2.4c-0.7,0.8-1.4,1.6-2.2,2.3l-7.1,6.8C221.7,51.5,220.6,52.5,219.5,53.5"/>
	<path fill="#FFFFFF" d="M250.7,66.6c0.8,1.3,2.3,3.6,1.5,4.4c-2.5,2.5-6.3,3.8-10,5c-2.4,0.8-4.8,1.6-7,2.7c-0.4,0.2-1,0.5-1.6,0.7
		c-1.7,0.7-3.6,1.5-4.6,3c-0.9,1.2-0.3,2.4,0,3.1c0.1,0.2,0.1,0.3,0.2,0.5l0.1,0.3c0.5,1.4,1.2,3.4,3.2,4.1c0.2,0.1,0.5,0.1,0.7,0.1
		c1.1,0.1,2.2-0.6,3-1.2c0.2-0.2,0.5-0.3,0.7-0.4c4.7-2.4,9.3-4.9,14-7.3c0.4-0.2,0.9-0.5,1.3-0.7c1.5-0.8,2.8-1.6,3.9-1.5
		c0.5,0,1.3,0.2,2.1,1.8l2,3.9c0.5,0.9,0.9,1.7,1.8,2c0.7,0.2,1.4,0.1,2.4-0.3c1-0.4,2.8-1.4,3.4-2.9c0.3-0.7,0.2-1.5-0.1-2.2
		c-0.3-0.6-0.6-1.2-0.9-1.8c-0.2-0.3-0.3-0.7-0.5-1c-0.7-1.3-1.3-2.7-2-4l-1.8-3.5c-0.5-1-1-2.2-1.6-3.4c-1.4-3.1-2.8-6.2-4.8-8.7
		c-0.5-0.6-1.3-1.3-2.4-1.4c-1.1-0.1-2.1,0.6-3,1.4c-2.7,2.1-1.3,4.9-0.8,5.8C250.1,65.7,250.4,66.1,250.7,66.6"/>
	<path fill="#FFFFFF" d="M262.2,119.5c0.6,0.1,1.1,0.2,1.6,0.3c-0.4,0.2-0.8,0.5-1.2,0.7c-0.4,0.2-0.8,0.5-1.2,0.7
		c-0.2,0.1-0.5,0.3-0.9,0.6c-0.8,0.5-3.1,2-4.1,2.4c-0.2-0.4-0.4-1.2-0.5-1.4c-0.1-0.2-0.1-0.4-0.1-0.5c-0.4-1.2-1.3-3.6-0.3-4.4
		c0,0,0,0,0.2,0c0.1,0,0.3,0,0.7,0.1l4.2,1.2C261,119.3,261.6,119.4,262.2,119.5 M251.8,107.5c-0.9-0.3-1.9-0.7-2.8-1
		c-0.4-0.2-0.8-0.3-1.3-0.5c-1.9-0.7-4.1-1.6-6.3-1.5c-0.7,0-1.6,0.2-2.2,0.9c-0.6,0.8-0.5,1.8-0.3,2.9l0,0.2c0.1,0.7,0.3,1.4,0.4,2
		c0.2,0.7,0.3,1.3,0.4,2c0.2,1.6,2.4,1.9,4.8,2.2c0.8,0.1,2,0.3,2.2,0.4c1,0.7,1.1,2.2,1.2,3.8c0,0.6,0.1,1.2,0.2,1.7
		c0.1,0.7,0.3,1.5,0.4,2.2c0.5,2.1,0.9,4,0.2,5.9c-0.1,0.4-0.3,0.7-0.6,0.9c-0.4,0.3-1,0.5-1.6,0.7c-1.5,0.5-3.3,1.1-3.9,3
		c-0.3,1,0,2.3,0.2,3.4c0.1,0.3,0.1,0.6,0.2,0.9l0.1,0.4c0.1,1.1,0.4,3.1,2.6,3.1c0.1,0,0.2,0,0.3,0c1.6-0.1,3-1.5,4.3-2.6
		c0.5-0.5,1.1-1,1.5-1.2c2.7-1.8,5.4-3.6,8.1-5.4l4.7-3.2c2.1-1.4,4.3-2.9,6.4-4.3c0.1-0.1,0.5-0.3,0.9-0.5c4.3-2.4,5.1-3,5.1-4
		c0,0,0-0.1,0-0.1l0-0.4c-0.2-2.5-0.5-3.7-3.4-4.9c-1.1-0.4-2.2-0.7-3.3-0.9c-0.8-0.2-1.5-0.3-2.2-0.6l-10.5-3.3
		C255.6,109,253.7,108.3,251.8,107.5"/>
	<path fill="#FFFFFF" d="M7.9,184.8c-0.7,0.2-2.2,0.4-2.6-0.4c-0.1-0.1-0.1-0.3,0-0.5c0.1-0.5,0.4-1.1,0.6-1.6
		c0.1-0.3,0.9-2.2,1.4-1.6c0.3,0.3,0.5,1.1,0.7,1.5C8.4,183.2,9.5,184.4,7.9,184.8 M10.8,182.3c-0.9-1.8-1.8-3.7-2.6-5.5
		c-0.3-0.6-0.4-1.1-1.2-0.9c-0.5,0.1-0.8,0.5-1,0.9c-1.3,2.8-2.6,5.6-4,8.3c-0.6,1.2-1.2,2.4-1.7,3.6c-0.3,0.7-0.3,0.9,0.6,1
		c0.8,0.1,2-0.1,2.4-0.9c0.3-0.6,0.1-1.5,0.7-2c0.7-0.5,1.7-0.2,2.5-0.2c1.1,0,2.2-0.2,3.3,0.1c0.1,0,0.2,0.1,0.3,0.1
		c0.2,0.2,0.3,0.4,0.5,0.8c0.2,0.5,0.5,2,1.3,1.9c0.2,0,2.3-0.1,2.3-0.2c0.2-1.2-1-2.4-1.5-3.4C11.9,184.9,11.4,183.6,10.8,182.3"/>
	<path fill="#FFFFFF" d="M37.4,186.2c-0.5-0.4-0.7-0.7-1.1-0.6c-0.8,0.2-1.5,1-2.3,1.3c-2.6,0.9-5.5-1.1-5.7-3.8
		c-0.2-3.5,3.9-5.8,6.7-3.8c0.8,0.5,1.1,1,2,0.4c0.8-0.5,1.3-1.3,0.4-2c-0.7-0.6-1.5-1.1-2.4-1.4c-1.7-0.6-3.6-0.6-5.3,0.1
		c-4.2,1.8-5.2,6.8-2.7,10.4c1.2,1.7,3.1,2.9,5.3,3.1c1.6,0.1,5.5-0.4,5.9-2.3C38.5,187.1,37.6,186.4,37.4,186.2"/>
	<path fill="#FFFFFF" d="M50,185.7c0,3.2-7.1,1.4-5.5-2.5c0.7-1.8,4.3-2.9,5.3-0.8C50.2,183.2,50,184.4,50,185.7 M52.5,179.3
		c-0.5-0.4-2.3-0.5-2.5,0.2c-2.2-0.1-4-1.2-6,0.2c-4.1,2.9-2.2,10.1,2.9,10.1c1.1,0,2-0.7,3-0.7c0.1,1.1,3,1.1,2.9-0.3
		c0-1.9-0.2-3.8-0.1-5.6C52.7,182.1,53.4,180.1,52.5,179.3"/>
	<path fill="#FFFFFF" d="M59.9,176.2c-0.3-1.5-1.4-1.3-2.7-1.2c-0.6,0-0.2,10.6-0.3,11.5c0,0.9-0.3,2.3,0.2,3.1
		c1.2,1.4,2.9-0.3,2.8-1.6c-0.1-1.5-0.1-3-0.1-4.5C59.9,181.1,60.3,178.4,59.9,176.2"/>
	<path fill="#FFFFFF" d="M67,183c0-0.9,0.3-2.4,0.1-3.2c-0.3-0.8-2-1.3-2.7-0.7c0,0,0,0,0,0c-0.8,1,0,4.2,0,5.5c0,1.2,0,2.5,0,3.7
		c0,0.3-0.1,1,0.1,1.2c0.2,0.2,1.9,0.2,2.2,0.1c0.8-0.4,0.5-2,0.5-3C67.1,185.4,67,184.2,67,183"/>
	<path fill="#FFFFFF" d="M65.2,177.1c1.5,0.9,2.4-1.5,1.4-2.5c-1.2-1.2-2.6-0.1-2.4,1.1C64.3,176.3,64.6,176.8,65.2,177.1"/>
	<path fill="#FFFFFF" d="M77.5,175.1c-1.1-0.7-3.1-0.4-4,0.4c-0.7,0.6-1.4,2.7-1.3,3.5c0,0-1.2,0-1.2,0c-0.6,0.2-0.4,1.8-0.1,2.1
		c0.5,0.6,1.3-0.2,1.3,1c0,0.5,0,1.1,0,1.7v2.6c0,0.8-0.3,2.3,0,3c0.3,0.7,0.1,0.5,1,0.7c1.4,0.3,1.6,0,1.7-1.1c0.1-1,0-2,0-3
		c0-1.2-0.7-4.2,0.9-4.6c0.6-0.2,1.3,0,2,0c0.1-0.5,0.2-1.2,0-1.7c-0.2-0.6,0.1-0.4-0.5-0.5c-0.6-0.2-2,0.3-2.3-0.2
		c-0.1-0.3,0.4-1.3,0.6-1.4c0.6-0.4,1.7-0.1,2.1-0.3c0,0,0.1-0.1,0.1-0.1C78.2,176.6,77.9,175.4,77.5,175.1"/>
	<path fill="#FFFFFF" d="M83.4,186c-1.7-3.5,3.2-6.1,5.4-3.4c0.5,0.7,0.7,1.4,0.7,2C89.3,187.2,84.8,189,83.4,186 M80.8,182.7
		c-1.2,3.3,1.4,6.7,4.7,7.1c3.2,0.4,6.4-2.1,6.3-5.4c0-1.4-0.6-2.8-1.5-3.8C87.4,177.6,82.2,178.9,80.8,182.7"/>
	<path fill="#FFFFFF" d="M102.6,179.1c-0.2-0.1-0.4-0.2-0.6-0.2c-0.8,0-1.5,0.3-2.1,0.7c-0.3,0.2-0.8,0.8-1.1,0.5
		c-0.1,0-0.1-0.1-0.2-0.3c-0.3-0.6,0.2-0.7-0.6-0.8c-0.5-0.1-1.1,0-1.6-0.1c-0.1,0-0.3,0-0.4,0.1c-0.2,0.1-0.2,0.3-0.2,0.5
		c-0.1,3.2-0.1,6.4-0.1,9.6c0,0.1,0,0.3,0.1,0.4c0.1,0.1,0.2,0.1,0.3,0.1c0.7,0.1,1.4,0.2,2,0c0.1-0.1,0.3-0.1,0.3-0.2
		c0.1-0.1,0.1-0.3,0.1-0.5c0.1-1,0.1-1.9,0.1-2.9c0-0.9-0.1-1.9,0.2-2.7c0.4-0.9,1.5-1.5,2.5-1.4c0.4,0,0.8,0.1,1.1-0.1
		c0.2-0.1,0.3-0.3,0.3-0.5c0.2-0.5,0.2-1,0.1-1.5C102.9,179.5,102.8,179.3,102.6,179.1"/>
	<path fill="#FFFFFF" d="M116.4,183.8c0-0.1,0-0.1,0-0.2c-0.3-2.7-2-4.8-4.9-4.6c-0.9,0.1-1.8,0.4-2.7,0.2c-0.8-0.2-1.9-0.8-2.4,0.3
		c-0.1,0.2-0.1,0.5-0.1,0.8c0,2,0,3.9,0,5.9c0,0.9-0.2,2.2,0,3c0.2,0.7-0.1,0.4,0.5,0.6c0.4,0.1,0.9,0,1.2,0c0.8,0,0.8,0.1,1-0.7
		c0.2-1.1-0.1-2.4-0.2-3.5c0-0.7-0.4-3.1,0.3-3.6c0.9-0.6,2.3-0.9,3.3-0.3c0.6,0.4,0.9,1.1,1.1,1.8c0.2,1.6,0.1,3.1,0,4.7
		c0,0.9-0.3,1.3,0.5,1.5c0.7,0.2,1.9,0.2,2.2-0.4c0.2-0.4,0-1.4,0.1-1.8C116.5,186.2,116.5,185,116.4,183.8"/>
	<path fill="#FFFFFF" d="M120.5,175.9c-0.1,0.4,0.1,0.9,0.7,1.2c1.2,0.7,3.1-0.8,2.1-2C122.2,173.9,120.7,174.9,120.5,175.9"/>
	<path fill="#FFFFFF" d="M122.3,179c-0.5,0-1.1,0-1.5,0.2c0,0-0.1,0-0.1,0.1c-0.2,0.3,0,1.8,0,2.3c0,1.4,0,2.9,0,4.3
		c0,0.8-0.4,2.7,0,3.4c0.3,0.6,1.3,0.4,1.8,0.4c1.2-0.1,0.9-0.6,0.9-1.7c0-1.2,0-2.3,0-3.5c0-1.2,0-2.4,0-3.6
		C123.4,179.8,123.6,179,122.3,179"/>
	<path fill="#FFFFFF" d="M133.6,187.6c-1.5-0.1-3.6-1.6-3.6-3.2c0-2.7,3-3.5,5.1-2.7c0.3,0.1,0.5,0.3,0.7,0.6
		C136.7,183.8,135.7,187.7,133.6,187.6 M138.5,179.1c-0.6,0-1.2-0.3-1.8-0.1c-1.4,0.4-2,0.1-3.4,0c-0.7,0-1.4,0.1-2,0.2
		c-2.6,0.8-4.3,3.4-3.8,6.1c0.3,1.9,1.7,3.5,3.5,4.1c1.6,0.6,3.1,0.3,4.7-0.2c0.4,0.9,2.5,0.5,2.8-0.5c0.2-0.9,0-2.2,0-3.1
		C138.5,183.5,138.8,181.2,138.5,179.1"/>
	<path fill="#FFFFFF" d="M158.3,176c-0.9,0.2-1.2,0.7-1.2,1.7c0,1.9,1.1,11.2-2.9,9.4c-1-0.5-1.5-2-2.8-1.7c-1.4,0.4-1,1.4-0.3,2.4
		c1.1,1.5,3,2.5,4.9,1.9c2.4-0.7,3.9-3.3,3.9-5.7c0-1.7,0-3.4,0-5c0-0.9,0.2-2.2-0.3-2.8C159.4,175.9,159,175.8,158.3,176"/>
	<path fill="#FFFFFF" d="M173.9,179.5c-0.2-0.2-0.4-0.3-0.7-0.4c-2.6-0.3-1.6,3-1.6,4.7c0,2,0.2,3.6-2.4,3.6c-2.6,0-2.6-3.1-2.6-5
		c0-0.6,0.6-2.6,0.3-3c-0.3-0.4-1.7-0.5-2.1-0.3c-0.7,0.3-0.5,0.2-0.6,1.1c-0.2,2.3-0.4,5,0.6,7.2c0.5,1.1,1.3,1.9,2.5,2.2
		c1.5,0.5,2.7-0.3,4.2-0.2c1.4,0.1,2.3,1.1,2.8-0.5c0.3-1,0.2-2.3,0.2-3.3C174.5,184.3,175,180.6,173.9,179.5"/>
	<path fill="#FFFFFF" d="M181.5,179.9c-0.2-0.8,0-0.6-0.9-0.8c-0.9-0.2-1.4-0.2-1.6,0.2c-0.2,0.2-0.2,0.7-0.2,1.3c0,1.1,0,2.3,0,3.4
		c0,1.5-0.4,3.4,0,4.9c0.2,0.9,0.9,1.3,1.9,0.7c0.7-0.4,0.8-1.1,0.9-1.9c0-1.3-0.1-2.7-0.1-4C181.5,182.5,181.7,181,181.5,179.9"/>
	<path fill="#FFFFFF" d="M180.7,175.1c-1-0.7-2.5-0.8-2.2,0.9C179.1,178.8,183.2,176.8,180.7,175.1"/>
	<path fill="#FFFFFF" d="M250.2,175.1c-1-0.7-2.5-0.8-2.2,0.9C248.6,178.8,252.6,176.8,250.2,175.1"/>
	<path fill="#FFFFFF" d="M250.9,179.9c-0.2-0.8,0-0.6-0.9-0.8c-0.9-0.2-1.4-0.2-1.6,0.2c-0.2,0.2-0.2,0.7-0.2,1.3c0,1.1,0,2.3,0,3.4
		c0,1.5-0.4,3.4,0,4.9c0.2,0.9,0.9,1.3,1.9,0.7c0.7-0.4,0.8-1.1,0.9-1.9c0-1.3-0.1-2.7-0.1-4C250.9,182.5,251.2,181,250.9,179.9"/>
	<path fill="#FFFFFF" d="M190.8,181.4c1.1-0.1,1.9,1.2,2.9,1c1.3-0.2,1.6-1.5,0.8-2.3c-3.3-3.2-9.1,0-9.1,4.2c0,3.1,2.9,5.5,5.8,5.5
		c0.9,0,3.2-0.5,3.7-1.5c0.1-0.1,0.1-0.3,0-0.5c-0.6-2.3-2.1-0.5-3.6-0.5C187.5,187.4,187,181.7,190.8,181.4"/>
	<path fill="#FFFFFF" d="M204.6,183.8c-1,0.1-1.9,0.1-2.9-0.1c-0.3-0.1-0.4-0.2-0.5-0.3c-0.3-0.5,0.3-1.5,0.7-2c0.5-0.7,1.2-1,1.9-1
		c0.8,0,1.6,0.3,2.1,1.1c0.2,0.3,0.3,0.9,0.4,1.2C206.7,184,205.2,183.7,204.6,183.8 M208.4,182.4c-0.3-1-0.9-1.8-1.7-2.5
		c-1.6-1.2-3.7-1.4-5.4-0.5c-1.9,0.9-3.1,2.9-3,5c0.2,4.8,6.4,6.8,9.8,3.8c0.2-0.2,0.4-0.4,0.3-0.6c0-0.2-0.3-0.4-0.4-0.5
		c-0.3-0.2-1-0.7-1.4-0.7c-0.4,0-0.7,0.5-1,0.6c-0.4,0.2-0.8,0.3-1.2,0.3c-1.2,0.2-3.6-0.7-3.3-2.3c0.1-0.6,4.4-0.2,4.8-0.2
		c0.8,0,1.9,0.3,2.6,0.1c0.5-0.1,0.4-0.5,0.4-1C208.8,183.6,208.6,183,208.4,182.4"/>
	<path fill="#FFFFFF" d="M229.7,176.8c0-0.5,0-0.6-0.1-0.7c-0.1-0.1-0.2-0.1-0.4-0.2c-0.6-0.3-1.9-0.2-2.3,0.5
		c-0.3,0.7-0.1,2.1-0.1,2.8c0,2,0.4,4.1,0.1,6c-0.2,1.6-1.8,2.5-3.3,1.7c-0.7-0.4-0.7-1.2-1.3-1.6c-0.5-0.4-2.3,0-2.3,0.7
		c0,0.7,0.6,1.5,1,2c0.9,1.1,2.3,1.8,3.8,1.8c2.3,0,4.2-1.6,4.7-3.8c0.5-2.4,0.4-4.9,0.3-7.3C229.8,178,229.8,177.4,229.7,176.8"/>
	<path fill="#FFFFFF" d="M239.2,187.2c-3.7-0.3-4-5.7-0.1-5.8c1.1,0,2.1,0.5,2.7,1.5c0.3,0.5,0.4,1,0.4,1.5
		C242.3,185.9,241,187.4,239.2,187.2 M241.4,179.3c-4.8-1.8-9.9,3.7-6.8,8.1c1.2,1.7,3.6,2.5,5.6,2.2c2.9-0.5,4.5-2.9,4.6-5.3
		C244.9,182.3,243.8,180.2,241.4,179.3"/>
	<path fill="#FFFFFF" d="M265.8,184.3c0-0.2,0-0.4,0-0.6c-0.1-1.6-0.4-3.4-1.9-4.2c-1.8-1.1-3.6-0.5-5.5,0.1
		c-0.1-0.3-0.2-0.4-0.5-0.5c-0.2-0.1-0.6,0-0.8,0c-0.5,0-1-0.1-1.5,0c-0.1,2.1,0,4.3,0,6.4c0,1-0.3,2.6,0,3.5c0.4,1.1,2.5,1,2.7-0.5
		c0.1-1.1,0.1-2.2,0.1-3.3c0-0.8-0.4-2.2-0.1-2.9c0.3-0.9,2.1-1.1,2.9-0.9c1.1,0.3,1.7,1.2,1.7,2.3c0,1.7,0,3.4,0,5.1
		c0,0.8,0.2,0.9,1,0.9c0.3,0,1.4,0.1,1.6-0.2c0.2-0.2,0.1-1.4,0.1-1.8C265.8,186.7,265.8,185.5,265.8,184.3"/>
	<path fill="#FFFFFF" d="M273,181.5c0.1-0.1,0.2-0.2,0.5-0.2c0.2,0,2.3,0.2,2.3,0c0-1.1,0.3-2-1-2.2c-0.4-0.1-1.6,0.2-1.9,0
		c-0.5-0.4-0.1-2.8-0.1-3.4c0-0.8-0.3-0.7-1.1-0.7c-0.3,0-1.1-0.1-1.4,0c-0.4,0.2-0.3,0.5-0.3,1c0,0.8,0.2,1.7,0,2.6
		c-0.1,0.5,0,0.4-0.5,0.6c-0.3,0.1-0.8,0-1.1,0v2.2c0-0.2,1.2,0.1,1.4,0.3c0.3,0.3,0.1,1,0.1,1.4c-0.1,1-0.1,2,0,3
		c0.2,1.8,1,3.7,3.1,3.8c0.5,0,2.4,0.1,2.6-0.4c0-0.1,0-0.1,0-0.2c0-0.3,0.2-1.4,0-1.6c-0.3-0.4-1.2,0-1.6-0.1
		c-1.1-0.1-1.2-1.1-1.3-2c-0.1-1.2-0.3-2.5,0-3.7C272.9,181.7,272.9,181.5,273,181.5"/>
</g>
</svg>
