<?xml version="1.0" encoding="utf-8"?>
<!-- Generator: Adobe Illustrator 18.0.0, SVG Export Plug-In . SVG Version: 6.00 Build 0)  -->
<!DOCTYPE svg PUBLIC "-//W3C//DTD SVG 1.1//EN" "http://www.w3.org/Graphics/SVG/1.1/DTD/svg11.dtd">
<svg version="1.1" id="Layer_1" xmlns="http://www.w3.org/2000/svg" xmlns:xlink="http://www.w3.org/1999/xlink" x="0px" y="0px"
	 viewBox="0 0 190 115" enable-background="new 0 0 190 115" xml:space="preserve">
<g>
	<path fill="#476AB1" d="M107.4,90.9c0,0.6,0,1.2,0.2,1.9c0.2,0.9,1,1.7,2,1.8c0.6,0,1.7-0.4,1.7-2c0-0.8-0.1-1.5-0.3-2.2
		c-0.3-1.4-0.9-2.8-1.3-3.8c-1.1-2.6-2.8-4.7-4.9-6.3c-1.1-0.8-2.4-1.2-3.6-1.6l-0.2-0.1c-1.7-0.5-3.5-1-5.4-1c-2,0-4,0.4-5.5,0.7
		c-1.2,0.3-2.5,0.8-3.6,1.7c-1.2,0.8-2.1,1.6-3,2.4c-1.3,1.2-2.2,2.4-2.8,3.7c-0.7,1.5-1,3.2-1.2,4.5c-0.1,0.9-0.2,1.8-0.3,2.7
		c0,0.2,0,0.7,0.3,1.2c0.4,0.6,1,0.7,1.3,0.7c0.4,0,0.8-0.2,1.1-0.5c0.5-0.5,0.6-1.2,0.6-1.6c-0.1-1.9,0.3-3.8,1-5.4
		c0.4-1,1-1.9,1.7-2.6c0.4-0.4,0.7-0.7,1.1-1c0.3-0.2,0.5-0.4,0.8-0.7c0.2-0.1,0.3-0.3,0.5-0.4c1-0.7,1.8-1.3,2.7-1.6
		c0.8-0.3,1.8-0.4,2.7-0.5l0.4-0.1c1.1-0.1,2.3-0.3,3.3-0.1c4,0.5,7,2.1,8.9,4.9c1.1,1.5,1.6,2.9,1.8,4.3
		C107.4,90.4,107.4,90.6,107.4,90.9L107.4,90.9z"/>
	<path fill="#476AB1" d="M184.7,108.5c-2.3-1-4.8-1.7-7.2-2.3c-2.4-0.6-4.6-0.8-6.6,0.7c-1.7,1.3-3.1,2.8-5.3,3.3
		c-5.8,1.6-9.4-3.2-14.3-5c-2.6-1-5.6-0.5-8.2,0.3c-2.6,0.8-4.5,2.6-7,3.4c-5.5,1.8-11.9-0.9-17-2.8c-7.9-3.1-15.8,8.5-23.4,2.2
		c-1.7-1.4-3.6-2.3-5.8-2.7c-2.2-0.4-3.5,0.3-5.6,1c-2.6,0.9-5.1,2.3-7.9,2.5c-2.8,0.2-5.1-1.7-7.5-2.9c-3.6-1.8-8.4-2.8-12.3-1
		c-3.4,1.6-5.7,3.3-9.7,3.3c-1.2,0-2.4-0.1-3.5-0.4c-3.3-0.9-6.1-3.8-9.5-3.6c-2.6,0.2-4.6,2.1-6.7,3.4c-3.7,2.2-8.8,2.8-12.3,0.4
		c-0.8-0.5-1.5-1.2-2.3-1.7c-2.5-1.3-5.6-0.3-8,1c-0.5,0.2-1.5,1-2,1.7c-0.4,0.6-0.6,1.1,0,1.5c0.6,0.4,2.6-0.7,3.2-1
		c1.5-0.7,2.9-1.1,4.6-0.8c2.1,0.5,3.8,1.7,5.8,2.5c2.3,0.9,4.8,1.1,7.2,0.7c4.5-0.9,8.6-4.1,13.1-3.2c1.8,0.4,3.4,1.4,5.1,1.9
		c3,0.9,6.2,0.3,9.1-0.6c2.9-0.9,5.8-2.1,8.9-2.5c1.6-0.2,3.4-0.2,5,0.3c1.5,0.4,2.4,1.5,3.7,2c1.8,0.8,4.7,0.9,6.7,0.9
		c1.9,0,4.4-0.3,6.9-1.5c4.7-2.3,10.7,0.5,15.2,2c1.5,0.5,3.1,0.5,4.6,0.5c7.5,0,13.9-4.3,21.6-2.4c4.3,1.1,7.8,2.8,12.3,1.5
		c4.8-1.4,11.4-3.7,16.4-1.9c4,1.4,6.1,4.9,10.9,4.4c3.5-0.4,6.7-3,9.9-3.7c1.3-0.3,2.6,0,3.9,0.2c1.8,0.3,3.6,0.9,5.4,1.3
		c1.1,0.3,2.2,0.7,3.4,0.8c1.2,0.1,2.6-0.6,2.1-1.9C187.3,109.4,185.5,108.8,184.7,108.5z"/>
	<path fill="#476AB1" d="M97.6,34.8c-7.7,0-15.3,1.4-21,2.7c-4.3,0.9-8.7,2.9-12.9,6c-3.9,2.8-8,5.8-11.7,9.3
		C47.4,57,44,61.4,41.7,66c-2.7,5.4-3.8,11.7-4.5,16.6c-0.5,3.5-0.8,8.3-1.1,11.7c0,0.4-0.1,1,0.3,1.6c0.4,0.5,0.8,0.8,1.3,0.8
		c0.3,0,0.6-0.1,1-0.5c0.8-0.8,1.1-2.4,1.1-2.9c-0.2-8.4,1.3-17.7,4.3-24.6c2-4.4,4.6-8.4,7.9-11.8c1.6-1.7,3.4-3.2,5.3-4.6
		c1-0.7,2-1.5,2.9-2.3l0.1-0.1c0.7-0.6,1.5-1.3,2.3-1.9c4.2-3.2,7.9-5.6,12.1-6.9c3.8-1.2,7.9-1.7,11.9-2.2l1.6-0.2
		c3.5-0.5,6.7-0.8,9.9-0.8c1.6,0,3,0.1,4.4,0.3c4.9,0.7,9.6,2,14,3.4l0.5,0.1c1.7,0.5,3.5,1.1,5.3,1.7c0.5,0.2,1,0.3,1.6,0.5
		c0.8,0.2,1.7,0.5,2.3,0.8c3.9,1.9,7.3,5.5,10.7,9.3c3.4,3.8,6.2,7.8,8.4,12.1c2.7,5.1,4.6,10.6,5.6,16.3c0.5,2.8,0.8,6.9,0.9,9.7
		c0,0.2-0.1,0.6-0.1,1c-0.2,1-0.4,2.1,0.2,2.9c0.2,0.3,0.6,0.6,0.9,0.7c0.2,0.1,0.4,0.1,0.5,0.1c0.9,0,1.7-0.8,1.8-1.8
		c0.7-11.6-3.5-26.4-11.4-37.6c-3.9-5.6-8-10-12.1-13c-3.9-2.9-8.5-4.3-12.9-5.7l-0.8-0.2c-6.6-2.1-13.1-3.9-20-3.9L97.6,34.8z"/>
	<path fill="#476AB1" d="M134.1,72.9c2.1,3.9,3.5,8,4.3,12.4c0.3,1.8,0.7,11.6,2.5,11.6c1.1,0,1.9-0.9,2-1.9c0.6-9-2.8-19.6-9-28.3
		c-3.1-4.4-6.3-7.8-9.6-10.1c-3.1-2.3-6.8-3.4-10.3-4.4l-0.6-0.2c-5.2-1.6-10.3-3-15.8-3l-0.2,0c-6.1,0-12,1.1-16.6,2.1
		c-3.5,0.7-6.9,2.3-10.3,4.7c-3.1,2.2-6.3,4.5-9.2,7.2c-3.7,3.4-6.4,6.8-8.2,10.4c-2.1,4.3-3,9.2-3.6,12.9c-0.4,2.7-0.7,5.4-0.9,8.1
		c0,0.3-0.1,1,0.4,1.6c0.5,0.7,1.1,0.8,1.5,0.8c0.3,0,0.8-0.1,1.2-0.5c0.8-0.8,1-2.3,1-2.7c-0.2-6.4,1-13.5,3.3-18.7
		c1.5-3.3,3.5-6.3,6-8.9c1.2-1.3,2.6-2.4,4-3.4c0.8-0.6,1.6-1.2,2.4-1.9c0.6-0.5,1.2-1,1.8-1.4c3.2-2.4,6.1-4.2,9.3-5.2
		c2.9-0.9,6.1-1.3,9.2-1.7l1.3-0.2c2.7-0.3,5.2-0.6,7.7-0.6c1.2,0,2.3,0.1,3.3,0.2c3.8,0.5,7.5,1.5,10.8,2.6l0.3,0.1
		c1.4,0.4,2.8,0.8,4.1,1.3c0.4,0.1,0.8,0.3,1.2,0.4c0.6,0.2,1.2,0.4,1.7,0.6c3,1.4,5.6,4.1,8.2,7C130.2,66.6,132.4,69.7,134.1,72.9z
		"/>
	<path fill="#476AB1" d="M117.9,77.9c1.4,1.9,2.8,3.9,3.6,6.2c0.8,2.2,1.1,6.3,1.4,8.6c0.1,1.1,0.3,4,1.9,4c0.3,0,1.9,0.7,2-1.8
		c0-1.4-0.1-5.4-0.5-6.7c-0.6-2.7-1.7-5.2-2.6-7.3c-2.2-4.9-5.5-9.1-9.5-12c-2.1-1.5-4.5-2.3-6.9-3l-0.4-0.1c-3.4-1.1-6.8-2-10.4-2
		l-0.2,0c-4,0-7.9,0.7-10.9,1.4c-2.3,0.5-4.7,1.6-6.9,3.2c-2,1.4-4.1,3-6,4.7c-2.5,2.3-4.2,4.6-5.5,7c-1.4,2.9-2,6.1-2.4,8.6
		c-0.2,1.8-0.4,4.2-0.6,6c0,0.3-0.1,0.9,0.4,1.5c0.5,0.6,1.1,0.8,1.5,0.8c0.5,0,0.9-0.2,1.2-0.5c0.6-0.7,0.8-1.8,0.8-2.2
		c-0.1-4.1,0.6-8.6,2.1-11.9c1-2.1,2.2-4,3.8-5.6c0.8-0.8,1.6-1.5,2.5-2.2c0.6-0.4,1.1-0.8,1.6-1.2l0,0c0.4-0.3,0.7-0.6,1.1-0.9
		c2.1-1.5,3.8-2.7,5.9-3.3c1.8-0.6,3.9-0.8,5.8-1.1l0.8-0.1c1.5-0.2,3.3-0.4,5-0.4c0.7,0,1.4,0,2,0.1
		C107.3,68.7,113.7,72.1,117.9,77.9z"/>
	<path fill="#476AB1" d="M18.3,95.9c0.8,0,1.4,0.1,1.7,0.1l1.2,0.1c1,0.1,2,0.1,3,0.2c0.2,0,0.4,0,0.5,0c0.3,0,0.6,0.1,0.9,0
		c1-0.1,1.2-1.1,1.3-1.7c0.2-1.2,0.5-2.6-0.2-3.6c-0.4-0.6-1-0.9-1.9-1c-0.5-0.1-1,0-1.6,0c-0.6,0.1-1.4,0.2-1.7-0.1
		c-0.4-0.3-0.3-1.1-0.1-2.1c0.1-0.4,0.1-0.7,0.2-1c0.4-5.6-2.3-9.8-7-10.9c-1.2-0.3-2.4-0.3-3.6-0.2c-2.8,0.4-5.2,2-6.5,4.4
		c-0.7,1.3-1.2,2.7-1.5,4.4c-0.6,3.2-0.5,6.6-0.3,9.5C2.8,95,2.8,95.2,18.3,95.9z M9.4,84.4c0.7-1.4,1.6-2.2,2.7-2.4
		c0.4-0.1,0.8,0,1.3,0.1c1.9,0.6,3,3.2,3.3,5.4c0.1,1,0,2.2-1,2.7c-0.2,0.1-0.4,0.1-0.7,0.2c-0.7,0.1-1.5,0-2.4-0.1
		c-0.6-0.1-1.3-0.1-1.9-0.1l-0.3,0c-0.9,0-1.5,0-1.9-0.4C7.9,89.1,8.6,86.1,9.4,84.4z"/>
	<path fill="#476AB1" d="M16.6,67.3c1.3,0.6,2.7,0.9,4.1,0.9c10.9,0,17.4-17.3,7.9-23.6c-0.2-0.2-0.5-0.3-0.8-0.5
		c-7.8-4.4-17-0.3-19,8.5C7.8,57.6,9.3,64,16.6,67.3z M14.6,54.5c0.4-3.1,3.3-5.5,6.6-5.5c1,0,2,0.2,2.9,0.7c2,1.1,3.1,3.1,3.1,5.4
		c0,2.6-1.5,5-3.7,6.2C22.7,61.8,21.8,62,21,62h0c-1.7,0-3.4-0.8-4.7-2.3C15,58.3,14.4,56.4,14.6,54.5z"/>
	<path fill="#476AB1" d="M29.5,30.6c1.9,2.2,4.1,5,6,7.4l1.2,1.6c1.6,2.1,2.5,3.2,3.4,4.3c0.5,0.5,1.2,1.3,2.2,1.3
		c0.7,0,1.5-0.3,2.3-1c0.6-0.5,1.7-1.5,1.2-3c-0.3-0.9-0.9-1.5-1.5-2c-0.7-0.7-1.1-1.1-1.1-1.8c0-0.9,1.9-1.9,2.9-2
		c0.3,0,0.6,0,1,0.1c0.5,0.1,1.1,0.3,1.7,0.6c1.3,0.5,2.7,1,4,1c1.3,0,2.4-1,3.2-1.8c0.3-0.3,0.6-0.5,0.8-0.7
		c0.7-0.5,0.6-1.1,0.5-1.4C56.9,31.6,52,31,52,31c-0.1,0-0.3,0-0.4,0c-1-0.1-1.1-0.2-1.1-0.4c0-0.5,0.1-1,0.1-1.5
		c0.1-0.6,0.1-1.2,0.1-1.8c0-1.7-0.6-3.5-1.6-5c-2-2.9-5.3-4.6-8.3-4.2c-2.5,0.3-4.7,1.9-6.8,3.3c-0.8,0.5-1.5,1-2.2,1.5l-0.3,0.2
		c-1.3,0.8-2.7,1.6-3.5,3.1c-1,1.8,0.2,3.1,1.1,3.9C29.2,30.3,29.4,30.4,29.5,30.6z M35.4,27.5c0.4-0.6,1.4-1.3,2.2-1.8l0.4-0.3
		c1.1-0.7,2.1-1.1,3.1-1.1c0.2,0,0.5,0,0.7,0.1c1.1,0.3,1.9,0.8,2.2,1.6c0.4,0.8,0.4,1.8-0.1,3c-0.6,1.5-2.8,4.6-3.9,4.6
		c0,0,0,0-0.1,0c0,0-0.2,0-0.3-0.2c-0.4-0.5-0.8-1-1.2-1.6c-0.2-0.2-0.4-0.5-0.6-0.7c-0.2-0.3-0.5-0.6-0.8-0.9
		C36.4,29.5,35.1,28,35.4,27.5z"/>
	<path fill="#476AB1" d="M58,12.4l0.7,2.2c0.4,1.2,0.7,2.3,1.1,3.5c1.1,3.4,2.4,7.4,3.8,11.4c0.1,0.3,0.4,0.5,0.7,0.5
		c0.1,0,0.1,0,0.2,0l0.3-0.1c1.6-0.2,3.3-0.6,4.1-1.7c0.3-0.4,0.4-1,0.3-1.5c-0.1-0.5-0.3-0.9-0.4-1.4c-0.1-0.2-0.1-0.4-0.2-0.6
		l-0.1-0.3c-0.4-1.2-0.5-1.6,0.1-2.1c0.7-0.6,2-1,2.9-0.8c0,0,0.1,0,0.1,0c0.7,0.2,1.3,0.7,1.9,1.2c0.3,0.2,0.5,0.4,0.8,0.6
		c0.1,0.1,0.2,0.2,0.4,0.4c1.7,1.4,2.3,1.8,2.8,1.8c0.1,0,0.2,0,0.3,0c0.1,0,0.5-0.1,0.9-0.2c2.9-0.6,4.1-1,4.3-2
		c0.3-1.2-1.4-2.3-3.7-3.6c-0.3-0.2-0.5-0.3-0.6-0.4c-0.3-0.2-0.7-0.3-1-0.5c-0.5-0.2-0.7-0.3-0.8-0.5c0-0.1,0-0.3,0.1-0.5
		c0.2-0.3,0.4-0.6,0.5-0.8c0.6-0.9,1.2-1.8,1.4-3.2c0.4-2.4-0.2-5-1.7-7.1c-1.6-2.2-4.2-3.5-7.2-3.6c-1.1,0-2.3,0.1-3.4,0.4
		c-0.9,0.3-1.8,0.6-2.6,0.8c-1.1,0.4-2.1,0.7-3.2,1c-0.2,0.1-0.5,0.1-0.8,0.1C59,6,57.6,6.3,56.9,7.3c-0.6,1.1,0.1,2.8,0.7,4.2
		C57.8,11.9,57.9,12.2,58,12.4z M64.2,10.6c0.5-1,2.3-1.6,4.5-1.5c1.2,0,2.4,0.3,3,0.7c1.4,0.9,1.9,2.3,1.5,3.7
		c-0.6,2-4.3,4.4-6.5,4.4c-0.1,0-0.2,0-0.3,0c-0.6-0.3-1-2.4-1.2-3.3c-0.1-0.5-0.2-0.9-0.3-1.1c-0.1-0.2-0.2-0.5-0.3-0.7
		C64.3,11.9,64,11,64.2,10.6z"/>
	<path fill="#476AB1" d="M101.3,24.9c3.9,0,7.2-1.6,9.4-4.4c1.5-1.9,2.4-4.3,2.5-6.7c0.2-2.7-0.6-5.4-2.1-7.5
		c-0.5-0.7-1-1.3-1.6-1.8c-2.3-2-5.4-3.1-8.7-3.1c-4.9,0-10.7,2.5-12.5,8.2c-1.1,3.4-0.6,6.9,1.5,9.7
		C92.2,22.7,96.8,24.9,101.3,24.9z M94.7,11.1c0.8-2,2.3-3.5,4.1-4.1c0.6-0.2,1.1-0.3,1.7-0.3c1.6,0,3.2,0.7,4.4,2
		c1.3,1.3,2,3.1,1.9,4.7c0,0.7-0.2,1.3-0.4,1.9c-1.1,2.7-3.9,3.9-6.3,3.9h0c-2.2,0-4.1-1-5.1-2.7C94.1,15,93.9,13,94.7,11.1z"/>
	<path fill="#476AB1" d="M130.8,33.5C130.8,33.5,130.9,33.5,130.8,33.5c0.8,0,1.5-0.5,1.9-0.9c0.1-0.1,0.2-0.2,0.4-0.3
		c2.2-1.6,4.6-3.2,6.8-4.8c1.9-1.3,3.8-2.6,5.6-3.9c1.1-0.8,2.1-1.5,3.1-2.3c0.1-0.1,0.4-0.3,0.7-0.4c1.2-0.7,2-1.3,2.3-1.9
		c0.5-1.3-0.8-2.2-1.5-2.7c-0.1-0.1-0.2-0.2-0.3-0.3c-1-0.8-2-1.1-2.9-0.9c-1.3,0.2-2.4,1.2-3.5,2.1c-0.2,0.2-0.5,0.4-0.7,0.6
		c-0.4,0.3-0.7,0.6-1.1,0.9c-0.9,0.7-1.7,1.4-2.6,2.2c-0.2,0.2-0.5,0.5-0.7,0.7c-0.9,1-1.8,1.9-3,2.3c-0.1,0-0.2,0.1-0.2,0.1
		c-0.1-0.2-0.1-0.9,0-2c0-0.2,0-0.3,0-0.4l0.3-3.8c0.1-0.8,0.2-1.7,0.3-2.5c0.2-1.7,0.4-3.5,0.4-5.2c0-1.9-2.2-3.6-3.9-3.6
		c-1.2,0-2,0.7-2.3,2c-0.2,1.2-0.2,2.3-0.2,3.5c0,0.7,0,1.4,0,2.1c-0.1,1.5-0.2,3.1-0.3,4.6l-0.2,2.3c0,0.5-0.1,1-0.1,1.6
		c-0.1,1.9-0.2,3.9-0.6,5.7l-0.1,0.3c-0.2,1-0.4,2.4,0.2,3.4C129.1,32.9,130.1,33.5,130.8,33.5z"/>
	<path fill="#476AB1" d="M149,37.4c-1.4,1.2-2.7,2.5-4,3.8c-0.1,0.2-0.4,0.4-0.5,0.8c-0.4,1.3,1.1,2.5,2.1,3.3
		c0.1,0.1,0.2,0.2,0.3,0.2c0.3,0.3,0.7,0.5,1.2,0.6c0,0,0.1,0,0.1,0c0.6,0,1.1-0.3,1.5-0.7c2.4-2.1,4.7-4.4,6.9-6.5
		c2.4-2.3,4.8-4.7,7.3-6.9c0.4-0.3,0.8-0.7,1-1.2c0.2-0.4,0.3-1.1-0.3-2c-0.6-1.1-2.1-2.5-3.2-2.7c0,0-0.1,0-0.1,0
		c-0.8,0-1.5,0.6-2.2,1.3c-0.1,0.1-0.1,0.1-0.2,0.2c-0.6,0.5-1.1,1.1-1.6,1.6c-0.5,0.5-1,1.1-1.5,1.5l-4.8,4.6
		C150.5,36.1,149.7,36.8,149,37.4z"/>
	<path fill="#476AB1" d="M170.1,46.3c0.5,0.9,1.5,2.4,1,2.9c-1.7,1.7-4.3,2.6-6.8,3.4c-1.6,0.5-3.3,1.1-4.7,1.8
		c-0.3,0.2-0.7,0.3-1.1,0.5c-1.1,0.5-2.4,1-3.1,2c-0.6,0.8-0.2,1.6,0,2.1c0,0.1,0.1,0.2,0.1,0.3l0.1,0.2c0.4,1,0.8,2.3,2.1,2.7
		c0.2,0.1,0.3,0.1,0.5,0.1c0.8,0,1.5-0.4,2-0.8c0.2-0.1,0.3-0.2,0.5-0.3c3.2-1.6,6.3-3.3,9.5-4.9c0.3-0.2,0.6-0.3,0.9-0.5
		c1-0.5,1.9-1.1,2.6-1c0.3,0,0.8,0.2,1.4,1.2l1.4,2.6c0.3,0.6,0.6,1.2,1.2,1.4c0.4,0.2,0.9,0.1,1.6-0.2c0.7-0.3,1.9-0.9,2.3-1.9
		c0.2-0.5,0.2-1-0.1-1.5c-0.2-0.4-0.4-0.8-0.6-1.2c-0.1-0.2-0.2-0.4-0.3-0.7c-0.5-0.9-0.9-1.8-1.4-2.7l-1.2-2.4
		c-0.4-0.7-0.7-1.5-1.1-2.3c-0.9-2.1-1.9-4.2-3.3-5.8c-0.3-0.4-0.9-0.9-1.6-0.9c-0.7,0-1.4,0.4-2,0.9c-1.8,1.4-0.9,3.3-0.5,3.9
		C169.7,45.7,169.8,46,170.1,46.3z"/>
	<path fill="#476AB1" d="M170.8,73.9c-0.6-0.2-1.3-0.5-1.9-0.7c-0.3-0.1-0.6-0.2-0.9-0.3c-1.3-0.5-2.7-1.1-4.2-1
		c-0.4,0-1.1,0.1-1.5,0.6c-0.4,0.5-0.3,1.2-0.2,2l0,0.2c0.1,0.5,0.2,0.9,0.3,1.4c0.1,0.5,0.2,0.9,0.3,1.3c0.2,1.1,1.6,1.3,3.2,1.5
		c0.5,0.1,1.3,0.2,1.5,0.3c0.6,0.5,0.7,1.5,0.8,2.5c0,0.4,0.1,0.8,0.1,1.2c0.1,0.5,0.2,1,0.3,1.5c0.3,1.4,0.6,2.7,0.2,4
		c-0.1,0.3-0.2,0.4-0.4,0.6c-0.3,0.2-0.7,0.3-1.1,0.5c-1,0.3-2.2,0.8-2.6,2.1c-0.2,0.7,0,1.5,0.1,2.3c0,0.2,0.1,0.4,0.1,0.6l0,0.3
		c0.1,0.7,0.3,2.1,1.7,2.1c0.1,0,0.1,0,0.2,0c1.1-0.1,2-1,2.9-1.8c0.4-0.3,0.7-0.7,1-0.8c1.8-1.2,3.7-2.4,5.5-3.7l3.2-2.1
		c1.4-1,2.9-1.9,4.3-2.9c0.1-0.1,0.3-0.2,0.6-0.4c2.9-1.6,3.4-2,3.4-2.7c0,0,0,0,0-0.1l0-0.2c-0.2-1.7-0.3-2.5-2.3-3.3
		c-0.7-0.3-1.5-0.5-2.2-0.6c-0.5-0.1-1-0.2-1.5-0.4l-7.1-2.2C173.4,74.9,172,74.4,170.8,73.9z M177.8,82c0.4,0.1,0.7,0.1,1.1,0.2
		c-0.3,0.2-0.5,0.3-0.8,0.5c-0.3,0.2-0.6,0.3-0.8,0.5c-0.1,0.1-0.3,0.2-0.6,0.4c-0.5,0.4-2.1,1.4-2.8,1.6c-0.1-0.3-0.3-0.8-0.3-1
		c0-0.1-0.1-0.2-0.1-0.3c-0.3-0.8-0.9-2.4-0.2-2.9c0,0,0,0,0.1,0c0.1,0,0.2,0,0.5,0.1l2.8,0.8C177,81.8,177.4,81.9,177.8,82z"/>
</g>
</svg>
