<?xml version="1.0" encoding="utf-8"?>
<!-- Generator: Adobe Illustrator 19.0.0, SVG Export Plug-In . SVG Version: 6.00 Build 0)  -->
<!DOCTYPE svg PUBLIC "-//W3C//DTD SVG 1.1//EN" "http://www.w3.org/Graphics/SVG/1.1/DTD/svg11.dtd">
<svg version="1.1" id="Layer_1" xmlns="http://www.w3.org/2000/svg" xmlns:xlink="http://www.w3.org/1999/xlink" x="0px" y="0px"
	 viewBox="0 0 308.5 13.1" enable-background="new 0 0 308.5 13.1" xml:space="preserve">
<g id="XMLID_4_">
	<defs>
		<rect id="XMLID_1_" x="0" width="308.5" height="13.1"/>
	</defs>
	<clipPath id="XMLID_18_">
		<use xlink:href="#XMLID_1_"  overflow="visible"/>
	</clipPath>
	<path id="XMLID_2_" clip-path="url(#XMLID_18_)" fill="#4769B2" d="M303.5,5.8c-3.8-1.4-7.9-2.4-12-3.2c-4-0.8-7.7-1.1-11,1
		c-2.8,1.8-5.2,3.9-8.8,4.7c-9.7,2.2-14.7-3.6-22.8-6.1c-4.3-1.4-9.3-0.7-13.7,0.5c-4.3,1.1-8.5,2.8-12.6,3.9
		c-9.2,2.5-19.9-1.2-28.3-4c-13.1-4.3-26.3,12-39,3.1c-2.8-2-6-3.2-9.7-3.7c-3.6-0.5-5.9,0.5-9.2,1.5c-4.3,1.3-8.5,3.3-13.2,3.6
		c-4.6,0.3-8.5-2.4-12.4-4.1c-6-2.6-14-3.9-20.4-1.4C84.8,3.6,81.1,6,74.4,5.9c-1.9,0-3.9-0.1-5.8-0.5c-5.5-1.2-10.3-4-16.1-3.6
		c-4.3,0.2-7.4,1.5-11,3.4c-6.1,3.1-14.6,3.9-20.4,0.5c-1.3-0.8-2.5-1.7-3.9-2.3C13.2,1.5,8,2.9,3.9,4.7C3.2,5.1,1.5,6.1,0.6,7.1
		c-0.7,0.8-0.9,1.6,0.1,2.1c1,0.5,4.3-1,5.3-1.4c2.5-1,4.9-1.6,7.7-1.1c3.4,0.7,6.3,2.4,9.6,3.5c3.8,1.3,8,1.6,12.1,0.9
		c7.4-1.2,14.4-5.8,21.8-4.6c3,0.5,5.6,1.9,8.6,2.7c4.9,1.2,10.2,0.4,15.2-0.9c4.9-1.3,9.7-2.9,14.8-3.5c2.7-0.3,5.6-0.2,8.2,0.4
		c3.2,0.8,6,2.9,9.2,3.8c8.9,2.5,16.4,0.4,24.6-3c7.8-3.2,12.8,1.8,20.2,3.9c2.5,0.7,5.2,0.7,7.7,0.7c12.4,0,17.2-8,30-5.4
		c7.2,1.5,19,5.9,26.4,4.1c8-2,19-5.3,27.3-2.7c6.6,2,10.2,7,18.1,6.2c5.8-0.6,12.2-5.5,17.7-6.5c3.5-0.7,7.2,0.1,10.5,1
		c2.9,0.9,6.3,3.2,9.4,3.5c2,0.1,4.3-0.8,3.4-2.7C307.7,7.1,304.8,6.2,303.5,5.8"/>
</g>
</svg>
